%TF.GenerationSoftware,KiCad,Pcbnew,10.0.1*%
%TF.CreationDate,2026-06-02T10:42:23+02:00*%
%TF.ProjectId,ESP32-sensor-board,45535033-322d-4736-956e-736f722d626f,rev?*%
%TF.SameCoordinates,Original*%
%TF.FileFunction,Copper,L1,Top*%
%TF.FilePolarity,Positive*%
%FSLAX46Y46*%
G04 Gerber Fmt 4.6, Leading zero omitted, Abs format (unit mm)*
G04 Created by KiCad (PCBNEW 10.0.1) date 2026-06-02 10:42:23*
%MOMM*%
%LPD*%
G01*
G04 APERTURE LIST*
G04 Aperture macros list*
%AMRoundRect*
0 Rectangle with rounded corners*
0 $1 Rounding radius*
0 $2 $3 $4 $5 $6 $7 $8 $9 X,Y pos of 4 corners*
0 Add a 4 corners polygon primitive as box body*
4,1,4,$2,$3,$4,$5,$6,$7,$8,$9,$2,$3,0*
0 Add four circle primitives for the rounded corners*
1,1,$1+$1,$2,$3*
1,1,$1+$1,$4,$5*
1,1,$1+$1,$6,$7*
1,1,$1+$1,$8,$9*
0 Add four rect primitives between the rounded corners*
20,1,$1+$1,$2,$3,$4,$5,0*
20,1,$1+$1,$4,$5,$6,$7,0*
20,1,$1+$1,$6,$7,$8,$9,0*
20,1,$1+$1,$8,$9,$2,$3,0*%
G04 Aperture macros list end*
%TA.AperFunction,ComponentPad*%
%ADD10O,1.050000X2.100000*%
%TD*%
%TA.AperFunction,SMDPad,CuDef*%
%ADD11R,0.200000X1.000000*%
%TD*%
%TA.AperFunction,ComponentPad*%
%ADD12C,0.650000*%
%TD*%
%TA.AperFunction,SMDPad,CuDef*%
%ADD13R,0.300000X1.200000*%
%TD*%
%TA.AperFunction,SMDPad,CuDef*%
%ADD14RoundRect,0.250000X-0.250000X-0.475000X0.250000X-0.475000X0.250000X0.475000X-0.250000X0.475000X0*%
%TD*%
%TA.AperFunction,SMDPad,CuDef*%
%ADD15C,1.000000*%
%TD*%
%TA.AperFunction,SMDPad,CuDef*%
%ADD16RoundRect,0.250000X0.450000X-0.262500X0.450000X0.262500X-0.450000X0.262500X-0.450000X-0.262500X0*%
%TD*%
%TA.AperFunction,SMDPad,CuDef*%
%ADD17R,1.000000X1.400000*%
%TD*%
%TA.AperFunction,SMDPad,CuDef*%
%ADD18RoundRect,0.100000X-0.495000X-0.100000X0.495000X-0.100000X0.495000X0.100000X-0.495000X0.100000X0*%
%TD*%
%TA.AperFunction,SMDPad,CuDef*%
%ADD19R,1.400000X1.600000*%
%TD*%
%TA.AperFunction,SMDPad,CuDef*%
%ADD20R,0.300000X0.300000*%
%TD*%
%TA.AperFunction,SMDPad,CuDef*%
%ADD21R,0.900000X0.300000*%
%TD*%
%TA.AperFunction,SMDPad,CuDef*%
%ADD22R,0.300000X0.900000*%
%TD*%
%TA.AperFunction,SMDPad,CuDef*%
%ADD23R,1.800000X1.800000*%
%TD*%
%TA.AperFunction,SMDPad,CuDef*%
%ADD24RoundRect,0.250000X-0.450000X0.262500X-0.450000X-0.262500X0.450000X-0.262500X0.450000X0.262500X0*%
%TD*%
%TA.AperFunction,ComponentPad*%
%ADD25R,1.700000X1.700000*%
%TD*%
%TA.AperFunction,ComponentPad*%
%ADD26C,1.700000*%
%TD*%
%TA.AperFunction,SMDPad,CuDef*%
%ADD27RoundRect,0.250000X-0.262500X-0.450000X0.262500X-0.450000X0.262500X0.450000X-0.262500X0.450000X0*%
%TD*%
%TA.AperFunction,SMDPad,CuDef*%
%ADD28R,2.810000X0.910000*%
%TD*%
%TA.AperFunction,SMDPad,CuDef*%
%ADD29RoundRect,0.250000X0.262500X0.450000X-0.262500X0.450000X-0.262500X-0.450000X0.262500X-0.450000X0*%
%TD*%
%TA.AperFunction,SMDPad,CuDef*%
%ADD30R,0.800000X1.100000*%
%TD*%
%TA.AperFunction,SMDPad,CuDef*%
%ADD31R,1.000000X1.100000*%
%TD*%
%TA.AperFunction,SMDPad,CuDef*%
%ADD32RoundRect,0.250000X0.475000X-0.250000X0.475000X0.250000X-0.475000X0.250000X-0.475000X-0.250000X0*%
%TD*%
%TA.AperFunction,SMDPad,CuDef*%
%ADD33R,1.400000X1.000000*%
%TD*%
%TA.AperFunction,SMDPad,CuDef*%
%ADD34RoundRect,0.250000X-0.475000X0.250000X-0.475000X-0.250000X0.475000X-0.250000X0.475000X0.250000X0*%
%TD*%
%TA.AperFunction,SMDPad,CuDef*%
%ADD35R,1.000000X1.500000*%
%TD*%
%TA.AperFunction,SMDPad,CuDef*%
%ADD36R,0.700000X1.500000*%
%TD*%
%TA.AperFunction,SMDPad,CuDef*%
%ADD37R,1.500000X2.800000*%
%TD*%
%TA.AperFunction,ComponentPad*%
%ADD38C,1.208000*%
%TD*%
%TA.AperFunction,SMDPad,CuDef*%
%ADD39RoundRect,0.250000X0.250000X0.475000X-0.250000X0.475000X-0.250000X-0.475000X0.250000X-0.475000X0*%
%TD*%
%TA.AperFunction,SMDPad,CuDef*%
%ADD40R,2.150000X0.950000*%
%TD*%
%TA.AperFunction,SMDPad,CuDef*%
%ADD41R,2.150000X3.250000*%
%TD*%
%TA.AperFunction,SMDPad,CuDef*%
%ADD42R,1.230000X1.800000*%
%TD*%
%TA.AperFunction,SMDPad,CuDef*%
%ADD43RoundRect,0.150000X0.512500X0.150000X-0.512500X0.150000X-0.512500X-0.150000X0.512500X-0.150000X0*%
%TD*%
%TA.AperFunction,SMDPad,CuDef*%
%ADD44R,1.800000X1.230000*%
%TD*%
%TA.AperFunction,SMDPad,CuDef*%
%ADD45R,1.000000X5.500000*%
%TD*%
%TA.AperFunction,SMDPad,CuDef*%
%ADD46R,1.600000X3.000000*%
%TD*%
%TA.AperFunction,SMDPad,CuDef*%
%ADD47RoundRect,0.056250X-0.188750X-0.168750X0.188750X-0.168750X0.188750X0.168750X-0.188750X0.168750X0*%
%TD*%
%TA.AperFunction,SMDPad,CuDef*%
%ADD48RoundRect,0.065000X-0.355000X-0.065000X0.355000X-0.065000X0.355000X0.065000X-0.355000X0.065000X0*%
%TD*%
%TA.AperFunction,SMDPad,CuDef*%
%ADD49RoundRect,0.065000X-0.065000X-0.355000X0.065000X-0.355000X0.065000X0.355000X-0.065000X0.355000X0*%
%TD*%
%TA.AperFunction,SMDPad,CuDef*%
%ADD50R,2.700000X2.700000*%
%TD*%
%TA.AperFunction,SMDPad,CuDef*%
%ADD51O,1.600000X0.600000*%
%TD*%
%TA.AperFunction,SMDPad,CuDef*%
%ADD52RoundRect,0.200000X0.200000X-0.250000X0.200000X0.250000X-0.200000X0.250000X-0.200000X-0.250000X0*%
%TD*%
%TA.AperFunction,SMDPad,CuDef*%
%ADD53R,1.500000X0.900000*%
%TD*%
%TA.AperFunction,SMDPad,CuDef*%
%ADD54R,0.700000X0.700000*%
%TD*%
%TA.AperFunction,SMDPad,CuDef*%
%ADD55R,0.910000X2.810000*%
%TD*%
%TA.AperFunction,SMDPad,CuDef*%
%ADD56RoundRect,0.200000X-0.200000X0.250000X-0.200000X-0.250000X0.200000X-0.250000X0.200000X0.250000X0*%
%TD*%
%TA.AperFunction,SMDPad,CuDef*%
%ADD57R,1.200000X1.200000*%
%TD*%
%TA.AperFunction,SMDPad,CuDef*%
%ADD58R,1.600000X1.500000*%
%TD*%
%TA.AperFunction,ViaPad*%
%ADD59C,0.500000*%
%TD*%
%TA.AperFunction,ViaPad*%
%ADD60C,0.600000*%
%TD*%
%TA.AperFunction,Conductor*%
%ADD61C,0.254000*%
%TD*%
%TA.AperFunction,Conductor*%
%ADD62C,0.300000*%
%TD*%
%TA.AperFunction,Conductor*%
%ADD63C,0.500000*%
%TD*%
%TA.AperFunction,Conductor*%
%ADD64C,0.200000*%
%TD*%
%TA.AperFunction,Conductor*%
%ADD65C,0.400000*%
%TD*%
G04 APERTURE END LIST*
D10*
%TO.P,J1,S4,GND/SHIELD_S4*%
%TO.N,GND*%
X160148250Y-104187500D03*
%TO.P,J1,S3,GND/SHIELD_S3*%
X151608250Y-104187500D03*
%TO.P,J1,S2,GND/SHIELD_S2*%
X160148250Y-99457500D03*
%TO.P,J1,S1,GND/SHIELD_S1*%
X151608250Y-99457500D03*
D11*
%TO.P,J1,G4,GND/SHIELD_G4*%
X155878250Y-104737500D03*
%TO.P,J1,G3,GND/SHIELD_G3*%
X155878250Y-101637500D03*
D12*
%TO.P,J1,G2,GND/SHIELD_G2*%
X153878250Y-98307500D03*
%TO.P,J1,G1,GND/SHIELD_G1*%
X157878250Y-98307500D03*
%TO.P,J1,B12,GNDB2_B12*%
X153078250Y-98307500D03*
%TO.P,J1,B11,SSRXP1_B11*%
%TO.N,unconnected-(J1-SSRXP1-PadB11)*%
X153478250Y-99017500D03*
%TO.P,J1,B10,SSRXN1_B10*%
%TO.N,unconnected-(J1-SSRXN1-PadB10)*%
X154278250Y-99017500D03*
%TO.P,J1,B9,VBUSB2_B9*%
%TO.N,/VBUS*%
X154678250Y-98307500D03*
%TO.P,J1,B8,SBU2_B8*%
%TO.N,unconnected-(J1-SBU2-PadB8)*%
X155078250Y-99017500D03*
%TO.P,J1,B7,DN2_B7*%
%TO.N,/USB_DN*%
X155478250Y-98307500D03*
%TO.P,J1,B6,DP2_B6*%
%TO.N,/USB_DP*%
X156278250Y-98307500D03*
%TO.P,J1,B5,CC2_B5*%
%TO.N,Net-(J1-CC2)*%
X156678250Y-99017500D03*
%TO.P,J1,B4,VBUSB1_B4*%
%TO.N,/VBUS*%
X157078250Y-98307500D03*
%TO.P,J1,B3,SSTXN2_B3*%
%TO.N,unconnected-(J1-SSTXN2-PadB3)*%
X157478250Y-99017500D03*
%TO.P,J1,B2,SSTXP2_B2*%
%TO.N,unconnected-(J1-SSTXP2-PadB2)*%
X158278250Y-99017500D03*
%TO.P,J1,B1,GNDB1_B1*%
%TO.N,GND*%
X158678250Y-98307500D03*
D13*
%TO.P,J1,A12,GNDA2_A12*%
X158628250Y-97057500D03*
%TO.P,J1,A11,SSRXP2_A11*%
%TO.N,unconnected-(J1-SSRXP2-PadA11)*%
X158128250Y-97057500D03*
%TO.P,J1,A10,SSRXN2_A10*%
%TO.N,unconnected-(J1-SSRXN2-PadA10)*%
X157628250Y-97057500D03*
%TO.P,J1,A9,VBUSA2_A9*%
%TO.N,/VBUS*%
X157128250Y-97057500D03*
%TO.P,J1,A8,SBU1_A8*%
%TO.N,unconnected-(J1-SBU1-PadA8)*%
X156628250Y-97057500D03*
%TO.P,J1,A7,DN1_A7*%
%TO.N,/USB_DN*%
X156128250Y-97057500D03*
%TO.P,J1,A6,DP1_A6*%
%TO.N,/USB_DP*%
X155628250Y-97057500D03*
%TO.P,J1,A5,CC1_A5*%
%TO.N,Net-(J1-CC1)*%
X155128250Y-97057500D03*
%TO.P,J1,A4,VBUSA1_A4*%
%TO.N,/VBUS*%
X154628250Y-97057500D03*
%TO.P,J1,A3,SSTXN1_A3*%
%TO.N,unconnected-(J1-SSTXN1-PadA3)*%
X154128250Y-97057500D03*
%TO.P,J1,A2,SSTXP1_A2*%
%TO.N,unconnected-(J1-SSTXP1-PadA2)*%
X153628250Y-97057500D03*
%TO.P,J1,A1,GNDA1_A1*%
%TO.N,GND*%
X153128250Y-97057500D03*
%TD*%
D14*
%TO.P,C2,1*%
%TO.N,+5V*%
X119750000Y-103800000D03*
%TO.P,C2,2*%
%TO.N,GND*%
X121650000Y-103800000D03*
%TD*%
D15*
%TO.P,TP4,1,1_1*%
%TO.N,/ESP_32_C3_02/CS_SD*%
X214375000Y-78825000D03*
%TD*%
D16*
%TO.P,R14,1*%
%TO.N,Net-(U4-~{TXT}{slash}GPIO.2)*%
X172850000Y-96237500D03*
%TO.P,R14,2*%
%TO.N,Net-(LED5-K)*%
X172850000Y-94412500D03*
%TD*%
D17*
%TO.P,LED2,1,K_1*%
%TO.N,Net-(LED2-K)*%
X132800000Y-92075000D03*
%TO.P,LED2,2,A_2*%
%TO.N,/+5V_USB*%
X134600000Y-92075000D03*
%TD*%
D18*
%TO.P,U8,1,IN+_1*%
%TO.N,Net-(U8-IN+)*%
X136765000Y-67311200D03*
%TO.P,U8,2,GND_2*%
%TO.N,GND*%
X136765000Y-67961200D03*
%TO.P,U8,3,IN-_3*%
%TO.N,Net-(U8-IN-)*%
X136765000Y-68611200D03*
%TO.P,U8,4,OUT_4*%
%TO.N,/ESP_32_C3_02/MIC_OUT*%
X138685000Y-68611200D03*
%TO.P,U8,5,VCC_5*%
%TO.N,+3.3V*%
X138685000Y-67311200D03*
%TD*%
D19*
%TO.P,S2,1*%
%TO.N,GND*%
X158700000Y-63325000D03*
%TO.P,S2,2*%
%TO.N,/ESP_32_C3_02/EN*%
X158700000Y-70525000D03*
%TO.P,S2,3*%
%TO.N,GND*%
X161700000Y-63325000D03*
%TO.P,S2,4*%
%TO.N,/ESP_32_C3_02/EN*%
X161700000Y-70525000D03*
%TD*%
D20*
%TO.P,U4,1,RS485/GPIO.1_1*%
%TO.N,unconnected-(U4-RS485{slash}GPIO.1-Pad1)*%
X173525000Y-98675000D03*
D21*
%TO.P,U4,2,CLK/GPIO.0_2*%
%TO.N,unconnected-(U4-CLK{slash}GPIO.0-Pad2)*%
X173225000Y-99175000D03*
%TO.P,U4,3,GND_3*%
%TO.N,GND*%
X173225000Y-99675000D03*
%TO.P,U4,4,D+_4*%
%TO.N,/ESP_32_C3_02/USB_D+*%
X173225000Y-100175000D03*
%TO.P,U4,5,D-_5*%
%TO.N,/ESP_32_C3_02/USB_D-*%
X173225000Y-100675000D03*
D20*
%TO.P,U4,6,VDD_6*%
%TO.N,+3.3V*%
X173525000Y-101175000D03*
D22*
%TO.P,U4,7,VREGIN_7*%
X174025000Y-101475000D03*
%TO.P,U4,8,VBUS_8*%
%TO.N,Net-(U4-VBUS)*%
X174525000Y-101475000D03*
%TO.P,U4,9,~{RST}_9*%
%TO.N,Net-(U4-~{RST})*%
X175025000Y-101475000D03*
%TO.P,U4,10,NC_10*%
%TO.N,unconnected-(U4-NC-Pad10)*%
X175525000Y-101475000D03*
D20*
%TO.P,U4,11,~{SUSPEND}_11*%
%TO.N,unconnected-(U4-~{SUSPEND}-Pad11)*%
X176025000Y-101175000D03*
D21*
%TO.P,U4,12,GND_12*%
%TO.N,GND*%
X176325000Y-100675000D03*
%TO.P,U4,13,~{WAKEUP}_13*%
%TO.N,unconnected-(U4-~{WAKEUP}-Pad13)*%
X176325000Y-100175000D03*
%TO.P,U4,14,SUSPEND_14*%
%TO.N,unconnected-(U4-SUSPEND-Pad14)*%
X176325000Y-99675000D03*
%TO.P,U4,15,~{CTS}_15*%
%TO.N,/ESP_32_C3_02/DTS*%
X176325000Y-99175000D03*
D20*
%TO.P,U4,16,~{RTS}_16*%
%TO.N,/ESP_32_C3_02/RTS*%
X176025000Y-98675000D03*
D22*
%TO.P,U4,17,RXD_17*%
%TO.N,/ESP_32_C3_02/RX_TX*%
X175525000Y-98375000D03*
%TO.P,U4,18,TXD_18*%
%TO.N,/ESP_32_C3_02/TX_RX*%
X175025000Y-98375000D03*
%TO.P,U4,19,~{RXT}/GPIO.3_19*%
%TO.N,Net-(U4-~{RXT}{slash}GPIO.3)*%
X174525000Y-98375000D03*
%TO.P,U4,20,~{TXT}/GPIO.2_20*%
%TO.N,Net-(U4-~{TXT}{slash}GPIO.2)*%
X174025000Y-98375000D03*
D23*
%TO.P,U4,21,GND_21*%
%TO.N,GND*%
X174775000Y-99925000D03*
%TD*%
D24*
%TO.P,R24,1*%
%TO.N,+3.3V*%
X178525000Y-62187500D03*
%TO.P,R24,2*%
%TO.N,/ESP_32_C3_02/SCL*%
X178525000Y-64012500D03*
%TD*%
%TO.P,R15,1*%
%TO.N,Net-(U3-IO7)*%
X197425000Y-71087500D03*
%TO.P,R15,2*%
%TO.N,/ESP_32_C3_02/MOSI_DI*%
X197425000Y-72912500D03*
%TD*%
D15*
%TO.P,TP5,1,1_1*%
%TO.N,/ESP_32_C3_02/CS*%
X183625000Y-68800000D03*
%TD*%
%TO.P,TP2,1,1_1*%
%TO.N,/ESP_32_C3_02/MISO_DO*%
X186925000Y-84625000D03*
%TD*%
D25*
%TO.P,J4,1,Pin_1_1*%
%TO.N,+3.3V*%
X114850000Y-62515000D03*
D26*
%TO.P,J4,2,Pin_2_2*%
%TO.N,/ESP_32_C3_02/SDA*%
X114850000Y-65055000D03*
%TO.P,J4,3,Pin_3_3*%
%TO.N,/ESP_32_C3_02/SCL*%
X114850000Y-67595000D03*
%TO.P,J4,4,Pin_4_4*%
%TO.N,GND*%
X114850000Y-70135000D03*
%TD*%
D27*
%TO.P,R6,1*%
%TO.N,Net-(U1-PROG3)*%
X146262500Y-83125000D03*
%TO.P,R6,2*%
%TO.N,GND*%
X148087500Y-83125000D03*
%TD*%
D17*
%TO.P,LED1,1,K_1*%
%TO.N,Net-(LED1-K)*%
X132700000Y-88825000D03*
%TO.P,LED1,2,A_2*%
%TO.N,/+5V_USB*%
X134500000Y-88825000D03*
%TD*%
D27*
%TO.P,R8,1*%
%TO.N,/charged*%
X136787500Y-91925000D03*
%TO.P,R8,2*%
%TO.N,Net-(LED2-K)*%
X138612500Y-91925000D03*
%TD*%
D14*
%TO.P,C5,1*%
%TO.N,+3.3V*%
X119850000Y-106400000D03*
%TO.P,C5,2*%
%TO.N,GND*%
X121750000Y-106400000D03*
%TD*%
D27*
%TO.P,R11,1*%
%TO.N,+3.3V*%
X164937500Y-105075000D03*
%TO.P,R11,2*%
%TO.N,Net-(U4-~{RST})*%
X166762500Y-105075000D03*
%TD*%
D28*
%TO.P,F2,1,1_1*%
%TO.N,+5V*%
X138075000Y-81655000D03*
%TO.P,F2,2,2_2*%
%TO.N,Net-(U1-OUT)*%
X138075000Y-84895000D03*
%TD*%
D29*
%TO.P,R7,1*%
%TO.N,/charging power good*%
X138375000Y-88750000D03*
%TO.P,R7,2*%
%TO.N,Net-(LED1-K)*%
X136550000Y-88750000D03*
%TD*%
D15*
%TO.P,TP1,1,1_1*%
%TO.N,/ESP_32_C3_02/MOSI_DI*%
X208475000Y-78325000D03*
%TD*%
D30*
%TO.P,Q1,1*%
%TO.N,/ESP_32_C3_02/PHOTO_C*%
X164075000Y-76595000D03*
%TO.P,Q1,2*%
%TO.N,N/C*%
X162975000Y-76595000D03*
D31*
%TO.P,Q1,3*%
%TO.N,+3.3V*%
X163525000Y-80105000D03*
%TD*%
D27*
%TO.P,R23,1*%
%TO.N,/ESP_32_C3_02/PHOTO_C*%
X166662500Y-76275000D03*
%TO.P,R23,2*%
%TO.N,GND*%
X168487500Y-76275000D03*
%TD*%
D32*
%TO.P,C17,1*%
%TO.N,Net-(C17-Pad1)*%
X134125000Y-69161200D03*
%TO.P,C17,2*%
%TO.N,Net-(U8-IN+)*%
X134125000Y-67261200D03*
%TD*%
D25*
%TO.P,J5,1,Pin_1_1*%
%TO.N,+3.3V*%
X114850000Y-77285000D03*
D26*
%TO.P,J5,2,Pin_2_2*%
%TO.N,/ESP_32_C3_02/GPIO8*%
X114850000Y-79825000D03*
%TO.P,J5,3,Pin_3_3*%
%TO.N,/ESP_32_C3_02/GPIO18*%
X114850000Y-82365000D03*
%TO.P,J5,4,Pin_4_4*%
%TO.N,/ESP_32_C3_02/GPIO19*%
X114850000Y-84905000D03*
%TO.P,J5,5,Pin_5_5*%
%TO.N,GND*%
X114850000Y-87445000D03*
%TD*%
D33*
%TO.P,LED5,1,K_1*%
%TO.N,Net-(LED5-K)*%
X172975000Y-91600000D03*
%TO.P,LED5,2,A_2*%
%TO.N,+3.3V*%
X172975000Y-89800000D03*
%TD*%
D24*
%TO.P,R34,1*%
%TO.N,/ESP_32_C3_02/RTS*%
X163600000Y-84312500D03*
%TO.P,R34,2*%
%TO.N,Net-(Q3-B)*%
X163600000Y-86137500D03*
%TD*%
D29*
%TO.P,R22,1*%
%TO.N,/ESP_32_C3_02/MISO_DO*%
X187987500Y-78775000D03*
%TO.P,R22,2*%
%TO.N,Net-(U6-DO(IO1))*%
X186162500Y-78775000D03*
%TD*%
D34*
%TO.P,C1,1*%
%TO.N,/VBUS*%
X149375000Y-98950000D03*
%TO.P,C1,2*%
%TO.N,GND*%
X149375000Y-100850000D03*
%TD*%
D35*
%TO.P,J3,1,CD/DAT3_1*%
%TO.N,/ESP_32_C3_02/CS_SD*%
X210975000Y-83100000D03*
%TO.P,J3,2,CMD_2*%
%TO.N,/ESP_32_C3_02/MOSI_DI*%
X208475000Y-83100000D03*
%TO.P,J3,3,VSS1_3*%
%TO.N,GND*%
X205975000Y-83100000D03*
%TO.P,J3,4,VDD1_4*%
%TO.N,+3.3V*%
X203475000Y-83100000D03*
%TO.P,J3,5,CLK_5*%
%TO.N,/ESP_32_C3_02/SCLK*%
X200975000Y-83100000D03*
%TO.P,J3,6,VSS2_6*%
%TO.N,GND*%
X198475000Y-83100000D03*
%TO.P,J3,7,DAT0_7*%
%TO.N,Net-(J3-DAT0)*%
X196050000Y-83100000D03*
%TO.P,J3,8,DAT1_8*%
%TO.N,GND*%
X194350000Y-83100000D03*
%TO.P,J3,9,DAT2_9*%
X213475000Y-83100000D03*
D36*
%TO.P,J3,CD_IND,CD_IND_CD_IND*%
%TO.N,unconnected-(J3-PadCD_IND)*%
X193050000Y-83100000D03*
D37*
%TO.P,J3,G1,SHIELD_GND_G1*%
%TO.N,GND*%
X190450000Y-84900000D03*
%TO.P,J3,G2,SHIELD_GND_G2*%
X215550000Y-84900000D03*
%TO.P,J3,G3,SHIELD_GND_G3*%
X217750000Y-106400000D03*
%TO.P,J3,G4,SHIELD_GND_G4*%
X190450000Y-106400000D03*
D36*
%TO.P,J3,WP,WP_WP*%
%TO.N,unconnected-(J3-PadWP)*%
X191850000Y-83100000D03*
%TD*%
D27*
%TO.P,R29,1*%
%TO.N,GND*%
X133462500Y-63850000D03*
%TO.P,R29,2*%
%TO.N,Net-(R27-Pad1)*%
X135287500Y-63850000D03*
%TD*%
D32*
%TO.P,C8,1*%
%TO.N,GND*%
X198000000Y-64950000D03*
%TO.P,C8,2*%
%TO.N,+3.3V*%
X198000000Y-63050000D03*
%TD*%
D38*
%TO.P,MK1,GND*%
%TO.N,GND*%
X124650000Y-60175000D03*
%TO.P,MK1,OUT*%
%TO.N,Net-(C17-Pad1)*%
X124650000Y-62075000D03*
%TD*%
D27*
%TO.P,R30,1*%
%TO.N,Net-(C19-Pad1)*%
X135887500Y-71625000D03*
%TO.P,R30,2*%
%TO.N,Net-(U8-IN-)*%
X137712500Y-71625000D03*
%TD*%
%TO.P,R31,1*%
%TO.N,Net-(U8-IN-)*%
X137312500Y-59036200D03*
%TO.P,R31,2*%
%TO.N,Net-(R17-Pad3)*%
X139137500Y-59036200D03*
%TD*%
D24*
%TO.P,R4,1*%
%TO.N,Net-(J1-CC1)*%
X149700000Y-103862500D03*
%TO.P,R4,2*%
%TO.N,GND*%
X149700000Y-105687500D03*
%TD*%
D39*
%TO.P,C13,1*%
%TO.N,GND*%
X205875000Y-80300000D03*
%TO.P,C13,2*%
%TO.N,+3.3V*%
X203975000Y-80300000D03*
%TD*%
D29*
%TO.P,R28,1*%
%TO.N,Net-(C17-Pad1)*%
X133837500Y-71725000D03*
%TO.P,R28,2*%
%TO.N,Net-(C16-Pad2)*%
X132012500Y-71725000D03*
%TD*%
D14*
%TO.P,C20,1*%
%TO.N,Net-(U8-IN-)*%
X137425000Y-62850000D03*
%TO.P,C20,2*%
%TO.N,Net-(C20-Pad2)*%
X139325000Y-62850000D03*
%TD*%
D15*
%TO.P,TP3,1,1_1*%
%TO.N,/ESP_32_C3_02/SCLK*%
X193050000Y-74525000D03*
%TD*%
D27*
%TO.P,R26,1*%
%TO.N,Net-(C16-Pad2)*%
X128475000Y-68625000D03*
%TO.P,R26,2*%
%TO.N,+3.3V*%
X130300000Y-68625000D03*
%TD*%
D14*
%TO.P,C22,1*%
%TO.N,/ESP_32_C3_02/EN*%
X146825000Y-70925000D03*
%TO.P,C22,2*%
%TO.N,GND*%
X148725000Y-70925000D03*
%TD*%
D40*
%TO.P,VR1,1,GND_1*%
%TO.N,GND*%
X121125000Y-101225000D03*
%TO.P,VR1,2,VOUT_2_2*%
%TO.N,+3.3V*%
X121125000Y-98925000D03*
%TO.P,VR1,3,VIN_3*%
%TO.N,+5V*%
X121125000Y-96625000D03*
D41*
%TO.P,VR1,4,VOUT_4_4*%
%TO.N,+3.3V*%
X115325000Y-98925000D03*
%TD*%
D16*
%TO.P,R18,1*%
%TO.N,Net-(U4-~{RXT}{slash}GPIO.3)*%
X175250000Y-96187500D03*
%TO.P,R18,2*%
%TO.N,Net-(LED6-K)*%
X175250000Y-94362500D03*
%TD*%
D39*
%TO.P,C10,1*%
%TO.N,GND*%
X166750000Y-102475000D03*
%TO.P,C10,2*%
%TO.N,+3.3V*%
X164850000Y-102475000D03*
%TD*%
D14*
%TO.P,C25,1*%
%TO.N,GND*%
X170625000Y-81275000D03*
%TO.P,C25,2*%
%TO.N,/ESP_32_C3_02/PHOTO_C*%
X172525000Y-81275000D03*
%TD*%
D32*
%TO.P,C15,1*%
%TO.N,+3.3V*%
X172525000Y-64125000D03*
%TO.P,C15,2*%
%TO.N,GND*%
X172525000Y-62225000D03*
%TD*%
D24*
%TO.P,R3,1*%
%TO.N,Net-(J1-CC2)*%
X147200000Y-102962500D03*
%TO.P,R3,2*%
%TO.N,GND*%
X147200000Y-104787500D03*
%TD*%
D17*
%TO.P,LED4,1,K_1*%
%TO.N,/PWD_LED*%
X176650000Y-81150000D03*
%TO.P,LED4,2,A_2*%
%TO.N,+3.3V*%
X178450000Y-81150000D03*
%TD*%
D27*
%TO.P,R1,1*%
%TO.N,Net-(U1-~{TE})*%
X142087500Y-93275000D03*
%TO.P,R1,2*%
%TO.N,GND*%
X143912500Y-93275000D03*
%TD*%
D34*
%TO.P,C6,1*%
%TO.N,GND*%
X142450000Y-82650000D03*
%TO.P,C6,2*%
%TO.N,/+5V_USB*%
X142450000Y-84550000D03*
%TD*%
D16*
%TO.P,R19,1*%
%TO.N,/ESP_32_C3_02/CS_SD*%
X210950000Y-80987500D03*
%TO.P,R19,2*%
%TO.N,+3.3V*%
X210950000Y-79162500D03*
%TD*%
D14*
%TO.P,C21,1*%
%TO.N,/ESP_32_C3_02/BOOT*%
X146825000Y-65925000D03*
%TO.P,C21,2*%
%TO.N,GND*%
X148725000Y-65925000D03*
%TD*%
D42*
%TO.P,C7,1*%
%TO.N,GND*%
X195000000Y-67310000D03*
%TO.P,C7,2*%
%TO.N,+3.3V*%
X195000000Y-64690000D03*
%TD*%
D34*
%TO.P,C11,1*%
%TO.N,Net-(U4-VBUS)*%
X182575000Y-97475000D03*
%TO.P,C11,2*%
%TO.N,GND*%
X182575000Y-99375000D03*
%TD*%
D43*
%TO.P,U5,1,I/O1_1*%
%TO.N,/ESP_32_C3_02/USB_D-*%
X160275000Y-94100000D03*
%TO.P,U5,2,GND_2*%
%TO.N,GND*%
X160275000Y-93150000D03*
%TO.P,U5,3,I/O2_3*%
%TO.N,/ESP_32_C3_02/USB_D+*%
X160275000Y-92200000D03*
%TO.P,U5,4,I/O2_4*%
%TO.N,/USB_DP*%
X158000000Y-92200000D03*
%TO.P,U5,5,VBUS_5*%
%TO.N,/VBUS*%
X158000000Y-93150000D03*
%TO.P,U5,6,I/O1_6*%
%TO.N,/USB_DN*%
X158000000Y-94100000D03*
%TD*%
D44*
%TO.P,C4,1*%
%TO.N,+3.3V*%
X127210000Y-106425000D03*
%TO.P,C4,2*%
%TO.N,GND*%
X124590000Y-106425000D03*
%TD*%
D45*
%TO.P,J2,1,1_1*%
%TO.N,GND*%
X137000000Y-104957500D03*
%TO.P,J2,2,2_2*%
%TO.N,/VBAT*%
X139000000Y-104957500D03*
D46*
%TO.P,J2,S1*%
%TO.N,N/C*%
X134600000Y-102707500D03*
%TO.P,J2,S2*%
X141400000Y-102707500D03*
%TD*%
D29*
%TO.P,R2,1*%
%TO.N,GND*%
X141962500Y-95400000D03*
%TO.P,R2,2*%
%TO.N,Net-(U1-THERM)*%
X140137500Y-95400000D03*
%TD*%
D47*
%TO.P,U2,1,GND_1*%
%TO.N,GND*%
X176495000Y-62025000D03*
%TO.P,U2,2,CSB_2*%
%TO.N,+3.3V*%
X176495000Y-62675000D03*
%TO.P,U2,3,SDI_3*%
%TO.N,/ESP_32_C3_02/SDA*%
X176495000Y-63325000D03*
%TO.P,U2,4,SCK_4*%
%TO.N,/ESP_32_C3_02/SCL*%
X176495000Y-63975000D03*
%TO.P,U2,5,SDO_5*%
%TO.N,GND*%
X174555000Y-63975000D03*
%TO.P,U2,6,VDDIO_6*%
%TO.N,+3.3V*%
X174555000Y-63325000D03*
%TO.P,U2,7,GND_7*%
%TO.N,GND*%
X174555000Y-62675000D03*
%TO.P,U2,8,VDD_8*%
%TO.N,+3.3V*%
X174555000Y-62025000D03*
%TD*%
D14*
%TO.P,C23,1*%
%TO.N,+3.3V*%
X166625000Y-81275000D03*
%TO.P,C23,2*%
%TO.N,GND*%
X168525000Y-81275000D03*
%TD*%
%TO.P,C24,1*%
%TO.N,GND*%
X170800000Y-76250000D03*
%TO.P,C24,2*%
%TO.N,/ESP_32_C3_02/PHOTO_C*%
X172700000Y-76250000D03*
%TD*%
D34*
%TO.P,C14,1*%
%TO.N,+3.3V*%
X180600000Y-76050000D03*
%TO.P,C14,2*%
%TO.N,GND*%
X180600000Y-77950000D03*
%TD*%
D16*
%TO.P,R33,1*%
%TO.N,/ESP_32_C3_02/DTR*%
X153600000Y-86137500D03*
%TO.P,R33,2*%
%TO.N,Net-(Q2-B)*%
X153600000Y-84312500D03*
%TD*%
D24*
%TO.P,R32,1*%
%TO.N,+3.3V*%
X165775000Y-67187500D03*
%TO.P,R32,2*%
%TO.N,/ESP_32_C3_02/EN*%
X165775000Y-69012500D03*
%TD*%
D16*
%TO.P,R20,1*%
%TO.N,/ESP_32_C3_02/SCLK*%
X194875000Y-72512500D03*
%TO.P,R20,2*%
%TO.N,Net-(U3-IO6)*%
X194875000Y-70687500D03*
%TD*%
D44*
%TO.P,C3,1*%
%TO.N,+5V*%
X127085000Y-102350000D03*
%TO.P,C3,2*%
%TO.N,GND*%
X124465000Y-102350000D03*
%TD*%
D27*
%TO.P,R9,1*%
%TO.N,/charging *%
X136487500Y-95350000D03*
%TO.P,R9,2*%
%TO.N,Net-(LED3-K)*%
X138312500Y-95350000D03*
%TD*%
D44*
%TO.P,C12,1*%
%TO.N,GND*%
X198390000Y-80025000D03*
%TO.P,C12,2*%
%TO.N,+3.3V*%
X201010000Y-80025000D03*
%TD*%
D19*
%TO.P,S1,1*%
%TO.N,GND*%
X152225000Y-63125000D03*
%TO.P,S1,2*%
%TO.N,/ESP_32_C3_02/BOOT*%
X152225000Y-70325000D03*
%TO.P,S1,3*%
%TO.N,GND*%
X155225000Y-63125000D03*
%TO.P,S1,4*%
%TO.N,/ESP_32_C3_02/BOOT*%
X155225000Y-70325000D03*
%TD*%
D27*
%TO.P,R27,1*%
%TO.N,Net-(R27-Pad1)*%
X129462500Y-63850000D03*
%TO.P,R27,2*%
%TO.N,+3.3V*%
X131287500Y-63850000D03*
%TD*%
%TO.P,R5,1*%
%TO.N,Net-(U1-PROG1)*%
X146337500Y-86500000D03*
%TO.P,R5,2*%
%TO.N,GND*%
X148162500Y-86500000D03*
%TD*%
D14*
%TO.P,C19,1*%
%TO.N,Net-(C19-Pad1)*%
X139775000Y-71625000D03*
%TO.P,C19,2*%
%TO.N,GND*%
X141675000Y-71625000D03*
%TD*%
D48*
%TO.P,U1,1,OUT_1*%
%TO.N,Net-(U1-OUT)*%
X140565000Y-87750000D03*
%TO.P,U1,2,VPCC_2*%
%TO.N,/+5V_USB*%
X140565000Y-88250000D03*
%TO.P,U1,3,SEL_3*%
%TO.N,GND*%
X140565000Y-88750000D03*
%TO.P,U1,4,PROG2_4*%
%TO.N,/+5V_USB*%
X140565000Y-89250000D03*
%TO.P,U1,5,THERM_5*%
%TO.N,Net-(U1-THERM)*%
X140565000Y-89750000D03*
D49*
%TO.P,U1,6,~{PG}_6*%
%TO.N,/charging power good*%
X141500000Y-90685000D03*
%TO.P,U1,7,STAT2_7*%
%TO.N,/charging *%
X142000000Y-90685000D03*
%TO.P,U1,8,STAT1/~{LBO}_8*%
%TO.N,/charged*%
X142500000Y-90685000D03*
%TO.P,U1,9,~{TE}_9*%
%TO.N,Net-(U1-~{TE})*%
X143000000Y-90685000D03*
%TO.P,U1,10,VSS_10*%
%TO.N,GND*%
X143500000Y-90685000D03*
D48*
%TO.P,U1,11*%
%TO.N,N/C*%
X144435000Y-89750000D03*
%TO.P,U1,12,PROG3_12*%
%TO.N,Net-(U1-PROG3)*%
X144435000Y-89250000D03*
%TO.P,U1,13,PROG1_13*%
%TO.N,Net-(U1-PROG1)*%
X144435000Y-88750000D03*
%TO.P,U1,14,VBAT_14*%
%TO.N,/VBAT*%
X144435000Y-88250000D03*
%TO.P,U1,15*%
%TO.N,N/C*%
X144435000Y-87750000D03*
D49*
%TO.P,U1,16,VBAT_SENSE_16*%
%TO.N,/VBAT*%
X143500000Y-86815000D03*
%TO.P,U1,17*%
%TO.N,N/C*%
X143000000Y-86815000D03*
%TO.P,U1,18,IN_18*%
%TO.N,/+5V_USB*%
X142500000Y-86815000D03*
%TO.P,U1,19*%
%TO.N,+5V*%
X142000000Y-86815000D03*
%TO.P,U1,20*%
%TO.N,N/C*%
X141500000Y-86815000D03*
D50*
%TO.P,U1,21*%
%TO.N,GND*%
X142500000Y-88750000D03*
%TD*%
D51*
%TO.P,U6,1,~{CS}_1*%
%TO.N,/ESP_32_C3_02/CS*%
X183400000Y-72595000D03*
%TO.P,U6,2,DO(IO1)_2*%
%TO.N,Net-(U6-DO(IO1))*%
X183400000Y-73865000D03*
%TO.P,U6,3,~{WP}(IO2)_3*%
%TO.N,+3.3V*%
X183400000Y-75135000D03*
%TO.P,U6,4,GND_4*%
%TO.N,GND*%
X183400000Y-76405000D03*
%TO.P,U6,5,DI(IO0)_5*%
%TO.N,/ESP_32_C3_02/MOSI_DI*%
X190600000Y-76405000D03*
%TO.P,U6,6,CLK_6*%
%TO.N,/ESP_32_C3_02/SCLK*%
X190600000Y-75135000D03*
%TO.P,U6,7,~{HOLD}/~{RESET}(IO3)_7*%
%TO.N,+3.3V*%
X190600000Y-73865000D03*
%TO.P,U6,8,VCC_8*%
X190600000Y-72595000D03*
%TD*%
D52*
%TO.P,Q2,1,B_1*%
%TO.N,Net-(Q2-B)*%
X157650000Y-84225000D03*
%TO.P,Q2,2,E_2*%
%TO.N,/ESP_32_C3_02/RTS*%
X159550000Y-84225000D03*
%TO.P,Q2,3,C_3*%
%TO.N,/ESP_32_C3_02/EN*%
X158600000Y-82225000D03*
%TD*%
D27*
%TO.P,R12,1*%
%TO.N,/VBUS*%
X178612500Y-96325000D03*
%TO.P,R12,2*%
%TO.N,Net-(U4-VBUS)*%
X180437500Y-96325000D03*
%TD*%
D17*
%TO.P,LED3,1,K_1*%
%TO.N,Net-(LED3-K)*%
X132775000Y-95225000D03*
%TO.P,LED3,2,A_2*%
%TO.N,/+5V_USB*%
X134575000Y-95225000D03*
%TD*%
D27*
%TO.P,R16,1*%
%TO.N,/ESP_32_C3_02/MISO_DO*%
X190912500Y-79275000D03*
%TO.P,R16,2*%
%TO.N,Net-(J3-DAT0)*%
X192737500Y-79275000D03*
%TD*%
D44*
%TO.P,C9,1*%
%TO.N,GND*%
X167110000Y-99375000D03*
%TO.P,C9,2*%
%TO.N,+3.3V*%
X164490000Y-99375000D03*
%TD*%
D27*
%TO.P,R13,1*%
%TO.N,Net-(U4-VBUS)*%
X178562500Y-100050000D03*
%TO.P,R13,2*%
%TO.N,GND*%
X180387500Y-100050000D03*
%TD*%
%TO.P,R25,1*%
%TO.N,+3.3V*%
X174262500Y-66250000D03*
%TO.P,R25,2*%
%TO.N,/ESP_32_C3_02/SCL*%
X176087500Y-66250000D03*
%TD*%
D34*
%TO.P,C18,1*%
%TO.N,+3.3V*%
X141450000Y-67486200D03*
%TO.P,C18,2*%
%TO.N,GND*%
X141450000Y-69386200D03*
%TD*%
D53*
%TO.P,U3,1,3V3_1*%
%TO.N,+3.3V*%
X200250000Y-62982017D03*
%TO.P,U3,2,EN_2*%
%TO.N,/ESP_32_C3_02/EN*%
X200250000Y-64482017D03*
%TO.P,U3,3,IO4_3*%
%TO.N,/ESP_32_C3_02/SDA*%
X200250000Y-65982017D03*
%TO.P,U3,4,IO5_4*%
%TO.N,/ESP_32_C3_02/CS_SD*%
X200250000Y-67482017D03*
%TO.P,U3,5,IO6_5*%
%TO.N,Net-(U3-IO6)*%
X200250000Y-68982017D03*
%TO.P,U3,6,IO7_6*%
%TO.N,Net-(U3-IO7)*%
X200250000Y-70482017D03*
%TO.P,U3,7,IO8_7*%
%TO.N,/ESP_32_C3_02/GPIO8*%
X200250000Y-71982017D03*
%TO.P,U3,8,IO9_8*%
%TO.N,/ESP_32_C3_02/BOOT*%
X200250000Y-73482017D03*
%TO.P,U3,9,GND_9*%
%TO.N,GND*%
X200250000Y-74982017D03*
%TO.P,U3,10,IO10_10*%
%TO.N,/ESP_32_C3_02/CS*%
X217750000Y-74982017D03*
%TO.P,U3,11,RXD_11*%
%TO.N,/ESP_32_C3_02/TX_RX*%
X217750000Y-73482017D03*
%TO.P,U3,12,TXD_12*%
%TO.N,/ESP_32_C3_02/RX_TX*%
X217750000Y-71982017D03*
%TO.P,U3,13,IO18_13*%
%TO.N,/ESP_32_C3_02/GPIO19*%
X217750000Y-70482017D03*
%TO.P,U3,14,IO19_14*%
%TO.N,/ESP_32_C3_02/GPIO18*%
X217750000Y-68982017D03*
%TO.P,U3,15,IO3_15*%
%TO.N,/ESP_32_C3_02/SCL*%
X217750000Y-67482017D03*
%TO.P,U3,16,IO2_16*%
%TO.N,/ESP_32_C3_02/MISO_DO*%
X217750000Y-65982017D03*
%TO.P,U3,17,IO1_17*%
%TO.N,/ESP_32_C3_02/PHOTO_C*%
X217750000Y-64482017D03*
%TO.P,U3,18,IO0_18*%
%TO.N,/ESP_32_C3_02/MIC_OUT*%
X217750000Y-62982017D03*
D54*
%TO.P,U3,19,GND_19*%
%TO.N,GND*%
X208860000Y-68082017D03*
%TO.P,U3,20,GND_20*%
X209960000Y-68082017D03*
%TO.P,U3,21,GND_21*%
X211060000Y-68082017D03*
%TO.P,U3,22,GND_22*%
X208860000Y-69182017D03*
%TO.P,U3,23,GND_23*%
X209960000Y-69182017D03*
%TO.P,U3,24,GND_24*%
X211060000Y-69182017D03*
%TO.P,U3,25,GND_25*%
X208860000Y-70282017D03*
%TO.P,U3,26,GND_26*%
X209960000Y-70282017D03*
%TO.P,U3,27,GND_27*%
X211060000Y-70282017D03*
D49*
%TO.P,U3,28,GND_28*%
X209410000Y-68082017D03*
%TO.P,U3,29,GND_29*%
X210510000Y-68082017D03*
%TO.P,U3,30,GND_30*%
X208860000Y-68632017D03*
%TO.P,U3,31,GND_31*%
X209960000Y-68632017D03*
%TO.P,U3,32,GND_32*%
X211060000Y-68632017D03*
%TO.P,U3,33,GND_33*%
X209410000Y-69182017D03*
%TO.P,U3,34,GND_34*%
X210510000Y-69182017D03*
%TO.P,U3,35,GND_35*%
X208860000Y-69732017D03*
%TO.P,U3,36,GND_36*%
X209960000Y-69732017D03*
%TO.P,U3,37,GND_37*%
X211060000Y-69732017D03*
%TO.P,U3,38,GND_38*%
X209410000Y-70282017D03*
%TO.P,U3,39,GND_39*%
X210510000Y-70282017D03*
%TD*%
D55*
%TO.P,F1,1,1_1*%
%TO.N,/VBUS*%
X150870000Y-94500000D03*
%TO.P,F1,2,2_2*%
%TO.N,/+5V_USB*%
X147630000Y-94500000D03*
%TD*%
D56*
%TO.P,Q3,1,B_1*%
%TO.N,Net-(Q3-B)*%
X159550000Y-87225000D03*
%TO.P,Q3,2,E_2*%
%TO.N,/ESP_32_C3_02/DTR*%
X157650000Y-87225000D03*
%TO.P,Q3,3,C_3*%
%TO.N,/ESP_32_C3_02/BOOT*%
X158600000Y-89225000D03*
%TD*%
D33*
%TO.P,LED6,1,K_1*%
%TO.N,Net-(LED6-K)*%
X175750000Y-91575000D03*
%TO.P,LED6,2,A_2*%
%TO.N,+3.3V*%
X175750000Y-89775000D03*
%TD*%
D29*
%TO.P,R10,1*%
%TO.N,GND*%
X178462500Y-84075000D03*
%TO.P,R10,2*%
%TO.N,/PWD_LED*%
X176637500Y-84075000D03*
%TD*%
D57*
%TO.P,R17,1*%
%TO.N,Net-(C20-Pad2)*%
X143550000Y-59136200D03*
D58*
%TO.P,R17,2*%
X142550000Y-62386200D03*
D57*
%TO.P,R17,3*%
%TO.N,Net-(R17-Pad3)*%
X141550000Y-59136200D03*
%TD*%
D14*
%TO.P,C16,1*%
%TO.N,GND*%
X128125000Y-71875000D03*
%TO.P,C16,2*%
%TO.N,Net-(C16-Pad2)*%
X130025000Y-71875000D03*
%TD*%
D59*
%TO.N,GND*%
X172100000Y-98600000D03*
X150700000Y-71800000D03*
X161800000Y-105600000D03*
X115600000Y-72150000D03*
X122200000Y-108400000D03*
D60*
X160050000Y-96200000D03*
D59*
X188650000Y-107400000D03*
X171350000Y-59950000D03*
X132900000Y-62500000D03*
X212200000Y-68450000D03*
X206950000Y-79850000D03*
X126650000Y-59050000D03*
X162150000Y-93100000D03*
D60*
X143200000Y-95600000D03*
D59*
X177300000Y-100454000D03*
X198500000Y-78677000D03*
X202100000Y-75200000D03*
X177350000Y-60750000D03*
X218025000Y-103775000D03*
X174800000Y-64800000D03*
X180000000Y-84150000D03*
X148483023Y-86484819D03*
X167500000Y-77450000D03*
X140950000Y-108650000D03*
X183250000Y-100500000D03*
X143400000Y-71750000D03*
X117350000Y-88000000D03*
X214450000Y-81300000D03*
X152050000Y-61350000D03*
X150500000Y-96950000D03*
X168100000Y-102000000D03*
X192800000Y-67200000D03*
X122000000Y-102400000D03*
X146350000Y-106150000D03*
X126600000Y-71800000D03*
X139454281Y-88631326D03*
D60*
%TO.N,Net-(LED2-K)*%
X138609525Y-93750000D03*
X133600000Y-93600000D03*
%TO.N,/+5V_USB*%
X144000000Y-84550000D03*
X139500000Y-87622990D03*
X145750000Y-93500000D03*
X139669323Y-89453677D03*
X145750000Y-95750000D03*
X145750000Y-94500000D03*
%TO.N,Net-(U8-IN-)*%
X135550000Y-67950000D03*
X137425000Y-64475000D03*
D59*
%TO.N,/ESP_32_C3_02/MIC_OUT*%
X139350000Y-69800000D03*
X216075000Y-63325000D03*
%TO.N,+3.3V*%
X130800000Y-70100000D03*
X119050000Y-98950000D03*
X178950000Y-90500000D03*
D60*
X118100000Y-107050000D03*
D59*
X203950000Y-78650000D03*
X180834004Y-74266955D03*
D60*
X170500000Y-65000000D03*
D59*
X143200000Y-66800000D03*
X116250000Y-60400000D03*
X172550000Y-101800000D03*
X127000000Y-108300000D03*
X163400000Y-104550000D03*
X209800000Y-76473000D03*
X131250000Y-62450000D03*
X165100000Y-65350000D03*
X115325002Y-101874999D03*
X162950000Y-81550000D03*
X172800000Y-66600000D03*
X191650000Y-71750000D03*
D60*
X193650000Y-64600000D03*
D59*
X117234999Y-77284999D03*
X180150000Y-62850000D03*
D60*
X173250000Y-60450000D03*
%TO.N,Net-(U4-VBUS)*%
X176150000Y-102850000D03*
X174250000Y-102800000D03*
D59*
%TO.N,/ESP_32_C3_02/RTS*%
X177106644Y-94906644D03*
X169600000Y-96100000D03*
D60*
%TO.N,/ESP_32_C3_02/RX_TX*%
X176450000Y-97950000D03*
X215600000Y-72400000D03*
%TO.N,/ESP_32_C3_02/TX_RX*%
X176150000Y-97150000D03*
X213750000Y-74000000D03*
D59*
%TO.N,/ESP_32_C3_02/SCL*%
X212150000Y-64150000D03*
X191300000Y-63900000D03*
%TO.N,/ESP_32_C3_02/CS*%
X208350000Y-71350000D03*
X191350000Y-69950000D03*
%TO.N,/ESP_32_C3_02/SDA*%
X178550000Y-59350000D03*
D60*
X192150000Y-65800000D03*
D59*
X175450000Y-59600000D03*
X198350000Y-66550000D03*
D60*
%TO.N,Net-(U1-PROG3)*%
X147190861Y-88958422D03*
X147072634Y-85403651D03*
%TO.N,/charged*%
X142363155Y-91768353D03*
X137628751Y-93071845D03*
%TO.N,/charging power good*%
X140850000Y-90950000D03*
X137500000Y-87150000D03*
D59*
%TO.N,/ESP_32_C3_02/PHOTO_C*%
X175650000Y-77900000D03*
X216050000Y-65250000D03*
%TO.N,/ESP_32_C3_02/GPIO8*%
X195900000Y-71900000D03*
%TO.N,/ESP_32_C3_02/GPIO18*%
X213900000Y-69100000D03*
%TO.N,/ESP_32_C3_02/GPIO19*%
X214000000Y-70500000D03*
D60*
%TO.N,/VBUS*%
X154036241Y-95631360D03*
X177771288Y-94171288D03*
X156700000Y-93450000D03*
X152250000Y-95000000D03*
X162550000Y-95800000D03*
%TO.N,Net-(J1-CC1)*%
X150300000Y-102350000D03*
X153400000Y-94300000D03*
%TO.N,/USB_DP*%
X155949738Y-95149738D03*
%TO.N,/USB_DN*%
X157600000Y-95450000D03*
D59*
%TO.N,/ESP_32_C3_02/BOOT*%
X156850000Y-71450000D03*
D60*
X161750000Y-82950000D03*
D59*
X154050000Y-72750000D03*
X198650000Y-73977000D03*
D60*
%TO.N,Net-(U1-PROG1)*%
X148450000Y-90200000D03*
X146214250Y-89045211D03*
%TD*%
%TO.N,Net-(U1-PROG1)*%
D61*
X145919039Y-88750000D02*
X146214250Y-89045211D01*
X144435000Y-88750000D02*
X145919039Y-88750000D01*
%TO.N,Net-(U1-PROG3)*%
X147190861Y-89259139D02*
X147190861Y-88958422D01*
X146441674Y-90008326D02*
X147190861Y-89259139D01*
%TO.N,GND*%
D62*
X143000000Y-95400000D02*
X143200000Y-95600000D01*
X141962500Y-95400000D02*
X143000000Y-95400000D01*
X158628250Y-97057500D02*
X159192500Y-97057500D01*
X159192500Y-97057500D02*
X160050000Y-96200000D01*
X162100000Y-93150000D02*
X162150000Y-93100000D01*
X160275000Y-93150000D02*
X162100000Y-93150000D01*
%TO.N,+5V*%
D63*
X125450000Y-94000000D02*
X127085000Y-94000000D01*
X138075000Y-81655000D02*
X139505000Y-81655000D01*
X125300000Y-105050000D02*
X127085000Y-103265000D01*
X142000000Y-86150000D02*
X142000000Y-86815000D01*
X127085000Y-100735000D02*
X127085000Y-102350000D01*
X121000000Y-105050000D02*
X125300000Y-105050000D01*
X127085000Y-103265000D02*
X127085000Y-102350000D01*
X140750000Y-82900000D02*
X140750000Y-84900000D01*
X127085000Y-100735000D02*
X127085000Y-100500000D01*
X140750000Y-84900000D02*
X142000000Y-86150000D01*
X142000000Y-86310000D02*
X142000000Y-86815000D01*
X134245000Y-81655000D02*
X138075000Y-81655000D01*
X121125000Y-96625000D02*
X122825000Y-96625000D01*
X122825000Y-96625000D02*
X125450000Y-94000000D01*
X119750000Y-103800000D02*
X121000000Y-105050000D01*
X127085000Y-88815000D02*
X134245000Y-81655000D01*
X127085000Y-96500000D02*
X127085000Y-88815000D01*
X127085000Y-100500000D02*
X127085000Y-96500000D01*
X139505000Y-81655000D02*
X140750000Y-82900000D01*
%TO.N,GND*%
D62*
X148725000Y-65925000D02*
X148725000Y-64325000D01*
X121750000Y-107950000D02*
X122200000Y-108400000D01*
X146012500Y-81050000D02*
X148087500Y-83125000D01*
X172100000Y-99304000D02*
X172100000Y-98600000D01*
X205875000Y-80300000D02*
X206500000Y-80300000D01*
X175127000Y-63773000D02*
X174925000Y-63975000D01*
X159003250Y-99214568D02*
X159003250Y-98632500D01*
X198390000Y-80025000D02*
X198390000Y-78787000D01*
X133462500Y-63850000D02*
X133462500Y-63062500D01*
X116795000Y-87445000D02*
X117350000Y-88000000D01*
X213475000Y-83100000D02*
X214450000Y-82125000D01*
X158678250Y-98307500D02*
X157878250Y-98307500D01*
X142450000Y-82650000D02*
X144050000Y-81050000D01*
X158678250Y-98307500D02*
X158678250Y-97107500D01*
X153078250Y-97107500D02*
X153128250Y-97057500D01*
X201882017Y-74982017D02*
X202100000Y-75200000D01*
X124650000Y-60335000D02*
X124650000Y-60175000D01*
X205975000Y-83100000D02*
X205975000Y-80400000D01*
X206500000Y-80300000D02*
X206950000Y-79850000D01*
X155878250Y-101637500D02*
X156580318Y-101637500D01*
X194350000Y-83350000D02*
X194350000Y-83100000D01*
X198390000Y-80025000D02*
X198390000Y-83015000D01*
X174775000Y-99925000D02*
X175525000Y-100675000D01*
X148467842Y-86500000D02*
X148483023Y-86484819D01*
X205975000Y-80400000D02*
X205875000Y-80300000D01*
X156580318Y-101637500D02*
X159003250Y-99214568D01*
X160148250Y-99457500D02*
X160148250Y-104187500D01*
X147200000Y-104787500D02*
X147200000Y-105300000D01*
X158678250Y-97107500D02*
X158628250Y-97057500D01*
X159003250Y-98632500D02*
X158678250Y-98307500D01*
X143900000Y-91085000D02*
X143500000Y-90685000D01*
X155878250Y-104737500D02*
X155878250Y-101637500D01*
X121750000Y-106400000D02*
X121750000Y-107950000D01*
X198390000Y-78787000D02*
X198500000Y-78677000D01*
X170625000Y-81275000D02*
X168525000Y-81275000D01*
X143275000Y-71625000D02*
X143400000Y-71750000D01*
X124650000Y-60175000D02*
X125525000Y-60175000D01*
X128125000Y-71875000D02*
X126675000Y-71875000D01*
X143900000Y-93262500D02*
X143900000Y-91085000D01*
X177079000Y-100675000D02*
X177300000Y-100454000D01*
X149600000Y-71800000D02*
X150700000Y-71800000D01*
X170800000Y-81100000D02*
X170625000Y-81275000D01*
X178462500Y-84075000D02*
X179925000Y-84075000D01*
X141450000Y-69386200D02*
X141450000Y-71400000D01*
X168487500Y-76462500D02*
X167500000Y-77450000D01*
X141675000Y-71625000D02*
X143275000Y-71625000D01*
X147200000Y-105300000D02*
X146350000Y-106150000D01*
X176325000Y-100675000D02*
X177079000Y-100675000D01*
X193554000Y-84900000D02*
X190450000Y-84900000D01*
X138411948Y-67946000D02*
X140009800Y-67946000D01*
X139572955Y-88750000D02*
X139454281Y-88631326D01*
X143912500Y-93275000D02*
X143900000Y-93262500D01*
X195177000Y-84177000D02*
X194350000Y-83350000D01*
X167110000Y-99375000D02*
X167110000Y-102115000D01*
X217750000Y-104050000D02*
X218025000Y-103775000D01*
X175525000Y-100675000D02*
X176325000Y-100675000D01*
X136765000Y-67961200D02*
X138396748Y-67961200D01*
X160148250Y-104712500D02*
X161035750Y-105600000D01*
X114850000Y-87445000D02*
X116795000Y-87445000D01*
X114850000Y-70135000D02*
X114850000Y-71400000D01*
X114850000Y-71400000D02*
X115600000Y-72150000D01*
X148100000Y-105687500D02*
X149700000Y-105687500D01*
X152225000Y-63125000D02*
X161500000Y-63125000D01*
X213750000Y-83100000D02*
X215550000Y-84900000D01*
X192800000Y-67200000D02*
X195750000Y-67200000D01*
X209410000Y-69182017D02*
X211060000Y-69182017D01*
X148087500Y-83125000D02*
X148087500Y-86425000D01*
X150215750Y-100850000D02*
X151608250Y-99457500D01*
X153078250Y-98307500D02*
X153878250Y-98307500D01*
X168487500Y-76275000D02*
X170775000Y-76275000D01*
X188650000Y-107150000D02*
X188650000Y-107400000D01*
X121125000Y-101225000D02*
X122725000Y-101225000D01*
X214450000Y-82125000D02*
X214450000Y-81300000D01*
X180600000Y-77950000D02*
X180600000Y-81937500D01*
X152225000Y-61525000D02*
X152050000Y-61350000D01*
X121650000Y-106300000D02*
X121750000Y-106400000D01*
X148725000Y-70925000D02*
X149600000Y-71800000D01*
X137000000Y-107207500D02*
X138442500Y-108650000D01*
X176495000Y-61605000D02*
X177350000Y-60750000D01*
X122725000Y-101225000D02*
X123850000Y-102350000D01*
X194350000Y-84104000D02*
X193554000Y-84900000D01*
X153078250Y-98307500D02*
X153078250Y-97107500D01*
X208860000Y-70282017D02*
X211060000Y-70282017D01*
X217750000Y-106400000D02*
X217750000Y-104050000D01*
X182575000Y-99375000D02*
X181062500Y-99375000D01*
X175127000Y-62995944D02*
X175127000Y-63773000D01*
X168487500Y-76275000D02*
X168487500Y-76462500D01*
X140565000Y-88750000D02*
X139572955Y-88750000D01*
X151608250Y-98058250D02*
X150500000Y-96950000D01*
X121650000Y-102750000D02*
X122000000Y-102400000D01*
X141962500Y-95225000D02*
X143912500Y-93275000D01*
X174525000Y-99675000D02*
X173225000Y-99675000D01*
X212017983Y-68632017D02*
X212200000Y-68450000D01*
X176495000Y-62025000D02*
X176495000Y-61605000D01*
X138396748Y-67961200D02*
X138411948Y-67946000D01*
X167110000Y-102115000D02*
X166750000Y-102475000D01*
X148725000Y-64325000D02*
X149925000Y-63125000D01*
X151608250Y-99457500D02*
X151608250Y-98058250D01*
X148162500Y-86500000D02*
X148467842Y-86500000D01*
X126675000Y-71875000D02*
X126600000Y-71800000D01*
X144050000Y-81050000D02*
X146012500Y-81050000D01*
X194350000Y-83100000D02*
X194350000Y-84104000D01*
X173225000Y-99675000D02*
X172471000Y-99675000D01*
X167625000Y-102475000D02*
X168100000Y-102000000D01*
X174555000Y-64555000D02*
X174800000Y-64800000D01*
X142500000Y-88750000D02*
X140565000Y-88750000D01*
X149700000Y-105687500D02*
X150108250Y-105687500D01*
X174806056Y-62675000D02*
X175127000Y-62995944D01*
X160148250Y-104187500D02*
X160148250Y-104712500D01*
X172471000Y-99675000D02*
X172100000Y-99304000D01*
X170800000Y-76250000D02*
X170800000Y-81100000D01*
X121125000Y-101225000D02*
X122575000Y-101225000D01*
X195750000Y-67200000D02*
X198000000Y-64950000D01*
X174925000Y-63975000D02*
X174555000Y-63975000D01*
X174555000Y-63975000D02*
X174555000Y-64555000D01*
X149925000Y-63125000D02*
X152225000Y-63125000D01*
X123850000Y-102350000D02*
X124465000Y-102350000D01*
X133462500Y-63062500D02*
X132900000Y-62500000D01*
X161035750Y-105600000D02*
X161800000Y-105600000D01*
X141450000Y-71400000D02*
X141675000Y-71625000D01*
X189400000Y-106400000D02*
X188650000Y-107150000D01*
X161500000Y-63125000D02*
X161700000Y-63325000D01*
X121750000Y-106400000D02*
X124565000Y-106400000D01*
X137000000Y-104957500D02*
X137000000Y-107207500D01*
X174775000Y-99925000D02*
X174525000Y-99675000D01*
X180600000Y-81937500D02*
X178462500Y-84075000D01*
X124565000Y-106400000D02*
X124590000Y-106425000D01*
X200250000Y-74982017D02*
X201882017Y-74982017D01*
X198390000Y-83015000D02*
X198475000Y-83100000D01*
X183250000Y-100050000D02*
X183250000Y-100500000D01*
X192910000Y-67310000D02*
X192800000Y-67200000D01*
X170775000Y-76275000D02*
X170800000Y-76250000D01*
X140009800Y-67946000D02*
X141450000Y-69386200D01*
X150108250Y-105687500D02*
X151608250Y-104187500D01*
X168525000Y-81275000D02*
X168525000Y-76312500D01*
X121650000Y-103800000D02*
X121650000Y-102750000D01*
X172525000Y-62225000D02*
X171350000Y-61050000D01*
X208860000Y-68082017D02*
X211060000Y-68082017D01*
X190450000Y-106400000D02*
X189400000Y-106400000D01*
X179925000Y-84075000D02*
X180000000Y-84150000D01*
X147200000Y-104787500D02*
X148100000Y-105687500D01*
X152225000Y-63125000D02*
X152225000Y-61525000D01*
X168525000Y-76312500D02*
X168487500Y-76275000D01*
X149375000Y-100850000D02*
X150215750Y-100850000D01*
X138442500Y-108650000D02*
X140950000Y-108650000D01*
X174555000Y-62675000D02*
X174806056Y-62675000D01*
X198475000Y-83100000D02*
X197398000Y-84177000D01*
X125525000Y-60175000D02*
X126650000Y-59050000D01*
X213475000Y-83100000D02*
X213750000Y-83100000D01*
X211060000Y-68632017D02*
X212017983Y-68632017D01*
X171350000Y-61050000D02*
X171350000Y-59950000D01*
X181855000Y-77950000D02*
X183400000Y-76405000D01*
X208860000Y-69182017D02*
X209960000Y-69182017D01*
X182575000Y-99375000D02*
X183250000Y-100050000D01*
X197398000Y-84177000D02*
X195177000Y-84177000D01*
X181062500Y-99375000D02*
X180387500Y-100050000D01*
X180600000Y-77950000D02*
X181855000Y-77950000D01*
X166750000Y-102475000D02*
X167625000Y-102475000D01*
X148087500Y-86425000D02*
X148162500Y-86500000D01*
%TO.N,/ESP_32_C3_02/CS_SD*%
X213975000Y-78825000D02*
X202632017Y-67482017D01*
X210975000Y-83100000D02*
X210975000Y-81012500D01*
X214375000Y-78825000D02*
X213112500Y-78825000D01*
X213112500Y-78825000D02*
X210950000Y-80987500D01*
X202632017Y-67482017D02*
X200250000Y-67482017D01*
X210975000Y-81012500D02*
X210950000Y-80987500D01*
X214375000Y-78825000D02*
X213975000Y-78825000D01*
%TO.N,Net-(U4-~{TXT}{slash}GPIO.2)*%
D61*
X174025000Y-98375000D02*
X174025000Y-97412500D01*
X174025000Y-97412500D02*
X172850000Y-96237500D01*
%TO.N,Net-(LED5-K)*%
X172850000Y-94412500D02*
X172850000Y-91725000D01*
X172850000Y-91725000D02*
X172975000Y-91600000D01*
%TO.N,Net-(LED2-K)*%
D64*
X132800000Y-92800000D02*
X133600000Y-93600000D01*
X138612500Y-93288900D02*
X138612500Y-91925000D01*
X138609525Y-93750000D02*
X138609525Y-93291875D01*
X138609525Y-93291875D02*
X138612500Y-93288900D01*
X132800000Y-92075000D02*
X132800000Y-92800000D01*
%TO.N,/+5V_USB*%
X134500000Y-89025000D02*
X135875000Y-90400000D01*
X140565000Y-89250000D02*
X139873000Y-89250000D01*
X142500000Y-84600000D02*
X142500000Y-86815000D01*
X138723000Y-90400000D02*
X139669323Y-89453677D01*
X134500000Y-88825000D02*
X134500000Y-91975000D01*
X139450000Y-89673000D02*
X139669323Y-89453677D01*
X140127012Y-88250000D02*
X139500000Y-87622990D01*
X134600000Y-95200000D02*
X134575000Y-95225000D01*
X134500000Y-88825000D02*
X134500000Y-89025000D01*
X134600000Y-92075000D02*
X134600000Y-95200000D01*
X139873000Y-89250000D02*
X139669323Y-89453677D01*
X142450000Y-84550000D02*
X142500000Y-84600000D01*
X142450000Y-84550000D02*
X144000000Y-84550000D01*
D61*
X147630000Y-94500000D02*
X145750000Y-94500000D01*
D64*
X134500000Y-91975000D02*
X134600000Y-92075000D01*
X140565000Y-88250000D02*
X140127012Y-88250000D01*
X135875000Y-90400000D02*
X138723000Y-90400000D01*
%TO.N,Net-(U8-IN+)*%
D61*
X136715000Y-67261200D02*
X136765000Y-67311200D01*
X134125000Y-67261200D02*
X136715000Y-67261200D01*
%TO.N,Net-(U8-IN-)*%
X137425000Y-59148700D02*
X137312500Y-59036200D01*
X137712500Y-69558700D02*
X136765000Y-68611200D01*
X137712500Y-71625000D02*
X137712500Y-69558700D01*
X137425000Y-62850000D02*
X137425000Y-59148700D01*
X135550000Y-68130128D02*
X135550000Y-67950000D01*
X137425000Y-64475000D02*
X137425000Y-62850000D01*
X136031072Y-68611200D02*
X135550000Y-68130128D01*
X136765000Y-68611200D02*
X136031072Y-68611200D01*
%TO.N,/ESP_32_C3_02/MIC_OUT*%
X138685000Y-68611200D02*
X139350000Y-69276200D01*
X216417983Y-62982017D02*
X216075000Y-63325000D01*
X139350000Y-69276200D02*
X139350000Y-69800000D01*
X217750000Y-62982017D02*
X216417983Y-62982017D01*
%TO.N,+3.3V*%
D63*
X172525000Y-64125000D02*
X171375000Y-64125000D01*
X164850000Y-102475000D02*
X164850000Y-102800000D01*
X178225000Y-89775000D02*
X178950000Y-90500000D01*
X119200000Y-107050000D02*
X118100000Y-107050000D01*
X195000000Y-64690000D02*
X196640000Y-63050000D01*
X142136200Y-66800000D02*
X141450000Y-67486200D01*
X178525000Y-62187500D02*
X179487500Y-62187500D01*
X141275000Y-67311200D02*
X138685000Y-67311200D01*
X130300000Y-68625000D02*
X130300000Y-69600000D01*
X178450000Y-78200000D02*
X180600000Y-76050000D01*
X201010000Y-80025000D02*
X201010000Y-80635000D01*
X181066955Y-74266955D02*
X180834004Y-74266955D01*
X172900000Y-101800000D02*
X173525000Y-101175000D01*
X210950000Y-79162500D02*
X210950000Y-77623000D01*
X119050000Y-98950000D02*
X121100000Y-98950000D01*
X163925000Y-105075000D02*
X163400000Y-104550000D01*
X143200000Y-66800000D02*
X142136200Y-66800000D01*
X174075000Y-62025000D02*
X174555000Y-62025000D01*
X172975000Y-89800000D02*
X175725000Y-89800000D01*
X181515000Y-75135000D02*
X181515000Y-74715000D01*
X171375000Y-64125000D02*
X170500000Y-65000000D01*
X175750000Y-89775000D02*
X178225000Y-89775000D01*
X131287500Y-62487500D02*
X131250000Y-62450000D01*
X190600000Y-73865000D02*
X190600000Y-72595000D01*
X164490000Y-102115000D02*
X164850000Y-102475000D01*
X119850000Y-106400000D02*
X119200000Y-107050000D01*
X174271416Y-63325000D02*
X173960000Y-63013584D01*
X173960000Y-62140000D02*
X174075000Y-62025000D01*
X174262500Y-66250000D02*
X174262500Y-65862500D01*
X121100000Y-98950000D02*
X121125000Y-98925000D01*
X203975000Y-78675000D02*
X203950000Y-78650000D01*
X165455000Y-80105000D02*
X166625000Y-81275000D01*
X173960000Y-63013584D02*
X173960000Y-62140000D01*
X173725000Y-101175000D02*
X174025000Y-101475000D01*
X174555000Y-62025000D02*
X174555000Y-61755000D01*
X193740000Y-64690000D02*
X193650000Y-64600000D01*
X174555000Y-63325000D02*
X174271416Y-63325000D01*
X190600000Y-72595000D02*
X190805000Y-72595000D01*
X165775000Y-66025000D02*
X165100000Y-65350000D01*
X163525000Y-80105000D02*
X162950000Y-80680000D01*
X130300000Y-69600000D02*
X130800000Y-70100000D01*
X203475000Y-80800000D02*
X203975000Y-80300000D01*
X114850000Y-77285000D02*
X117234999Y-77284999D01*
X210950000Y-77623000D02*
X209800000Y-76473000D01*
X190805000Y-72595000D02*
X191650000Y-71750000D01*
X178450000Y-81150000D02*
X178450000Y-78200000D01*
X195000000Y-64690000D02*
X193740000Y-64690000D01*
X127000000Y-106635000D02*
X127210000Y-106425000D01*
X164937500Y-105075000D02*
X163925000Y-105075000D01*
X180600000Y-76050000D02*
X181515000Y-75135000D01*
X174555000Y-61755000D02*
X173250000Y-60450000D01*
X203475000Y-83100000D02*
X203475000Y-80800000D01*
X127000000Y-108300000D02*
X127000000Y-106635000D01*
X198000000Y-63050000D02*
X200182017Y-63050000D01*
X176495000Y-62675000D02*
X178037500Y-62675000D01*
X164937500Y-102887500D02*
X164937500Y-105075000D01*
X141450000Y-67486200D02*
X141275000Y-67311200D01*
X163525000Y-80105000D02*
X165455000Y-80105000D01*
X165775000Y-67187500D02*
X165775000Y-66025000D01*
X181515000Y-75135000D02*
X183400000Y-75135000D01*
X131287500Y-63850000D02*
X131287500Y-62487500D01*
X175725000Y-89800000D02*
X175750000Y-89775000D01*
X115325000Y-101875000D02*
X115325000Y-98925000D01*
X178037500Y-62675000D02*
X178525000Y-62187500D01*
X179487500Y-62187500D02*
X180150000Y-62850000D01*
X114850000Y-62515000D02*
X114850000Y-61800000D01*
X174262500Y-66250000D02*
X173150000Y-66250000D01*
X173525000Y-101175000D02*
X173725000Y-101175000D01*
X181515000Y-74715000D02*
X181066955Y-74266955D01*
X201010000Y-80635000D02*
X203475000Y-83100000D01*
X200182017Y-63050000D02*
X200250000Y-62982017D01*
X164850000Y-102800000D02*
X164937500Y-102887500D01*
X203975000Y-80300000D02*
X203975000Y-78675000D01*
X162950000Y-80680000D02*
X162950000Y-81550000D01*
X164490000Y-99375000D02*
X164490000Y-102115000D01*
X172550000Y-101800000D02*
X172900000Y-101800000D01*
X173150000Y-66250000D02*
X172800000Y-66600000D01*
X196640000Y-63050000D02*
X198000000Y-63050000D01*
X114850000Y-61800000D02*
X116250000Y-60400000D01*
%TO.N,/ESP_32_C3_02/EN*%
D61*
X158600000Y-73329000D02*
X158600000Y-82225000D01*
X148350000Y-72450000D02*
X153604709Y-72450000D01*
X157248000Y-71977000D02*
X158700000Y-70525000D01*
X146825000Y-70925000D02*
X148350000Y-72450000D01*
X157002000Y-72223000D02*
X157248000Y-71977000D01*
X193568000Y-66573000D02*
X194058000Y-66083000D01*
X157248000Y-71977000D02*
X158600000Y-73329000D01*
X153604709Y-72450000D02*
X153831709Y-72223000D01*
X164262500Y-70525000D02*
X165775000Y-69012500D01*
X158700000Y-70525000D02*
X161700000Y-70525000D01*
X153831709Y-72223000D02*
X157002000Y-72223000D01*
X194058000Y-66083000D02*
X196224948Y-66083000D01*
X161700000Y-70525000D02*
X164262500Y-70525000D01*
X180927000Y-66573000D02*
X193568000Y-66573000D01*
X197279072Y-64123000D02*
X199890983Y-64123000D01*
X196224948Y-66083000D02*
X196224948Y-65177124D01*
X178487500Y-69012500D02*
X180927000Y-66573000D01*
X199890983Y-64123000D02*
X200250000Y-64482017D01*
X165775000Y-69012500D02*
X178487500Y-69012500D01*
X196224948Y-65177124D02*
X197279072Y-64123000D01*
%TO.N,/ESP_32_C3_02/USB_D+*%
D62*
X160275000Y-92200000D02*
X164321420Y-92200000D01*
X172296420Y-100175000D02*
X173225000Y-100175000D01*
X164321420Y-92200000D02*
X172296420Y-100175000D01*
%TO.N,/ESP_32_C3_02/USB_D-*%
X165514314Y-94100000D02*
X172089314Y-100675000D01*
X172089314Y-100675000D02*
X173225000Y-100675000D01*
X160275000Y-94100000D02*
X165514314Y-94100000D01*
%TO.N,Net-(U4-VBUS)*%
D61*
X178562500Y-100750000D02*
X176462500Y-102850000D01*
X176462500Y-102850000D02*
X176150000Y-102850000D01*
X174548000Y-102502000D02*
X174548000Y-101768002D01*
X181425000Y-96325000D02*
X182575000Y-97475000D01*
X180437500Y-96325000D02*
X180437500Y-98175000D01*
X178562500Y-100050000D02*
X178562500Y-100750000D01*
X174250000Y-102800000D02*
X174548000Y-102502000D01*
X180437500Y-98175000D02*
X178562500Y-100050000D01*
X180437500Y-96325000D02*
X181425000Y-96325000D01*
%TO.N,Net-(U4-~{RST})*%
X166762500Y-105075000D02*
X173179000Y-105075000D01*
X173179000Y-105075000D02*
X175025000Y-103229000D01*
X175025000Y-103229000D02*
X175025000Y-101475000D01*
%TO.N,/ESP_32_C3_02/RTS*%
X169600000Y-90312500D02*
X163600000Y-84312500D01*
X169600000Y-96100000D02*
X169600000Y-90312500D01*
X163512500Y-84225000D02*
X159550000Y-84225000D01*
X177450000Y-98400000D02*
X177450000Y-95250000D01*
X177175000Y-98675000D02*
X177450000Y-98400000D01*
X163600000Y-84312500D02*
X163512500Y-84225000D01*
X176025000Y-98675000D02*
X177175000Y-98675000D01*
X177450000Y-95250000D02*
X177106644Y-94906644D01*
%TO.N,/ESP_32_C3_02/RX_TX*%
X175525000Y-98375000D02*
X175950000Y-97950000D01*
X216017983Y-71982017D02*
X215600000Y-72400000D01*
X217750000Y-71982017D02*
X216017983Y-71982017D01*
X175950000Y-97950000D02*
X176450000Y-97950000D01*
%TO.N,/ESP_32_C3_02/TX_RX*%
X214267983Y-73482017D02*
X213750000Y-74000000D01*
X217750000Y-73482017D02*
X214267983Y-73482017D01*
X175496000Y-97150000D02*
X176150000Y-97150000D01*
X175025000Y-98375000D02*
X175025000Y-97621000D01*
X175025000Y-97621000D02*
X175496000Y-97150000D01*
%TO.N,Net-(U4-~{RXT}{slash}GPIO.3)*%
X174525000Y-98375000D02*
X174525000Y-96912500D01*
X174525000Y-96912500D02*
X175250000Y-96187500D01*
%TO.N,/ESP_32_C3_02/SCL*%
D62*
X179700000Y-60350000D02*
X183031739Y-63681739D01*
X178027500Y-63515000D02*
X177200000Y-63515000D01*
X176087500Y-64382500D02*
X176495000Y-63975000D01*
X215482017Y-67482017D02*
X212150000Y-64150000D01*
X177200000Y-63515000D02*
X176740000Y-63975000D01*
X120200000Y-57500000D02*
X176800000Y-57500000D01*
X178250000Y-60350000D02*
X179700000Y-60350000D01*
X191187500Y-64012500D02*
X191300000Y-63900000D01*
X176087500Y-66250000D02*
X176087500Y-64382500D01*
X177500000Y-59600000D02*
X178250000Y-60350000D01*
X177500000Y-58200000D02*
X177500000Y-59600000D01*
X183031739Y-63681739D02*
X183031739Y-64012500D01*
X178525000Y-64012500D02*
X178027500Y-63515000D01*
X178525000Y-64012500D02*
X191187500Y-64012500D01*
X176800000Y-57500000D02*
X177500000Y-58200000D01*
X114850000Y-67595000D02*
X119000000Y-63445000D01*
X176740000Y-63975000D02*
X176495000Y-63975000D01*
X119000000Y-63445000D02*
X119000000Y-58700000D01*
X119000000Y-58700000D02*
X120200000Y-57500000D01*
X217750000Y-67482017D02*
X215482017Y-67482017D01*
%TO.N,Net-(U3-IO7)*%
X199644517Y-71087500D02*
X200250000Y-70482017D01*
X197425000Y-71087500D02*
X199644517Y-71087500D01*
%TO.N,/ESP_32_C3_02/MOSI_DI*%
X199967982Y-76600000D02*
X198433991Y-75066009D01*
X208475000Y-83100000D02*
X208475000Y-78325000D01*
X208475000Y-78325000D02*
X206750000Y-76600000D01*
X206750000Y-76600000D02*
X199967982Y-76600000D01*
X190600000Y-76405000D02*
X197095000Y-76405000D01*
X198433991Y-75066009D02*
X197425000Y-74057017D01*
X197095000Y-76405000D02*
X198433991Y-75066009D01*
X197425000Y-74057017D02*
X197425000Y-72912500D01*
%TO.N,/ESP_32_C3_02/CS*%
X183625000Y-68800000D02*
X190200000Y-68800000D01*
X211982017Y-74982017D02*
X208350000Y-71350000D01*
X190200000Y-68800000D02*
X191350000Y-69950000D01*
X183400000Y-72595000D02*
X183400000Y-69025000D01*
X183400000Y-69025000D02*
X183625000Y-68800000D01*
X217750000Y-74982017D02*
X211982017Y-74982017D01*
%TO.N,/ESP_32_C3_02/MISO_DO*%
X218850000Y-66782017D02*
X218850000Y-85700000D01*
X218850000Y-85700000D02*
X216050000Y-88500000D01*
X217750000Y-65982017D02*
X218050000Y-65982017D01*
X188325000Y-78775000D02*
X188825000Y-79275000D01*
X187000000Y-79762500D02*
X187987500Y-78775000D01*
X216050000Y-88500000D02*
X188950000Y-88500000D01*
X188825000Y-79275000D02*
X190912500Y-79275000D01*
X187000000Y-86550000D02*
X187000000Y-79762500D01*
X218050000Y-65982017D02*
X218850000Y-66782017D01*
X187987500Y-78775000D02*
X188325000Y-78775000D01*
X188950000Y-88500000D02*
X187000000Y-86550000D01*
%TO.N,/ESP_32_C3_02/SDA*%
X178500000Y-59300000D02*
X178550000Y-59350000D01*
X177400000Y-56700000D02*
X178500000Y-57800000D01*
X178500000Y-57800000D02*
X178500000Y-59300000D01*
X192150000Y-63350000D02*
X192150000Y-65800000D01*
X175450000Y-61344364D02*
X175450000Y-59600000D01*
X182900000Y-62700000D02*
X191500000Y-62700000D01*
X119150000Y-56700000D02*
X177400000Y-56700000D01*
X114850000Y-65055000D02*
X114905000Y-65055000D01*
X176183420Y-63350000D02*
X175604000Y-62770580D01*
X118100000Y-61805000D02*
X118100000Y-57750000D01*
X175604000Y-61498364D02*
X175450000Y-61344364D01*
X178550000Y-59350000D02*
X179550000Y-59350000D01*
X191500000Y-62700000D02*
X192150000Y-63350000D01*
X175604000Y-62770580D02*
X175604000Y-61498364D01*
X176495000Y-63350000D02*
X176183420Y-63350000D01*
X179550000Y-59350000D02*
X182900000Y-62700000D01*
X114905000Y-65055000D02*
X115000000Y-65150000D01*
X118100000Y-57750000D02*
X119150000Y-56700000D01*
X198350000Y-66550000D02*
X199682017Y-66550000D01*
X114850000Y-65055000D02*
X118100000Y-61805000D01*
X199682017Y-66550000D02*
X200250000Y-65982017D01*
%TO.N,Net-(U1-PROG3)*%
D61*
X146441674Y-90008326D02*
X145669500Y-90008326D01*
X146262500Y-83125000D02*
X146262500Y-84593517D01*
X146262500Y-84593517D02*
X147072634Y-85403651D01*
X144911174Y-89250000D02*
X144435000Y-89250000D01*
X145669500Y-90008326D02*
X144911174Y-89250000D01*
%TO.N,Net-(LED1-K)*%
D64*
X135200000Y-87400000D02*
X136550000Y-88750000D01*
X134125000Y-87400000D02*
X135200000Y-87400000D01*
X132700000Y-88825000D02*
X134125000Y-87400000D01*
%TO.N,/charged*%
X142452987Y-91678521D02*
X142452987Y-90732013D01*
X136971845Y-93071845D02*
X137628751Y-93071845D01*
X142452987Y-90732013D02*
X142500000Y-90685000D01*
X136787500Y-92887500D02*
X136971845Y-93071845D01*
X136787500Y-91925000D02*
X136787500Y-92887500D01*
X142363155Y-91768353D02*
X142452987Y-91678521D01*
%TO.N,Net-(U1-OUT)*%
D61*
X140565000Y-87750000D02*
X140565000Y-86715000D01*
X140565000Y-86715000D02*
X138745000Y-84895000D01*
X138745000Y-84895000D02*
X138075000Y-84895000D01*
%TO.N,/charging power good*%
X138375000Y-88750000D02*
X138375000Y-88025000D01*
X138375000Y-88025000D02*
X137500000Y-87150000D01*
X141500000Y-90685000D02*
X141235000Y-90950000D01*
X141235000Y-90950000D02*
X140850000Y-90950000D01*
%TO.N,/ESP_32_C3_02/PHOTO_C*%
X172525000Y-81275000D02*
X172525000Y-76425000D01*
X172525000Y-76425000D02*
X172700000Y-76250000D01*
X174350000Y-77900000D02*
X175650000Y-77900000D01*
X217750000Y-64482017D02*
X216817983Y-64482017D01*
X172700000Y-76250000D02*
X174350000Y-77900000D01*
X164395000Y-76275000D02*
X164075000Y-76595000D01*
X216817983Y-64482017D02*
X216050000Y-65250000D01*
X166662500Y-76275000D02*
X164395000Y-76275000D01*
X168037500Y-74900000D02*
X171350000Y-74900000D01*
X166662500Y-76275000D02*
X168037500Y-74900000D01*
X171350000Y-74900000D02*
X172700000Y-76250000D01*
%TO.N,Net-(C17-Pad1)*%
X133837500Y-71725000D02*
X133837500Y-69448700D01*
X133837500Y-69448700D02*
X134125000Y-69161200D01*
X125725000Y-62075000D02*
X124650000Y-62075000D01*
X134125000Y-69161200D02*
X132811200Y-69161200D01*
X132811200Y-69161200D02*
X125725000Y-62075000D01*
%TO.N,/ESP_32_C3_02/GPIO8*%
X195900000Y-71900000D02*
X195982017Y-71982017D01*
X195982017Y-71982017D02*
X200250000Y-71982017D01*
%TO.N,/ESP_32_C3_02/GPIO18*%
X217750000Y-68982017D02*
X214017983Y-68982017D01*
X214017983Y-68982017D02*
X213900000Y-69100000D01*
%TO.N,/ESP_32_C3_02/GPIO19*%
X217750000Y-70482017D02*
X214017983Y-70482017D01*
X214017983Y-70482017D02*
X214000000Y-70500000D01*
%TO.N,Net-(Q3-B)*%
X160637500Y-86137500D02*
X159550000Y-87225000D01*
X163600000Y-86137500D02*
X160637500Y-86137500D01*
%TO.N,Net-(U6-DO(IO1))*%
D62*
X183400000Y-73865000D02*
X182900000Y-73865000D01*
D61*
X183900000Y-73865000D02*
X186162500Y-76127500D01*
X186162500Y-76127500D02*
X186162500Y-78775000D01*
X183400000Y-73865000D02*
X183900000Y-73865000D01*
%TO.N,/VBUS*%
X158989500Y-93539500D02*
X158600000Y-93150000D01*
X162550000Y-95800000D02*
X161845618Y-95095618D01*
X154067601Y-95600000D02*
X154036241Y-95631360D01*
X161845618Y-95095618D02*
X158345618Y-95095618D01*
X154200000Y-95600000D02*
X154067601Y-95600000D01*
X157000000Y-93150000D02*
X156700000Y-93450000D01*
X157880423Y-96127000D02*
X158345618Y-95661805D01*
X178612500Y-95012500D02*
X177771288Y-94171288D01*
X158989500Y-94451736D02*
X158989500Y-93539500D01*
X158000000Y-93150000D02*
X157000000Y-93150000D01*
X151750000Y-94500000D02*
X152250000Y-95000000D01*
X150870000Y-94500000D02*
X151750000Y-94500000D01*
X154628250Y-98257500D02*
X154678250Y-98307500D01*
X154628250Y-97057500D02*
X154628250Y-96028250D01*
X157204750Y-96127000D02*
X157880423Y-96127000D01*
X154400000Y-95800000D02*
X154200000Y-95600000D01*
X158345618Y-95095618D02*
X158989500Y-94451736D01*
X157078250Y-98307500D02*
X157128250Y-98257500D01*
X157128250Y-96203500D02*
X157204750Y-96127000D01*
X158345618Y-95661805D02*
X158345618Y-95095618D01*
X154200000Y-95600000D02*
X154067601Y-95600000D01*
X157128250Y-97057500D02*
X157128250Y-96203500D01*
X149375000Y-95995000D02*
X150870000Y-94500000D01*
X158600000Y-93150000D02*
X158000000Y-93150000D01*
X154628250Y-97057500D02*
X154628250Y-98257500D01*
X154628250Y-96028250D02*
X154200000Y-95600000D01*
X149375000Y-98950000D02*
X149375000Y-95995000D01*
X154067601Y-95600000D02*
X154036241Y-95631360D01*
X178612500Y-96325000D02*
X178612500Y-95012500D01*
X157128250Y-98257500D02*
X157128250Y-97057500D01*
%TO.N,/ESP_32_C3_02/SCLK*%
D62*
X194875000Y-72575000D02*
X194875000Y-72512500D01*
X190600000Y-77900000D02*
X189200000Y-76500000D01*
X189615000Y-75135000D02*
X190600000Y-75135000D01*
X188400000Y-82250000D02*
X189550000Y-81100000D01*
X188400000Y-86700000D02*
X188400000Y-82250000D01*
X192315000Y-75135000D02*
X194875000Y-72575000D01*
X189200000Y-75550000D02*
X189615000Y-75135000D01*
X191725000Y-79959744D02*
X191725000Y-78590256D01*
X200975000Y-83100000D02*
X196875000Y-87200000D01*
X190584744Y-81100000D02*
X191725000Y-79959744D01*
X188900000Y-87200000D02*
X188400000Y-86700000D01*
X191034744Y-77900000D02*
X190600000Y-77900000D01*
X196875000Y-87200000D02*
X188900000Y-87200000D01*
X189200000Y-76500000D02*
X189200000Y-75550000D01*
X190600000Y-75135000D02*
X192315000Y-75135000D01*
X189550000Y-81100000D02*
X190584744Y-81100000D01*
X191725000Y-78590256D02*
X191034744Y-77900000D01*
%TO.N,Net-(J3-DAT0)*%
D61*
X192737500Y-79275000D02*
X196050000Y-82587500D01*
X196050000Y-82587500D02*
X196050000Y-83100000D01*
%TO.N,Net-(R27-Pad1)*%
X134237500Y-64900000D02*
X130512500Y-64900000D01*
X130512500Y-64900000D02*
X129462500Y-63850000D01*
X135287500Y-63850000D02*
X134237500Y-64900000D01*
%TO.N,Net-(J1-CC1)*%
X150300000Y-103262500D02*
X149700000Y-103862500D01*
X155128250Y-95778250D02*
X153650000Y-94300000D01*
X153650000Y-94300000D02*
X153400000Y-94300000D01*
X155128250Y-97057500D02*
X155128250Y-95778250D01*
X150300000Y-102350000D02*
X150300000Y-103262500D01*
%TO.N,/USB_DP*%
D62*
X158000000Y-92200000D02*
X156750000Y-92200000D01*
X155628250Y-93321750D02*
X155628250Y-97057500D01*
X156750000Y-92200000D02*
X155628250Y-93321750D01*
%TO.N,/USB_DN*%
D61*
X158000000Y-94100000D02*
X157600000Y-94500000D01*
D62*
X158000000Y-94235750D02*
X156128250Y-96107500D01*
X158000000Y-94100000D02*
X158000000Y-94235750D01*
D61*
X157600000Y-94500000D02*
X157600000Y-95450000D01*
D62*
X156128250Y-96107500D02*
X156128250Y-97057500D01*
%TO.N,Net-(J1-CC2)*%
D61*
X147200000Y-102962500D02*
X148730077Y-102962500D01*
X154022750Y-101673000D02*
X156678250Y-99017500D01*
X150019577Y-101673000D02*
X154022750Y-101673000D01*
X148730077Y-102962500D02*
X150019577Y-101673000D01*
%TO.N,Net-(C19-Pad1)*%
X136914500Y-72652000D02*
X138748000Y-72652000D01*
X135887500Y-71625000D02*
X136914500Y-72652000D01*
X138748000Y-72652000D02*
X139775000Y-71625000D01*
%TO.N,Net-(R17-Pad3)*%
X141450000Y-59036200D02*
X141550000Y-59136200D01*
X139137500Y-59036200D02*
X141450000Y-59036200D01*
%TO.N,Net-(C16-Pad2)*%
X130025000Y-71875000D02*
X131862500Y-71875000D01*
X131862500Y-71875000D02*
X132012500Y-71725000D01*
X128475000Y-70325000D02*
X130025000Y-71875000D01*
X128475000Y-68625000D02*
X128475000Y-70325000D01*
%TO.N,Net-(C20-Pad2)*%
X139325000Y-62850000D02*
X142086200Y-62850000D01*
X142086200Y-62850000D02*
X142550000Y-62386200D01*
X142550000Y-62386200D02*
X142550000Y-60136200D01*
X142550000Y-60136200D02*
X143550000Y-59136200D01*
%TO.N,Net-(LED6-K)*%
X175250000Y-92075000D02*
X175750000Y-91575000D01*
X175250000Y-94362500D02*
X175250000Y-92075000D01*
%TO.N,/PWD_LED*%
X176650000Y-84062500D02*
X176637500Y-84075000D01*
X176650000Y-81150000D02*
X176650000Y-84062500D01*
%TO.N,Net-(U1-~{TE})*%
D62*
X142087500Y-93275000D02*
X142249115Y-93275000D01*
X143152987Y-91791228D02*
X143000000Y-91638241D01*
X142249115Y-93275000D02*
X143152987Y-92371128D01*
X143000000Y-91638241D02*
X143000000Y-90685000D01*
X143152987Y-92371128D02*
X143152987Y-91791228D01*
%TO.N,/ESP_32_C3_02/BOOT*%
D61*
X200250000Y-73482017D02*
X199144983Y-73482017D01*
X155225000Y-70325000D02*
X152225000Y-70325000D01*
X152225000Y-70325000D02*
X151225000Y-70325000D01*
X199144983Y-73482017D02*
X198650000Y-73977000D01*
X155725000Y-70325000D02*
X156850000Y-71450000D01*
X158600000Y-83750000D02*
X154050000Y-79200000D01*
X154050000Y-79200000D02*
X154050000Y-72750000D01*
X159400000Y-82950000D02*
X158600000Y-83750000D01*
X151225000Y-70325000D02*
X146825000Y-65925000D01*
X155225000Y-70325000D02*
X155725000Y-70325000D01*
X161750000Y-82950000D02*
X159400000Y-82950000D01*
X158600000Y-89225000D02*
X158600000Y-83750000D01*
%TO.N,/VBAT*%
D65*
X145500000Y-88000000D02*
X145500000Y-87735590D01*
D61*
X145003619Y-88250000D02*
X145253619Y-88000000D01*
D65*
X139000000Y-101100000D02*
X144825000Y-95275000D01*
D61*
X145253619Y-88000000D02*
X145500000Y-88000000D01*
D65*
X145500000Y-91450000D02*
X145500000Y-90695290D01*
X147350000Y-88100000D02*
X145600000Y-88100000D01*
X145500000Y-87735590D02*
X144464410Y-86700000D01*
X145500000Y-90695290D02*
X145659964Y-90535326D01*
X146752792Y-90535326D02*
X148000000Y-89288118D01*
X144464410Y-86700000D02*
X143615000Y-86700000D01*
X145600000Y-88100000D02*
X145500000Y-88000000D01*
X144825000Y-95275000D02*
X144825000Y-92125000D01*
X148000000Y-89288118D02*
X148000000Y-88750000D01*
X148000000Y-88750000D02*
X147350000Y-88100000D01*
X144825000Y-92125000D02*
X145500000Y-91450000D01*
D61*
X144435000Y-88250000D02*
X145003619Y-88250000D01*
D65*
X139000000Y-104957500D02*
X139000000Y-101100000D01*
X145659964Y-90535326D02*
X146752792Y-90535326D01*
%TO.N,Net-(U1-THERM)*%
D64*
X140137500Y-90177500D02*
X140565000Y-89750000D01*
X140137500Y-95400000D02*
X140137500Y-90177500D01*
%TO.N,/ESP_32_C3_02/DTR*%
D61*
X153600000Y-86137500D02*
X156562500Y-86137500D01*
X156562500Y-86137500D02*
X157650000Y-87225000D01*
%TO.N,Net-(Q2-B)*%
X157562500Y-84312500D02*
X157650000Y-84225000D01*
X153600000Y-84312500D02*
X157562500Y-84312500D01*
%TO.N,Net-(U3-IO6)*%
D62*
X194875000Y-70687500D02*
X195962500Y-69600000D01*
X195962500Y-69600000D02*
X198750000Y-69600000D01*
X199367983Y-68982017D02*
X200250000Y-68982017D01*
X198750000Y-69600000D02*
X199367983Y-68982017D01*
%TO.N,/charging *%
D64*
X139325000Y-94675000D02*
X139325000Y-96084744D01*
X139325000Y-96084744D02*
X139640256Y-96400000D01*
X141050000Y-95984744D02*
X141050000Y-92072988D01*
X141050000Y-92072988D02*
X142000000Y-91122988D01*
X136487500Y-95350000D02*
X137487500Y-94350000D01*
X142000000Y-91122988D02*
X142000000Y-90685000D01*
X137487500Y-94350000D02*
X139000000Y-94350000D01*
X139000000Y-94350000D02*
X139325000Y-94675000D01*
X140634744Y-96400000D02*
X141050000Y-95984744D01*
X139640256Y-96400000D02*
X140634744Y-96400000D01*
%TO.N,Net-(LED3-K)*%
X133900000Y-96350000D02*
X132775000Y-95225000D01*
X138312500Y-95350000D02*
X137312500Y-96350000D01*
X137312500Y-96350000D02*
X133900000Y-96350000D01*
%TO.N,Net-(U1-PROG1)*%
D61*
X146337500Y-86500000D02*
X146337500Y-87200000D01*
X149250000Y-88900000D02*
X149250000Y-89400000D01*
X146710500Y-87573000D02*
X147923000Y-87573000D01*
X146337500Y-87200000D02*
X146710500Y-87573000D01*
X149250000Y-89400000D02*
X148450000Y-90200000D01*
X147923000Y-87573000D02*
X149250000Y-88900000D01*
%TD*%
%TA.AperFunction,Conductor*%
%TO.N,GND*%
G36*
X121943039Y-105820185D02*
G01*
X121988794Y-105872989D01*
X122000000Y-105924500D01*
X122000000Y-106150000D01*
X122749999Y-106150000D01*
X122749999Y-105924500D01*
X122752549Y-105915814D01*
X122751261Y-105906853D01*
X122762239Y-105882812D01*
X122769684Y-105857461D01*
X122776524Y-105851533D01*
X122780286Y-105843297D01*
X122802520Y-105829007D01*
X122822488Y-105811706D01*
X122833002Y-105809418D01*
X122839064Y-105805523D01*
X122873999Y-105800500D01*
X123066000Y-105800500D01*
X123133039Y-105820185D01*
X123178794Y-105872989D01*
X123190000Y-105924500D01*
X123190000Y-106175000D01*
X124466000Y-106175000D01*
X124533039Y-106194685D01*
X124578794Y-106247489D01*
X124590000Y-106299000D01*
X124590000Y-106551000D01*
X124570315Y-106618039D01*
X124517511Y-106663794D01*
X124466000Y-106675000D01*
X123190000Y-106675000D01*
X123190000Y-107087844D01*
X123196401Y-107147372D01*
X123196403Y-107147379D01*
X123246645Y-107282086D01*
X123246649Y-107282093D01*
X123332809Y-107397187D01*
X123332812Y-107397190D01*
X123447906Y-107483350D01*
X123447913Y-107483354D01*
X123518866Y-107509818D01*
X123574800Y-107551689D01*
X123599217Y-107617154D01*
X123584365Y-107685426D01*
X123534960Y-107734832D01*
X123475533Y-107750000D01*
X122447280Y-107750000D01*
X122380241Y-107730315D01*
X122334486Y-107677511D01*
X122324542Y-107608353D01*
X122353567Y-107544797D01*
X122382183Y-107520461D01*
X122468345Y-107467315D01*
X122592315Y-107343345D01*
X122684356Y-107194124D01*
X122684358Y-107194119D01*
X122739505Y-107027697D01*
X122739506Y-107027690D01*
X122749999Y-106924986D01*
X122750000Y-106924973D01*
X122750000Y-106650000D01*
X121874000Y-106650000D01*
X121806961Y-106630315D01*
X121761206Y-106577511D01*
X121750000Y-106526000D01*
X121750000Y-106400000D01*
X121624000Y-106400000D01*
X121556961Y-106380315D01*
X121511206Y-106327511D01*
X121500000Y-106276000D01*
X121500000Y-105924500D01*
X121519685Y-105857461D01*
X121572489Y-105811706D01*
X121624000Y-105800500D01*
X121876000Y-105800500D01*
X121943039Y-105820185D01*
G37*
%TD.AperFunction*%
%TA.AperFunction,Conductor*%
G36*
X125693039Y-100269685D02*
G01*
X125738794Y-100322489D01*
X125750000Y-100374000D01*
X125750000Y-101166355D01*
X125730315Y-101233394D01*
X125677511Y-101279149D01*
X125608353Y-101289093D01*
X125582668Y-101282537D01*
X125472382Y-101241403D01*
X125472372Y-101241401D01*
X125412844Y-101235000D01*
X124715000Y-101235000D01*
X124715000Y-103465000D01*
X125412828Y-103465000D01*
X125412844Y-103464999D01*
X125472372Y-103458598D01*
X125472380Y-103458596D01*
X125508705Y-103445048D01*
X125578397Y-103440063D01*
X125639721Y-103473547D01*
X125673206Y-103534870D01*
X125668222Y-103604562D01*
X125639721Y-103648910D01*
X125025451Y-104263181D01*
X124964128Y-104296666D01*
X124937770Y-104299500D01*
X122774000Y-104299500D01*
X122706961Y-104279815D01*
X122661206Y-104227011D01*
X122650000Y-104175500D01*
X122650000Y-104050000D01*
X121900000Y-104050000D01*
X121900000Y-104175500D01*
X121880315Y-104242539D01*
X121827511Y-104288294D01*
X121776000Y-104299500D01*
X121524000Y-104299500D01*
X121456961Y-104279815D01*
X121411206Y-104227011D01*
X121400000Y-104175500D01*
X121400000Y-103550000D01*
X121900000Y-103550000D01*
X122649999Y-103550000D01*
X122649999Y-103275028D01*
X122649998Y-103275013D01*
X122639505Y-103172302D01*
X122586666Y-103012844D01*
X123065000Y-103012844D01*
X123071401Y-103072372D01*
X123071403Y-103072379D01*
X123121645Y-103207086D01*
X123121649Y-103207093D01*
X123207809Y-103322187D01*
X123207812Y-103322190D01*
X123322906Y-103408350D01*
X123322913Y-103408354D01*
X123457620Y-103458596D01*
X123457627Y-103458598D01*
X123517155Y-103464999D01*
X123517172Y-103465000D01*
X124215000Y-103465000D01*
X124215000Y-102600000D01*
X123065000Y-102600000D01*
X123065000Y-103012844D01*
X122586666Y-103012844D01*
X122584358Y-103005880D01*
X122584356Y-103005875D01*
X122492315Y-102856654D01*
X122368345Y-102732684D01*
X122241065Y-102654177D01*
X122219124Y-102640643D01*
X122219119Y-102640641D01*
X122052697Y-102585494D01*
X122052690Y-102585493D01*
X121949986Y-102575000D01*
X121900000Y-102575000D01*
X121900000Y-103550000D01*
X121400000Y-103550000D01*
X121400000Y-102575000D01*
X121399999Y-102574999D01*
X121350029Y-102575000D01*
X121350011Y-102575001D01*
X121247302Y-102585494D01*
X121080880Y-102640641D01*
X121080875Y-102640643D01*
X120933512Y-102731539D01*
X120868415Y-102750000D01*
X120532538Y-102750000D01*
X120467442Y-102731539D01*
X120319340Y-102640189D01*
X120319335Y-102640187D01*
X120319334Y-102640186D01*
X120152797Y-102585001D01*
X120152795Y-102585000D01*
X120050016Y-102574500D01*
X119874000Y-102574500D01*
X119865314Y-102571949D01*
X119856353Y-102573238D01*
X119832312Y-102562259D01*
X119806961Y-102554815D01*
X119801033Y-102547974D01*
X119792797Y-102544213D01*
X119778507Y-102521978D01*
X119761206Y-102502011D01*
X119758918Y-102491496D01*
X119755023Y-102485435D01*
X119750000Y-102450500D01*
X119750000Y-102300347D01*
X119769685Y-102233308D01*
X119822489Y-102187553D01*
X119891647Y-102177609D01*
X119917334Y-102184165D01*
X119942623Y-102193597D01*
X119942627Y-102193598D01*
X120002155Y-102199999D01*
X120002172Y-102200000D01*
X120875000Y-102200000D01*
X121375000Y-102200000D01*
X122247828Y-102200000D01*
X122247844Y-102199999D01*
X122307372Y-102193598D01*
X122307379Y-102193596D01*
X122442086Y-102143354D01*
X122442093Y-102143350D01*
X122557187Y-102057190D01*
X122557190Y-102057187D01*
X122643350Y-101942093D01*
X122643354Y-101942086D01*
X122693596Y-101807379D01*
X122693598Y-101807372D01*
X122699999Y-101747844D01*
X122700000Y-101747827D01*
X122700000Y-101687155D01*
X123065000Y-101687155D01*
X123065000Y-102100000D01*
X124215000Y-102100000D01*
X124215000Y-101235000D01*
X123517155Y-101235000D01*
X123457627Y-101241401D01*
X123457620Y-101241403D01*
X123322913Y-101291645D01*
X123322906Y-101291649D01*
X123207812Y-101377809D01*
X123207809Y-101377812D01*
X123121649Y-101492906D01*
X123121645Y-101492913D01*
X123071403Y-101627620D01*
X123071401Y-101627627D01*
X123065000Y-101687155D01*
X122700000Y-101687155D01*
X122700000Y-101475000D01*
X121375000Y-101475000D01*
X121375000Y-102200000D01*
X120875000Y-102200000D01*
X120875000Y-101349000D01*
X120894685Y-101281961D01*
X120947489Y-101236206D01*
X120999000Y-101225000D01*
X121125000Y-101225000D01*
X121125000Y-101099000D01*
X121144685Y-101031961D01*
X121197489Y-100986206D01*
X121249000Y-100975000D01*
X122700000Y-100975000D01*
X122700000Y-100702172D01*
X122699999Y-100702155D01*
X122693598Y-100642627D01*
X122693596Y-100642620D01*
X122643354Y-100507913D01*
X122643350Y-100507906D01*
X122598737Y-100448311D01*
X122574319Y-100382847D01*
X122589170Y-100314574D01*
X122638575Y-100265168D01*
X122698003Y-100250000D01*
X125626000Y-100250000D01*
X125693039Y-100269685D01*
G37*
%TD.AperFunction*%
%TD*%
%TA.AperFunction,Conductor*%
%TO.N,/+5V_USB*%
G36*
X146443039Y-92769685D02*
G01*
X146488794Y-92822489D01*
X146500000Y-92874000D01*
X146500000Y-96126000D01*
X146480315Y-96193039D01*
X146427511Y-96238794D01*
X146376000Y-96250000D01*
X145140019Y-96250000D01*
X145072980Y-96230315D01*
X145027225Y-96177511D01*
X145017281Y-96108353D01*
X145046306Y-96044797D01*
X145052338Y-96038319D01*
X145369112Y-95721545D01*
X145369114Y-95721543D01*
X145445775Y-95606811D01*
X145498580Y-95479328D01*
X145525500Y-95343994D01*
X145525500Y-95206006D01*
X145525500Y-92874000D01*
X145545185Y-92806961D01*
X145597989Y-92761206D01*
X145649500Y-92750000D01*
X146376000Y-92750000D01*
X146443039Y-92769685D01*
G37*
%TD.AperFunction*%
%TD*%
%TA.AperFunction,Conductor*%
%TO.N,/VBAT*%
G36*
X145193039Y-86019685D02*
G01*
X145238794Y-86072489D01*
X145250000Y-86124000D01*
X145250000Y-87486778D01*
X145230315Y-87553817D01*
X145177511Y-87599572D01*
X145108353Y-87609516D01*
X145044797Y-87580491D01*
X145022898Y-87555669D01*
X145005669Y-87529884D01*
X144981415Y-87493585D01*
X144946238Y-87470080D01*
X144893593Y-87434904D01*
X144816150Y-87419500D01*
X144243422Y-87419500D01*
X144176383Y-87399815D01*
X144130628Y-87347011D01*
X144120483Y-87279314D01*
X144129999Y-87207036D01*
X144130000Y-87207022D01*
X144130000Y-86945000D01*
X143624000Y-86945000D01*
X143615314Y-86942449D01*
X143606353Y-86943738D01*
X143582312Y-86932759D01*
X143556961Y-86925315D01*
X143551033Y-86918474D01*
X143542797Y-86914713D01*
X143528507Y-86892478D01*
X143511206Y-86872511D01*
X143508918Y-86861996D01*
X143505023Y-86855935D01*
X143500000Y-86821000D01*
X143500000Y-86809000D01*
X143519685Y-86741961D01*
X143572489Y-86696206D01*
X143624000Y-86685000D01*
X144129999Y-86685000D01*
X144129999Y-86422968D01*
X144115459Y-86312513D01*
X144115456Y-86312504D01*
X144057031Y-86171453D01*
X144049562Y-86101983D01*
X144080837Y-86039504D01*
X144140926Y-86003852D01*
X144171592Y-86000000D01*
X145126000Y-86000000D01*
X145193039Y-86019685D01*
G37*
%TD.AperFunction*%
%TD*%
%TA.AperFunction,Conductor*%
%TO.N,+3.3V*%
G36*
X117693039Y-95269685D02*
G01*
X117738794Y-95322489D01*
X117750000Y-95374000D01*
X117750000Y-103876000D01*
X117730315Y-103943039D01*
X117677511Y-103988794D01*
X117626000Y-104000000D01*
X112624500Y-104000000D01*
X112557461Y-103980315D01*
X112511706Y-103927511D01*
X112500500Y-103876000D01*
X112500500Y-100597844D01*
X113750000Y-100597844D01*
X113756401Y-100657372D01*
X113756403Y-100657379D01*
X113806645Y-100792086D01*
X113806649Y-100792093D01*
X113892809Y-100907187D01*
X113892812Y-100907190D01*
X114007906Y-100993350D01*
X114007913Y-100993354D01*
X114142620Y-101043596D01*
X114142627Y-101043598D01*
X114202155Y-101049999D01*
X114202172Y-101050000D01*
X115075000Y-101050000D01*
X115575000Y-101050000D01*
X116447828Y-101050000D01*
X116447844Y-101049999D01*
X116507372Y-101043598D01*
X116507379Y-101043596D01*
X116642086Y-100993354D01*
X116642093Y-100993350D01*
X116757187Y-100907190D01*
X116757190Y-100907187D01*
X116843350Y-100792093D01*
X116843354Y-100792086D01*
X116893596Y-100657379D01*
X116893598Y-100657372D01*
X116899999Y-100597844D01*
X116900000Y-100597827D01*
X116900000Y-99175000D01*
X115575000Y-99175000D01*
X115575000Y-101050000D01*
X115075000Y-101050000D01*
X115075000Y-99175000D01*
X113750000Y-99175000D01*
X113750000Y-100597844D01*
X112500500Y-100597844D01*
X112500500Y-97252155D01*
X113750000Y-97252155D01*
X113750000Y-98675000D01*
X115075000Y-98675000D01*
X115575000Y-98675000D01*
X116900000Y-98675000D01*
X116900000Y-97252172D01*
X116899999Y-97252155D01*
X116893598Y-97192627D01*
X116893596Y-97192620D01*
X116843354Y-97057913D01*
X116843350Y-97057906D01*
X116757190Y-96942812D01*
X116757187Y-96942809D01*
X116642093Y-96856649D01*
X116642086Y-96856645D01*
X116507379Y-96806403D01*
X116507372Y-96806401D01*
X116447844Y-96800000D01*
X115575000Y-96800000D01*
X115575000Y-98675000D01*
X115075000Y-98675000D01*
X115075000Y-96800000D01*
X114202155Y-96800000D01*
X114142627Y-96806401D01*
X114142620Y-96806403D01*
X114007913Y-96856645D01*
X114007906Y-96856649D01*
X113892812Y-96942809D01*
X113892809Y-96942812D01*
X113806649Y-97057906D01*
X113806645Y-97057913D01*
X113756403Y-97192620D01*
X113756401Y-97192627D01*
X113750000Y-97252155D01*
X112500500Y-97252155D01*
X112500500Y-95374000D01*
X112520185Y-95306961D01*
X112572989Y-95261206D01*
X112624500Y-95250000D01*
X117626000Y-95250000D01*
X117693039Y-95269685D01*
G37*
%TD.AperFunction*%
%TD*%
%TA.AperFunction,Conductor*%
%TO.N,/VBUS*%
G36*
X152693039Y-92019685D02*
G01*
X152738794Y-92072489D01*
X152750000Y-92124000D01*
X152750000Y-93794316D01*
X152730315Y-93861355D01*
X152729103Y-93863206D01*
X152690608Y-93920817D01*
X152690602Y-93920828D01*
X152630264Y-94066498D01*
X152630261Y-94066510D01*
X152599500Y-94221153D01*
X152599500Y-94378846D01*
X152630261Y-94533489D01*
X152630264Y-94533501D01*
X152690602Y-94679172D01*
X152690606Y-94679179D01*
X152729102Y-94736793D01*
X152749980Y-94803468D01*
X152750000Y-94805683D01*
X152750000Y-95376000D01*
X152730315Y-95443039D01*
X152677511Y-95488794D01*
X152626000Y-95500000D01*
X151874000Y-95500000D01*
X151806961Y-95480315D01*
X151761206Y-95427511D01*
X151750000Y-95376000D01*
X151750000Y-92124000D01*
X151769685Y-92056961D01*
X151822489Y-92011206D01*
X151874000Y-92000000D01*
X152626000Y-92000000D01*
X152693039Y-92019685D01*
G37*
%TD.AperFunction*%
%TD*%
M02*
