%TF.GenerationSoftware,KiCad,Pcbnew,10.0.1*%
%TF.CreationDate,2026-06-02T10:42:23+02:00*%
%TF.ProjectId,ESP32-sensor-board,45535033-322d-4736-956e-736f722d626f,rev?*%
%TF.SameCoordinates,Original*%
%TF.FileFunction,Copper,L2,Inr*%
%TF.FilePolarity,Positive*%
%FSLAX46Y46*%
G04 Gerber Fmt 4.6, Leading zero omitted, Abs format (unit mm)*
G04 Created by KiCad (PCBNEW 10.0.1) date 2026-06-02 10:42:23*
%MOMM*%
%LPD*%
G01*
G04 APERTURE LIST*
%TA.AperFunction,ComponentPad*%
%ADD10O,1.050000X2.100000*%
%TD*%
%TA.AperFunction,ComponentPad*%
%ADD11C,0.650000*%
%TD*%
%TA.AperFunction,ComponentPad*%
%ADD12R,1.700000X1.700000*%
%TD*%
%TA.AperFunction,ComponentPad*%
%ADD13C,1.700000*%
%TD*%
%TA.AperFunction,ComponentPad*%
%ADD14C,1.208000*%
%TD*%
%TA.AperFunction,ViaPad*%
%ADD15C,0.500000*%
%TD*%
%TA.AperFunction,ViaPad*%
%ADD16C,0.600000*%
%TD*%
%TA.AperFunction,Conductor*%
%ADD17C,0.300000*%
%TD*%
%TA.AperFunction,Conductor*%
%ADD18C,0.254000*%
%TD*%
G04 APERTURE END LIST*
D10*
%TO.N,GND*%
%TO.C,J1*%
X160148250Y-104187500D03*
X151608250Y-104187500D03*
X160148250Y-99457500D03*
X151608250Y-99457500D03*
D11*
X153878250Y-98307500D03*
X157878250Y-98307500D03*
X153078250Y-98307500D03*
%TO.N,unconnected-(J1-SSRXP1-PadB11)*%
X153478250Y-99017500D03*
%TO.N,unconnected-(J1-SSRXN1-PadB10)*%
X154278250Y-99017500D03*
%TO.N,/VBUS*%
X154678250Y-98307500D03*
%TO.N,unconnected-(J1-SBU2-PadB8)*%
X155078250Y-99017500D03*
%TO.N,/USB_DN*%
X155478250Y-98307500D03*
%TO.N,/USB_DP*%
X156278250Y-98307500D03*
%TO.N,Net-(J1-CC2)*%
X156678250Y-99017500D03*
%TO.N,/VBUS*%
X157078250Y-98307500D03*
%TO.N,unconnected-(J1-SSTXN2-PadB3)*%
X157478250Y-99017500D03*
%TO.N,unconnected-(J1-SSTXP2-PadB2)*%
X158278250Y-99017500D03*
%TO.N,GND*%
X158678250Y-98307500D03*
%TD*%
D12*
%TO.N,+3.3V*%
%TO.C,J4*%
X114850000Y-62515000D03*
D13*
%TO.N,/ESP_32_C3_02/SDA*%
X114850000Y-65055000D03*
%TO.N,/ESP_32_C3_02/SCL*%
X114850000Y-67595000D03*
%TO.N,GND*%
X114850000Y-70135000D03*
%TD*%
D12*
%TO.N,+3.3V*%
%TO.C,J5*%
X114850000Y-77285000D03*
D13*
%TO.N,/ESP_32_C3_02/GPIO8*%
X114850000Y-79825000D03*
%TO.N,/ESP_32_C3_02/GPIO18*%
X114850000Y-82365000D03*
%TO.N,/ESP_32_C3_02/GPIO19*%
X114850000Y-84905000D03*
%TO.N,GND*%
X114850000Y-87445000D03*
%TD*%
D14*
%TO.N,GND*%
%TO.C,MK1*%
X124650000Y-60175000D03*
%TO.N,Net-(C17-Pad1)*%
X124650000Y-62075000D03*
%TD*%
D15*
%TO.N,GND*%
X140950000Y-108650000D03*
X146350000Y-106150000D03*
%TO.N,+3.3V*%
X130800000Y-70100000D03*
X119050000Y-98950000D03*
X178950000Y-90500000D03*
D16*
X118100000Y-107050000D03*
D15*
X203950000Y-78650000D03*
X180834004Y-74266955D03*
D16*
X170500000Y-65000000D03*
D15*
X143200000Y-66800000D03*
X116250000Y-60400000D03*
X172550000Y-101800000D03*
X127000000Y-108300000D03*
X163400000Y-104550000D03*
X209800000Y-76473000D03*
X131250000Y-62450000D03*
X165100000Y-65350000D03*
X115325002Y-101874999D03*
X162950000Y-81550000D03*
X172800000Y-66600000D03*
X191650000Y-71750000D03*
D16*
X193650000Y-64600000D03*
D15*
X117234999Y-77284999D03*
X180150000Y-62850000D03*
D16*
X173250000Y-60450000D03*
%TD*%
%TO.N,GND*%
D17*
X146350000Y-106150000D02*
X143350000Y-109150000D01*
X143350000Y-109150000D02*
X141450000Y-109150000D01*
X159828250Y-99457500D02*
X158678250Y-98307500D01*
X141450000Y-109150000D02*
X140950000Y-108650000D01*
X160148250Y-99457500D02*
X159828250Y-99457500D01*
%TO.N,/USB_DP*%
D18*
X156278250Y-98307500D02*
X156400000Y-98185750D01*
%TD*%
%TA.AperFunction,Conductor*%
%TO.N,+3.3V*%
G36*
X181581922Y-55501280D02*
G01*
X181598878Y-55503190D01*
X181672268Y-55511458D01*
X181699333Y-55517636D01*
X181778539Y-55545351D01*
X181803549Y-55557395D01*
X181874606Y-55602043D01*
X181896313Y-55619355D01*
X181955644Y-55678686D01*
X181972957Y-55700395D01*
X182017602Y-55771447D01*
X182029649Y-55796464D01*
X182057362Y-55875662D01*
X182063541Y-55902734D01*
X182073720Y-55993076D01*
X182074500Y-56006959D01*
X182074500Y-61107317D01*
X182105045Y-61319767D01*
X182105046Y-61319771D01*
X182165511Y-61525701D01*
X182165516Y-61525713D01*
X182254671Y-61720938D01*
X182254680Y-61720954D01*
X182370718Y-61901512D01*
X182511275Y-62063724D01*
X182673487Y-62204281D01*
X182854045Y-62320319D01*
X182854061Y-62320328D01*
X183009952Y-62391520D01*
X183049290Y-62409485D01*
X183049292Y-62409485D01*
X183049298Y-62409488D01*
X183223373Y-62460599D01*
X183255231Y-62469954D01*
X183467682Y-62500500D01*
X183467683Y-62500500D01*
X197682317Y-62500500D01*
X197682318Y-62500500D01*
X197894769Y-62469954D01*
X198010652Y-62435928D01*
X198100701Y-62409488D01*
X198100703Y-62409486D01*
X198100710Y-62409485D01*
X198207677Y-62360634D01*
X198295938Y-62320328D01*
X198295942Y-62320325D01*
X198295950Y-62320322D01*
X198476513Y-62204281D01*
X198638724Y-62063724D01*
X198779281Y-61901513D01*
X198895322Y-61720950D01*
X198895325Y-61720942D01*
X198895328Y-61720938D01*
X198942716Y-61617172D01*
X198984485Y-61525710D01*
X198993175Y-61496116D01*
X199017265Y-61414069D01*
X199044954Y-61319769D01*
X199075500Y-61107318D01*
X199075500Y-61000000D01*
X199075500Y-60934108D01*
X199075500Y-56006959D01*
X199076280Y-55993077D01*
X199076320Y-55992717D01*
X199086459Y-55902727D01*
X199092635Y-55875668D01*
X199120353Y-55796457D01*
X199132393Y-55771453D01*
X199177046Y-55700389D01*
X199194351Y-55678690D01*
X199253690Y-55619351D01*
X199275389Y-55602046D01*
X199346453Y-55557393D01*
X199371457Y-55545353D01*
X199450668Y-55517635D01*
X199477729Y-55511459D01*
X199553753Y-55502893D01*
X199568078Y-55501280D01*
X199581960Y-55500500D01*
X199640892Y-55500500D01*
X218509108Y-55500500D01*
X218568040Y-55500500D01*
X218581922Y-55501280D01*
X218598878Y-55503190D01*
X218672268Y-55511458D01*
X218699333Y-55517636D01*
X218778539Y-55545351D01*
X218803549Y-55557395D01*
X218874606Y-55602043D01*
X218896313Y-55619355D01*
X218955644Y-55678686D01*
X218972957Y-55700395D01*
X219017602Y-55771447D01*
X219029649Y-55796464D01*
X219057362Y-55875662D01*
X219063541Y-55902734D01*
X219073720Y-55993076D01*
X219074500Y-56006959D01*
X219074500Y-108993040D01*
X219073720Y-109006923D01*
X219063541Y-109097265D01*
X219057362Y-109124337D01*
X219029649Y-109203535D01*
X219017602Y-109228552D01*
X218972957Y-109299604D01*
X218955644Y-109321313D01*
X218896313Y-109380644D01*
X218874604Y-109397957D01*
X218803552Y-109442602D01*
X218778535Y-109454649D01*
X218699337Y-109482362D01*
X218672265Y-109488541D01*
X218581923Y-109498720D01*
X218568040Y-109499500D01*
X162220047Y-109499500D01*
X162153008Y-109479815D01*
X162107253Y-109427011D01*
X162096047Y-109375802D01*
X162091434Y-107464071D01*
X187999499Y-107464071D01*
X188024497Y-107589738D01*
X188024499Y-107589744D01*
X188073533Y-107708124D01*
X188073538Y-107708133D01*
X188144723Y-107814668D01*
X188144726Y-107814672D01*
X188235327Y-107905273D01*
X188235331Y-107905276D01*
X188341866Y-107976461D01*
X188341872Y-107976464D01*
X188341873Y-107976465D01*
X188460256Y-108025501D01*
X188460260Y-108025501D01*
X188460261Y-108025502D01*
X188585928Y-108050500D01*
X188585931Y-108050500D01*
X188714071Y-108050500D01*
X188798615Y-108033682D01*
X188839744Y-108025501D01*
X188958127Y-107976465D01*
X189064669Y-107905276D01*
X189155276Y-107814669D01*
X189226465Y-107708127D01*
X189275501Y-107589744D01*
X189300500Y-107464069D01*
X189300500Y-107335931D01*
X189300500Y-107335928D01*
X189275502Y-107210261D01*
X189275501Y-107210260D01*
X189275501Y-107210256D01*
X189226465Y-107091873D01*
X189226464Y-107091872D01*
X189226461Y-107091866D01*
X189155276Y-106985331D01*
X189155273Y-106985327D01*
X189064672Y-106894726D01*
X189064668Y-106894723D01*
X188958133Y-106823538D01*
X188958124Y-106823533D01*
X188839744Y-106774499D01*
X188839738Y-106774497D01*
X188714071Y-106749500D01*
X188714069Y-106749500D01*
X188585931Y-106749500D01*
X188585929Y-106749500D01*
X188460261Y-106774497D01*
X188460255Y-106774499D01*
X188341875Y-106823533D01*
X188341866Y-106823538D01*
X188235331Y-106894723D01*
X188235327Y-106894726D01*
X188144726Y-106985327D01*
X188144723Y-106985331D01*
X188073538Y-107091866D01*
X188073533Y-107091875D01*
X188024499Y-107210255D01*
X188024497Y-107210261D01*
X187999500Y-107335928D01*
X187999500Y-107335931D01*
X187999500Y-107464069D01*
X187999500Y-107464071D01*
X187999499Y-107464071D01*
X162091434Y-107464071D01*
X162088519Y-106256140D01*
X162108041Y-106189058D01*
X162143625Y-106152745D01*
X162214669Y-106105276D01*
X162305276Y-106014669D01*
X162376465Y-105908127D01*
X162425501Y-105789744D01*
X162450500Y-105664069D01*
X162450500Y-105535931D01*
X162450500Y-105535928D01*
X162425502Y-105410261D01*
X162425501Y-105410260D01*
X162425501Y-105410256D01*
X162376465Y-105291873D01*
X162376464Y-105291872D01*
X162376461Y-105291866D01*
X162305276Y-105185331D01*
X162305273Y-105185327D01*
X162214669Y-105094723D01*
X162140457Y-105045137D01*
X162095652Y-104991525D01*
X162085348Y-104942337D01*
X162082686Y-103839071D01*
X217374499Y-103839071D01*
X217399497Y-103964738D01*
X217399499Y-103964744D01*
X217448533Y-104083124D01*
X217448538Y-104083133D01*
X217519723Y-104189668D01*
X217519726Y-104189672D01*
X217610327Y-104280273D01*
X217610331Y-104280276D01*
X217716866Y-104351461D01*
X217716872Y-104351464D01*
X217716873Y-104351465D01*
X217835256Y-104400501D01*
X217835260Y-104400501D01*
X217835261Y-104400502D01*
X217960928Y-104425500D01*
X217960931Y-104425500D01*
X218089071Y-104425500D01*
X218173615Y-104408682D01*
X218214744Y-104400501D01*
X218333127Y-104351465D01*
X218439669Y-104280276D01*
X218530276Y-104189669D01*
X218601465Y-104083127D01*
X218650501Y-103964744D01*
X218675500Y-103839069D01*
X218675500Y-103710931D01*
X218675500Y-103710928D01*
X218650502Y-103585261D01*
X218650501Y-103585260D01*
X218650501Y-103585256D01*
X218605039Y-103475501D01*
X218601466Y-103466875D01*
X218601461Y-103466866D01*
X218530276Y-103360331D01*
X218530273Y-103360327D01*
X218439672Y-103269726D01*
X218439668Y-103269723D01*
X218333133Y-103198538D01*
X218333124Y-103198533D01*
X218214744Y-103149499D01*
X218214738Y-103149497D01*
X218089071Y-103124500D01*
X218089069Y-103124500D01*
X217960931Y-103124500D01*
X217960929Y-103124500D01*
X217835261Y-103149497D01*
X217835255Y-103149499D01*
X217716875Y-103198533D01*
X217716866Y-103198538D01*
X217610331Y-103269723D01*
X217610327Y-103269726D01*
X217519726Y-103360327D01*
X217519723Y-103360331D01*
X217448538Y-103466866D01*
X217448533Y-103466875D01*
X217399499Y-103585255D01*
X217399497Y-103585261D01*
X217374500Y-103710928D01*
X217374500Y-103710931D01*
X217374500Y-103839069D01*
X217374500Y-103839071D01*
X217374499Y-103839071D01*
X162082686Y-103839071D01*
X162080333Y-102864071D01*
X173599499Y-102864071D01*
X173624497Y-102989738D01*
X173624499Y-102989744D01*
X173673533Y-103108124D01*
X173673538Y-103108133D01*
X173744723Y-103214668D01*
X173744726Y-103214672D01*
X173835327Y-103305273D01*
X173835331Y-103305276D01*
X173941866Y-103376461D01*
X173941872Y-103376464D01*
X173941873Y-103376465D01*
X174060256Y-103425501D01*
X174060260Y-103425501D01*
X174060261Y-103425502D01*
X174185928Y-103450500D01*
X174185931Y-103450500D01*
X174314071Y-103450500D01*
X174398615Y-103433682D01*
X174439744Y-103425501D01*
X174558127Y-103376465D01*
X174664669Y-103305276D01*
X174755276Y-103214669D01*
X174826465Y-103108127D01*
X174875501Y-102989744D01*
X174890554Y-102914071D01*
X175499499Y-102914071D01*
X175524497Y-103039738D01*
X175524499Y-103039744D01*
X175573533Y-103158124D01*
X175573538Y-103158133D01*
X175644723Y-103264668D01*
X175644726Y-103264672D01*
X175735327Y-103355273D01*
X175735331Y-103355276D01*
X175841866Y-103426461D01*
X175841872Y-103426464D01*
X175841873Y-103426465D01*
X175960256Y-103475501D01*
X175960260Y-103475501D01*
X175960261Y-103475502D01*
X176085928Y-103500500D01*
X176085931Y-103500500D01*
X176214071Y-103500500D01*
X176298615Y-103483682D01*
X176339744Y-103475501D01*
X176458127Y-103426465D01*
X176564669Y-103355276D01*
X176655276Y-103264669D01*
X176726465Y-103158127D01*
X176775501Y-103039744D01*
X176788280Y-102975501D01*
X176800500Y-102914071D01*
X176800500Y-102785928D01*
X176775502Y-102660261D01*
X176775501Y-102660260D01*
X176775501Y-102660256D01*
X176726465Y-102541873D01*
X176726464Y-102541872D01*
X176726461Y-102541866D01*
X176655276Y-102435331D01*
X176655273Y-102435327D01*
X176564672Y-102344726D01*
X176564668Y-102344723D01*
X176458133Y-102273538D01*
X176458124Y-102273533D01*
X176339744Y-102224499D01*
X176339738Y-102224497D01*
X176214071Y-102199500D01*
X176214069Y-102199500D01*
X176085931Y-102199500D01*
X176085929Y-102199500D01*
X175960261Y-102224497D01*
X175960255Y-102224499D01*
X175841875Y-102273533D01*
X175841866Y-102273538D01*
X175735331Y-102344723D01*
X175735327Y-102344726D01*
X175644726Y-102435327D01*
X175644723Y-102435331D01*
X175573538Y-102541866D01*
X175573533Y-102541875D01*
X175524499Y-102660255D01*
X175524497Y-102660261D01*
X175499500Y-102785928D01*
X175499500Y-102785931D01*
X175499500Y-102914069D01*
X175499500Y-102914071D01*
X175499499Y-102914071D01*
X174890554Y-102914071D01*
X174892304Y-102905273D01*
X174900500Y-102864071D01*
X174900500Y-102735928D01*
X174875502Y-102610261D01*
X174875501Y-102610260D01*
X174875501Y-102610256D01*
X174832017Y-102505276D01*
X174826466Y-102491875D01*
X174826461Y-102491866D01*
X174755276Y-102385331D01*
X174755273Y-102385327D01*
X174664672Y-102294726D01*
X174664668Y-102294723D01*
X174558133Y-102223538D01*
X174558124Y-102223533D01*
X174439744Y-102174499D01*
X174439738Y-102174497D01*
X174314071Y-102149500D01*
X174314069Y-102149500D01*
X174185931Y-102149500D01*
X174185929Y-102149500D01*
X174060261Y-102174497D01*
X174060255Y-102174499D01*
X173941875Y-102223533D01*
X173941866Y-102223538D01*
X173835331Y-102294723D01*
X173835327Y-102294726D01*
X173744726Y-102385327D01*
X173744723Y-102385331D01*
X173673538Y-102491866D01*
X173673533Y-102491875D01*
X173624499Y-102610255D01*
X173624497Y-102610261D01*
X173599500Y-102735928D01*
X173599500Y-102735931D01*
X173599500Y-102864069D01*
X173599500Y-102864071D01*
X173599499Y-102864071D01*
X162080333Y-102864071D01*
X162078402Y-102064071D01*
X167449499Y-102064071D01*
X167474497Y-102189738D01*
X167474499Y-102189744D01*
X167523533Y-102308124D01*
X167523538Y-102308133D01*
X167594723Y-102414668D01*
X167594726Y-102414672D01*
X167685327Y-102505273D01*
X167685331Y-102505276D01*
X167791866Y-102576461D01*
X167791872Y-102576464D01*
X167791873Y-102576465D01*
X167910256Y-102625501D01*
X167910260Y-102625501D01*
X167910261Y-102625502D01*
X168035928Y-102650500D01*
X168035931Y-102650500D01*
X168164071Y-102650500D01*
X168248615Y-102633682D01*
X168289744Y-102625501D01*
X168408127Y-102576465D01*
X168514669Y-102505276D01*
X168605276Y-102414669D01*
X168676465Y-102308127D01*
X168725501Y-102189744D01*
X168744969Y-102091875D01*
X168750500Y-102064071D01*
X168750500Y-101935928D01*
X168725502Y-101810261D01*
X168725501Y-101810260D01*
X168725501Y-101810256D01*
X168676465Y-101691873D01*
X168676464Y-101691872D01*
X168676461Y-101691866D01*
X168605276Y-101585331D01*
X168605273Y-101585327D01*
X168514672Y-101494726D01*
X168514668Y-101494723D01*
X168408133Y-101423538D01*
X168408124Y-101423533D01*
X168289744Y-101374499D01*
X168289738Y-101374497D01*
X168164071Y-101349500D01*
X168164069Y-101349500D01*
X168035931Y-101349500D01*
X168035929Y-101349500D01*
X167910261Y-101374497D01*
X167910255Y-101374499D01*
X167791875Y-101423533D01*
X167791866Y-101423538D01*
X167685331Y-101494723D01*
X167685327Y-101494726D01*
X167594726Y-101585327D01*
X167594723Y-101585331D01*
X167523538Y-101691866D01*
X167523533Y-101691875D01*
X167474499Y-101810255D01*
X167474497Y-101810261D01*
X167449500Y-101935928D01*
X167449500Y-101935931D01*
X167449500Y-102064069D01*
X167449500Y-102064071D01*
X167449499Y-102064071D01*
X162078402Y-102064071D01*
X162074671Y-100518071D01*
X176649499Y-100518071D01*
X176674497Y-100643738D01*
X176674499Y-100643744D01*
X176723533Y-100762124D01*
X176723538Y-100762133D01*
X176794723Y-100868668D01*
X176794726Y-100868672D01*
X176885327Y-100959273D01*
X176885331Y-100959276D01*
X176991866Y-101030461D01*
X176991872Y-101030464D01*
X176991873Y-101030465D01*
X177110256Y-101079501D01*
X177110260Y-101079501D01*
X177110261Y-101079502D01*
X177235928Y-101104500D01*
X177235931Y-101104500D01*
X177364071Y-101104500D01*
X177448615Y-101087682D01*
X177489744Y-101079501D01*
X177608127Y-101030465D01*
X177714669Y-100959276D01*
X177805276Y-100868669D01*
X177876465Y-100762127D01*
X177925501Y-100643744D01*
X177933682Y-100602615D01*
X177941349Y-100564071D01*
X182599499Y-100564071D01*
X182624497Y-100689738D01*
X182624499Y-100689744D01*
X182673533Y-100808124D01*
X182673538Y-100808133D01*
X182744723Y-100914668D01*
X182744726Y-100914672D01*
X182835327Y-101005273D01*
X182835331Y-101005276D01*
X182941866Y-101076461D01*
X182941875Y-101076466D01*
X182949205Y-101079502D01*
X183060256Y-101125501D01*
X183060260Y-101125501D01*
X183060261Y-101125502D01*
X183185928Y-101150500D01*
X183185931Y-101150500D01*
X183314071Y-101150500D01*
X183398615Y-101133682D01*
X183439744Y-101125501D01*
X183558127Y-101076465D01*
X183664669Y-101005276D01*
X183755276Y-100914669D01*
X183826465Y-100808127D01*
X183875501Y-100689744D01*
X183900500Y-100564069D01*
X183900500Y-100435931D01*
X183900500Y-100435928D01*
X183875502Y-100310261D01*
X183875501Y-100310260D01*
X183875501Y-100310256D01*
X183826465Y-100191873D01*
X183826464Y-100191872D01*
X183826461Y-100191866D01*
X183755276Y-100085331D01*
X183755273Y-100085327D01*
X183664672Y-99994726D01*
X183664668Y-99994723D01*
X183558133Y-99923538D01*
X183558124Y-99923533D01*
X183439744Y-99874499D01*
X183439738Y-99874497D01*
X183314071Y-99849500D01*
X183314069Y-99849500D01*
X183185931Y-99849500D01*
X183185929Y-99849500D01*
X183060261Y-99874497D01*
X183060255Y-99874499D01*
X182941875Y-99923533D01*
X182941866Y-99923538D01*
X182835331Y-99994723D01*
X182835327Y-99994726D01*
X182744726Y-100085327D01*
X182744723Y-100085331D01*
X182673538Y-100191866D01*
X182673533Y-100191875D01*
X182624499Y-100310255D01*
X182624497Y-100310261D01*
X182599500Y-100435928D01*
X182599500Y-100435931D01*
X182599500Y-100564069D01*
X182599500Y-100564071D01*
X182599499Y-100564071D01*
X177941349Y-100564071D01*
X177950500Y-100518071D01*
X177950500Y-100389928D01*
X177925502Y-100264261D01*
X177925501Y-100264260D01*
X177925501Y-100264256D01*
X177876465Y-100145873D01*
X177876464Y-100145872D01*
X177876461Y-100145866D01*
X177805276Y-100039331D01*
X177805273Y-100039327D01*
X177714672Y-99948726D01*
X177714668Y-99948723D01*
X177608133Y-99877538D01*
X177608124Y-99877533D01*
X177489744Y-99828499D01*
X177489738Y-99828497D01*
X177364071Y-99803500D01*
X177364069Y-99803500D01*
X177235931Y-99803500D01*
X177235929Y-99803500D01*
X177110261Y-99828497D01*
X177110255Y-99828499D01*
X176991875Y-99877533D01*
X176991866Y-99877538D01*
X176885331Y-99948723D01*
X176885327Y-99948726D01*
X176794726Y-100039327D01*
X176794723Y-100039331D01*
X176723538Y-100145866D01*
X176723533Y-100145875D01*
X176674499Y-100264255D01*
X176674497Y-100264261D01*
X176649500Y-100389928D01*
X176649500Y-100389931D01*
X176649500Y-100518069D01*
X176649500Y-100518071D01*
X176649499Y-100518071D01*
X162074671Y-100518071D01*
X162070197Y-98664071D01*
X171449499Y-98664071D01*
X171474497Y-98789738D01*
X171474499Y-98789744D01*
X171523533Y-98908124D01*
X171523538Y-98908133D01*
X171594723Y-99014668D01*
X171594726Y-99014672D01*
X171685327Y-99105273D01*
X171685331Y-99105276D01*
X171791866Y-99176461D01*
X171791872Y-99176464D01*
X171791873Y-99176465D01*
X171910256Y-99225501D01*
X171910260Y-99225501D01*
X171910261Y-99225502D01*
X172035928Y-99250500D01*
X172035931Y-99250500D01*
X172164071Y-99250500D01*
X172248615Y-99233682D01*
X172289744Y-99225501D01*
X172408127Y-99176465D01*
X172514669Y-99105276D01*
X172605276Y-99014669D01*
X172676465Y-98908127D01*
X172725501Y-98789744D01*
X172750500Y-98664069D01*
X172750500Y-98535931D01*
X172750500Y-98535928D01*
X172725502Y-98410261D01*
X172725501Y-98410260D01*
X172725501Y-98410256D01*
X172676465Y-98291873D01*
X172676464Y-98291872D01*
X172676461Y-98291866D01*
X172605276Y-98185331D01*
X172605273Y-98185327D01*
X172514672Y-98094726D01*
X172514668Y-98094723D01*
X172408133Y-98023538D01*
X172408124Y-98023533D01*
X172289744Y-97974499D01*
X172289738Y-97974497D01*
X172164071Y-97949500D01*
X172164069Y-97949500D01*
X172035931Y-97949500D01*
X172035929Y-97949500D01*
X171910261Y-97974497D01*
X171910255Y-97974499D01*
X171791875Y-98023533D01*
X171791866Y-98023538D01*
X171685331Y-98094723D01*
X171685327Y-98094726D01*
X171594726Y-98185327D01*
X171594723Y-98185331D01*
X171523538Y-98291866D01*
X171523533Y-98291875D01*
X171474499Y-98410255D01*
X171474497Y-98410261D01*
X171449500Y-98535928D01*
X171449500Y-98535931D01*
X171449500Y-98664069D01*
X171449500Y-98664071D01*
X171449499Y-98664071D01*
X162070197Y-98664071D01*
X162066698Y-97214071D01*
X175499499Y-97214071D01*
X175524497Y-97339738D01*
X175524499Y-97339744D01*
X175573533Y-97458124D01*
X175573538Y-97458133D01*
X175644723Y-97564668D01*
X175644726Y-97564672D01*
X175735330Y-97655276D01*
X175763579Y-97674151D01*
X175808384Y-97727763D01*
X175817091Y-97797088D01*
X175816305Y-97801444D01*
X175799500Y-97885926D01*
X175799500Y-97885931D01*
X175799500Y-98014069D01*
X175799500Y-98014071D01*
X175799499Y-98014071D01*
X175824497Y-98139738D01*
X175824499Y-98139744D01*
X175873533Y-98258124D01*
X175873538Y-98258133D01*
X175944723Y-98364668D01*
X175944726Y-98364672D01*
X176035327Y-98455273D01*
X176035331Y-98455276D01*
X176141866Y-98526461D01*
X176141872Y-98526464D01*
X176141873Y-98526465D01*
X176260256Y-98575501D01*
X176260260Y-98575501D01*
X176260261Y-98575502D01*
X176385928Y-98600500D01*
X176385931Y-98600500D01*
X176514071Y-98600500D01*
X176598615Y-98583682D01*
X176639744Y-98575501D01*
X176758127Y-98526465D01*
X176864669Y-98455276D01*
X176955276Y-98364669D01*
X177026465Y-98258127D01*
X177075501Y-98139744D01*
X177090029Y-98066711D01*
X177100500Y-98014071D01*
X177100500Y-97885928D01*
X177075502Y-97760261D01*
X177075501Y-97760260D01*
X177075501Y-97760256D01*
X177026465Y-97641873D01*
X177026464Y-97641872D01*
X177026461Y-97641866D01*
X176955276Y-97535331D01*
X176955273Y-97535327D01*
X176864672Y-97444726D01*
X176864668Y-97444723D01*
X176836420Y-97425848D01*
X176791615Y-97372235D01*
X176782908Y-97302910D01*
X176783687Y-97298586D01*
X176800500Y-97214069D01*
X176800500Y-97085931D01*
X176800500Y-97085928D01*
X176775502Y-96960261D01*
X176775501Y-96960260D01*
X176775501Y-96960256D01*
X176737574Y-96868692D01*
X176726466Y-96841875D01*
X176726461Y-96841866D01*
X176655276Y-96735331D01*
X176655273Y-96735327D01*
X176564672Y-96644726D01*
X176564668Y-96644723D01*
X176458133Y-96573538D01*
X176458124Y-96573533D01*
X176339744Y-96524499D01*
X176339738Y-96524497D01*
X176214071Y-96499500D01*
X176214069Y-96499500D01*
X176085931Y-96499500D01*
X176085929Y-96499500D01*
X175960261Y-96524497D01*
X175960255Y-96524499D01*
X175841875Y-96573533D01*
X175841866Y-96573538D01*
X175735331Y-96644723D01*
X175735327Y-96644726D01*
X175644726Y-96735327D01*
X175644723Y-96735331D01*
X175573538Y-96841866D01*
X175573533Y-96841875D01*
X175524499Y-96960255D01*
X175524497Y-96960261D01*
X175499500Y-97085928D01*
X175499500Y-97085931D01*
X175499500Y-97214069D01*
X175499500Y-97214071D01*
X175499499Y-97214071D01*
X162066698Y-97214071D01*
X162065216Y-96599796D01*
X162084739Y-96532711D01*
X162137433Y-96486829D01*
X162188957Y-96475499D01*
X167494519Y-96464582D01*
X167493901Y-96164071D01*
X168949499Y-96164071D01*
X168974497Y-96289738D01*
X168974499Y-96289744D01*
X169023533Y-96408124D01*
X169023538Y-96408133D01*
X169094723Y-96514668D01*
X169094726Y-96514672D01*
X169185327Y-96605273D01*
X169185331Y-96605276D01*
X169291866Y-96676461D01*
X169291872Y-96676464D01*
X169291873Y-96676465D01*
X169410256Y-96725501D01*
X169410260Y-96725501D01*
X169410261Y-96725502D01*
X169535928Y-96750500D01*
X169535931Y-96750500D01*
X169664071Y-96750500D01*
X169748615Y-96733682D01*
X169789744Y-96725501D01*
X169908127Y-96676465D01*
X170014669Y-96605276D01*
X170105276Y-96514669D01*
X170176465Y-96408127D01*
X170225501Y-96289744D01*
X170250500Y-96164069D01*
X170250500Y-96035931D01*
X170250500Y-96035928D01*
X170225502Y-95910261D01*
X170225501Y-95910260D01*
X170225501Y-95910256D01*
X170176465Y-95791873D01*
X170176464Y-95791872D01*
X170176461Y-95791866D01*
X170105276Y-95685331D01*
X170105273Y-95685327D01*
X170014672Y-95594726D01*
X170014668Y-95594723D01*
X169908133Y-95523538D01*
X169908124Y-95523533D01*
X169789744Y-95474499D01*
X169789738Y-95474497D01*
X169664071Y-95449500D01*
X169664069Y-95449500D01*
X169535931Y-95449500D01*
X169535929Y-95449500D01*
X169410261Y-95474497D01*
X169410255Y-95474499D01*
X169291875Y-95523533D01*
X169291866Y-95523538D01*
X169185331Y-95594723D01*
X169185327Y-95594726D01*
X169094726Y-95685327D01*
X169094723Y-95685331D01*
X169023538Y-95791866D01*
X169023533Y-95791875D01*
X168974499Y-95910255D01*
X168974497Y-95910261D01*
X168949500Y-96035928D01*
X168949500Y-96035931D01*
X168949500Y-96164069D01*
X168949500Y-96164071D01*
X168949499Y-96164071D01*
X167493901Y-96164071D01*
X167491445Y-94970715D01*
X176456143Y-94970715D01*
X176481141Y-95096382D01*
X176481143Y-95096388D01*
X176530177Y-95214768D01*
X176530182Y-95214777D01*
X176601367Y-95321312D01*
X176601370Y-95321316D01*
X176691971Y-95411917D01*
X176691975Y-95411920D01*
X176798510Y-95483105D01*
X176798516Y-95483108D01*
X176798517Y-95483109D01*
X176916900Y-95532145D01*
X176916904Y-95532145D01*
X176916905Y-95532146D01*
X177042572Y-95557144D01*
X177042575Y-95557144D01*
X177170715Y-95557144D01*
X177255259Y-95540326D01*
X177296388Y-95532145D01*
X177414771Y-95483109D01*
X177521313Y-95411920D01*
X177611920Y-95321313D01*
X177683109Y-95214771D01*
X177732145Y-95096388D01*
X177757144Y-94970713D01*
X177757144Y-94939109D01*
X177776829Y-94872070D01*
X177829633Y-94826315D01*
X177856951Y-94817492D01*
X177961032Y-94796789D01*
X178079415Y-94747753D01*
X178185957Y-94676564D01*
X178276564Y-94585957D01*
X178347753Y-94479415D01*
X178396789Y-94361032D01*
X178406889Y-94310256D01*
X178421788Y-94235359D01*
X178421788Y-94107216D01*
X178396790Y-93981549D01*
X178396789Y-93981548D01*
X178396789Y-93981544D01*
X178347753Y-93863161D01*
X178347752Y-93863160D01*
X178347749Y-93863154D01*
X178276564Y-93756619D01*
X178276561Y-93756615D01*
X178185960Y-93666014D01*
X178185956Y-93666011D01*
X178079421Y-93594826D01*
X178079412Y-93594821D01*
X177961032Y-93545787D01*
X177961026Y-93545785D01*
X177835359Y-93520788D01*
X177835357Y-93520788D01*
X177707219Y-93520788D01*
X177707217Y-93520788D01*
X177581549Y-93545785D01*
X177581543Y-93545787D01*
X177463163Y-93594821D01*
X177463154Y-93594826D01*
X177356619Y-93666011D01*
X177356615Y-93666014D01*
X177266014Y-93756615D01*
X177266011Y-93756619D01*
X177194826Y-93863154D01*
X177194821Y-93863163D01*
X177145787Y-93981543D01*
X177145785Y-93981549D01*
X177120788Y-94107216D01*
X177120788Y-94138822D01*
X177101103Y-94205861D01*
X177048299Y-94251616D01*
X177020980Y-94260439D01*
X176916905Y-94281141D01*
X176916899Y-94281143D01*
X176798519Y-94330177D01*
X176798510Y-94330182D01*
X176691975Y-94401367D01*
X176691971Y-94401370D01*
X176601370Y-94491971D01*
X176601367Y-94491975D01*
X176530182Y-94598510D01*
X176530177Y-94598519D01*
X176481143Y-94716899D01*
X176481141Y-94716905D01*
X176456144Y-94842572D01*
X176456144Y-94842575D01*
X176456144Y-94970713D01*
X176456144Y-94970715D01*
X176456143Y-94970715D01*
X167491445Y-94970715D01*
X167482208Y-90482362D01*
X167482207Y-90482362D01*
X150853323Y-90522445D01*
X150786236Y-90502922D01*
X150740354Y-90450228D01*
X150729024Y-90398744D01*
X150715885Y-84947648D01*
X181824500Y-84947648D01*
X181824500Y-85152351D01*
X181856522Y-85354534D01*
X181919781Y-85549223D01*
X181952184Y-85612816D01*
X182012712Y-85731609D01*
X182012715Y-85731613D01*
X182133028Y-85897213D01*
X182277786Y-86041971D01*
X182413792Y-86140783D01*
X182443390Y-86162287D01*
X182559607Y-86221503D01*
X182625776Y-86255218D01*
X182625778Y-86255218D01*
X182625781Y-86255220D01*
X182718924Y-86285484D01*
X182820465Y-86318477D01*
X182921557Y-86334488D01*
X183022648Y-86350500D01*
X183022649Y-86350500D01*
X183227351Y-86350500D01*
X183227352Y-86350500D01*
X183429534Y-86318477D01*
X183624219Y-86255220D01*
X183806610Y-86162287D01*
X183933427Y-86070150D01*
X183972213Y-86041971D01*
X183972215Y-86041968D01*
X183972219Y-86041966D01*
X184032878Y-85981307D01*
X191774499Y-85981307D01*
X191806222Y-86140783D01*
X191806225Y-86140793D01*
X191868450Y-86291019D01*
X191868452Y-86291023D01*
X191958788Y-86426220D01*
X191958794Y-86426228D01*
X192073771Y-86541205D01*
X192073779Y-86541211D01*
X192208976Y-86631547D01*
X192208980Y-86631549D01*
X192359206Y-86693774D01*
X192359211Y-86693776D01*
X192359215Y-86693776D01*
X192359216Y-86693777D01*
X192518692Y-86725500D01*
X192518695Y-86725500D01*
X192681307Y-86725500D01*
X192788598Y-86704157D01*
X192840789Y-86693776D01*
X192991021Y-86631548D01*
X192991023Y-86631547D01*
X193114731Y-86548888D01*
X193126225Y-86541208D01*
X193241208Y-86426225D01*
X193313203Y-86318477D01*
X193331547Y-86291023D01*
X193331549Y-86291019D01*
X193377405Y-86180312D01*
X193393776Y-86140789D01*
X193413434Y-86041966D01*
X193425500Y-85981307D01*
X193425500Y-85818700D01*
X193425500Y-85818695D01*
X193425425Y-85818320D01*
X193424834Y-85815350D01*
X212524500Y-85815350D01*
X212524500Y-85984649D01*
X212550981Y-86151847D01*
X212603296Y-86312853D01*
X212622479Y-86350500D01*
X212658273Y-86420750D01*
X212680152Y-86463688D01*
X212779648Y-86600634D01*
X212779652Y-86600639D01*
X212899360Y-86720347D01*
X212899365Y-86720351D01*
X212999285Y-86792946D01*
X213036315Y-86819850D01*
X213132425Y-86868820D01*
X213187146Y-86896703D01*
X213187148Y-86896703D01*
X213187151Y-86896705D01*
X213273450Y-86924745D01*
X213348152Y-86949018D01*
X213515351Y-86975500D01*
X213515356Y-86975500D01*
X213684649Y-86975500D01*
X213851847Y-86949018D01*
X214012849Y-86896705D01*
X214163685Y-86819850D01*
X214300641Y-86720346D01*
X214420346Y-86600641D01*
X214519850Y-86463685D01*
X214596705Y-86312849D01*
X214649018Y-86151847D01*
X214655251Y-86112491D01*
X214675500Y-85984649D01*
X214675500Y-85815350D01*
X214649018Y-85648152D01*
X214624745Y-85573450D01*
X214596705Y-85487151D01*
X214596703Y-85487148D01*
X214596703Y-85487146D01*
X214564228Y-85423412D01*
X214519850Y-85336315D01*
X214463528Y-85258794D01*
X214420351Y-85199365D01*
X214420347Y-85199360D01*
X214300639Y-85079652D01*
X214300634Y-85079648D01*
X214163688Y-84980152D01*
X214163687Y-84980151D01*
X214163685Y-84980150D01*
X214116582Y-84956150D01*
X214012853Y-84903296D01*
X213851847Y-84850981D01*
X213684649Y-84824500D01*
X213684644Y-84824500D01*
X213515356Y-84824500D01*
X213515351Y-84824500D01*
X213348152Y-84850981D01*
X213187146Y-84903296D01*
X213036311Y-84980152D01*
X212899365Y-85079648D01*
X212899360Y-85079652D01*
X212779652Y-85199360D01*
X212779648Y-85199365D01*
X212680152Y-85336311D01*
X212603296Y-85487146D01*
X212550981Y-85648152D01*
X212524500Y-85815350D01*
X193424834Y-85815350D01*
X193393777Y-85659216D01*
X193393776Y-85659215D01*
X193393776Y-85659211D01*
X193348216Y-85549219D01*
X193331549Y-85508980D01*
X193331547Y-85508976D01*
X193241211Y-85373779D01*
X193241205Y-85373771D01*
X193126228Y-85258794D01*
X193126220Y-85258788D01*
X192991023Y-85168452D01*
X192991019Y-85168450D01*
X192840793Y-85106225D01*
X192840783Y-85106222D01*
X192681307Y-85074500D01*
X192681305Y-85074500D01*
X192518695Y-85074500D01*
X192518693Y-85074500D01*
X192359216Y-85106222D01*
X192359206Y-85106225D01*
X192208980Y-85168450D01*
X192208976Y-85168452D01*
X192073779Y-85258788D01*
X192073771Y-85258794D01*
X191958794Y-85373771D01*
X191958788Y-85373779D01*
X191868452Y-85508976D01*
X191868450Y-85508980D01*
X191806225Y-85659206D01*
X191806222Y-85659216D01*
X191774500Y-85818692D01*
X191774500Y-85818695D01*
X191774500Y-85981305D01*
X191774500Y-85981307D01*
X191774499Y-85981307D01*
X184032878Y-85981307D01*
X184116966Y-85897219D01*
X184116968Y-85897215D01*
X184116971Y-85897213D01*
X184231394Y-85739721D01*
X184231396Y-85739718D01*
X184237287Y-85731610D01*
X184330220Y-85549219D01*
X184393477Y-85354534D01*
X184425500Y-85152352D01*
X184425500Y-84947648D01*
X184393477Y-84745466D01*
X184330220Y-84550781D01*
X184330218Y-84550778D01*
X184330218Y-84550776D01*
X184246559Y-84386588D01*
X184237287Y-84368390D01*
X184216470Y-84339738D01*
X184116971Y-84202786D01*
X183972213Y-84058028D01*
X183806613Y-83937715D01*
X183806612Y-83937714D01*
X183806610Y-83937713D01*
X183731613Y-83899500D01*
X183624223Y-83844781D01*
X183429534Y-83781522D01*
X183230199Y-83749951D01*
X183227352Y-83749500D01*
X183022648Y-83749500D01*
X183019801Y-83749951D01*
X182820465Y-83781522D01*
X182625776Y-83844781D01*
X182443386Y-83937715D01*
X182277786Y-84058028D01*
X182133028Y-84202786D01*
X182012715Y-84368386D01*
X181919781Y-84550776D01*
X181856522Y-84745465D01*
X181824500Y-84947648D01*
X150715885Y-84947648D01*
X150715874Y-84943075D01*
X150714117Y-84214071D01*
X179349499Y-84214071D01*
X179374497Y-84339738D01*
X179374499Y-84339744D01*
X179423533Y-84458124D01*
X179423538Y-84458133D01*
X179494723Y-84564668D01*
X179494726Y-84564672D01*
X179585327Y-84655273D01*
X179585331Y-84655276D01*
X179691866Y-84726461D01*
X179691872Y-84726464D01*
X179691873Y-84726465D01*
X179810256Y-84775501D01*
X179810260Y-84775501D01*
X179810261Y-84775502D01*
X179935928Y-84800500D01*
X179935931Y-84800500D01*
X180064071Y-84800500D01*
X180148615Y-84783682D01*
X180189744Y-84775501D01*
X180308127Y-84726465D01*
X180414669Y-84655276D01*
X180505276Y-84564669D01*
X180576465Y-84458127D01*
X180625501Y-84339744D01*
X180633682Y-84298615D01*
X180650500Y-84214071D01*
X180650500Y-84085928D01*
X180625502Y-83960261D01*
X180625501Y-83960260D01*
X180625501Y-83960256D01*
X180576465Y-83841873D01*
X180576464Y-83841872D01*
X180576461Y-83841866D01*
X180505276Y-83735331D01*
X180505273Y-83735327D01*
X180414672Y-83644726D01*
X180414668Y-83644723D01*
X180308133Y-83573538D01*
X180308124Y-83573533D01*
X180189744Y-83524499D01*
X180189738Y-83524497D01*
X180064071Y-83499500D01*
X180064069Y-83499500D01*
X179935931Y-83499500D01*
X179935929Y-83499500D01*
X179810261Y-83524497D01*
X179810255Y-83524499D01*
X179691875Y-83573533D01*
X179691866Y-83573538D01*
X179585331Y-83644723D01*
X179585327Y-83644726D01*
X179494726Y-83735327D01*
X179494723Y-83735331D01*
X179423538Y-83841866D01*
X179423533Y-83841875D01*
X179374499Y-83960255D01*
X179374497Y-83960261D01*
X179349500Y-84085928D01*
X179349500Y-84085931D01*
X179349500Y-84214069D01*
X179349500Y-84214071D01*
X179349499Y-84214071D01*
X150714117Y-84214071D01*
X150713794Y-84080138D01*
X150711224Y-83014071D01*
X161099499Y-83014071D01*
X161124497Y-83139738D01*
X161124499Y-83139744D01*
X161173533Y-83258124D01*
X161173538Y-83258133D01*
X161244723Y-83364668D01*
X161244726Y-83364672D01*
X161335327Y-83455273D01*
X161335331Y-83455276D01*
X161441866Y-83526461D01*
X161441872Y-83526464D01*
X161441873Y-83526465D01*
X161560256Y-83575501D01*
X161560260Y-83575501D01*
X161560261Y-83575502D01*
X161685928Y-83600500D01*
X161685931Y-83600500D01*
X161814071Y-83600500D01*
X161898615Y-83583682D01*
X161939744Y-83575501D01*
X162058127Y-83526465D01*
X162164669Y-83455276D01*
X162255276Y-83364669D01*
X162326465Y-83258127D01*
X162375501Y-83139744D01*
X162400500Y-83014069D01*
X162400500Y-82885931D01*
X162400500Y-82885928D01*
X162375502Y-82760261D01*
X162375501Y-82760260D01*
X162375501Y-82760256D01*
X162326465Y-82641873D01*
X162326464Y-82641872D01*
X162326461Y-82641866D01*
X162255276Y-82535331D01*
X162255273Y-82535327D01*
X162164672Y-82444726D01*
X162164668Y-82444723D01*
X162058133Y-82373538D01*
X162058124Y-82373533D01*
X161939744Y-82324499D01*
X161939738Y-82324497D01*
X161814071Y-82299500D01*
X161814069Y-82299500D01*
X161685931Y-82299500D01*
X161685929Y-82299500D01*
X161560261Y-82324497D01*
X161560255Y-82324499D01*
X161441875Y-82373533D01*
X161441866Y-82373538D01*
X161335331Y-82444723D01*
X161335327Y-82444726D01*
X161244726Y-82535327D01*
X161244723Y-82535331D01*
X161173538Y-82641866D01*
X161173533Y-82641875D01*
X161124499Y-82760255D01*
X161124497Y-82760261D01*
X161099500Y-82885928D01*
X161099500Y-82885931D01*
X161099500Y-83014069D01*
X161099500Y-83014071D01*
X161099499Y-83014071D01*
X150711224Y-83014071D01*
X150710901Y-82880138D01*
X150708660Y-81950500D01*
X150707246Y-81364071D01*
X213799499Y-81364071D01*
X213824497Y-81489738D01*
X213824499Y-81489744D01*
X213873533Y-81608124D01*
X213873538Y-81608133D01*
X213944723Y-81714668D01*
X213944726Y-81714672D01*
X214035327Y-81805273D01*
X214035331Y-81805276D01*
X214141866Y-81876461D01*
X214141872Y-81876464D01*
X214141873Y-81876465D01*
X214260256Y-81925501D01*
X214260260Y-81925501D01*
X214260261Y-81925502D01*
X214385928Y-81950500D01*
X214385931Y-81950500D01*
X214514071Y-81950500D01*
X214598615Y-81933682D01*
X214639744Y-81925501D01*
X214758127Y-81876465D01*
X214864669Y-81805276D01*
X214955276Y-81714669D01*
X215026465Y-81608127D01*
X215075501Y-81489744D01*
X215100500Y-81364069D01*
X215100500Y-81235931D01*
X215100500Y-81235928D01*
X215075502Y-81110261D01*
X215075501Y-81110260D01*
X215075501Y-81110256D01*
X215026465Y-80991873D01*
X215026464Y-80991872D01*
X215026461Y-80991866D01*
X214955276Y-80885331D01*
X214955273Y-80885327D01*
X214864672Y-80794726D01*
X214864668Y-80794723D01*
X214758133Y-80723538D01*
X214758124Y-80723533D01*
X214639744Y-80674499D01*
X214639738Y-80674497D01*
X214514071Y-80649500D01*
X214514069Y-80649500D01*
X214385931Y-80649500D01*
X214385929Y-80649500D01*
X214260261Y-80674497D01*
X214260255Y-80674499D01*
X214141875Y-80723533D01*
X214141866Y-80723538D01*
X214035331Y-80794723D01*
X214035327Y-80794726D01*
X213944726Y-80885327D01*
X213944723Y-80885331D01*
X213873538Y-80991866D01*
X213873533Y-80991875D01*
X213824499Y-81110255D01*
X213824497Y-81110261D01*
X213799500Y-81235928D01*
X213799500Y-81235931D01*
X213799500Y-81364069D01*
X213799500Y-81364071D01*
X213799499Y-81364071D01*
X150707246Y-81364071D01*
X150703751Y-79914071D01*
X206299499Y-79914071D01*
X206324497Y-80039738D01*
X206324499Y-80039744D01*
X206373533Y-80158124D01*
X206373538Y-80158133D01*
X206444723Y-80264668D01*
X206444726Y-80264672D01*
X206535327Y-80355273D01*
X206535331Y-80355276D01*
X206641866Y-80426461D01*
X206641872Y-80426464D01*
X206641873Y-80426465D01*
X206760256Y-80475501D01*
X206760260Y-80475501D01*
X206760261Y-80475502D01*
X206885928Y-80500500D01*
X206885931Y-80500500D01*
X207014071Y-80500500D01*
X207098615Y-80483682D01*
X207139744Y-80475501D01*
X207258127Y-80426465D01*
X207364669Y-80355276D01*
X207455276Y-80264669D01*
X207526465Y-80158127D01*
X207575501Y-80039744D01*
X207597075Y-79931287D01*
X207600500Y-79914071D01*
X207600500Y-79785928D01*
X207575502Y-79660261D01*
X207575501Y-79660260D01*
X207575501Y-79660256D01*
X207526465Y-79541873D01*
X207526464Y-79541872D01*
X207526461Y-79541866D01*
X207455276Y-79435331D01*
X207455273Y-79435327D01*
X207364672Y-79344726D01*
X207364668Y-79344723D01*
X207258133Y-79273538D01*
X207258124Y-79273533D01*
X207139744Y-79224499D01*
X207139738Y-79224497D01*
X207014071Y-79199500D01*
X207014069Y-79199500D01*
X206885931Y-79199500D01*
X206885929Y-79199500D01*
X206760261Y-79224497D01*
X206760255Y-79224499D01*
X206641875Y-79273533D01*
X206641866Y-79273538D01*
X206535331Y-79344723D01*
X206535327Y-79344726D01*
X206444726Y-79435327D01*
X206444723Y-79435331D01*
X206373538Y-79541866D01*
X206373533Y-79541875D01*
X206324499Y-79660255D01*
X206324497Y-79660261D01*
X206299500Y-79785928D01*
X206299500Y-79785931D01*
X206299500Y-79914069D01*
X206299500Y-79914071D01*
X206299499Y-79914071D01*
X150703751Y-79914071D01*
X150700924Y-78741071D01*
X197849499Y-78741071D01*
X197874497Y-78866738D01*
X197874499Y-78866744D01*
X197923533Y-78985124D01*
X197923538Y-78985133D01*
X197994723Y-79091668D01*
X197994726Y-79091672D01*
X198085327Y-79182273D01*
X198085331Y-79182276D01*
X198191866Y-79253461D01*
X198191872Y-79253464D01*
X198191873Y-79253465D01*
X198310256Y-79302501D01*
X198310260Y-79302501D01*
X198310261Y-79302502D01*
X198435928Y-79327500D01*
X198435931Y-79327500D01*
X198564071Y-79327500D01*
X198648615Y-79310682D01*
X198689744Y-79302501D01*
X198808127Y-79253465D01*
X198914669Y-79182276D01*
X199005276Y-79091669D01*
X199076465Y-78985127D01*
X199125501Y-78866744D01*
X199150500Y-78741069D01*
X199150500Y-78612931D01*
X199150500Y-78612928D01*
X199125502Y-78487261D01*
X199125501Y-78487260D01*
X199125501Y-78487256D01*
X199076465Y-78368873D01*
X199076464Y-78368872D01*
X199076461Y-78368866D01*
X199005276Y-78262331D01*
X199005273Y-78262327D01*
X198914672Y-78171726D01*
X198914668Y-78171723D01*
X198808133Y-78100538D01*
X198808124Y-78100533D01*
X198689744Y-78051499D01*
X198689738Y-78051497D01*
X198564071Y-78026500D01*
X198564069Y-78026500D01*
X198435931Y-78026500D01*
X198435929Y-78026500D01*
X198310261Y-78051497D01*
X198310255Y-78051499D01*
X198191875Y-78100533D01*
X198191866Y-78100538D01*
X198085331Y-78171723D01*
X198085327Y-78171726D01*
X197994726Y-78262327D01*
X197994723Y-78262331D01*
X197923538Y-78368866D01*
X197923533Y-78368875D01*
X197874499Y-78487255D01*
X197874497Y-78487261D01*
X197849500Y-78612928D01*
X197849500Y-78612931D01*
X197849500Y-78741069D01*
X197849500Y-78741071D01*
X197849499Y-78741071D01*
X150700924Y-78741071D01*
X150700637Y-78622095D01*
X150700636Y-78622095D01*
X130617701Y-78705357D01*
X130509276Y-109375938D01*
X130489355Y-109442908D01*
X130436389Y-109488476D01*
X130385277Y-109499500D01*
X113006960Y-109499500D01*
X112993077Y-109498720D01*
X112902734Y-109488541D01*
X112875662Y-109482362D01*
X112796464Y-109454649D01*
X112771447Y-109442602D01*
X112700395Y-109397957D01*
X112678686Y-109380644D01*
X112619355Y-109321313D01*
X112602042Y-109299604D01*
X112557397Y-109228552D01*
X112545351Y-109203539D01*
X112517636Y-109124333D01*
X112511458Y-109097268D01*
X112501280Y-109006922D01*
X112500500Y-108993040D01*
X112500500Y-108464071D01*
X121549499Y-108464071D01*
X121574497Y-108589738D01*
X121574499Y-108589744D01*
X121623533Y-108708124D01*
X121623538Y-108708133D01*
X121694723Y-108814668D01*
X121694726Y-108814672D01*
X121785327Y-108905273D01*
X121785331Y-108905276D01*
X121891866Y-108976461D01*
X121891872Y-108976464D01*
X121891873Y-108976465D01*
X122010256Y-109025501D01*
X122010260Y-109025501D01*
X122010261Y-109025502D01*
X122135928Y-109050500D01*
X122135931Y-109050500D01*
X122264071Y-109050500D01*
X122348615Y-109033682D01*
X122389744Y-109025501D01*
X122508127Y-108976465D01*
X122614669Y-108905276D01*
X122705276Y-108814669D01*
X122776465Y-108708127D01*
X122825501Y-108589744D01*
X122850500Y-108464069D01*
X122850500Y-108335931D01*
X122850500Y-108335928D01*
X122825502Y-108210261D01*
X122825501Y-108210260D01*
X122825501Y-108210256D01*
X122776465Y-108091873D01*
X122776464Y-108091872D01*
X122776461Y-108091866D01*
X122705276Y-107985331D01*
X122705273Y-107985327D01*
X122614672Y-107894726D01*
X122614668Y-107894723D01*
X122508133Y-107823538D01*
X122508124Y-107823533D01*
X122389744Y-107774499D01*
X122389738Y-107774497D01*
X122264071Y-107749500D01*
X122264069Y-107749500D01*
X122135931Y-107749500D01*
X122135929Y-107749500D01*
X122010261Y-107774497D01*
X122010255Y-107774499D01*
X121891875Y-107823533D01*
X121891866Y-107823538D01*
X121785331Y-107894723D01*
X121785327Y-107894726D01*
X121694726Y-107985327D01*
X121694723Y-107985331D01*
X121623538Y-108091866D01*
X121623533Y-108091875D01*
X121574499Y-108210255D01*
X121574497Y-108210261D01*
X121549500Y-108335928D01*
X121549500Y-108335931D01*
X121549500Y-108464069D01*
X121549500Y-108464071D01*
X121549499Y-108464071D01*
X112500500Y-108464071D01*
X112500500Y-102464071D01*
X121349499Y-102464071D01*
X121374497Y-102589738D01*
X121374499Y-102589744D01*
X121423533Y-102708124D01*
X121423538Y-102708133D01*
X121494723Y-102814668D01*
X121494726Y-102814672D01*
X121585327Y-102905273D01*
X121585331Y-102905276D01*
X121691866Y-102976461D01*
X121691872Y-102976464D01*
X121691873Y-102976465D01*
X121810256Y-103025501D01*
X121810260Y-103025501D01*
X121810261Y-103025502D01*
X121935928Y-103050500D01*
X121935931Y-103050500D01*
X122064071Y-103050500D01*
X122148615Y-103033682D01*
X122189744Y-103025501D01*
X122308127Y-102976465D01*
X122414669Y-102905276D01*
X122505276Y-102814669D01*
X122576465Y-102708127D01*
X122625501Y-102589744D01*
X122644969Y-102491875D01*
X122650500Y-102464071D01*
X122650500Y-102335928D01*
X122625502Y-102210261D01*
X122625501Y-102210260D01*
X122625501Y-102210256D01*
X122576465Y-102091873D01*
X122576464Y-102091872D01*
X122576461Y-102091866D01*
X122505276Y-101985331D01*
X122505273Y-101985327D01*
X122414672Y-101894726D01*
X122414668Y-101894723D01*
X122308133Y-101823538D01*
X122308124Y-101823533D01*
X122189744Y-101774499D01*
X122189738Y-101774497D01*
X122064071Y-101749500D01*
X122064069Y-101749500D01*
X121935931Y-101749500D01*
X121935929Y-101749500D01*
X121810261Y-101774497D01*
X121810255Y-101774499D01*
X121691875Y-101823533D01*
X121691866Y-101823538D01*
X121585331Y-101894723D01*
X121585327Y-101894726D01*
X121494726Y-101985327D01*
X121494723Y-101985331D01*
X121423538Y-102091866D01*
X121423533Y-102091875D01*
X121374499Y-102210255D01*
X121374497Y-102210261D01*
X121349500Y-102335928D01*
X121349500Y-102335931D01*
X121349500Y-102464069D01*
X121349500Y-102464071D01*
X121349499Y-102464071D01*
X112500500Y-102464071D01*
X112500500Y-90297648D01*
X119874500Y-90297648D01*
X119874500Y-90502352D01*
X119878878Y-90529995D01*
X119906522Y-90704534D01*
X119969781Y-90899223D01*
X120062715Y-91081613D01*
X120183028Y-91247213D01*
X120327786Y-91391971D01*
X120482749Y-91504556D01*
X120493390Y-91512287D01*
X120609607Y-91571503D01*
X120675776Y-91605218D01*
X120675778Y-91605218D01*
X120675781Y-91605220D01*
X120780137Y-91639127D01*
X120870465Y-91668477D01*
X120971557Y-91684488D01*
X121072648Y-91700500D01*
X121072649Y-91700500D01*
X121277351Y-91700500D01*
X121277352Y-91700500D01*
X121479534Y-91668477D01*
X121674219Y-91605220D01*
X121856610Y-91512287D01*
X121949590Y-91444732D01*
X122022213Y-91391971D01*
X122022215Y-91391968D01*
X122022219Y-91391966D01*
X122166966Y-91247219D01*
X122166968Y-91247215D01*
X122166971Y-91247213D01*
X122242792Y-91142852D01*
X122287287Y-91081610D01*
X122380220Y-90899219D01*
X122443477Y-90704534D01*
X122475500Y-90502352D01*
X122475500Y-90297648D01*
X122443477Y-90095466D01*
X122380220Y-89900781D01*
X122380218Y-89900778D01*
X122380218Y-89900776D01*
X122321395Y-89785331D01*
X122287287Y-89718390D01*
X122270093Y-89694724D01*
X122166971Y-89552786D01*
X122022213Y-89408028D01*
X121856613Y-89287715D01*
X121856612Y-89287714D01*
X121856610Y-89287713D01*
X121799653Y-89258691D01*
X121674223Y-89194781D01*
X121479534Y-89131522D01*
X121304995Y-89103878D01*
X121277352Y-89099500D01*
X121072648Y-89099500D01*
X121048329Y-89103351D01*
X120870465Y-89131522D01*
X120675776Y-89194781D01*
X120493386Y-89287715D01*
X120327786Y-89408028D01*
X120183028Y-89552786D01*
X120062715Y-89718386D01*
X119969781Y-89900776D01*
X119906522Y-90095465D01*
X119879818Y-90264069D01*
X119874500Y-90297648D01*
X112500500Y-90297648D01*
X112500500Y-79718713D01*
X113499500Y-79718713D01*
X113499500Y-79931287D01*
X113532754Y-80141243D01*
X113572857Y-80264668D01*
X113598444Y-80343414D01*
X113694951Y-80532820D01*
X113819890Y-80704786D01*
X113970213Y-80855109D01*
X114142182Y-80980050D01*
X114150946Y-80984516D01*
X114201742Y-81032491D01*
X114218536Y-81100312D01*
X114195998Y-81166447D01*
X114150946Y-81205484D01*
X114142182Y-81209949D01*
X113970213Y-81334890D01*
X113819890Y-81485213D01*
X113694951Y-81657179D01*
X113598444Y-81846585D01*
X113532753Y-82048760D01*
X113499500Y-82258713D01*
X113499500Y-82471286D01*
X113526518Y-82641875D01*
X113532754Y-82681243D01*
X113597379Y-82880138D01*
X113598444Y-82883414D01*
X113694951Y-83072820D01*
X113819890Y-83244786D01*
X113970213Y-83395109D01*
X114142182Y-83520050D01*
X114150946Y-83524516D01*
X114201742Y-83572491D01*
X114218536Y-83640312D01*
X114195998Y-83706447D01*
X114150946Y-83745484D01*
X114142182Y-83749949D01*
X113970213Y-83874890D01*
X113819890Y-84025213D01*
X113694951Y-84197179D01*
X113598444Y-84386585D01*
X113532753Y-84588760D01*
X113499500Y-84798713D01*
X113499500Y-85011286D01*
X113529468Y-85200500D01*
X113532754Y-85221243D01*
X113582316Y-85373779D01*
X113598444Y-85423414D01*
X113694951Y-85612820D01*
X113819890Y-85784786D01*
X113970213Y-85935109D01*
X114142182Y-86060050D01*
X114150946Y-86064516D01*
X114201742Y-86112491D01*
X114218536Y-86180312D01*
X114195998Y-86246447D01*
X114150946Y-86285484D01*
X114142182Y-86289949D01*
X113970213Y-86414890D01*
X113819890Y-86565213D01*
X113694951Y-86737179D01*
X113598444Y-86926585D01*
X113532753Y-87128760D01*
X113503277Y-87314863D01*
X113499500Y-87338713D01*
X113499500Y-87551287D01*
X113504892Y-87585331D01*
X113532753Y-87761239D01*
X113532753Y-87761241D01*
X113532754Y-87761243D01*
X113575083Y-87891519D01*
X113598444Y-87963414D01*
X113694951Y-88152820D01*
X113819890Y-88324786D01*
X113970213Y-88475109D01*
X114142179Y-88600048D01*
X114142181Y-88600049D01*
X114142184Y-88600051D01*
X114331588Y-88696557D01*
X114533757Y-88762246D01*
X114743713Y-88795500D01*
X114743714Y-88795500D01*
X114956286Y-88795500D01*
X114956287Y-88795500D01*
X115166243Y-88762246D01*
X115368412Y-88696557D01*
X115557816Y-88600051D01*
X115591700Y-88575433D01*
X115729786Y-88475109D01*
X115729788Y-88475106D01*
X115729792Y-88475104D01*
X115880104Y-88324792D01*
X115880106Y-88324788D01*
X115880109Y-88324786D01*
X116005048Y-88152820D01*
X116005047Y-88152820D01*
X116005051Y-88152816D01*
X116050269Y-88064071D01*
X116699499Y-88064071D01*
X116724497Y-88189738D01*
X116724499Y-88189744D01*
X116773533Y-88308124D01*
X116773538Y-88308133D01*
X116844723Y-88414668D01*
X116844726Y-88414672D01*
X116935327Y-88505273D01*
X116935331Y-88505276D01*
X117041866Y-88576461D01*
X117041872Y-88576464D01*
X117041873Y-88576465D01*
X117160256Y-88625501D01*
X117160260Y-88625501D01*
X117160261Y-88625502D01*
X117285928Y-88650500D01*
X117285931Y-88650500D01*
X117414071Y-88650500D01*
X117514402Y-88630542D01*
X117539744Y-88625501D01*
X117658127Y-88576465D01*
X117764669Y-88505276D01*
X117855276Y-88414669D01*
X117926465Y-88308127D01*
X117975501Y-88189744D01*
X118000500Y-88064069D01*
X118000500Y-87935931D01*
X118000500Y-87935928D01*
X117975502Y-87810261D01*
X117975501Y-87810260D01*
X117975501Y-87810256D01*
X117926465Y-87691873D01*
X117926464Y-87691872D01*
X117926461Y-87691866D01*
X117855276Y-87585331D01*
X117855273Y-87585327D01*
X117764672Y-87494726D01*
X117764668Y-87494723D01*
X117658133Y-87423538D01*
X117658124Y-87423533D01*
X117539744Y-87374499D01*
X117539738Y-87374497D01*
X117414071Y-87349500D01*
X117414069Y-87349500D01*
X117285931Y-87349500D01*
X117285929Y-87349500D01*
X117160261Y-87374497D01*
X117160255Y-87374499D01*
X117041875Y-87423533D01*
X117041866Y-87423538D01*
X116935331Y-87494723D01*
X116935327Y-87494726D01*
X116844726Y-87585327D01*
X116844723Y-87585331D01*
X116773538Y-87691866D01*
X116773533Y-87691875D01*
X116724499Y-87810255D01*
X116724497Y-87810261D01*
X116699500Y-87935928D01*
X116699500Y-87935931D01*
X116699500Y-88064069D01*
X116699500Y-88064071D01*
X116699499Y-88064071D01*
X116050269Y-88064071D01*
X116101557Y-87963412D01*
X116167246Y-87761243D01*
X116200500Y-87551287D01*
X116200500Y-87338713D01*
X116167246Y-87128757D01*
X116101557Y-86926588D01*
X116005051Y-86737184D01*
X116005049Y-86737181D01*
X116005048Y-86737179D01*
X115880109Y-86565213D01*
X115729786Y-86414890D01*
X115557820Y-86289951D01*
X115557115Y-86289591D01*
X115549054Y-86285485D01*
X115498259Y-86237512D01*
X115481463Y-86169692D01*
X115503999Y-86103556D01*
X115549054Y-86064515D01*
X115557816Y-86060051D01*
X115666199Y-85981307D01*
X115729786Y-85935109D01*
X115729788Y-85935106D01*
X115729792Y-85935104D01*
X115880104Y-85784792D01*
X115880106Y-85784788D01*
X115880109Y-85784786D01*
X116005048Y-85612820D01*
X116005047Y-85612820D01*
X116005051Y-85612816D01*
X116101557Y-85423412D01*
X116167246Y-85221243D01*
X116200500Y-85011287D01*
X116200500Y-84798713D01*
X116167246Y-84588757D01*
X116101557Y-84386588D01*
X116005051Y-84197184D01*
X116005049Y-84197181D01*
X116005048Y-84197179D01*
X115880109Y-84025213D01*
X115729786Y-83874890D01*
X115557820Y-83749951D01*
X115556935Y-83749500D01*
X115549054Y-83745485D01*
X115498259Y-83697512D01*
X115481463Y-83629692D01*
X115503999Y-83563556D01*
X115549054Y-83524515D01*
X115557816Y-83520051D01*
X115646976Y-83455273D01*
X115729786Y-83395109D01*
X115729788Y-83395106D01*
X115729792Y-83395104D01*
X115880104Y-83244792D01*
X115880106Y-83244788D01*
X115880109Y-83244786D01*
X116005048Y-83072820D01*
X116005047Y-83072820D01*
X116005051Y-83072816D01*
X116101557Y-82883412D01*
X116167246Y-82681243D01*
X116200500Y-82471287D01*
X116200500Y-82258713D01*
X116167246Y-82048757D01*
X116101557Y-81846588D01*
X116005051Y-81657184D01*
X116005049Y-81657181D01*
X116005048Y-81657179D01*
X115880109Y-81485213D01*
X115729786Y-81334890D01*
X115557820Y-81209951D01*
X115557115Y-81209591D01*
X115549054Y-81205485D01*
X115498259Y-81157512D01*
X115481463Y-81089692D01*
X115503999Y-81023556D01*
X115549054Y-80984515D01*
X115557816Y-80980051D01*
X115688188Y-80885331D01*
X115729786Y-80855109D01*
X115729788Y-80855106D01*
X115729792Y-80855104D01*
X115880104Y-80704792D01*
X115880106Y-80704788D01*
X115880109Y-80704786D01*
X116005048Y-80532820D01*
X116005047Y-80532820D01*
X116005051Y-80532816D01*
X116101557Y-80343412D01*
X116167246Y-80141243D01*
X116200500Y-79931287D01*
X116200500Y-79718713D01*
X116167246Y-79508757D01*
X116101557Y-79306588D01*
X116005051Y-79117184D01*
X116005049Y-79117181D01*
X116005048Y-79117179D01*
X115880109Y-78945213D01*
X115766181Y-78831285D01*
X115732696Y-78769962D01*
X115737680Y-78700270D01*
X115779552Y-78644337D01*
X115810529Y-78627422D01*
X115942086Y-78578354D01*
X115942093Y-78578350D01*
X116057187Y-78492190D01*
X116057190Y-78492187D01*
X116143350Y-78377093D01*
X116143354Y-78377086D01*
X116193596Y-78242379D01*
X116193598Y-78242372D01*
X116199999Y-78182844D01*
X116200000Y-78182827D01*
X116200000Y-77535000D01*
X115283012Y-77535000D01*
X115295095Y-77514071D01*
X166849499Y-77514071D01*
X166874497Y-77639738D01*
X166874499Y-77639744D01*
X166923533Y-77758124D01*
X166923538Y-77758133D01*
X166994723Y-77864668D01*
X166994726Y-77864672D01*
X167085327Y-77955273D01*
X167085331Y-77955276D01*
X167191866Y-78026461D01*
X167191872Y-78026464D01*
X167191873Y-78026465D01*
X167310256Y-78075501D01*
X167310260Y-78075501D01*
X167310261Y-78075502D01*
X167435928Y-78100500D01*
X167435931Y-78100500D01*
X167564071Y-78100500D01*
X167648615Y-78083682D01*
X167689744Y-78075501D01*
X167808127Y-78026465D01*
X167901506Y-77964071D01*
X174999499Y-77964071D01*
X175024497Y-78089738D01*
X175024499Y-78089744D01*
X175073533Y-78208124D01*
X175073538Y-78208133D01*
X175144723Y-78314668D01*
X175144726Y-78314672D01*
X175235327Y-78405273D01*
X175235331Y-78405276D01*
X175341866Y-78476461D01*
X175341872Y-78476464D01*
X175341873Y-78476465D01*
X175460256Y-78525501D01*
X175460260Y-78525501D01*
X175460261Y-78525502D01*
X175585928Y-78550500D01*
X175585931Y-78550500D01*
X175714071Y-78550500D01*
X175798615Y-78533682D01*
X175839744Y-78525501D01*
X175958127Y-78476465D01*
X176064669Y-78405276D01*
X176155276Y-78314669D01*
X176226465Y-78208127D01*
X176275501Y-78089744D01*
X176300500Y-77964069D01*
X176300500Y-77835931D01*
X176300500Y-77835928D01*
X176275502Y-77710261D01*
X176275501Y-77710260D01*
X176275501Y-77710256D01*
X176226465Y-77591873D01*
X176226464Y-77591872D01*
X176226461Y-77591866D01*
X176155276Y-77485331D01*
X176155273Y-77485327D01*
X176064672Y-77394726D01*
X176064668Y-77394723D01*
X175958133Y-77323538D01*
X175958124Y-77323533D01*
X175839744Y-77274499D01*
X175839738Y-77274497D01*
X175714071Y-77249500D01*
X175714069Y-77249500D01*
X175585931Y-77249500D01*
X175585929Y-77249500D01*
X175460261Y-77274497D01*
X175460255Y-77274499D01*
X175341875Y-77323533D01*
X175341866Y-77323538D01*
X175235331Y-77394723D01*
X175235327Y-77394726D01*
X175144726Y-77485327D01*
X175144723Y-77485331D01*
X175073538Y-77591866D01*
X175073533Y-77591875D01*
X175024499Y-77710255D01*
X175024497Y-77710261D01*
X174999500Y-77835928D01*
X174999500Y-77835931D01*
X174999500Y-77964069D01*
X174999500Y-77964071D01*
X174999499Y-77964071D01*
X167901506Y-77964071D01*
X167914669Y-77955276D01*
X168005276Y-77864669D01*
X168034258Y-77821293D01*
X168074581Y-77760948D01*
X168074581Y-77760947D01*
X168076460Y-77758134D01*
X168076461Y-77758133D01*
X168076465Y-77758127D01*
X168125501Y-77639744D01*
X168135025Y-77591866D01*
X168150500Y-77514071D01*
X168150500Y-77385928D01*
X168125502Y-77260261D01*
X168125501Y-77260260D01*
X168125501Y-77260256D01*
X168076465Y-77141873D01*
X168076464Y-77141872D01*
X168076461Y-77141866D01*
X168005276Y-77035331D01*
X168005273Y-77035327D01*
X167914672Y-76944726D01*
X167914668Y-76944723D01*
X167808133Y-76873538D01*
X167808124Y-76873533D01*
X167689744Y-76824499D01*
X167689738Y-76824497D01*
X167564071Y-76799500D01*
X167564069Y-76799500D01*
X167435931Y-76799500D01*
X167435929Y-76799500D01*
X167310261Y-76824497D01*
X167310255Y-76824499D01*
X167191875Y-76873533D01*
X167191866Y-76873538D01*
X167085331Y-76944723D01*
X167085327Y-76944726D01*
X166994726Y-77035327D01*
X166994723Y-77035331D01*
X166923538Y-77141866D01*
X166923533Y-77141875D01*
X166874499Y-77260255D01*
X166874497Y-77260261D01*
X166849500Y-77385928D01*
X166849500Y-77385931D01*
X166849500Y-77514069D01*
X166849500Y-77514071D01*
X166849499Y-77514071D01*
X115295095Y-77514071D01*
X115315925Y-77477993D01*
X115350000Y-77350826D01*
X115350000Y-77219174D01*
X115315925Y-77092007D01*
X115283012Y-77035000D01*
X116200000Y-77035000D01*
X116200000Y-76387172D01*
X116199999Y-76387155D01*
X116193598Y-76327627D01*
X116193596Y-76327620D01*
X116143354Y-76192913D01*
X116143350Y-76192906D01*
X116057190Y-76077812D01*
X116057187Y-76077809D01*
X115942093Y-75991649D01*
X115942086Y-75991645D01*
X115807379Y-75941403D01*
X115807372Y-75941401D01*
X115747844Y-75935000D01*
X115100000Y-75935000D01*
X115100000Y-76851988D01*
X115042993Y-76819075D01*
X114915826Y-76785000D01*
X114784174Y-76785000D01*
X114657007Y-76819075D01*
X114600000Y-76851988D01*
X114600000Y-75935000D01*
X113952155Y-75935000D01*
X113892627Y-75941401D01*
X113892620Y-75941403D01*
X113757913Y-75991645D01*
X113757906Y-75991649D01*
X113642812Y-76077809D01*
X113642809Y-76077812D01*
X113556649Y-76192906D01*
X113556645Y-76192913D01*
X113506403Y-76327620D01*
X113506401Y-76327627D01*
X113500000Y-76387155D01*
X113500000Y-77035000D01*
X114416988Y-77035000D01*
X114384075Y-77092007D01*
X114350000Y-77219174D01*
X114350000Y-77350826D01*
X114384075Y-77477993D01*
X114416988Y-77535000D01*
X113500000Y-77535000D01*
X113500000Y-78182844D01*
X113506401Y-78242372D01*
X113506403Y-78242379D01*
X113556645Y-78377086D01*
X113556649Y-78377093D01*
X113642809Y-78492187D01*
X113642812Y-78492190D01*
X113757906Y-78578350D01*
X113757913Y-78578354D01*
X113889470Y-78627422D01*
X113945404Y-78669293D01*
X113969821Y-78734758D01*
X113954969Y-78803031D01*
X113933819Y-78831285D01*
X113819889Y-78945215D01*
X113694951Y-79117179D01*
X113598444Y-79306585D01*
X113532753Y-79508760D01*
X113508759Y-79660255D01*
X113499500Y-79718713D01*
X112500500Y-79718713D01*
X112500500Y-75264071D01*
X201449499Y-75264071D01*
X201474497Y-75389738D01*
X201474499Y-75389744D01*
X201523533Y-75508124D01*
X201523538Y-75508133D01*
X201594723Y-75614668D01*
X201594726Y-75614672D01*
X201685327Y-75705273D01*
X201685331Y-75705276D01*
X201791866Y-75776461D01*
X201791872Y-75776464D01*
X201791873Y-75776465D01*
X201910256Y-75825501D01*
X201910260Y-75825501D01*
X201910261Y-75825502D01*
X202035928Y-75850500D01*
X202035931Y-75850500D01*
X202164071Y-75850500D01*
X202248615Y-75833682D01*
X202289744Y-75825501D01*
X202408127Y-75776465D01*
X202514669Y-75705276D01*
X202605276Y-75614669D01*
X202676465Y-75508127D01*
X202725501Y-75389744D01*
X202750500Y-75264069D01*
X202750500Y-75135931D01*
X202750500Y-75135928D01*
X202725502Y-75010261D01*
X202725501Y-75010260D01*
X202725501Y-75010256D01*
X202676465Y-74891873D01*
X202676464Y-74891872D01*
X202676461Y-74891866D01*
X202605276Y-74785331D01*
X202605273Y-74785327D01*
X202514672Y-74694726D01*
X202514668Y-74694723D01*
X202408133Y-74623538D01*
X202408124Y-74623533D01*
X202289744Y-74574499D01*
X202289738Y-74574497D01*
X202164071Y-74549500D01*
X202164069Y-74549500D01*
X202035931Y-74549500D01*
X202035929Y-74549500D01*
X201910261Y-74574497D01*
X201910255Y-74574499D01*
X201791875Y-74623533D01*
X201791866Y-74623538D01*
X201685331Y-74694723D01*
X201685327Y-74694726D01*
X201594726Y-74785327D01*
X201594723Y-74785331D01*
X201523538Y-74891866D01*
X201523533Y-74891875D01*
X201474499Y-75010255D01*
X201474497Y-75010261D01*
X201449500Y-75135928D01*
X201449500Y-75135931D01*
X201449500Y-75264069D01*
X201449500Y-75264071D01*
X201449499Y-75264071D01*
X112500500Y-75264071D01*
X112500500Y-74041071D01*
X197999499Y-74041071D01*
X198024497Y-74166738D01*
X198024499Y-74166744D01*
X198073533Y-74285124D01*
X198073538Y-74285133D01*
X198144723Y-74391668D01*
X198144726Y-74391672D01*
X198235327Y-74482273D01*
X198235331Y-74482276D01*
X198341866Y-74553461D01*
X198341872Y-74553464D01*
X198341873Y-74553465D01*
X198460256Y-74602501D01*
X198460260Y-74602501D01*
X198460261Y-74602502D01*
X198585928Y-74627500D01*
X198585931Y-74627500D01*
X198714071Y-74627500D01*
X198798615Y-74610682D01*
X198839744Y-74602501D01*
X198958127Y-74553465D01*
X199064669Y-74482276D01*
X199155276Y-74391669D01*
X199226465Y-74285127D01*
X199275501Y-74166744D01*
X199283682Y-74125615D01*
X199295925Y-74064071D01*
X213099499Y-74064071D01*
X213124497Y-74189738D01*
X213124499Y-74189744D01*
X213173533Y-74308124D01*
X213173538Y-74308133D01*
X213244723Y-74414668D01*
X213244726Y-74414672D01*
X213335327Y-74505273D01*
X213335331Y-74505276D01*
X213441866Y-74576461D01*
X213441872Y-74576464D01*
X213441873Y-74576465D01*
X213560256Y-74625501D01*
X213560260Y-74625501D01*
X213560261Y-74625502D01*
X213685928Y-74650500D01*
X213685931Y-74650500D01*
X213814071Y-74650500D01*
X213898615Y-74633682D01*
X213939744Y-74625501D01*
X214058127Y-74576465D01*
X214164669Y-74505276D01*
X214255276Y-74414669D01*
X214326465Y-74308127D01*
X214375501Y-74189744D01*
X214400500Y-74064069D01*
X214400500Y-73935931D01*
X214400500Y-73935928D01*
X214375502Y-73810261D01*
X214375501Y-73810260D01*
X214375501Y-73810256D01*
X214326465Y-73691873D01*
X214326464Y-73691872D01*
X214326461Y-73691866D01*
X214255276Y-73585331D01*
X214255273Y-73585327D01*
X214164672Y-73494726D01*
X214164668Y-73494723D01*
X214058133Y-73423538D01*
X214058124Y-73423533D01*
X213939744Y-73374499D01*
X213939738Y-73374497D01*
X213814071Y-73349500D01*
X213814069Y-73349500D01*
X213685931Y-73349500D01*
X213685929Y-73349500D01*
X213560261Y-73374497D01*
X213560255Y-73374499D01*
X213441875Y-73423533D01*
X213441866Y-73423538D01*
X213335331Y-73494723D01*
X213335327Y-73494726D01*
X213244726Y-73585327D01*
X213244723Y-73585331D01*
X213173538Y-73691866D01*
X213173533Y-73691875D01*
X213124499Y-73810255D01*
X213124497Y-73810261D01*
X213099500Y-73935928D01*
X213099500Y-73935931D01*
X213099500Y-74064069D01*
X213099500Y-74064071D01*
X213099499Y-74064071D01*
X199295925Y-74064071D01*
X199300500Y-74041071D01*
X199300500Y-73912928D01*
X199275502Y-73787261D01*
X199275501Y-73787260D01*
X199275501Y-73787256D01*
X199226465Y-73668873D01*
X199226464Y-73668872D01*
X199226461Y-73668866D01*
X199155276Y-73562331D01*
X199155273Y-73562327D01*
X199064672Y-73471726D01*
X199064668Y-73471723D01*
X198958133Y-73400538D01*
X198958124Y-73400533D01*
X198839744Y-73351499D01*
X198839738Y-73351497D01*
X198714071Y-73326500D01*
X198714069Y-73326500D01*
X198585931Y-73326500D01*
X198585929Y-73326500D01*
X198460261Y-73351497D01*
X198460255Y-73351499D01*
X198341875Y-73400533D01*
X198341866Y-73400538D01*
X198235331Y-73471723D01*
X198235327Y-73471726D01*
X198144726Y-73562327D01*
X198144723Y-73562331D01*
X198073538Y-73668866D01*
X198073533Y-73668875D01*
X198024499Y-73787255D01*
X198024497Y-73787261D01*
X197999500Y-73912928D01*
X197999500Y-73912931D01*
X197999500Y-74041069D01*
X197999500Y-74041071D01*
X197999499Y-74041071D01*
X112500500Y-74041071D01*
X112500500Y-72814071D01*
X153399499Y-72814071D01*
X153424497Y-72939738D01*
X153424499Y-72939744D01*
X153473533Y-73058124D01*
X153473538Y-73058133D01*
X153544723Y-73164668D01*
X153544726Y-73164672D01*
X153635327Y-73255273D01*
X153635331Y-73255276D01*
X153741866Y-73326461D01*
X153741872Y-73326464D01*
X153741873Y-73326465D01*
X153860256Y-73375501D01*
X153860260Y-73375501D01*
X153860261Y-73375502D01*
X153985928Y-73400500D01*
X153985931Y-73400500D01*
X154114071Y-73400500D01*
X154198615Y-73383682D01*
X154239744Y-73375501D01*
X154358127Y-73326465D01*
X154464669Y-73255276D01*
X154555276Y-73164669D01*
X154626465Y-73058127D01*
X154675501Y-72939744D01*
X154700500Y-72814069D01*
X154700500Y-72685931D01*
X154700500Y-72685928D01*
X154675502Y-72560261D01*
X154675501Y-72560260D01*
X154675501Y-72560256D01*
X154633196Y-72458124D01*
X154626466Y-72441875D01*
X154626461Y-72441866D01*
X154555276Y-72335331D01*
X154555273Y-72335327D01*
X154464672Y-72244726D01*
X154464668Y-72244723D01*
X154358133Y-72173538D01*
X154358124Y-72173533D01*
X154239744Y-72124499D01*
X154239738Y-72124497D01*
X154114071Y-72099500D01*
X154114069Y-72099500D01*
X153985931Y-72099500D01*
X153985929Y-72099500D01*
X153860261Y-72124497D01*
X153860255Y-72124499D01*
X153741875Y-72173533D01*
X153741866Y-72173538D01*
X153635331Y-72244723D01*
X153635327Y-72244726D01*
X153544726Y-72335327D01*
X153544723Y-72335331D01*
X153473538Y-72441866D01*
X153473533Y-72441875D01*
X153424499Y-72560255D01*
X153424497Y-72560261D01*
X153399500Y-72685928D01*
X153399500Y-72685931D01*
X153399500Y-72814069D01*
X153399500Y-72814071D01*
X153399499Y-72814071D01*
X112500500Y-72814071D01*
X112500500Y-64948713D01*
X113499500Y-64948713D01*
X113499500Y-65161287D01*
X113532754Y-65371243D01*
X113571949Y-65491873D01*
X113598444Y-65573414D01*
X113694951Y-65762820D01*
X113819890Y-65934786D01*
X113970213Y-66085109D01*
X114142182Y-66210050D01*
X114150946Y-66214516D01*
X114201742Y-66262491D01*
X114218536Y-66330312D01*
X114195998Y-66396447D01*
X114150946Y-66435484D01*
X114142182Y-66439949D01*
X113970213Y-66564890D01*
X113819890Y-66715213D01*
X113694951Y-66887179D01*
X113598444Y-67076585D01*
X113532753Y-67278760D01*
X113499500Y-67488713D01*
X113499500Y-67701286D01*
X113526781Y-67873535D01*
X113532754Y-67911243D01*
X113566164Y-68014069D01*
X113598444Y-68113414D01*
X113694951Y-68302820D01*
X113819890Y-68474786D01*
X113970213Y-68625109D01*
X114142182Y-68750050D01*
X114150946Y-68754516D01*
X114201742Y-68802491D01*
X114218536Y-68870312D01*
X114195998Y-68936447D01*
X114150946Y-68975484D01*
X114142182Y-68979949D01*
X113970213Y-69104890D01*
X113819890Y-69255213D01*
X113694951Y-69427179D01*
X113598444Y-69616585D01*
X113532753Y-69818760D01*
X113499500Y-70028713D01*
X113499500Y-70241286D01*
X113530328Y-70435931D01*
X113532754Y-70451243D01*
X113573128Y-70575502D01*
X113598444Y-70653414D01*
X113694951Y-70842820D01*
X113819890Y-71014786D01*
X113970213Y-71165109D01*
X114142179Y-71290048D01*
X114142181Y-71290049D01*
X114142184Y-71290051D01*
X114331588Y-71386557D01*
X114533757Y-71452246D01*
X114743713Y-71485500D01*
X114743714Y-71485500D01*
X114956285Y-71485500D01*
X114956287Y-71485500D01*
X115040691Y-71472131D01*
X115109981Y-71481085D01*
X115163434Y-71526081D01*
X115184074Y-71592832D01*
X115165350Y-71660146D01*
X115147769Y-71682284D01*
X115094727Y-71735326D01*
X115094723Y-71735331D01*
X115023538Y-71841866D01*
X115023533Y-71841875D01*
X114974499Y-71960255D01*
X114974497Y-71960261D01*
X114949500Y-72085928D01*
X114949500Y-72085931D01*
X114949500Y-72214069D01*
X114949500Y-72214071D01*
X114949499Y-72214071D01*
X114974497Y-72339738D01*
X114974499Y-72339744D01*
X115023533Y-72458124D01*
X115023538Y-72458133D01*
X115094723Y-72564668D01*
X115094726Y-72564672D01*
X115185327Y-72655273D01*
X115185331Y-72655276D01*
X115291866Y-72726461D01*
X115291872Y-72726464D01*
X115291873Y-72726465D01*
X115410256Y-72775501D01*
X115410260Y-72775501D01*
X115410261Y-72775502D01*
X115535928Y-72800500D01*
X115535931Y-72800500D01*
X115664071Y-72800500D01*
X115748615Y-72783682D01*
X115789744Y-72775501D01*
X115908127Y-72726465D01*
X116014669Y-72655276D01*
X116014672Y-72655273D01*
X116077788Y-72592158D01*
X116105273Y-72564672D01*
X116105276Y-72564669D01*
X116176465Y-72458127D01*
X116225501Y-72339744D01*
X116241175Y-72260948D01*
X116250500Y-72214071D01*
X116250500Y-72085928D01*
X116225502Y-71960261D01*
X116225501Y-71960260D01*
X116225501Y-71960256D01*
X116182017Y-71855276D01*
X116176466Y-71841875D01*
X116176461Y-71841866D01*
X116105276Y-71735331D01*
X116105273Y-71735327D01*
X116014672Y-71644726D01*
X116014668Y-71644723D01*
X115908133Y-71573538D01*
X115908124Y-71573533D01*
X115789744Y-71524499D01*
X115789738Y-71524497D01*
X115664071Y-71499500D01*
X115664069Y-71499500D01*
X115651168Y-71499500D01*
X115584129Y-71479815D01*
X115538374Y-71427011D01*
X115528430Y-71357853D01*
X115557455Y-71294297D01*
X115578283Y-71275182D01*
X115729785Y-71165109D01*
X115729783Y-71165109D01*
X115729792Y-71165104D01*
X115880104Y-71014792D01*
X115880106Y-71014788D01*
X115880109Y-71014786D01*
X116005048Y-70842820D01*
X116005047Y-70842820D01*
X116005051Y-70842816D01*
X116079018Y-70697648D01*
X119674500Y-70697648D01*
X119674500Y-70902351D01*
X119706522Y-71104534D01*
X119769781Y-71299223D01*
X119813962Y-71385931D01*
X119862445Y-71481085D01*
X119862715Y-71481613D01*
X119983028Y-71647213D01*
X120127786Y-71791971D01*
X120269215Y-71894723D01*
X120293390Y-71912287D01*
X120387544Y-71960261D01*
X120475776Y-72005218D01*
X120475778Y-72005218D01*
X120475781Y-72005220D01*
X120580137Y-72039127D01*
X120670465Y-72068477D01*
X120714813Y-72075501D01*
X120872648Y-72100500D01*
X120872649Y-72100500D01*
X121077351Y-72100500D01*
X121077352Y-72100500D01*
X121279534Y-72068477D01*
X121474219Y-72005220D01*
X121656610Y-71912287D01*
X121722974Y-71864071D01*
X125949499Y-71864071D01*
X125974497Y-71989738D01*
X125974499Y-71989744D01*
X126023533Y-72108124D01*
X126023538Y-72108133D01*
X126094723Y-72214668D01*
X126094726Y-72214672D01*
X126185327Y-72305273D01*
X126185331Y-72305276D01*
X126291866Y-72376461D01*
X126291872Y-72376464D01*
X126291873Y-72376465D01*
X126410256Y-72425501D01*
X126410260Y-72425501D01*
X126410261Y-72425502D01*
X126535928Y-72450500D01*
X126535931Y-72450500D01*
X126664071Y-72450500D01*
X126748615Y-72433682D01*
X126789744Y-72425501D01*
X126908127Y-72376465D01*
X127014669Y-72305276D01*
X127105276Y-72214669D01*
X127176465Y-72108127D01*
X127225501Y-71989744D01*
X127244402Y-71894724D01*
X127250500Y-71864071D01*
X127250500Y-71814071D01*
X142749499Y-71814071D01*
X142774497Y-71939738D01*
X142774499Y-71939744D01*
X142823533Y-72058124D01*
X142823538Y-72058133D01*
X142894723Y-72164668D01*
X142894726Y-72164672D01*
X142985327Y-72255273D01*
X142985331Y-72255276D01*
X143091866Y-72326461D01*
X143091872Y-72326464D01*
X143091873Y-72326465D01*
X143210256Y-72375501D01*
X143210260Y-72375501D01*
X143210261Y-72375502D01*
X143335928Y-72400500D01*
X143335931Y-72400500D01*
X143464071Y-72400500D01*
X143548615Y-72383682D01*
X143589744Y-72375501D01*
X143708127Y-72326465D01*
X143814669Y-72255276D01*
X143905276Y-72164669D01*
X143976465Y-72058127D01*
X144025501Y-71939744D01*
X144040554Y-71864071D01*
X150049499Y-71864071D01*
X150074497Y-71989738D01*
X150074499Y-71989744D01*
X150123533Y-72108124D01*
X150123538Y-72108133D01*
X150194723Y-72214668D01*
X150194726Y-72214672D01*
X150285327Y-72305273D01*
X150285331Y-72305276D01*
X150391866Y-72376461D01*
X150391872Y-72376464D01*
X150391873Y-72376465D01*
X150510256Y-72425501D01*
X150510260Y-72425501D01*
X150510261Y-72425502D01*
X150635928Y-72450500D01*
X150635931Y-72450500D01*
X150764071Y-72450500D01*
X150848615Y-72433682D01*
X150889744Y-72425501D01*
X151008127Y-72376465D01*
X151114669Y-72305276D01*
X151205276Y-72214669D01*
X151276465Y-72108127D01*
X151325501Y-71989744D01*
X151344402Y-71894724D01*
X151350500Y-71864071D01*
X151350500Y-71735928D01*
X151325502Y-71610261D01*
X151325501Y-71610260D01*
X151325501Y-71610256D01*
X151285660Y-71514071D01*
X156199499Y-71514071D01*
X156224497Y-71639738D01*
X156224499Y-71639744D01*
X156273533Y-71758124D01*
X156273538Y-71758133D01*
X156344723Y-71864668D01*
X156344726Y-71864672D01*
X156435327Y-71955273D01*
X156435331Y-71955276D01*
X156541866Y-72026461D01*
X156541872Y-72026464D01*
X156541873Y-72026465D01*
X156660256Y-72075501D01*
X156660260Y-72075501D01*
X156660261Y-72075502D01*
X156785928Y-72100500D01*
X156785931Y-72100500D01*
X156914071Y-72100500D01*
X156998615Y-72083682D01*
X157039744Y-72075501D01*
X157158127Y-72026465D01*
X157251506Y-71964071D01*
X195249499Y-71964071D01*
X195274497Y-72089738D01*
X195274499Y-72089744D01*
X195323533Y-72208124D01*
X195323538Y-72208133D01*
X195394723Y-72314668D01*
X195394726Y-72314672D01*
X195485327Y-72405273D01*
X195485331Y-72405276D01*
X195591866Y-72476461D01*
X195591872Y-72476464D01*
X195591873Y-72476465D01*
X195710256Y-72525501D01*
X195710260Y-72525501D01*
X195710261Y-72525502D01*
X195835928Y-72550500D01*
X195835931Y-72550500D01*
X195964071Y-72550500D01*
X196048615Y-72533682D01*
X196089744Y-72525501D01*
X196208127Y-72476465D01*
X196226676Y-72464071D01*
X214949499Y-72464071D01*
X214974497Y-72589738D01*
X214974499Y-72589744D01*
X215023533Y-72708124D01*
X215023538Y-72708133D01*
X215094723Y-72814668D01*
X215094726Y-72814672D01*
X215185327Y-72905273D01*
X215185331Y-72905276D01*
X215291866Y-72976461D01*
X215291872Y-72976464D01*
X215291873Y-72976465D01*
X215410256Y-73025501D01*
X215410260Y-73025501D01*
X215410261Y-73025502D01*
X215535928Y-73050500D01*
X215535931Y-73050500D01*
X215664071Y-73050500D01*
X215748615Y-73033682D01*
X215789744Y-73025501D01*
X215908127Y-72976465D01*
X216014669Y-72905276D01*
X216105276Y-72814669D01*
X216176465Y-72708127D01*
X216225501Y-72589744D01*
X216248034Y-72476466D01*
X216250500Y-72464071D01*
X216250500Y-72335928D01*
X216225502Y-72210261D01*
X216225501Y-72210260D01*
X216225501Y-72210256D01*
X216183196Y-72108124D01*
X216176466Y-72091875D01*
X216176461Y-72091866D01*
X216105276Y-71985331D01*
X216105273Y-71985327D01*
X216014672Y-71894726D01*
X216014668Y-71894723D01*
X215908133Y-71823538D01*
X215908124Y-71823533D01*
X215789744Y-71774499D01*
X215789738Y-71774497D01*
X215664071Y-71749500D01*
X215664069Y-71749500D01*
X215535931Y-71749500D01*
X215535929Y-71749500D01*
X215410261Y-71774497D01*
X215410255Y-71774499D01*
X215291875Y-71823533D01*
X215291866Y-71823538D01*
X215185331Y-71894723D01*
X215185327Y-71894726D01*
X215094726Y-71985327D01*
X215094723Y-71985331D01*
X215023538Y-72091866D01*
X215023533Y-72091875D01*
X214974499Y-72210255D01*
X214974497Y-72210261D01*
X214949500Y-72335928D01*
X214949500Y-72335931D01*
X214949500Y-72464069D01*
X214949500Y-72464071D01*
X214949499Y-72464071D01*
X196226676Y-72464071D01*
X196314669Y-72405276D01*
X196405276Y-72314669D01*
X196421393Y-72290548D01*
X196441172Y-72260948D01*
X196441173Y-72260946D01*
X196476458Y-72208138D01*
X196476461Y-72208133D01*
X196476465Y-72208127D01*
X196525501Y-72089744D01*
X196538089Y-72026461D01*
X196550500Y-71964071D01*
X196550500Y-71835928D01*
X196525502Y-71710261D01*
X196525501Y-71710260D01*
X196525501Y-71710256D01*
X196476465Y-71591873D01*
X196476464Y-71591872D01*
X196476461Y-71591866D01*
X196405276Y-71485331D01*
X196405273Y-71485327D01*
X196334017Y-71414071D01*
X207699499Y-71414071D01*
X207724497Y-71539738D01*
X207724499Y-71539744D01*
X207773533Y-71658124D01*
X207773538Y-71658133D01*
X207844723Y-71764668D01*
X207844726Y-71764672D01*
X207935327Y-71855273D01*
X207935331Y-71855276D01*
X208041866Y-71926461D01*
X208041872Y-71926464D01*
X208041873Y-71926465D01*
X208160256Y-71975501D01*
X208160260Y-71975501D01*
X208160261Y-71975502D01*
X208285928Y-72000500D01*
X208285931Y-72000500D01*
X208414071Y-72000500D01*
X208498615Y-71983682D01*
X208539744Y-71975501D01*
X208658127Y-71926465D01*
X208764669Y-71855276D01*
X208855276Y-71764669D01*
X208926465Y-71658127D01*
X208975501Y-71539744D01*
X208987422Y-71479815D01*
X209000500Y-71414071D01*
X209000500Y-71285928D01*
X208975502Y-71160261D01*
X208975501Y-71160260D01*
X208975501Y-71160256D01*
X208926465Y-71041873D01*
X208926464Y-71041872D01*
X208926461Y-71041866D01*
X208855276Y-70935331D01*
X208855273Y-70935327D01*
X208764672Y-70844726D01*
X208764668Y-70844723D01*
X208658133Y-70773538D01*
X208658124Y-70773533D01*
X208539744Y-70724499D01*
X208539738Y-70724497D01*
X208414071Y-70699500D01*
X208414069Y-70699500D01*
X208285931Y-70699500D01*
X208285929Y-70699500D01*
X208160261Y-70724497D01*
X208160255Y-70724499D01*
X208041875Y-70773533D01*
X208041866Y-70773538D01*
X207935331Y-70844723D01*
X207935327Y-70844726D01*
X207844726Y-70935327D01*
X207844723Y-70935331D01*
X207773538Y-71041866D01*
X207773533Y-71041875D01*
X207724499Y-71160255D01*
X207724497Y-71160261D01*
X207699500Y-71285928D01*
X207699500Y-71285931D01*
X207699500Y-71414069D01*
X207699500Y-71414071D01*
X207699499Y-71414071D01*
X196334017Y-71414071D01*
X196314672Y-71394726D01*
X196314668Y-71394723D01*
X196297035Y-71382941D01*
X196208133Y-71323538D01*
X196208124Y-71323533D01*
X196089744Y-71274499D01*
X196089738Y-71274497D01*
X195964071Y-71249500D01*
X195964069Y-71249500D01*
X195835931Y-71249500D01*
X195835929Y-71249500D01*
X195710261Y-71274497D01*
X195710255Y-71274499D01*
X195591875Y-71323533D01*
X195591866Y-71323538D01*
X195485331Y-71394723D01*
X195485327Y-71394726D01*
X195394726Y-71485327D01*
X195394723Y-71485331D01*
X195323538Y-71591866D01*
X195323533Y-71591875D01*
X195274499Y-71710255D01*
X195274497Y-71710261D01*
X195249500Y-71835928D01*
X195249500Y-71835931D01*
X195249500Y-71964069D01*
X195249500Y-71964071D01*
X195249499Y-71964071D01*
X157251506Y-71964071D01*
X157264669Y-71955276D01*
X157355276Y-71864669D01*
X157384258Y-71821293D01*
X157424581Y-71760948D01*
X157424581Y-71760947D01*
X157426460Y-71758134D01*
X157426461Y-71758133D01*
X157426465Y-71758127D01*
X157475501Y-71639744D01*
X157498111Y-71526081D01*
X157500500Y-71514071D01*
X157500500Y-71385928D01*
X157475502Y-71260261D01*
X157475501Y-71260260D01*
X157475501Y-71260256D01*
X157434079Y-71160255D01*
X157426466Y-71141875D01*
X157426461Y-71141866D01*
X157355276Y-71035331D01*
X157355273Y-71035327D01*
X157264672Y-70944726D01*
X157264668Y-70944723D01*
X157158133Y-70873538D01*
X157158124Y-70873533D01*
X157039744Y-70824499D01*
X157039738Y-70824497D01*
X156914071Y-70799500D01*
X156914069Y-70799500D01*
X156785931Y-70799500D01*
X156785929Y-70799500D01*
X156660261Y-70824497D01*
X156660255Y-70824499D01*
X156541875Y-70873533D01*
X156541866Y-70873538D01*
X156435331Y-70944723D01*
X156435327Y-70944726D01*
X156344726Y-71035327D01*
X156344723Y-71035331D01*
X156273538Y-71141866D01*
X156273533Y-71141875D01*
X156224499Y-71260255D01*
X156224497Y-71260261D01*
X156199500Y-71385928D01*
X156199500Y-71385931D01*
X156199500Y-71514069D01*
X156199500Y-71514071D01*
X156199499Y-71514071D01*
X151285660Y-71514071D01*
X151276465Y-71491873D01*
X151272091Y-71485327D01*
X151247638Y-71448730D01*
X151205276Y-71385330D01*
X151114672Y-71294726D01*
X151114668Y-71294723D01*
X151008133Y-71223538D01*
X151008124Y-71223533D01*
X150889744Y-71174499D01*
X150889738Y-71174497D01*
X150764071Y-71149500D01*
X150764069Y-71149500D01*
X150635931Y-71149500D01*
X150635929Y-71149500D01*
X150510261Y-71174497D01*
X150510255Y-71174499D01*
X150391875Y-71223533D01*
X150391866Y-71223538D01*
X150285331Y-71294723D01*
X150285327Y-71294726D01*
X150194726Y-71385327D01*
X150194723Y-71385331D01*
X150123538Y-71491866D01*
X150123533Y-71491875D01*
X150074499Y-71610255D01*
X150074497Y-71610261D01*
X150049500Y-71735928D01*
X150049500Y-71735931D01*
X150049500Y-71864069D01*
X150049500Y-71864071D01*
X150049499Y-71864071D01*
X144040554Y-71864071D01*
X144044969Y-71841875D01*
X144050500Y-71814071D01*
X144050500Y-71685928D01*
X144025502Y-71560261D01*
X144025501Y-71560260D01*
X144025501Y-71560256D01*
X143976465Y-71441873D01*
X143976464Y-71441872D01*
X143976461Y-71441866D01*
X143905276Y-71335331D01*
X143905273Y-71335327D01*
X143814672Y-71244726D01*
X143814668Y-71244723D01*
X143708133Y-71173538D01*
X143708124Y-71173533D01*
X143589744Y-71124499D01*
X143589738Y-71124497D01*
X143464071Y-71099500D01*
X143464069Y-71099500D01*
X143335931Y-71099500D01*
X143335929Y-71099500D01*
X143210261Y-71124497D01*
X143210255Y-71124499D01*
X143091875Y-71173533D01*
X143091866Y-71173538D01*
X142985331Y-71244723D01*
X142985327Y-71244726D01*
X142894726Y-71335327D01*
X142894723Y-71335331D01*
X142823538Y-71441866D01*
X142823533Y-71441875D01*
X142774499Y-71560255D01*
X142774497Y-71560261D01*
X142749500Y-71685928D01*
X142749500Y-71685931D01*
X142749500Y-71814069D01*
X142749500Y-71814071D01*
X142749499Y-71814071D01*
X127250500Y-71814071D01*
X127250500Y-71735928D01*
X127244155Y-71704031D01*
X127225502Y-71610261D01*
X127225501Y-71610260D01*
X127225501Y-71610256D01*
X127176465Y-71491873D01*
X127176464Y-71491872D01*
X127176461Y-71491866D01*
X127105276Y-71385331D01*
X127105273Y-71385327D01*
X127014672Y-71294726D01*
X127014668Y-71294723D01*
X126908133Y-71223538D01*
X126908124Y-71223533D01*
X126789744Y-71174499D01*
X126789738Y-71174497D01*
X126664071Y-71149500D01*
X126664069Y-71149500D01*
X126535931Y-71149500D01*
X126535929Y-71149500D01*
X126410261Y-71174497D01*
X126410255Y-71174499D01*
X126291875Y-71223533D01*
X126291866Y-71223538D01*
X126185331Y-71294723D01*
X126185327Y-71294726D01*
X126094726Y-71385327D01*
X126094723Y-71385331D01*
X126023538Y-71491866D01*
X126023533Y-71491875D01*
X125974499Y-71610255D01*
X125974497Y-71610261D01*
X125949500Y-71735928D01*
X125949500Y-71735931D01*
X125949500Y-71864069D01*
X125949500Y-71864071D01*
X125949499Y-71864071D01*
X121722974Y-71864071D01*
X121778768Y-71823535D01*
X121822213Y-71791971D01*
X121822215Y-71791968D01*
X121822219Y-71791966D01*
X121966966Y-71647219D01*
X121968778Y-71644726D01*
X122020500Y-71573535D01*
X122087287Y-71481610D01*
X122180220Y-71299219D01*
X122243477Y-71104534D01*
X122275500Y-70902352D01*
X122275500Y-70697648D01*
X122243477Y-70495466D01*
X122230418Y-70455276D01*
X122214127Y-70405137D01*
X122180220Y-70300781D01*
X122180218Y-70300778D01*
X122180218Y-70300776D01*
X122136343Y-70214668D01*
X122087287Y-70118390D01*
X122079556Y-70107749D01*
X121966971Y-69952786D01*
X121878256Y-69864071D01*
X138699499Y-69864071D01*
X138724497Y-69989738D01*
X138724499Y-69989744D01*
X138773533Y-70108124D01*
X138773538Y-70108133D01*
X138844723Y-70214668D01*
X138844726Y-70214672D01*
X138935328Y-70305274D01*
X139041866Y-70376461D01*
X139041872Y-70376464D01*
X139041873Y-70376465D01*
X139160256Y-70425501D01*
X139160260Y-70425501D01*
X139160261Y-70425502D01*
X139285928Y-70450500D01*
X139285931Y-70450500D01*
X139414071Y-70450500D01*
X139498615Y-70433682D01*
X139539744Y-70425501D01*
X139658127Y-70376465D01*
X139675777Y-70364672D01*
X139764672Y-70305274D01*
X139764672Y-70305273D01*
X139855273Y-70214672D01*
X139855276Y-70214669D01*
X139926465Y-70108127D01*
X139965424Y-70014071D01*
X190699499Y-70014071D01*
X190724497Y-70139738D01*
X190724499Y-70139744D01*
X190773533Y-70258124D01*
X190773538Y-70258133D01*
X190844723Y-70364668D01*
X190844726Y-70364672D01*
X190935327Y-70455273D01*
X190935331Y-70455276D01*
X191041866Y-70526461D01*
X191041872Y-70526464D01*
X191041873Y-70526465D01*
X191160256Y-70575501D01*
X191160260Y-70575501D01*
X191160261Y-70575502D01*
X191285928Y-70600500D01*
X191285931Y-70600500D01*
X191414071Y-70600500D01*
X191498615Y-70583682D01*
X191539744Y-70575501D01*
X191658127Y-70526465D01*
X191764669Y-70455276D01*
X191855276Y-70364669D01*
X191926465Y-70258127D01*
X191975501Y-70139744D01*
X192000500Y-70014069D01*
X192000500Y-69885931D01*
X192000500Y-69885928D01*
X191975502Y-69760261D01*
X191975501Y-69760260D01*
X191975501Y-69760256D01*
X191926465Y-69641873D01*
X191926464Y-69641872D01*
X191926461Y-69641866D01*
X191855276Y-69535331D01*
X191855273Y-69535327D01*
X191764672Y-69444726D01*
X191764668Y-69444723D01*
X191658133Y-69373538D01*
X191658124Y-69373533D01*
X191539744Y-69324499D01*
X191539738Y-69324497D01*
X191414071Y-69299500D01*
X191414069Y-69299500D01*
X191285931Y-69299500D01*
X191285929Y-69299500D01*
X191160261Y-69324497D01*
X191160255Y-69324499D01*
X191041875Y-69373533D01*
X191041866Y-69373538D01*
X190935331Y-69444723D01*
X190935327Y-69444726D01*
X190844726Y-69535327D01*
X190844723Y-69535331D01*
X190773538Y-69641866D01*
X190773533Y-69641875D01*
X190724499Y-69760255D01*
X190724497Y-69760261D01*
X190699500Y-69885928D01*
X190699500Y-69885931D01*
X190699500Y-70014069D01*
X190699500Y-70014071D01*
X190699499Y-70014071D01*
X139965424Y-70014071D01*
X139975501Y-69989744D01*
X139983682Y-69948615D01*
X140000500Y-69864071D01*
X140000500Y-69735928D01*
X139975502Y-69610261D01*
X139975501Y-69610260D01*
X139975501Y-69610256D01*
X139926465Y-69491873D01*
X139926464Y-69491872D01*
X139926461Y-69491866D01*
X139855276Y-69385331D01*
X139855273Y-69385327D01*
X139764672Y-69294726D01*
X139764668Y-69294723D01*
X139658133Y-69223538D01*
X139658124Y-69223533D01*
X139539744Y-69174499D01*
X139539738Y-69174497D01*
X139487324Y-69164071D01*
X213249499Y-69164071D01*
X213274497Y-69289738D01*
X213274499Y-69289744D01*
X213323533Y-69408124D01*
X213323538Y-69408133D01*
X213394723Y-69514668D01*
X213394726Y-69514672D01*
X213485327Y-69605273D01*
X213485331Y-69605276D01*
X213591866Y-69676461D01*
X213591879Y-69676468D01*
X213667537Y-69707806D01*
X213721941Y-69751646D01*
X213744006Y-69817940D01*
X213726727Y-69885640D01*
X213688977Y-69925469D01*
X213585327Y-69994726D01*
X213494726Y-70085327D01*
X213494723Y-70085331D01*
X213423538Y-70191866D01*
X213423533Y-70191875D01*
X213374499Y-70310255D01*
X213374497Y-70310261D01*
X213349500Y-70435928D01*
X213349500Y-70435931D01*
X213349500Y-70564069D01*
X213349500Y-70564071D01*
X213349499Y-70564071D01*
X213374497Y-70689738D01*
X213374499Y-70689744D01*
X213423533Y-70808124D01*
X213423538Y-70808133D01*
X213494723Y-70914668D01*
X213494726Y-70914672D01*
X213585327Y-71005273D01*
X213585331Y-71005276D01*
X213691866Y-71076461D01*
X213691872Y-71076464D01*
X213691873Y-71076465D01*
X213810256Y-71125501D01*
X213810260Y-71125501D01*
X213810261Y-71125502D01*
X213935928Y-71150500D01*
X213935931Y-71150500D01*
X214064071Y-71150500D01*
X214148615Y-71133682D01*
X214189744Y-71125501D01*
X214308127Y-71076465D01*
X214414669Y-71005276D01*
X214505276Y-70914669D01*
X214576465Y-70808127D01*
X214625501Y-70689744D01*
X214648226Y-70575501D01*
X214650500Y-70564071D01*
X214650500Y-70435928D01*
X214625502Y-70310261D01*
X214625501Y-70310260D01*
X214625501Y-70310256D01*
X214576465Y-70191873D01*
X214576464Y-70191872D01*
X214576461Y-70191866D01*
X214505276Y-70085331D01*
X214505273Y-70085327D01*
X214414672Y-69994726D01*
X214414668Y-69994723D01*
X214308133Y-69923538D01*
X214308124Y-69923533D01*
X214232461Y-69892193D01*
X214178058Y-69848352D01*
X214155993Y-69782058D01*
X214173272Y-69714359D01*
X214211024Y-69674530D01*
X214307208Y-69610261D01*
X214314669Y-69605276D01*
X214405276Y-69514669D01*
X214476465Y-69408127D01*
X214525501Y-69289744D01*
X214538672Y-69223533D01*
X214550500Y-69164071D01*
X214550500Y-69035928D01*
X214525502Y-68910261D01*
X214525501Y-68910260D01*
X214525501Y-68910256D01*
X214476465Y-68791873D01*
X214476464Y-68791872D01*
X214476461Y-68791866D01*
X214405276Y-68685331D01*
X214405273Y-68685327D01*
X214314672Y-68594726D01*
X214314668Y-68594723D01*
X214208133Y-68523538D01*
X214208124Y-68523533D01*
X214089744Y-68474499D01*
X214089738Y-68474497D01*
X213964071Y-68449500D01*
X213964069Y-68449500D01*
X213835931Y-68449500D01*
X213835929Y-68449500D01*
X213710261Y-68474497D01*
X213710255Y-68474499D01*
X213591875Y-68523533D01*
X213591866Y-68523538D01*
X213485331Y-68594723D01*
X213485327Y-68594726D01*
X213394726Y-68685327D01*
X213394723Y-68685331D01*
X213323538Y-68791866D01*
X213323533Y-68791875D01*
X213274499Y-68910255D01*
X213274497Y-68910261D01*
X213249500Y-69035928D01*
X213249500Y-69035931D01*
X213249500Y-69164069D01*
X213249500Y-69164071D01*
X213249499Y-69164071D01*
X139487324Y-69164071D01*
X139414071Y-69149500D01*
X139414069Y-69149500D01*
X139285931Y-69149500D01*
X139285929Y-69149500D01*
X139160261Y-69174497D01*
X139160255Y-69174499D01*
X139041875Y-69223533D01*
X139041866Y-69223538D01*
X138935331Y-69294723D01*
X138935327Y-69294726D01*
X138844726Y-69385327D01*
X138844723Y-69385331D01*
X138773538Y-69491866D01*
X138773533Y-69491875D01*
X138724499Y-69610255D01*
X138724497Y-69610261D01*
X138699500Y-69735928D01*
X138699500Y-69735931D01*
X138699500Y-69864069D01*
X138699500Y-69864071D01*
X138699499Y-69864071D01*
X121878256Y-69864071D01*
X121822213Y-69808028D01*
X121656613Y-69687715D01*
X121656612Y-69687714D01*
X121656610Y-69687713D01*
X121599653Y-69658691D01*
X121474223Y-69594781D01*
X121279534Y-69531522D01*
X121104995Y-69503878D01*
X121077352Y-69499500D01*
X120872648Y-69499500D01*
X120848329Y-69503351D01*
X120670465Y-69531522D01*
X120475776Y-69594781D01*
X120293386Y-69687715D01*
X120127786Y-69808028D01*
X119983028Y-69952786D01*
X119862715Y-70118386D01*
X119769781Y-70300776D01*
X119706522Y-70495465D01*
X119674500Y-70697648D01*
X116079018Y-70697648D01*
X116101557Y-70653412D01*
X116167246Y-70451243D01*
X116200500Y-70241287D01*
X116200500Y-70028713D01*
X116167246Y-69818757D01*
X116101557Y-69616588D01*
X116005051Y-69427184D01*
X116005049Y-69427181D01*
X116005048Y-69427179D01*
X115880109Y-69255213D01*
X115729786Y-69104890D01*
X115557820Y-68979951D01*
X115557115Y-68979591D01*
X115549054Y-68975485D01*
X115498259Y-68927512D01*
X115481463Y-68859692D01*
X115503999Y-68793556D01*
X115549054Y-68754515D01*
X115557816Y-68750051D01*
X115709642Y-68639744D01*
X115729786Y-68625109D01*
X115729788Y-68625106D01*
X115729792Y-68625104D01*
X115880104Y-68474792D01*
X115880106Y-68474788D01*
X115880109Y-68474786D01*
X116005048Y-68302820D01*
X116005047Y-68302820D01*
X116005051Y-68302816D01*
X116101557Y-68113412D01*
X116133835Y-68014071D01*
X134899499Y-68014071D01*
X134924497Y-68139738D01*
X134924499Y-68139744D01*
X134973533Y-68258124D01*
X134973538Y-68258133D01*
X135044723Y-68364668D01*
X135044726Y-68364672D01*
X135135327Y-68455273D01*
X135135331Y-68455276D01*
X135241866Y-68526461D01*
X135241872Y-68526464D01*
X135241873Y-68526465D01*
X135360256Y-68575501D01*
X135360260Y-68575501D01*
X135360261Y-68575502D01*
X135485928Y-68600500D01*
X135485931Y-68600500D01*
X135614071Y-68600500D01*
X135698615Y-68583682D01*
X135739744Y-68575501D01*
X135858127Y-68526465D01*
X135876676Y-68514071D01*
X211549499Y-68514071D01*
X211574497Y-68639738D01*
X211574499Y-68639744D01*
X211623533Y-68758124D01*
X211623538Y-68758133D01*
X211694723Y-68864668D01*
X211694726Y-68864672D01*
X211785327Y-68955273D01*
X211785331Y-68955276D01*
X211891866Y-69026461D01*
X211891872Y-69026464D01*
X211891873Y-69026465D01*
X212010256Y-69075501D01*
X212010260Y-69075501D01*
X212010261Y-69075502D01*
X212135928Y-69100500D01*
X212135931Y-69100500D01*
X212264071Y-69100500D01*
X212348615Y-69083682D01*
X212389744Y-69075501D01*
X212508127Y-69026465D01*
X212614669Y-68955276D01*
X212614672Y-68955273D01*
X212627788Y-68942158D01*
X212705273Y-68864672D01*
X212705276Y-68864669D01*
X212776465Y-68758127D01*
X212825501Y-68639744D01*
X212848034Y-68526466D01*
X212850500Y-68514071D01*
X212850500Y-68385928D01*
X212825502Y-68260261D01*
X212825501Y-68260260D01*
X212825501Y-68260256D01*
X212776465Y-68141873D01*
X212776464Y-68141872D01*
X212776461Y-68141866D01*
X212705276Y-68035331D01*
X212705273Y-68035327D01*
X212614672Y-67944726D01*
X212614668Y-67944723D01*
X212508133Y-67873538D01*
X212508124Y-67873533D01*
X212389744Y-67824499D01*
X212389738Y-67824497D01*
X212264071Y-67799500D01*
X212264069Y-67799500D01*
X212135931Y-67799500D01*
X212135929Y-67799500D01*
X212010261Y-67824497D01*
X212010255Y-67824499D01*
X211891875Y-67873533D01*
X211891866Y-67873538D01*
X211785331Y-67944723D01*
X211785327Y-67944726D01*
X211694726Y-68035327D01*
X211694723Y-68035331D01*
X211623538Y-68141866D01*
X211623533Y-68141875D01*
X211574499Y-68260255D01*
X211574497Y-68260261D01*
X211549500Y-68385928D01*
X211549500Y-68385931D01*
X211549500Y-68514069D01*
X211549500Y-68514071D01*
X211549499Y-68514071D01*
X135876676Y-68514071D01*
X135964669Y-68455276D01*
X136055276Y-68364669D01*
X136071393Y-68340548D01*
X136091172Y-68310948D01*
X136091173Y-68310946D01*
X136126458Y-68258138D01*
X136126461Y-68258133D01*
X136126465Y-68258127D01*
X136175501Y-68139744D01*
X136196271Y-68035331D01*
X136200500Y-68014071D01*
X136200500Y-67885928D01*
X136175502Y-67760261D01*
X136175501Y-67760260D01*
X136175501Y-67760256D01*
X136126465Y-67641873D01*
X136126464Y-67641872D01*
X136126461Y-67641866D01*
X136055276Y-67535331D01*
X136055273Y-67535327D01*
X135964672Y-67444726D01*
X135964668Y-67444723D01*
X135858133Y-67373538D01*
X135858124Y-67373533D01*
X135739744Y-67324499D01*
X135739738Y-67324497D01*
X135614071Y-67299500D01*
X135614069Y-67299500D01*
X135485931Y-67299500D01*
X135485929Y-67299500D01*
X135360261Y-67324497D01*
X135360255Y-67324499D01*
X135241875Y-67373533D01*
X135241866Y-67373538D01*
X135135331Y-67444723D01*
X135135327Y-67444726D01*
X135044726Y-67535327D01*
X135044723Y-67535331D01*
X134973538Y-67641866D01*
X134973533Y-67641875D01*
X134924499Y-67760255D01*
X134924497Y-67760261D01*
X134899500Y-67885928D01*
X134899500Y-67885931D01*
X134899500Y-68014069D01*
X134899500Y-68014071D01*
X134899499Y-68014071D01*
X116133835Y-68014071D01*
X116167246Y-67911243D01*
X116200500Y-67701287D01*
X116200500Y-67488713D01*
X116167246Y-67278757D01*
X116162474Y-67264071D01*
X192149499Y-67264071D01*
X192174497Y-67389738D01*
X192174499Y-67389744D01*
X192223533Y-67508124D01*
X192223538Y-67508133D01*
X192294723Y-67614668D01*
X192294726Y-67614672D01*
X192385327Y-67705273D01*
X192385331Y-67705276D01*
X192491866Y-67776461D01*
X192491872Y-67776464D01*
X192491873Y-67776465D01*
X192610256Y-67825501D01*
X192610260Y-67825501D01*
X192610261Y-67825502D01*
X192735928Y-67850500D01*
X192735931Y-67850500D01*
X192864071Y-67850500D01*
X192948615Y-67833682D01*
X192989744Y-67825501D01*
X193108127Y-67776465D01*
X193214669Y-67705276D01*
X193305276Y-67614669D01*
X193376465Y-67508127D01*
X193425501Y-67389744D01*
X193433682Y-67348615D01*
X193450500Y-67264071D01*
X193450500Y-67135928D01*
X193425502Y-67010261D01*
X193425501Y-67010260D01*
X193425501Y-67010256D01*
X193376465Y-66891873D01*
X193376464Y-66891872D01*
X193376461Y-66891866D01*
X193305276Y-66785331D01*
X193305273Y-66785327D01*
X193214672Y-66694726D01*
X193214668Y-66694723D01*
X193108133Y-66623538D01*
X193108124Y-66623533D01*
X193085280Y-66614071D01*
X197699499Y-66614071D01*
X197724497Y-66739738D01*
X197724499Y-66739744D01*
X197773533Y-66858124D01*
X197773538Y-66858133D01*
X197844723Y-66964668D01*
X197844726Y-66964672D01*
X197935327Y-67055273D01*
X197935331Y-67055276D01*
X198041866Y-67126461D01*
X198041872Y-67126464D01*
X198041873Y-67126465D01*
X198160256Y-67175501D01*
X198160260Y-67175501D01*
X198160261Y-67175502D01*
X198285928Y-67200500D01*
X198285931Y-67200500D01*
X198414071Y-67200500D01*
X198498615Y-67183682D01*
X198539744Y-67175501D01*
X198658127Y-67126465D01*
X198764669Y-67055276D01*
X198855276Y-66964669D01*
X198926465Y-66858127D01*
X198975501Y-66739744D01*
X198995053Y-66641453D01*
X199000500Y-66614071D01*
X199000500Y-66485928D01*
X198975502Y-66360261D01*
X198975501Y-66360260D01*
X198975501Y-66360256D01*
X198926465Y-66241873D01*
X198926464Y-66241872D01*
X198926461Y-66241866D01*
X198855276Y-66135331D01*
X198855273Y-66135327D01*
X198764672Y-66044726D01*
X198764668Y-66044723D01*
X198658133Y-65973538D01*
X198658124Y-65973533D01*
X198539744Y-65924499D01*
X198539738Y-65924497D01*
X198414071Y-65899500D01*
X198414069Y-65899500D01*
X198285931Y-65899500D01*
X198285929Y-65899500D01*
X198160261Y-65924497D01*
X198160255Y-65924499D01*
X198041875Y-65973533D01*
X198041866Y-65973538D01*
X197935331Y-66044723D01*
X197935327Y-66044726D01*
X197844726Y-66135327D01*
X197844723Y-66135331D01*
X197773538Y-66241866D01*
X197773533Y-66241875D01*
X197724499Y-66360255D01*
X197724497Y-66360261D01*
X197699500Y-66485928D01*
X197699500Y-66485931D01*
X197699500Y-66614069D01*
X197699500Y-66614071D01*
X197699499Y-66614071D01*
X193085280Y-66614071D01*
X193037789Y-66594400D01*
X192989744Y-66574499D01*
X192989738Y-66574497D01*
X192864071Y-66549500D01*
X192864069Y-66549500D01*
X192735931Y-66549500D01*
X192735929Y-66549500D01*
X192610261Y-66574497D01*
X192610252Y-66574500D01*
X192595896Y-66580446D01*
X192595874Y-66580456D01*
X192491873Y-66623535D01*
X192465063Y-66641448D01*
X192465054Y-66641453D01*
X192385331Y-66694723D01*
X192385327Y-66694726D01*
X192294726Y-66785327D01*
X192294723Y-66785331D01*
X192223538Y-66891866D01*
X192223533Y-66891875D01*
X192174499Y-67010255D01*
X192174497Y-67010261D01*
X192149500Y-67135928D01*
X192149500Y-67135931D01*
X192149500Y-67264069D01*
X192149500Y-67264071D01*
X192149499Y-67264071D01*
X116162474Y-67264071D01*
X116101557Y-67076588D01*
X116005051Y-66887184D01*
X116005049Y-66887181D01*
X116005048Y-66887179D01*
X115880109Y-66715213D01*
X115729786Y-66564890D01*
X115557820Y-66439951D01*
X115557115Y-66439591D01*
X115549054Y-66435485D01*
X115498259Y-66387512D01*
X115481463Y-66319692D01*
X115503999Y-66253556D01*
X115549054Y-66214515D01*
X115557816Y-66210051D01*
X115660660Y-66135331D01*
X115729786Y-66085109D01*
X115729788Y-66085106D01*
X115729792Y-66085104D01*
X115880104Y-65934792D01*
X115880106Y-65934788D01*
X115880109Y-65934786D01*
X115931486Y-65864071D01*
X191499499Y-65864071D01*
X191524497Y-65989738D01*
X191524499Y-65989744D01*
X191573533Y-66108124D01*
X191573538Y-66108133D01*
X191644723Y-66214668D01*
X191644726Y-66214672D01*
X191735327Y-66305273D01*
X191735331Y-66305276D01*
X191841866Y-66376461D01*
X191841872Y-66376464D01*
X191841873Y-66376465D01*
X191960256Y-66425501D01*
X191960260Y-66425501D01*
X191960261Y-66425502D01*
X192085928Y-66450500D01*
X192085931Y-66450500D01*
X192214071Y-66450500D01*
X192298615Y-66433682D01*
X192339744Y-66425501D01*
X192458127Y-66376465D01*
X192564669Y-66305276D01*
X192655276Y-66214669D01*
X192726465Y-66108127D01*
X192775501Y-65989744D01*
X192786433Y-65934786D01*
X192800500Y-65864071D01*
X192800500Y-65735928D01*
X192775502Y-65610261D01*
X192775501Y-65610260D01*
X192775501Y-65610256D01*
X192726465Y-65491873D01*
X192726464Y-65491872D01*
X192726461Y-65491866D01*
X192655276Y-65385331D01*
X192655273Y-65385327D01*
X192584017Y-65314071D01*
X215399499Y-65314071D01*
X215424497Y-65439738D01*
X215424499Y-65439744D01*
X215473533Y-65558124D01*
X215473538Y-65558133D01*
X215544723Y-65664668D01*
X215544726Y-65664672D01*
X215635327Y-65755273D01*
X215635331Y-65755276D01*
X215741866Y-65826461D01*
X215741872Y-65826464D01*
X215741873Y-65826465D01*
X215860256Y-65875501D01*
X215860260Y-65875501D01*
X215860261Y-65875502D01*
X215985928Y-65900500D01*
X215985931Y-65900500D01*
X216114071Y-65900500D01*
X216198615Y-65883682D01*
X216239744Y-65875501D01*
X216358127Y-65826465D01*
X216464669Y-65755276D01*
X216555276Y-65664669D01*
X216626465Y-65558127D01*
X216675501Y-65439744D01*
X216700500Y-65314069D01*
X216700500Y-65185931D01*
X216700500Y-65185928D01*
X216675502Y-65060261D01*
X216675501Y-65060260D01*
X216675501Y-65060256D01*
X216626465Y-64941873D01*
X216626464Y-64941872D01*
X216626461Y-64941866D01*
X216555276Y-64835331D01*
X216555273Y-64835327D01*
X216464672Y-64744726D01*
X216464668Y-64744723D01*
X216358133Y-64673538D01*
X216358124Y-64673533D01*
X216239744Y-64624499D01*
X216239738Y-64624497D01*
X216114071Y-64599500D01*
X216114069Y-64599500D01*
X215985931Y-64599500D01*
X215985929Y-64599500D01*
X215860261Y-64624497D01*
X215860255Y-64624499D01*
X215741875Y-64673533D01*
X215741866Y-64673538D01*
X215635331Y-64744723D01*
X215635327Y-64744726D01*
X215544726Y-64835327D01*
X215544723Y-64835331D01*
X215473538Y-64941866D01*
X215473533Y-64941875D01*
X215424499Y-65060255D01*
X215424497Y-65060261D01*
X215399500Y-65185928D01*
X215399500Y-65185931D01*
X215399500Y-65314069D01*
X215399500Y-65314071D01*
X215399499Y-65314071D01*
X192584017Y-65314071D01*
X192564672Y-65294726D01*
X192564668Y-65294723D01*
X192547035Y-65282941D01*
X192458133Y-65223538D01*
X192458124Y-65223533D01*
X192339744Y-65174499D01*
X192339738Y-65174497D01*
X192214071Y-65149500D01*
X192214069Y-65149500D01*
X192085931Y-65149500D01*
X192085929Y-65149500D01*
X191960261Y-65174497D01*
X191960255Y-65174499D01*
X191841875Y-65223533D01*
X191841866Y-65223538D01*
X191735331Y-65294723D01*
X191735327Y-65294726D01*
X191644726Y-65385327D01*
X191644723Y-65385331D01*
X191573538Y-65491866D01*
X191573533Y-65491875D01*
X191524499Y-65610255D01*
X191524497Y-65610261D01*
X191499500Y-65735928D01*
X191499500Y-65735931D01*
X191499500Y-65864069D01*
X191499500Y-65864071D01*
X191499499Y-65864071D01*
X115931486Y-65864071D01*
X116005048Y-65762820D01*
X116005047Y-65762820D01*
X116005051Y-65762816D01*
X116101557Y-65573412D01*
X116167246Y-65371243D01*
X116200500Y-65161287D01*
X116200500Y-64948713D01*
X116167246Y-64738757D01*
X116102364Y-64539071D01*
X136774499Y-64539071D01*
X136799497Y-64664738D01*
X136799499Y-64664744D01*
X136848533Y-64783124D01*
X136848538Y-64783133D01*
X136919723Y-64889668D01*
X136919726Y-64889672D01*
X137010327Y-64980273D01*
X137010331Y-64980276D01*
X137116866Y-65051461D01*
X137116872Y-65051464D01*
X137116873Y-65051465D01*
X137235256Y-65100501D01*
X137235260Y-65100501D01*
X137235261Y-65100502D01*
X137360928Y-65125500D01*
X137360931Y-65125500D01*
X137489071Y-65125500D01*
X137576376Y-65108133D01*
X137614744Y-65100501D01*
X137733127Y-65051465D01*
X137839669Y-64980276D01*
X137930276Y-64889669D01*
X137947380Y-64864071D01*
X174149499Y-64864071D01*
X174174497Y-64989738D01*
X174174499Y-64989744D01*
X174223533Y-65108124D01*
X174223538Y-65108133D01*
X174294723Y-65214668D01*
X174294726Y-65214672D01*
X174385327Y-65305273D01*
X174385331Y-65305276D01*
X174491866Y-65376461D01*
X174491872Y-65376464D01*
X174491873Y-65376465D01*
X174610256Y-65425501D01*
X174610260Y-65425501D01*
X174610261Y-65425502D01*
X174735928Y-65450500D01*
X174735931Y-65450500D01*
X174864071Y-65450500D01*
X174948615Y-65433682D01*
X174989744Y-65425501D01*
X175108127Y-65376465D01*
X175214669Y-65305276D01*
X175305276Y-65214669D01*
X175376465Y-65108127D01*
X175425501Y-64989744D01*
X175450500Y-64864069D01*
X175450500Y-64735931D01*
X175450500Y-64735928D01*
X175425502Y-64610261D01*
X175425501Y-64610260D01*
X175425501Y-64610256D01*
X175376465Y-64491873D01*
X175376464Y-64491872D01*
X175376461Y-64491866D01*
X175305276Y-64385331D01*
X175305273Y-64385327D01*
X175214672Y-64294726D01*
X175214668Y-64294723D01*
X175108133Y-64223538D01*
X175108124Y-64223533D01*
X174989744Y-64174499D01*
X174989738Y-64174497D01*
X174864071Y-64149500D01*
X174864069Y-64149500D01*
X174735931Y-64149500D01*
X174735929Y-64149500D01*
X174610261Y-64174497D01*
X174610255Y-64174499D01*
X174491875Y-64223533D01*
X174491866Y-64223538D01*
X174385331Y-64294723D01*
X174385327Y-64294726D01*
X174294726Y-64385327D01*
X174294723Y-64385331D01*
X174223538Y-64491866D01*
X174223533Y-64491875D01*
X174174499Y-64610255D01*
X174174497Y-64610261D01*
X174149500Y-64735928D01*
X174149500Y-64735931D01*
X174149500Y-64864069D01*
X174149500Y-64864071D01*
X174149499Y-64864071D01*
X137947380Y-64864071D01*
X138001465Y-64783127D01*
X138050501Y-64664744D01*
X138070408Y-64564668D01*
X138075500Y-64539071D01*
X138075500Y-64410928D01*
X138050502Y-64285261D01*
X138050501Y-64285260D01*
X138050501Y-64285256D01*
X138004920Y-64175213D01*
X138001466Y-64166875D01*
X138001461Y-64166866D01*
X137930276Y-64060331D01*
X137930273Y-64060327D01*
X137839672Y-63969726D01*
X137839668Y-63969723D01*
X137831209Y-63964071D01*
X190649499Y-63964071D01*
X190674497Y-64089738D01*
X190674499Y-64089744D01*
X190723533Y-64208124D01*
X190723538Y-64208133D01*
X190794723Y-64314668D01*
X190794726Y-64314672D01*
X190885327Y-64405273D01*
X190885331Y-64405276D01*
X190991866Y-64476461D01*
X190991872Y-64476464D01*
X190991873Y-64476465D01*
X191110256Y-64525501D01*
X191110260Y-64525501D01*
X191110261Y-64525502D01*
X191235928Y-64550500D01*
X191235931Y-64550500D01*
X191364071Y-64550500D01*
X191448615Y-64533682D01*
X191489744Y-64525501D01*
X191608127Y-64476465D01*
X191714669Y-64405276D01*
X191805276Y-64314669D01*
X191872493Y-64214071D01*
X211499499Y-64214071D01*
X211524497Y-64339738D01*
X211524499Y-64339744D01*
X211573533Y-64458124D01*
X211573538Y-64458133D01*
X211644723Y-64564668D01*
X211644726Y-64564672D01*
X211735327Y-64655273D01*
X211735331Y-64655276D01*
X211841866Y-64726461D01*
X211841872Y-64726464D01*
X211841873Y-64726465D01*
X211960256Y-64775501D01*
X211960260Y-64775501D01*
X211960261Y-64775502D01*
X212085928Y-64800500D01*
X212085931Y-64800500D01*
X212214071Y-64800500D01*
X212301376Y-64783133D01*
X212339744Y-64775501D01*
X212458127Y-64726465D01*
X212564669Y-64655276D01*
X212655276Y-64564669D01*
X212726465Y-64458127D01*
X212775501Y-64339744D01*
X212786340Y-64285255D01*
X212800500Y-64214071D01*
X212800500Y-64085928D01*
X212775502Y-63960261D01*
X212775501Y-63960260D01*
X212775501Y-63960256D01*
X212726465Y-63841873D01*
X212726464Y-63841872D01*
X212726461Y-63841866D01*
X212655276Y-63735331D01*
X212655273Y-63735327D01*
X212564672Y-63644726D01*
X212564668Y-63644723D01*
X212458133Y-63573538D01*
X212458124Y-63573533D01*
X212339744Y-63524499D01*
X212339738Y-63524497D01*
X212214071Y-63499500D01*
X212214069Y-63499500D01*
X212085931Y-63499500D01*
X212085929Y-63499500D01*
X211960261Y-63524497D01*
X211960255Y-63524499D01*
X211841875Y-63573533D01*
X211841866Y-63573538D01*
X211735331Y-63644723D01*
X211735327Y-63644726D01*
X211644726Y-63735327D01*
X211644723Y-63735331D01*
X211573538Y-63841866D01*
X211573533Y-63841875D01*
X211524499Y-63960255D01*
X211524497Y-63960261D01*
X211499500Y-64085928D01*
X211499500Y-64085931D01*
X211499500Y-64214069D01*
X211499500Y-64214071D01*
X211499499Y-64214071D01*
X191872493Y-64214071D01*
X191876465Y-64208127D01*
X191925501Y-64089744D01*
X191936783Y-64033031D01*
X191950500Y-63964071D01*
X191950500Y-63835928D01*
X191925502Y-63710261D01*
X191925501Y-63710260D01*
X191925501Y-63710256D01*
X191882769Y-63607093D01*
X191876466Y-63591875D01*
X191876461Y-63591866D01*
X191805276Y-63485331D01*
X191805273Y-63485327D01*
X191714672Y-63394726D01*
X191714668Y-63394723D01*
X191706209Y-63389071D01*
X215424499Y-63389071D01*
X215449497Y-63514738D01*
X215449499Y-63514744D01*
X215498533Y-63633124D01*
X215498538Y-63633133D01*
X215569723Y-63739668D01*
X215569726Y-63739672D01*
X215660327Y-63830273D01*
X215660331Y-63830276D01*
X215766866Y-63901461D01*
X215766872Y-63901464D01*
X215766873Y-63901465D01*
X215885256Y-63950501D01*
X215885260Y-63950501D01*
X215885261Y-63950502D01*
X216010928Y-63975500D01*
X216010931Y-63975500D01*
X216139071Y-63975500D01*
X216223615Y-63958682D01*
X216264744Y-63950501D01*
X216383127Y-63901465D01*
X216489669Y-63830276D01*
X216580276Y-63739669D01*
X216651465Y-63633127D01*
X216700501Y-63514744D01*
X216724375Y-63394724D01*
X216725500Y-63389071D01*
X216725500Y-63260928D01*
X216700502Y-63135261D01*
X216700501Y-63135260D01*
X216700501Y-63135256D01*
X216651465Y-63016873D01*
X216651464Y-63016872D01*
X216651461Y-63016866D01*
X216580276Y-62910331D01*
X216580273Y-62910327D01*
X216489672Y-62819726D01*
X216489668Y-62819723D01*
X216383133Y-62748538D01*
X216383124Y-62748533D01*
X216264744Y-62699499D01*
X216264738Y-62699497D01*
X216139071Y-62674500D01*
X216139069Y-62674500D01*
X216010931Y-62674500D01*
X216010929Y-62674500D01*
X215885261Y-62699497D01*
X215885255Y-62699499D01*
X215766875Y-62748533D01*
X215766866Y-62748538D01*
X215660331Y-62819723D01*
X215660327Y-62819726D01*
X215569726Y-62910327D01*
X215569723Y-62910331D01*
X215498538Y-63016866D01*
X215498533Y-63016875D01*
X215449499Y-63135255D01*
X215449497Y-63135261D01*
X215424500Y-63260928D01*
X215424500Y-63260931D01*
X215424500Y-63389069D01*
X215424500Y-63389071D01*
X215424499Y-63389071D01*
X191706209Y-63389071D01*
X191659620Y-63357941D01*
X191608133Y-63323538D01*
X191608124Y-63323533D01*
X191489744Y-63274499D01*
X191489738Y-63274497D01*
X191364071Y-63249500D01*
X191364069Y-63249500D01*
X191235931Y-63249500D01*
X191235929Y-63249500D01*
X191110261Y-63274497D01*
X191110255Y-63274499D01*
X190991875Y-63323533D01*
X190991866Y-63323538D01*
X190885331Y-63394723D01*
X190885327Y-63394726D01*
X190794726Y-63485327D01*
X190794723Y-63485331D01*
X190723538Y-63591866D01*
X190723533Y-63591875D01*
X190674499Y-63710255D01*
X190674497Y-63710261D01*
X190649500Y-63835928D01*
X190649500Y-63835931D01*
X190649500Y-63964069D01*
X190649500Y-63964071D01*
X190649499Y-63964071D01*
X137831209Y-63964071D01*
X137784620Y-63932941D01*
X137733133Y-63898538D01*
X137733124Y-63898533D01*
X137614744Y-63849499D01*
X137614738Y-63849497D01*
X137489071Y-63824500D01*
X137489069Y-63824500D01*
X137360931Y-63824500D01*
X137360929Y-63824500D01*
X137235261Y-63849497D01*
X137235255Y-63849499D01*
X137116875Y-63898533D01*
X137116866Y-63898538D01*
X137010331Y-63969723D01*
X137010327Y-63969726D01*
X136919726Y-64060327D01*
X136919723Y-64060331D01*
X136848538Y-64166866D01*
X136848533Y-64166875D01*
X136799499Y-64285255D01*
X136799497Y-64285261D01*
X136774500Y-64410928D01*
X136774500Y-64410931D01*
X136774500Y-64539069D01*
X136774500Y-64539071D01*
X136774499Y-64539071D01*
X116102364Y-64539071D01*
X116101557Y-64536588D01*
X116005051Y-64347184D01*
X116005049Y-64347181D01*
X116005048Y-64347179D01*
X115880109Y-64175213D01*
X115766181Y-64061285D01*
X115732696Y-63999962D01*
X115737680Y-63930270D01*
X115779552Y-63874337D01*
X115810529Y-63857422D01*
X115942086Y-63808354D01*
X115942093Y-63808350D01*
X116057187Y-63722190D01*
X116057190Y-63722187D01*
X116143350Y-63607093D01*
X116143354Y-63607086D01*
X116193596Y-63472379D01*
X116193598Y-63472372D01*
X116199999Y-63412844D01*
X116200000Y-63412827D01*
X116200000Y-62765000D01*
X115283012Y-62765000D01*
X115315925Y-62707993D01*
X115350000Y-62580826D01*
X115350000Y-62449174D01*
X115315925Y-62322007D01*
X115283012Y-62265000D01*
X116200000Y-62265000D01*
X116200000Y-61617172D01*
X116199999Y-61617155D01*
X116193598Y-61557627D01*
X116193596Y-61557620D01*
X116143354Y-61422913D01*
X116143350Y-61422906D01*
X116057190Y-61307812D01*
X116057187Y-61307809D01*
X115942093Y-61221649D01*
X115942086Y-61221645D01*
X115807379Y-61171403D01*
X115807372Y-61171401D01*
X115747844Y-61165000D01*
X115100000Y-61165000D01*
X115100000Y-62081988D01*
X115042993Y-62049075D01*
X114915826Y-62015000D01*
X114784174Y-62015000D01*
X114657007Y-62049075D01*
X114600000Y-62081988D01*
X114600000Y-61165000D01*
X113952155Y-61165000D01*
X113892627Y-61171401D01*
X113892620Y-61171403D01*
X113757913Y-61221645D01*
X113757906Y-61221649D01*
X113642812Y-61307809D01*
X113642809Y-61307812D01*
X113556649Y-61422906D01*
X113556645Y-61422913D01*
X113506403Y-61557620D01*
X113506401Y-61557627D01*
X113500000Y-61617155D01*
X113500000Y-62265000D01*
X114416988Y-62265000D01*
X114384075Y-62322007D01*
X114350000Y-62449174D01*
X114350000Y-62580826D01*
X114384075Y-62707993D01*
X114416988Y-62765000D01*
X113500000Y-62765000D01*
X113500000Y-63412844D01*
X113506401Y-63472372D01*
X113506403Y-63472379D01*
X113556645Y-63607086D01*
X113556649Y-63607093D01*
X113642809Y-63722187D01*
X113642812Y-63722190D01*
X113757906Y-63808350D01*
X113757913Y-63808354D01*
X113889470Y-63857422D01*
X113945404Y-63899293D01*
X113969821Y-63964758D01*
X113954969Y-64033031D01*
X113933819Y-64061285D01*
X113819889Y-64175215D01*
X113694951Y-64347179D01*
X113598444Y-64536585D01*
X113598443Y-64536587D01*
X113598443Y-64536588D01*
X113569879Y-64624499D01*
X113532753Y-64738760D01*
X113517458Y-64835331D01*
X113499500Y-64948713D01*
X112500500Y-64948713D01*
X112500500Y-60088074D01*
X123545500Y-60088074D01*
X123545500Y-60261925D01*
X123572697Y-60433639D01*
X123572697Y-60433642D01*
X123626418Y-60598978D01*
X123690375Y-60724499D01*
X123705347Y-60753884D01*
X123807535Y-60894533D01*
X123930467Y-61017465D01*
X123930473Y-61017469D01*
X123940401Y-61024683D01*
X123983067Y-61080013D01*
X123989045Y-61149626D01*
X123956438Y-61211421D01*
X123940401Y-61225317D01*
X123930473Y-61232530D01*
X123930464Y-61232537D01*
X123807537Y-61355464D01*
X123807537Y-61355465D01*
X123807535Y-61355467D01*
X123763649Y-61415869D01*
X123705347Y-61496115D01*
X123626418Y-61651021D01*
X123572697Y-61816357D01*
X123572697Y-61816360D01*
X123563489Y-61874497D01*
X123545500Y-61988074D01*
X123545500Y-62161926D01*
X123559098Y-62247782D01*
X123572697Y-62333639D01*
X123572697Y-62333642D01*
X123626418Y-62498978D01*
X123626420Y-62498981D01*
X123705347Y-62653884D01*
X123807535Y-62794533D01*
X123930467Y-62917465D01*
X124071116Y-63019653D01*
X124182608Y-63076461D01*
X124226021Y-63098581D01*
X124391358Y-63152302D01*
X124391359Y-63152302D01*
X124391362Y-63152303D01*
X124563074Y-63179500D01*
X124563075Y-63179500D01*
X124736925Y-63179500D01*
X124736926Y-63179500D01*
X124908638Y-63152303D01*
X124908641Y-63152302D01*
X124908642Y-63152302D01*
X125073978Y-63098581D01*
X125073978Y-63098580D01*
X125073981Y-63098580D01*
X125228884Y-63019653D01*
X125369533Y-62917465D01*
X125492465Y-62794533D01*
X125594653Y-62653884D01*
X125640415Y-62564071D01*
X132249499Y-62564071D01*
X132274497Y-62689738D01*
X132274499Y-62689744D01*
X132323533Y-62808124D01*
X132323538Y-62808133D01*
X132394723Y-62914668D01*
X132394726Y-62914672D01*
X132485327Y-63005273D01*
X132485331Y-63005276D01*
X132591866Y-63076461D01*
X132591872Y-63076464D01*
X132591873Y-63076465D01*
X132710256Y-63125501D01*
X132710260Y-63125501D01*
X132710261Y-63125502D01*
X132835928Y-63150500D01*
X132835931Y-63150500D01*
X132964071Y-63150500D01*
X133048615Y-63133682D01*
X133089744Y-63125501D01*
X133208127Y-63076465D01*
X133314669Y-63005276D01*
X133405276Y-62914669D01*
X133476465Y-62808127D01*
X133525501Y-62689744D01*
X133550500Y-62564069D01*
X133550500Y-62435931D01*
X133550500Y-62435928D01*
X133525502Y-62310261D01*
X133525501Y-62310260D01*
X133525501Y-62310256D01*
X133476465Y-62191873D01*
X133476464Y-62191872D01*
X133476461Y-62191866D01*
X133405276Y-62085331D01*
X133405273Y-62085327D01*
X133314672Y-61994726D01*
X133314668Y-61994723D01*
X133208133Y-61923538D01*
X133208124Y-61923533D01*
X133089744Y-61874499D01*
X133089738Y-61874497D01*
X132964071Y-61849500D01*
X132964069Y-61849500D01*
X132835931Y-61849500D01*
X132835929Y-61849500D01*
X132710261Y-61874497D01*
X132710255Y-61874499D01*
X132591875Y-61923533D01*
X132591866Y-61923538D01*
X132485331Y-61994723D01*
X132485327Y-61994726D01*
X132394726Y-62085327D01*
X132394723Y-62085331D01*
X132323538Y-62191866D01*
X132323533Y-62191875D01*
X132274499Y-62310255D01*
X132274497Y-62310261D01*
X132249500Y-62435928D01*
X132249500Y-62435931D01*
X132249500Y-62564069D01*
X132249500Y-62564071D01*
X132249499Y-62564071D01*
X125640415Y-62564071D01*
X125673580Y-62498981D01*
X125727303Y-62333638D01*
X125754500Y-62161926D01*
X125754500Y-61988074D01*
X125727303Y-61816362D01*
X125727302Y-61816358D01*
X125727302Y-61816357D01*
X125673581Y-61651021D01*
X125625991Y-61557620D01*
X125594653Y-61496116D01*
X125535044Y-61414071D01*
X151399499Y-61414071D01*
X151424497Y-61539738D01*
X151424499Y-61539744D01*
X151473533Y-61658124D01*
X151473538Y-61658133D01*
X151544723Y-61764668D01*
X151544726Y-61764672D01*
X151635327Y-61855273D01*
X151635331Y-61855276D01*
X151741866Y-61926461D01*
X151741872Y-61926464D01*
X151741873Y-61926465D01*
X151860256Y-61975501D01*
X151860260Y-61975501D01*
X151860261Y-61975502D01*
X151985928Y-62000500D01*
X151985931Y-62000500D01*
X152114071Y-62000500D01*
X152198615Y-61983682D01*
X152239744Y-61975501D01*
X152358127Y-61926465D01*
X152464669Y-61855276D01*
X152555276Y-61764669D01*
X152626465Y-61658127D01*
X152675501Y-61539744D01*
X152698741Y-61422913D01*
X152700500Y-61414071D01*
X152700500Y-61285928D01*
X152675502Y-61160261D01*
X152675501Y-61160260D01*
X152675501Y-61160256D01*
X152626465Y-61041873D01*
X152626464Y-61041872D01*
X152626461Y-61041866D01*
X152555276Y-60935331D01*
X152555273Y-60935327D01*
X152464672Y-60844726D01*
X152464668Y-60844723D01*
X152418794Y-60814071D01*
X176699499Y-60814071D01*
X176724497Y-60939738D01*
X176724499Y-60939744D01*
X176773533Y-61058124D01*
X176773538Y-61058133D01*
X176844723Y-61164668D01*
X176844726Y-61164672D01*
X176935327Y-61255273D01*
X176935331Y-61255276D01*
X177041866Y-61326461D01*
X177041872Y-61326464D01*
X177041873Y-61326465D01*
X177160256Y-61375501D01*
X177160260Y-61375501D01*
X177160261Y-61375502D01*
X177285928Y-61400500D01*
X177285931Y-61400500D01*
X177414071Y-61400500D01*
X177498615Y-61383682D01*
X177539744Y-61375501D01*
X177658127Y-61326465D01*
X177764669Y-61255276D01*
X177855276Y-61164669D01*
X177926465Y-61058127D01*
X177975501Y-60939744D01*
X177994402Y-60844724D01*
X178000500Y-60814071D01*
X178000500Y-60685928D01*
X177975502Y-60560261D01*
X177975501Y-60560260D01*
X177975501Y-60560256D01*
X177932017Y-60455276D01*
X177926466Y-60441875D01*
X177926461Y-60441866D01*
X177855276Y-60335331D01*
X177855273Y-60335327D01*
X177764672Y-60244726D01*
X177764668Y-60244723D01*
X177658133Y-60173538D01*
X177658124Y-60173533D01*
X177539744Y-60124499D01*
X177539738Y-60124497D01*
X177414071Y-60099500D01*
X177414069Y-60099500D01*
X177285931Y-60099500D01*
X177285929Y-60099500D01*
X177160261Y-60124497D01*
X177160255Y-60124499D01*
X177041875Y-60173533D01*
X177041866Y-60173538D01*
X176935331Y-60244723D01*
X176935327Y-60244726D01*
X176844726Y-60335327D01*
X176844723Y-60335331D01*
X176773538Y-60441866D01*
X176773533Y-60441875D01*
X176724499Y-60560255D01*
X176724497Y-60560261D01*
X176699500Y-60685928D01*
X176699500Y-60685931D01*
X176699500Y-60814069D01*
X176699500Y-60814071D01*
X176699499Y-60814071D01*
X152418794Y-60814071D01*
X152358133Y-60773538D01*
X152358124Y-60773533D01*
X152239744Y-60724499D01*
X152239738Y-60724497D01*
X152114071Y-60699500D01*
X152114069Y-60699500D01*
X151985931Y-60699500D01*
X151985929Y-60699500D01*
X151860261Y-60724497D01*
X151860255Y-60724499D01*
X151741875Y-60773533D01*
X151741866Y-60773538D01*
X151635331Y-60844723D01*
X151635327Y-60844726D01*
X151544726Y-60935327D01*
X151544723Y-60935331D01*
X151473538Y-61041866D01*
X151473533Y-61041875D01*
X151424499Y-61160255D01*
X151424497Y-61160261D01*
X151399500Y-61285928D01*
X151399500Y-61285931D01*
X151399500Y-61414069D01*
X151399500Y-61414071D01*
X151399499Y-61414071D01*
X125535044Y-61414071D01*
X125492465Y-61355467D01*
X125369533Y-61232535D01*
X125352257Y-61219983D01*
X125345779Y-61213647D01*
X125332952Y-61190763D01*
X125316934Y-61169991D01*
X125316141Y-61160770D01*
X125311617Y-61152698D01*
X125313198Y-61126515D01*
X125310953Y-61100378D01*
X125315272Y-61092192D01*
X125315830Y-61082955D01*
X125331317Y-61061781D01*
X125343558Y-61038582D01*
X125356472Y-61027390D01*
X125357079Y-61026562D01*
X125357709Y-61026318D01*
X125359598Y-61024683D01*
X125369533Y-61017465D01*
X125492465Y-60894533D01*
X125594653Y-60753884D01*
X125673580Y-60598981D01*
X125686161Y-60560261D01*
X125727302Y-60433642D01*
X125727302Y-60433641D01*
X125727303Y-60433638D01*
X125754500Y-60261926D01*
X125754500Y-60088074D01*
X125742779Y-60014071D01*
X170699499Y-60014071D01*
X170724497Y-60139738D01*
X170724499Y-60139744D01*
X170773533Y-60258124D01*
X170773538Y-60258133D01*
X170844723Y-60364668D01*
X170844726Y-60364672D01*
X170935327Y-60455273D01*
X170935331Y-60455276D01*
X171041866Y-60526461D01*
X171041872Y-60526464D01*
X171041873Y-60526465D01*
X171160256Y-60575501D01*
X171160260Y-60575501D01*
X171160261Y-60575502D01*
X171285928Y-60600500D01*
X171285931Y-60600500D01*
X171414071Y-60600500D01*
X171498615Y-60583682D01*
X171539744Y-60575501D01*
X171658127Y-60526465D01*
X171764669Y-60455276D01*
X171855276Y-60364669D01*
X171926465Y-60258127D01*
X171975501Y-60139744D01*
X172000500Y-60014069D01*
X172000500Y-59885931D01*
X172000500Y-59885928D01*
X171975502Y-59760261D01*
X171975501Y-59760260D01*
X171975501Y-59760256D01*
X171935660Y-59664071D01*
X174799499Y-59664071D01*
X174824497Y-59789738D01*
X174824499Y-59789744D01*
X174873533Y-59908124D01*
X174873538Y-59908133D01*
X174944723Y-60014668D01*
X174944726Y-60014672D01*
X175035327Y-60105273D01*
X175035331Y-60105276D01*
X175141866Y-60176461D01*
X175141872Y-60176464D01*
X175141873Y-60176465D01*
X175260256Y-60225501D01*
X175260260Y-60225501D01*
X175260261Y-60225502D01*
X175385928Y-60250500D01*
X175385931Y-60250500D01*
X175514071Y-60250500D01*
X175598615Y-60233682D01*
X175639744Y-60225501D01*
X175758127Y-60176465D01*
X175864669Y-60105276D01*
X175955276Y-60014669D01*
X176026465Y-59908127D01*
X176075501Y-59789744D01*
X176098226Y-59675501D01*
X176100500Y-59664071D01*
X176100500Y-59535928D01*
X176076260Y-59414071D01*
X177899499Y-59414071D01*
X177924497Y-59539738D01*
X177924499Y-59539744D01*
X177973533Y-59658124D01*
X177973538Y-59658133D01*
X178044723Y-59764668D01*
X178044726Y-59764672D01*
X178135327Y-59855273D01*
X178135331Y-59855276D01*
X178241866Y-59926461D01*
X178241872Y-59926464D01*
X178241873Y-59926465D01*
X178360256Y-59975501D01*
X178360260Y-59975501D01*
X178360261Y-59975502D01*
X178485928Y-60000500D01*
X178485931Y-60000500D01*
X178614071Y-60000500D01*
X178698615Y-59983682D01*
X178739744Y-59975501D01*
X178858127Y-59926465D01*
X178964669Y-59855276D01*
X179055276Y-59764669D01*
X179126465Y-59658127D01*
X179175501Y-59539744D01*
X179194402Y-59444724D01*
X179200500Y-59414071D01*
X179200500Y-59285928D01*
X179175502Y-59160261D01*
X179175501Y-59160260D01*
X179175501Y-59160256D01*
X179126465Y-59041873D01*
X179126464Y-59041872D01*
X179126461Y-59041866D01*
X179055276Y-58935331D01*
X179055273Y-58935327D01*
X178964672Y-58844726D01*
X178964668Y-58844723D01*
X178858133Y-58773538D01*
X178858124Y-58773533D01*
X178739744Y-58724499D01*
X178739738Y-58724497D01*
X178614071Y-58699500D01*
X178614069Y-58699500D01*
X178485931Y-58699500D01*
X178485929Y-58699500D01*
X178360261Y-58724497D01*
X178360255Y-58724499D01*
X178241875Y-58773533D01*
X178241866Y-58773538D01*
X178135331Y-58844723D01*
X178135327Y-58844726D01*
X178044726Y-58935327D01*
X178044723Y-58935331D01*
X177973538Y-59041866D01*
X177973533Y-59041875D01*
X177924499Y-59160255D01*
X177924497Y-59160261D01*
X177899500Y-59285928D01*
X177899500Y-59285931D01*
X177899500Y-59414069D01*
X177899500Y-59414071D01*
X177899499Y-59414071D01*
X176076260Y-59414071D01*
X176075502Y-59410261D01*
X176075501Y-59410260D01*
X176075501Y-59410256D01*
X176036361Y-59315764D01*
X176026468Y-59291879D01*
X176026461Y-59291866D01*
X175955276Y-59185331D01*
X175955273Y-59185327D01*
X175864672Y-59094726D01*
X175864668Y-59094723D01*
X175758133Y-59023538D01*
X175758124Y-59023533D01*
X175639744Y-58974499D01*
X175639738Y-58974497D01*
X175514071Y-58949500D01*
X175514069Y-58949500D01*
X175385931Y-58949500D01*
X175385929Y-58949500D01*
X175260261Y-58974497D01*
X175260255Y-58974499D01*
X175141875Y-59023533D01*
X175141866Y-59023538D01*
X175035331Y-59094723D01*
X175035327Y-59094726D01*
X174944726Y-59185327D01*
X174944723Y-59185331D01*
X174873538Y-59291866D01*
X174873533Y-59291875D01*
X174824499Y-59410255D01*
X174824497Y-59410261D01*
X174799500Y-59535928D01*
X174799500Y-59535931D01*
X174799500Y-59664069D01*
X174799500Y-59664071D01*
X174799499Y-59664071D01*
X171935660Y-59664071D01*
X171926465Y-59641873D01*
X171858221Y-59539738D01*
X171855276Y-59535330D01*
X171764672Y-59444726D01*
X171764668Y-59444723D01*
X171658133Y-59373538D01*
X171658124Y-59373533D01*
X171539744Y-59324499D01*
X171539738Y-59324497D01*
X171414071Y-59299500D01*
X171414069Y-59299500D01*
X171285931Y-59299500D01*
X171285929Y-59299500D01*
X171160261Y-59324497D01*
X171160255Y-59324499D01*
X171041875Y-59373533D01*
X171041866Y-59373538D01*
X170935331Y-59444723D01*
X170935327Y-59444726D01*
X170844726Y-59535327D01*
X170844723Y-59535331D01*
X170773538Y-59641866D01*
X170773533Y-59641875D01*
X170724499Y-59760255D01*
X170724497Y-59760261D01*
X170699500Y-59885928D01*
X170699500Y-59885931D01*
X170699500Y-60014069D01*
X170699500Y-60014071D01*
X170699499Y-60014071D01*
X125742779Y-60014071D01*
X125727303Y-59916362D01*
X125707454Y-59855273D01*
X125673581Y-59751021D01*
X125635102Y-59675502D01*
X125594653Y-59596116D01*
X125492465Y-59455467D01*
X125369533Y-59332535D01*
X125228884Y-59230347D01*
X125073978Y-59151418D01*
X124959035Y-59114071D01*
X125999499Y-59114071D01*
X126024497Y-59239738D01*
X126024499Y-59239744D01*
X126073533Y-59358124D01*
X126073538Y-59358133D01*
X126144723Y-59464668D01*
X126144726Y-59464672D01*
X126235327Y-59555273D01*
X126235331Y-59555276D01*
X126341866Y-59626461D01*
X126341872Y-59626464D01*
X126341873Y-59626465D01*
X126460256Y-59675501D01*
X126460260Y-59675501D01*
X126460261Y-59675502D01*
X126585928Y-59700500D01*
X126585931Y-59700500D01*
X126714071Y-59700500D01*
X126798615Y-59683682D01*
X126839744Y-59675501D01*
X126958127Y-59626465D01*
X127064669Y-59555276D01*
X127155276Y-59464669D01*
X127226465Y-59358127D01*
X127275501Y-59239744D01*
X127300500Y-59114069D01*
X127300500Y-58985931D01*
X127300500Y-58985928D01*
X127275502Y-58860261D01*
X127275501Y-58860260D01*
X127275501Y-58860256D01*
X127226465Y-58741873D01*
X127226464Y-58741872D01*
X127226461Y-58741866D01*
X127155276Y-58635331D01*
X127155273Y-58635327D01*
X127064672Y-58544726D01*
X127064668Y-58544723D01*
X126958133Y-58473538D01*
X126958124Y-58473533D01*
X126839744Y-58424499D01*
X126839738Y-58424497D01*
X126714071Y-58399500D01*
X126714069Y-58399500D01*
X126585931Y-58399500D01*
X126585929Y-58399500D01*
X126460261Y-58424497D01*
X126460255Y-58424499D01*
X126341875Y-58473533D01*
X126341866Y-58473538D01*
X126235331Y-58544723D01*
X126235327Y-58544726D01*
X126144726Y-58635327D01*
X126144723Y-58635331D01*
X126073538Y-58741866D01*
X126073533Y-58741875D01*
X126024499Y-58860255D01*
X126024497Y-58860261D01*
X125999500Y-58985928D01*
X125999500Y-58985931D01*
X125999500Y-59114069D01*
X125999500Y-59114071D01*
X125999499Y-59114071D01*
X124959035Y-59114071D01*
X124908869Y-59097771D01*
X124908867Y-59097771D01*
X124908639Y-59097697D01*
X124822782Y-59084098D01*
X124736926Y-59070500D01*
X124563074Y-59070500D01*
X124505836Y-59079565D01*
X124391360Y-59097697D01*
X124391357Y-59097697D01*
X124226021Y-59151418D01*
X124071115Y-59230347D01*
X123994616Y-59285928D01*
X123930467Y-59332535D01*
X123930465Y-59332537D01*
X123930464Y-59332537D01*
X123807537Y-59455464D01*
X123807537Y-59455465D01*
X123807535Y-59455467D01*
X123763649Y-59515869D01*
X123705347Y-59596115D01*
X123626418Y-59751021D01*
X123572697Y-59916357D01*
X123572697Y-59916360D01*
X123545500Y-60088074D01*
X112500500Y-60088074D01*
X112500500Y-56006959D01*
X112501280Y-55993077D01*
X112501320Y-55992717D01*
X112511459Y-55902727D01*
X112517635Y-55875668D01*
X112545353Y-55796457D01*
X112557393Y-55771453D01*
X112602046Y-55700389D01*
X112619351Y-55678690D01*
X112678690Y-55619351D01*
X112700389Y-55602046D01*
X112771453Y-55557393D01*
X112796457Y-55545353D01*
X112875668Y-55517635D01*
X112902729Y-55511459D01*
X112978753Y-55502893D01*
X112993078Y-55501280D01*
X113006960Y-55500500D01*
X113065892Y-55500500D01*
X181509108Y-55500500D01*
X181568040Y-55500500D01*
X181581922Y-55501280D01*
G37*
%TD.AperFunction*%
%TD*%
M02*
