%TF.GenerationSoftware,KiCad,Pcbnew,10.0.1*%
%TF.CreationDate,2026-06-02T10:42:24+02:00*%
%TF.ProjectId,ESP32-sensor-board,45535033-322d-4736-956e-736f722d626f,rev?*%
%TF.SameCoordinates,Original*%
%TF.FileFunction,Soldermask,Top*%
%TF.FilePolarity,Negative*%
%FSLAX46Y46*%
G04 Gerber Fmt 4.6, Leading zero omitted, Abs format (unit mm)*
G04 Created by KiCad (PCBNEW 10.0.1) date 2026-06-02 10:42:24*
%MOMM*%
%LPD*%
G01*
G04 APERTURE LIST*
G04 Aperture macros list*
%AMRoundRect*
0 Rectangle with rounded corners*
0 $1 Rounding radius*
0 $2 $3 $4 $5 $6 $7 $8 $9 X,Y pos of 4 corners*
0 Add a 4 corners polygon primitive as box body*
4,1,4,$2,$3,$4,$5,$6,$7,$8,$9,$2,$3,0*
0 Add four circle primitives for the rounded corners*
1,1,$1+$1,$2,$3*
1,1,$1+$1,$4,$5*
1,1,$1+$1,$6,$7*
1,1,$1+$1,$8,$9*
0 Add four rect primitives between the rounded corners*
20,1,$1+$1,$2,$3,$4,$5,0*
20,1,$1+$1,$4,$5,$6,$7,0*
20,1,$1+$1,$6,$7,$8,$9,0*
20,1,$1+$1,$8,$9,$2,$3,0*%
G04 Aperture macros list end*
%ADD10O,1.254000X2.304000*%
%ADD11RoundRect,0.102000X-0.100000X-0.500000X0.100000X-0.500000X0.100000X0.500000X-0.100000X0.500000X0*%
%ADD12C,0.854000*%
%ADD13RoundRect,0.102000X-0.150000X-0.600000X0.150000X-0.600000X0.150000X0.600000X-0.150000X0.600000X0*%
%ADD14RoundRect,0.250000X-0.250000X-0.475000X0.250000X-0.475000X0.250000X0.475000X-0.250000X0.475000X0*%
%ADD15C,1.000000*%
%ADD16RoundRect,0.250000X0.450000X-0.262500X0.450000X0.262500X-0.450000X0.262500X-0.450000X-0.262500X0*%
%ADD17R,1.000000X1.400000*%
%ADD18RoundRect,0.151000X-0.546000X-0.151000X0.546000X-0.151000X0.546000X0.151000X-0.546000X0.151000X0*%
%ADD19RoundRect,0.102000X-0.700000X-0.800000X0.700000X-0.800000X0.700000X0.800000X-0.700000X0.800000X0*%
%ADD20R,0.300000X0.300000*%
%ADD21R,0.900000X0.300000*%
%ADD22R,0.300000X0.900000*%
%ADD23R,1.800000X1.800000*%
%ADD24RoundRect,0.250000X-0.450000X0.262500X-0.450000X-0.262500X0.450000X-0.262500X0.450000X0.262500X0*%
%ADD25R,1.700000X1.700000*%
%ADD26C,1.700000*%
%ADD27RoundRect,0.250000X-0.262500X-0.450000X0.262500X-0.450000X0.262500X0.450000X-0.262500X0.450000X0*%
%ADD28C,2.100000*%
%ADD29R,2.810000X0.910000*%
%ADD30RoundRect,0.250000X0.262500X0.450000X-0.262500X0.450000X-0.262500X-0.450000X0.262500X-0.450000X0*%
%ADD31RoundRect,0.102000X-0.400000X0.550000X-0.400000X-0.550000X0.400000X-0.550000X0.400000X0.550000X0*%
%ADD32RoundRect,0.102000X-0.500000X0.550000X-0.500000X-0.550000X0.500000X-0.550000X0.500000X0.550000X0*%
%ADD33RoundRect,0.250000X0.475000X-0.250000X0.475000X0.250000X-0.475000X0.250000X-0.475000X-0.250000X0*%
%ADD34R,1.400000X1.000000*%
%ADD35RoundRect,0.250000X-0.475000X0.250000X-0.475000X-0.250000X0.475000X-0.250000X0.475000X0.250000X0*%
%ADD36C,1.150000*%
%ADD37C,1.650000*%
%ADD38RoundRect,0.102000X-0.500000X-0.750000X0.500000X-0.750000X0.500000X0.750000X-0.500000X0.750000X0*%
%ADD39RoundRect,0.102000X-0.350000X-0.750000X0.350000X-0.750000X0.350000X0.750000X-0.350000X0.750000X0*%
%ADD40RoundRect,0.102000X-0.750000X-1.400000X0.750000X-1.400000X0.750000X1.400000X-0.750000X1.400000X0*%
%ADD41C,1.412000*%
%ADD42RoundRect,0.250000X0.250000X0.475000X-0.250000X0.475000X-0.250000X-0.475000X0.250000X-0.475000X0*%
%ADD43RoundRect,0.102000X1.075000X0.475000X-1.075000X0.475000X-1.075000X-0.475000X1.075000X-0.475000X0*%
%ADD44RoundRect,0.102000X1.075000X1.625000X-1.075000X1.625000X-1.075000X-1.625000X1.075000X-1.625000X0*%
%ADD45R,1.230000X1.800000*%
%ADD46RoundRect,0.150000X0.512500X0.150000X-0.512500X0.150000X-0.512500X-0.150000X0.512500X-0.150000X0*%
%ADD47R,1.800000X1.230000*%
%ADD48RoundRect,0.102000X-0.500000X-2.750000X0.500000X-2.750000X0.500000X2.750000X-0.500000X2.750000X0*%
%ADD49RoundRect,0.102000X-0.800000X-1.500000X0.800000X-1.500000X0.800000X1.500000X-0.800000X1.500000X0*%
%ADD50RoundRect,0.081750X-0.265250X-0.245250X0.265250X-0.245250X0.265250X0.245250X-0.265250X0.245250X0*%
%ADD51RoundRect,0.116000X-0.406000X-0.116000X0.406000X-0.116000X0.406000X0.116000X-0.406000X0.116000X0*%
%ADD52RoundRect,0.116000X-0.116000X-0.406000X0.116000X-0.406000X0.116000X0.406000X-0.116000X0.406000X0*%
%ADD53RoundRect,0.102000X-1.350000X-1.350000X1.350000X-1.350000X1.350000X1.350000X-1.350000X1.350000X0*%
%ADD54O,1.804000X0.804000*%
%ADD55RoundRect,0.200000X0.200000X-0.250000X0.200000X0.250000X-0.200000X0.250000X-0.200000X-0.250000X0*%
%ADD56RoundRect,0.102000X-0.750000X-0.450000X0.750000X-0.450000X0.750000X0.450000X-0.750000X0.450000X0*%
%ADD57RoundRect,0.102000X-0.350000X-0.350000X0.350000X-0.350000X0.350000X0.350000X-0.350000X0.350000X0*%
%ADD58R,0.910000X2.810000*%
%ADD59RoundRect,0.200000X-0.200000X0.250000X-0.200000X-0.250000X0.200000X-0.250000X0.200000X0.250000X0*%
%ADD60RoundRect,0.102000X-0.600000X0.600000X-0.600000X-0.600000X0.600000X-0.600000X0.600000X0.600000X0*%
%ADD61RoundRect,0.102000X-0.800000X0.750000X-0.800000X-0.750000X0.800000X-0.750000X0.800000X0.750000X0*%
G04 APERTURE END LIST*
D10*
%TO.C,J1*%
X160148250Y-104187500D03*
X151608250Y-104187500D03*
X160148250Y-99457500D03*
X151608250Y-99457500D03*
D11*
X155878250Y-104737500D03*
X155878250Y-101637500D03*
D12*
X153878250Y-98307500D03*
X157878250Y-98307500D03*
X153078250Y-98307500D03*
X153478250Y-99017500D03*
X154278250Y-99017500D03*
X154678250Y-98307500D03*
X155078250Y-99017500D03*
X155478250Y-98307500D03*
X156278250Y-98307500D03*
X156678250Y-99017500D03*
X157078250Y-98307500D03*
X157478250Y-99017500D03*
X158278250Y-99017500D03*
X158678250Y-98307500D03*
D13*
X158628250Y-97057500D03*
X158128250Y-97057500D03*
X157628250Y-97057500D03*
X157128250Y-97057500D03*
X156628250Y-97057500D03*
X156128250Y-97057500D03*
X155628250Y-97057500D03*
X155128250Y-97057500D03*
X154628250Y-97057500D03*
X154128250Y-97057500D03*
X153628250Y-97057500D03*
X153128250Y-97057500D03*
%TD*%
D14*
%TO.C,C2*%
X119750000Y-103800000D03*
X121650000Y-103800000D03*
%TD*%
D15*
%TO.C,TP4*%
X214375000Y-78825000D03*
%TD*%
D16*
%TO.C,R14*%
X172850000Y-96237500D03*
X172850000Y-94412500D03*
%TD*%
D17*
%TO.C,LED2*%
X132800000Y-92075000D03*
X134600000Y-92075000D03*
%TD*%
D18*
%TO.C,U8*%
X136765000Y-67311200D03*
X136765000Y-67961200D03*
X136765000Y-68611200D03*
X138685000Y-68611200D03*
X138685000Y-67311200D03*
%TD*%
D19*
%TO.C,S2*%
X158700000Y-63325000D03*
X158700000Y-70525000D03*
X161700000Y-63325000D03*
X161700000Y-70525000D03*
%TD*%
D20*
%TO.C,U4*%
X173525000Y-98675000D03*
D21*
X173225000Y-99175000D03*
X173225000Y-99675000D03*
X173225000Y-100175000D03*
X173225000Y-100675000D03*
D20*
X173525000Y-101175000D03*
D22*
X174025000Y-101475000D03*
X174525000Y-101475000D03*
X175025000Y-101475000D03*
X175525000Y-101475000D03*
D20*
X176025000Y-101175000D03*
D21*
X176325000Y-100675000D03*
X176325000Y-100175000D03*
X176325000Y-99675000D03*
X176325000Y-99175000D03*
D20*
X176025000Y-98675000D03*
D22*
X175525000Y-98375000D03*
X175025000Y-98375000D03*
X174525000Y-98375000D03*
X174025000Y-98375000D03*
D23*
X174775000Y-99925000D03*
%TD*%
D24*
%TO.C,R24*%
X178525000Y-62187500D03*
X178525000Y-64012500D03*
%TD*%
%TO.C,R15*%
X197425000Y-71087500D03*
X197425000Y-72912500D03*
%TD*%
D15*
%TO.C,TP5*%
X183625000Y-68800000D03*
%TD*%
%TO.C,TP2*%
X186925000Y-84625000D03*
%TD*%
D25*
%TO.C,J4*%
X114850000Y-62515000D03*
D26*
X114850000Y-65055000D03*
X114850000Y-67595000D03*
X114850000Y-70135000D03*
%TD*%
D27*
%TO.C,R6*%
X146262500Y-83125000D03*
X148087500Y-83125000D03*
%TD*%
D28*
%TO.C,REF\u002A\u002A*%
X120975000Y-70800000D03*
%TD*%
D17*
%TO.C,LED1*%
X132700000Y-88825000D03*
X134500000Y-88825000D03*
%TD*%
D27*
%TO.C,R8*%
X136787500Y-91925000D03*
X138612500Y-91925000D03*
%TD*%
D14*
%TO.C,C5*%
X119850000Y-106400000D03*
X121750000Y-106400000D03*
%TD*%
D27*
%TO.C,R11*%
X164937500Y-105075000D03*
X166762500Y-105075000D03*
%TD*%
D29*
%TO.C,F2*%
X138075000Y-81655000D03*
X138075000Y-84895000D03*
%TD*%
D30*
%TO.C,R7*%
X138375000Y-88750000D03*
X136550000Y-88750000D03*
%TD*%
D15*
%TO.C,TP1*%
X208475000Y-78325000D03*
%TD*%
D31*
%TO.C,Q1*%
X164075000Y-76595000D03*
X162975000Y-76595000D03*
D32*
X163525000Y-80105000D03*
%TD*%
D27*
%TO.C,R23*%
X166662500Y-76275000D03*
X168487500Y-76275000D03*
%TD*%
D33*
%TO.C,C17*%
X134125000Y-69161200D03*
X134125000Y-67261200D03*
%TD*%
D25*
%TO.C,J5*%
X114850000Y-77285000D03*
D26*
X114850000Y-79825000D03*
X114850000Y-82365000D03*
X114850000Y-84905000D03*
X114850000Y-87445000D03*
%TD*%
D34*
%TO.C,LED5*%
X172975000Y-91600000D03*
X172975000Y-89800000D03*
%TD*%
D24*
%TO.C,R34*%
X163600000Y-84312500D03*
X163600000Y-86137500D03*
%TD*%
D30*
%TO.C,R22*%
X187987500Y-78775000D03*
X186162500Y-78775000D03*
%TD*%
D35*
%TO.C,C1*%
X149375000Y-98950000D03*
X149375000Y-100850000D03*
%TD*%
D36*
%TO.C,J3*%
X192600000Y-85900000D03*
D37*
X213600000Y-85900000D03*
D38*
X210975000Y-83100000D03*
X208475000Y-83100000D03*
X205975000Y-83100000D03*
X203475000Y-83100000D03*
X200975000Y-83100000D03*
X198475000Y-83100000D03*
X196050000Y-83100000D03*
X194350000Y-83100000D03*
X213475000Y-83100000D03*
D39*
X193050000Y-83100000D03*
D40*
X190450000Y-84900000D03*
X215550000Y-84900000D03*
X217750000Y-106400000D03*
X190450000Y-106400000D03*
D39*
X191850000Y-83100000D03*
%TD*%
D27*
%TO.C,R29*%
X133462500Y-63850000D03*
X135287500Y-63850000D03*
%TD*%
D33*
%TO.C,C8*%
X198000000Y-64950000D03*
X198000000Y-63050000D03*
%TD*%
D41*
%TO.C,MK1*%
X124650000Y-60175000D03*
X124650000Y-62075000D03*
%TD*%
D27*
%TO.C,R30*%
X135887500Y-71625000D03*
X137712500Y-71625000D03*
%TD*%
%TO.C,R31*%
X137312500Y-59036200D03*
X139137500Y-59036200D03*
%TD*%
D24*
%TO.C,R4*%
X149700000Y-103862500D03*
X149700000Y-105687500D03*
%TD*%
D42*
%TO.C,C13*%
X205875000Y-80300000D03*
X203975000Y-80300000D03*
%TD*%
D30*
%TO.C,R28*%
X133837500Y-71725000D03*
X132012500Y-71725000D03*
%TD*%
D14*
%TO.C,C20*%
X137425000Y-62850000D03*
X139325000Y-62850000D03*
%TD*%
D15*
%TO.C,TP3*%
X193050000Y-74525000D03*
%TD*%
D27*
%TO.C,R26*%
X128475000Y-68625000D03*
X130300000Y-68625000D03*
%TD*%
D28*
%TO.C,REF\u002A\u002A*%
X183125000Y-85050000D03*
%TD*%
D14*
%TO.C,C22*%
X146825000Y-70925000D03*
X148725000Y-70925000D03*
%TD*%
D43*
%TO.C,VR1*%
X121125000Y-101225000D03*
X121125000Y-98925000D03*
X121125000Y-96625000D03*
D44*
X115325000Y-98925000D03*
%TD*%
D16*
%TO.C,R18*%
X175250000Y-96187500D03*
X175250000Y-94362500D03*
%TD*%
D42*
%TO.C,C10*%
X166750000Y-102475000D03*
X164850000Y-102475000D03*
%TD*%
D14*
%TO.C,C25*%
X170625000Y-81275000D03*
X172525000Y-81275000D03*
%TD*%
D33*
%TO.C,C15*%
X172525000Y-64125000D03*
X172525000Y-62225000D03*
%TD*%
D28*
%TO.C,REF\u002A\u002A*%
X121175000Y-90400000D03*
%TD*%
D24*
%TO.C,R3*%
X147200000Y-102962500D03*
X147200000Y-104787500D03*
%TD*%
D17*
%TO.C,LED4*%
X176650000Y-81150000D03*
X178450000Y-81150000D03*
%TD*%
D27*
%TO.C,R1*%
X142087500Y-93275000D03*
X143912500Y-93275000D03*
%TD*%
D35*
%TO.C,C6*%
X142450000Y-82650000D03*
X142450000Y-84550000D03*
%TD*%
D16*
%TO.C,R19*%
X210950000Y-80987500D03*
X210950000Y-79162500D03*
%TD*%
D14*
%TO.C,C21*%
X146825000Y-65925000D03*
X148725000Y-65925000D03*
%TD*%
D45*
%TO.C,C7*%
X195000000Y-67310000D03*
X195000000Y-64690000D03*
%TD*%
D35*
%TO.C,C11*%
X182575000Y-97475000D03*
X182575000Y-99375000D03*
%TD*%
D46*
%TO.C,U5*%
X160275000Y-94100000D03*
X160275000Y-93150000D03*
X160275000Y-92200000D03*
X158000000Y-92200000D03*
X158000000Y-93150000D03*
X158000000Y-94100000D03*
%TD*%
D47*
%TO.C,C4*%
X127210000Y-106425000D03*
X124590000Y-106425000D03*
%TD*%
D48*
%TO.C,J2*%
X137000000Y-104957500D03*
X139000000Y-104957500D03*
D49*
X134600000Y-102707500D03*
X141400000Y-102707500D03*
%TD*%
D30*
%TO.C,R2*%
X141962500Y-95400000D03*
X140137500Y-95400000D03*
%TD*%
D50*
%TO.C,U2*%
X176495000Y-62025000D03*
X176495000Y-62675000D03*
X176495000Y-63325000D03*
X176495000Y-63975000D03*
X174555000Y-63975000D03*
X174555000Y-63325000D03*
X174555000Y-62675000D03*
X174555000Y-62025000D03*
%TD*%
D14*
%TO.C,C23*%
X166625000Y-81275000D03*
X168525000Y-81275000D03*
%TD*%
%TO.C,C24*%
X170800000Y-76250000D03*
X172700000Y-76250000D03*
%TD*%
D35*
%TO.C,C14*%
X180600000Y-76050000D03*
X180600000Y-77950000D03*
%TD*%
D16*
%TO.C,R33*%
X153600000Y-86137500D03*
X153600000Y-84312500D03*
%TD*%
D24*
%TO.C,R32*%
X165775000Y-67187500D03*
X165775000Y-69012500D03*
%TD*%
D16*
%TO.C,R20*%
X194875000Y-72512500D03*
X194875000Y-70687500D03*
%TD*%
D47*
%TO.C,C3*%
X127085000Y-102350000D03*
X124465000Y-102350000D03*
%TD*%
D27*
%TO.C,R9*%
X136487500Y-95350000D03*
X138312500Y-95350000D03*
%TD*%
D47*
%TO.C,C12*%
X198390000Y-80025000D03*
X201010000Y-80025000D03*
%TD*%
D19*
%TO.C,S1*%
X152225000Y-63125000D03*
X152225000Y-70325000D03*
X155225000Y-63125000D03*
X155225000Y-70325000D03*
%TD*%
D27*
%TO.C,R27*%
X129462500Y-63850000D03*
X131287500Y-63850000D03*
%TD*%
%TO.C,R5*%
X146337500Y-86500000D03*
X148162500Y-86500000D03*
%TD*%
D14*
%TO.C,C19*%
X139775000Y-71625000D03*
X141675000Y-71625000D03*
%TD*%
D51*
%TO.C,U1*%
X140565000Y-87750000D03*
X140565000Y-88250000D03*
X140565000Y-88750000D03*
X140565000Y-89250000D03*
X140565000Y-89750000D03*
D52*
X141500000Y-90685000D03*
X142000000Y-90685000D03*
X142500000Y-90685000D03*
X143000000Y-90685000D03*
X143500000Y-90685000D03*
D51*
X144435000Y-89750000D03*
X144435000Y-89250000D03*
X144435000Y-88750000D03*
X144435000Y-88250000D03*
X144435000Y-87750000D03*
D52*
X143500000Y-86815000D03*
X143000000Y-86815000D03*
X142500000Y-86815000D03*
X142000000Y-86815000D03*
X141500000Y-86815000D03*
D53*
X142500000Y-88750000D03*
%TD*%
D54*
%TO.C,U6*%
X183400000Y-72595000D03*
X183400000Y-73865000D03*
X183400000Y-75135000D03*
X183400000Y-76405000D03*
X190600000Y-76405000D03*
X190600000Y-75135000D03*
X190600000Y-73865000D03*
X190600000Y-72595000D03*
%TD*%
D55*
%TO.C,Q2*%
X157650000Y-84225000D03*
X159550000Y-84225000D03*
X158600000Y-82225000D03*
%TD*%
D27*
%TO.C,R12*%
X178612500Y-96325000D03*
X180437500Y-96325000D03*
%TD*%
D17*
%TO.C,LED3*%
X132775000Y-95225000D03*
X134575000Y-95225000D03*
%TD*%
D27*
%TO.C,R16*%
X190912500Y-79275000D03*
X192737500Y-79275000D03*
%TD*%
D47*
%TO.C,C9*%
X167110000Y-99375000D03*
X164490000Y-99375000D03*
%TD*%
D27*
%TO.C,R13*%
X178562500Y-100050000D03*
X180387500Y-100050000D03*
%TD*%
%TO.C,R25*%
X174262500Y-66250000D03*
X176087500Y-66250000D03*
%TD*%
D35*
%TO.C,C18*%
X141450000Y-67486200D03*
X141450000Y-69386200D03*
%TD*%
D56*
%TO.C,U3*%
X200250000Y-62982017D03*
X200250000Y-64482017D03*
X200250000Y-65982017D03*
X200250000Y-67482017D03*
X200250000Y-68982017D03*
X200250000Y-70482017D03*
X200250000Y-71982017D03*
X200250000Y-73482017D03*
X200250000Y-74982017D03*
X217750000Y-74982017D03*
X217750000Y-73482017D03*
X217750000Y-71982017D03*
X217750000Y-70482017D03*
X217750000Y-68982017D03*
X217750000Y-67482017D03*
X217750000Y-65982017D03*
X217750000Y-64482017D03*
X217750000Y-62982017D03*
D57*
X208860000Y-68082017D03*
X209960000Y-68082017D03*
X211060000Y-68082017D03*
X208860000Y-69182017D03*
X209960000Y-69182017D03*
X211060000Y-69182017D03*
X208860000Y-70282017D03*
X209960000Y-70282017D03*
X211060000Y-70282017D03*
D52*
X209410000Y-68082017D03*
X210510000Y-68082017D03*
X208860000Y-68632017D03*
X209960000Y-68632017D03*
X211060000Y-68632017D03*
X209410000Y-69182017D03*
X210510000Y-69182017D03*
X208860000Y-69732017D03*
X209960000Y-69732017D03*
X211060000Y-69732017D03*
X209410000Y-70282017D03*
X210510000Y-70282017D03*
%TD*%
D58*
%TO.C,F1*%
X150870000Y-94500000D03*
X147630000Y-94500000D03*
%TD*%
D59*
%TO.C,Q3*%
X159550000Y-87225000D03*
X157650000Y-87225000D03*
X158600000Y-89225000D03*
%TD*%
D34*
%TO.C,LED6*%
X175750000Y-91575000D03*
X175750000Y-89775000D03*
%TD*%
D30*
%TO.C,R10*%
X178462500Y-84075000D03*
X176637500Y-84075000D03*
%TD*%
D60*
%TO.C,R17*%
X143550000Y-59136200D03*
D61*
X142550000Y-62386200D03*
D60*
X141550000Y-59136200D03*
%TD*%
D14*
%TO.C,C16*%
X128125000Y-71875000D03*
X130025000Y-71875000D03*
%TD*%
M02*
