%TF.GenerationSoftware,KiCad,Pcbnew,10.0.1*%
%TF.CreationDate,2026-06-02T10:42:23+02:00*%
%TF.ProjectId,ESP32-sensor-board,45535033-322d-4736-956e-736f722d626f,rev?*%
%TF.SameCoordinates,Original*%
%TF.FileFunction,Copper,L4,Bot*%
%TF.FilePolarity,Positive*%
%FSLAX46Y46*%
G04 Gerber Fmt 4.6, Leading zero omitted, Abs format (unit mm)*
G04 Created by KiCad (PCBNEW 10.0.1) date 2026-06-02 10:42:23*
%MOMM*%
%LPD*%
G01*
G04 APERTURE LIST*
%TA.AperFunction,ComponentPad*%
%ADD10O,1.050000X2.100000*%
%TD*%
%TA.AperFunction,ComponentPad*%
%ADD11C,0.650000*%
%TD*%
%TA.AperFunction,ComponentPad*%
%ADD12R,1.700000X1.700000*%
%TD*%
%TA.AperFunction,ComponentPad*%
%ADD13C,1.700000*%
%TD*%
%TA.AperFunction,ComponentPad*%
%ADD14C,1.208000*%
%TD*%
%TA.AperFunction,ViaPad*%
%ADD15C,0.500000*%
%TD*%
%TA.AperFunction,ViaPad*%
%ADD16C,0.600000*%
%TD*%
%TA.AperFunction,Conductor*%
%ADD17C,0.254000*%
%TD*%
%TA.AperFunction,Conductor*%
%ADD18C,0.300000*%
%TD*%
%TA.AperFunction,Conductor*%
%ADD19C,0.200000*%
%TD*%
G04 APERTURE END LIST*
D10*
%TO.P,J1,S4,GND/SHIELD_S4*%
%TO.N,GND*%
X160148250Y-104187500D03*
%TO.P,J1,S3,GND/SHIELD_S3*%
X151608250Y-104187500D03*
%TO.P,J1,S2,GND/SHIELD_S2*%
X160148250Y-99457500D03*
%TO.P,J1,S1,GND/SHIELD_S1*%
X151608250Y-99457500D03*
D11*
%TO.P,J1,G2,GND/SHIELD_G2*%
X153878250Y-98307500D03*
%TO.P,J1,G1,GND/SHIELD_G1*%
X157878250Y-98307500D03*
%TO.P,J1,B12,GNDB2_B12*%
X153078250Y-98307500D03*
%TO.P,J1,B11,SSRXP1_B11*%
%TO.N,unconnected-(J1-SSRXP1-PadB11)*%
X153478250Y-99017500D03*
%TO.P,J1,B10,SSRXN1_B10*%
%TO.N,unconnected-(J1-SSRXN1-PadB10)*%
X154278250Y-99017500D03*
%TO.P,J1,B9,VBUSB2_B9*%
%TO.N,/VBUS*%
X154678250Y-98307500D03*
%TO.P,J1,B8,SBU2_B8*%
%TO.N,unconnected-(J1-SBU2-PadB8)*%
X155078250Y-99017500D03*
%TO.P,J1,B7,DN2_B7*%
%TO.N,/USB_DN*%
X155478250Y-98307500D03*
%TO.P,J1,B6,DP2_B6*%
%TO.N,/USB_DP*%
X156278250Y-98307500D03*
%TO.P,J1,B5,CC2_B5*%
%TO.N,Net-(J1-CC2)*%
X156678250Y-99017500D03*
%TO.P,J1,B4,VBUSB1_B4*%
%TO.N,/VBUS*%
X157078250Y-98307500D03*
%TO.P,J1,B3,SSTXN2_B3*%
%TO.N,unconnected-(J1-SSTXN2-PadB3)*%
X157478250Y-99017500D03*
%TO.P,J1,B2,SSTXP2_B2*%
%TO.N,unconnected-(J1-SSTXP2-PadB2)*%
X158278250Y-99017500D03*
%TO.P,J1,B1,GNDB1_B1*%
%TO.N,GND*%
X158678250Y-98307500D03*
%TD*%
D12*
%TO.P,J4,1,Pin_1_1*%
%TO.N,+3.3V*%
X114850000Y-62515000D03*
D13*
%TO.P,J4,2,Pin_2_2*%
%TO.N,/ESP_32_C3_02/SDA*%
X114850000Y-65055000D03*
%TO.P,J4,3,Pin_3_3*%
%TO.N,/ESP_32_C3_02/SCL*%
X114850000Y-67595000D03*
%TO.P,J4,4,Pin_4_4*%
%TO.N,GND*%
X114850000Y-70135000D03*
%TD*%
D12*
%TO.P,J5,1,Pin_1_1*%
%TO.N,+3.3V*%
X114850000Y-77285000D03*
D13*
%TO.P,J5,2,Pin_2_2*%
%TO.N,/ESP_32_C3_02/GPIO8*%
X114850000Y-79825000D03*
%TO.P,J5,3,Pin_3_3*%
%TO.N,/ESP_32_C3_02/GPIO18*%
X114850000Y-82365000D03*
%TO.P,J5,4,Pin_4_4*%
%TO.N,/ESP_32_C3_02/GPIO19*%
X114850000Y-84905000D03*
%TO.P,J5,5,Pin_5_5*%
%TO.N,GND*%
X114850000Y-87445000D03*
%TD*%
D14*
%TO.P,MK1,GND*%
%TO.N,GND*%
X124650000Y-60175000D03*
%TO.P,MK1,OUT*%
%TO.N,Net-(C17-Pad1)*%
X124650000Y-62075000D03*
%TD*%
D15*
%TO.N,GND*%
X172100000Y-98600000D03*
X150700000Y-71800000D03*
X161800000Y-105600000D03*
X115600000Y-72150000D03*
X122200000Y-108400000D03*
D16*
X160050000Y-96200000D03*
D15*
X188650000Y-107400000D03*
X171350000Y-59950000D03*
X132900000Y-62500000D03*
X212200000Y-68450000D03*
X206950000Y-79850000D03*
X126650000Y-59050000D03*
X162150000Y-93100000D03*
D16*
X143200000Y-95600000D03*
D15*
X177300000Y-100454000D03*
X198500000Y-78677000D03*
X202100000Y-75200000D03*
X177350000Y-60750000D03*
X218025000Y-103775000D03*
X174800000Y-64800000D03*
X180000000Y-84150000D03*
X148483023Y-86484819D03*
X167500000Y-77450000D03*
X140950000Y-108650000D03*
X183250000Y-100500000D03*
X143400000Y-71750000D03*
X117350000Y-88000000D03*
X214450000Y-81300000D03*
X152050000Y-61350000D03*
X150500000Y-96950000D03*
X168100000Y-102000000D03*
X192800000Y-67200000D03*
X122000000Y-102400000D03*
X146350000Y-106150000D03*
X126600000Y-71800000D03*
X139454281Y-88631326D03*
D16*
%TO.N,Net-(LED2-K)*%
X138609525Y-93750000D03*
X133600000Y-93600000D03*
%TO.N,/+5V_USB*%
X144000000Y-84550000D03*
X139500000Y-87622990D03*
X145750000Y-93500000D03*
X139669323Y-89453677D03*
X145750000Y-95750000D03*
X145750000Y-94500000D03*
%TO.N,Net-(U8-IN-)*%
X135550000Y-67950000D03*
X137425000Y-64475000D03*
D15*
%TO.N,/ESP_32_C3_02/MIC_OUT*%
X139350000Y-69800000D03*
X216075000Y-63325000D03*
%TO.N,+3.3V*%
X130800000Y-70100000D03*
X119050000Y-98950000D03*
X178950000Y-90500000D03*
D16*
X118100000Y-107050000D03*
D15*
X203950000Y-78650000D03*
X180834004Y-74266955D03*
D16*
X170500000Y-65000000D03*
D15*
X143200000Y-66800000D03*
X116250000Y-60400000D03*
X172550000Y-101800000D03*
X127000000Y-108300000D03*
X163400000Y-104550000D03*
X209800000Y-76473000D03*
X131250000Y-62450000D03*
X165100000Y-65350000D03*
X115325002Y-101874999D03*
X162950000Y-81550000D03*
X172800000Y-66600000D03*
X191650000Y-71750000D03*
D16*
X193650000Y-64600000D03*
D15*
X117234999Y-77284999D03*
X180150000Y-62850000D03*
D16*
X173250000Y-60450000D03*
%TO.N,Net-(U4-VBUS)*%
X176150000Y-102850000D03*
X174250000Y-102800000D03*
D15*
%TO.N,/ESP_32_C3_02/RTS*%
X177106644Y-94906644D03*
X169600000Y-96100000D03*
D16*
%TO.N,/ESP_32_C3_02/RX_TX*%
X176450000Y-97950000D03*
X215600000Y-72400000D03*
%TO.N,/ESP_32_C3_02/TX_RX*%
X176150000Y-97150000D03*
X213750000Y-74000000D03*
D15*
%TO.N,/ESP_32_C3_02/SCL*%
X212150000Y-64150000D03*
X191300000Y-63900000D03*
%TO.N,/ESP_32_C3_02/CS*%
X208350000Y-71350000D03*
X191350000Y-69950000D03*
%TO.N,/ESP_32_C3_02/SDA*%
X178550000Y-59350000D03*
D16*
X192150000Y-65800000D03*
D15*
X175450000Y-59600000D03*
X198350000Y-66550000D03*
D16*
%TO.N,Net-(U1-PROG3)*%
X147190861Y-88958422D03*
X147072634Y-85403651D03*
%TO.N,/charged*%
X142363155Y-91768353D03*
X137628751Y-93071845D03*
%TO.N,/charging power good*%
X140850000Y-90950000D03*
X137500000Y-87150000D03*
D15*
%TO.N,/ESP_32_C3_02/PHOTO_C*%
X175650000Y-77900000D03*
X216050000Y-65250000D03*
%TO.N,/ESP_32_C3_02/GPIO8*%
X195900000Y-71900000D03*
%TO.N,/ESP_32_C3_02/GPIO18*%
X213900000Y-69100000D03*
%TO.N,/ESP_32_C3_02/GPIO19*%
X214000000Y-70500000D03*
D16*
%TO.N,/VBUS*%
X154036241Y-95631360D03*
X177771288Y-94171288D03*
X156700000Y-93450000D03*
X152250000Y-95000000D03*
X162550000Y-95800000D03*
%TO.N,Net-(J1-CC1)*%
X150300000Y-102350000D03*
X153400000Y-94300000D03*
%TO.N,/USB_DP*%
X155949738Y-95149738D03*
%TO.N,/USB_DN*%
X157600000Y-95450000D03*
D15*
%TO.N,/ESP_32_C3_02/BOOT*%
X156850000Y-71450000D03*
D16*
X161750000Y-82950000D03*
D15*
X154050000Y-72750000D03*
X198650000Y-73977000D03*
D16*
%TO.N,Net-(U1-PROG1)*%
X148450000Y-90200000D03*
X146214250Y-89045211D03*
%TD*%
%TO.N,Net-(U1-PROG1)*%
D17*
X148250000Y-90400000D02*
X147322753Y-90400000D01*
X146214250Y-89291497D02*
X146214250Y-89045211D01*
X148450000Y-90200000D02*
X148250000Y-90400000D01*
X147322753Y-90400000D02*
X146214250Y-89291497D01*
%TO.N,GND*%
D18*
X160050000Y-96200000D02*
X162150000Y-94100000D01*
X162150000Y-94100000D02*
X162150000Y-93100000D01*
X144550000Y-96950000D02*
X150500000Y-96950000D01*
X143200000Y-95600000D02*
X144550000Y-96950000D01*
%TO.N,Net-(LED2-K)*%
D19*
X138559525Y-93700000D02*
X133700000Y-93700000D01*
X133700000Y-93700000D02*
X133600000Y-93600000D01*
X138609525Y-93750000D02*
X138559525Y-93700000D01*
%TO.N,Net-(U8-IN-)*%
D17*
X136875000Y-64475000D02*
X135250000Y-66100000D01*
X135250000Y-66100000D02*
X135250000Y-67650000D01*
X135250000Y-67650000D02*
X135550000Y-67950000D01*
X137425000Y-64475000D02*
X136875000Y-64475000D01*
%TO.N,/ESP_32_C3_02/MIC_OUT*%
X140950000Y-68200000D02*
X205150000Y-68200000D01*
X205150000Y-68200000D02*
X207700000Y-65650000D01*
X213750000Y-65650000D02*
X216075000Y-63325000D01*
X207700000Y-65650000D02*
X213750000Y-65650000D01*
X139350000Y-69800000D02*
X140950000Y-68200000D01*
%TO.N,Net-(U4-VBUS)*%
X176150000Y-102850000D02*
X174300000Y-102850000D01*
X174300000Y-102850000D02*
X174250000Y-102800000D01*
%TO.N,/ESP_32_C3_02/RTS*%
X177223762Y-95034186D02*
X177156644Y-94967068D01*
X177156644Y-94965482D02*
X177106644Y-94915482D01*
X169600000Y-96100000D02*
X170450000Y-95250000D01*
X177156644Y-94967068D02*
X177156644Y-94965482D01*
X170450000Y-95250000D02*
X177007948Y-95250000D01*
X177007948Y-95250000D02*
X177223762Y-95034186D01*
X177106644Y-94915482D02*
X177106644Y-94906644D01*
%TO.N,/ESP_32_C3_02/RX_TX*%
X176450000Y-97950000D02*
X190850000Y-97950000D01*
X190850000Y-97950000D02*
X215600000Y-73200000D01*
X215600000Y-73200000D02*
X215600000Y-72400000D01*
%TO.N,/ESP_32_C3_02/TX_RX*%
X190750000Y-97150000D02*
X213750000Y-74150000D01*
X176150000Y-97150000D02*
X190750000Y-97150000D01*
X213750000Y-74150000D02*
X213750000Y-74000000D01*
%TO.N,/ESP_32_C3_02/SCL*%
D18*
X211150000Y-63150000D02*
X212150000Y-64150000D01*
X191300000Y-63900000D02*
X192050000Y-63150000D01*
X192050000Y-63150000D02*
X211150000Y-63150000D01*
%TO.N,/ESP_32_C3_02/CS*%
X191350000Y-69950000D02*
X207800000Y-69950000D01*
X208350000Y-70500000D02*
X208350000Y-71350000D01*
X207800000Y-69950000D02*
X208350000Y-70500000D01*
%TO.N,/ESP_32_C3_02/SDA*%
X192150000Y-65800000D02*
X192550000Y-66200000D01*
X178550000Y-59350000D02*
X178300000Y-59600000D01*
X198000000Y-66200000D02*
X198350000Y-66550000D01*
X192550000Y-66200000D02*
X198000000Y-66200000D01*
X178300000Y-59600000D02*
X175450000Y-59600000D01*
%TO.N,Net-(U1-PROG3)*%
D17*
X147026285Y-88793846D02*
X147190861Y-88958422D01*
X147026285Y-85450000D02*
X147026285Y-88793846D01*
X147072634Y-85403651D02*
X147026285Y-85450000D01*
%TO.N,/charged*%
D19*
X141250000Y-92150000D02*
X140400000Y-93000000D01*
X140400000Y-93000000D02*
X137700596Y-93000000D01*
X142363155Y-91768353D02*
X141981508Y-92150000D01*
X137700596Y-93000000D02*
X137628751Y-93071845D01*
X141981508Y-92150000D02*
X141250000Y-92150000D01*
%TO.N,/charging power good*%
D17*
X138400000Y-90950000D02*
X137500000Y-90050000D01*
X137500000Y-90050000D02*
X137500000Y-87150000D01*
X140850000Y-90950000D02*
X138400000Y-90950000D01*
%TO.N,/ESP_32_C3_02/PHOTO_C*%
X212075000Y-74200000D02*
X200350000Y-74200000D01*
X196650000Y-77900000D02*
X175650000Y-77900000D01*
X216050000Y-70225000D02*
X212075000Y-74200000D01*
X200350000Y-74200000D02*
X196650000Y-77900000D01*
X216050000Y-65250000D02*
X216050000Y-70225000D01*
%TO.N,/ESP_32_C3_02/GPIO8*%
X115525000Y-79150000D02*
X117050000Y-79150000D01*
X155000000Y-73550000D02*
X155850000Y-72700000D01*
X117050000Y-79150000D02*
X122650000Y-73550000D01*
X155850000Y-72700000D02*
X195100000Y-72700000D01*
X195100000Y-72700000D02*
X195900000Y-71900000D01*
X114850000Y-79825000D02*
X115525000Y-79150000D01*
X122650000Y-73550000D02*
X155000000Y-73550000D01*
%TO.N,/ESP_32_C3_02/GPIO18*%
X196450000Y-72600000D02*
X196500000Y-72600000D01*
X196350000Y-72600000D02*
X196500000Y-72600000D01*
X115865000Y-81350000D02*
X116450000Y-81350000D01*
X123600000Y-74200000D02*
X155300000Y-74200000D01*
X212300000Y-69100000D02*
X208850000Y-72550000D01*
X196500000Y-72600000D02*
X196550000Y-72550000D01*
X156150000Y-73350000D02*
X195600000Y-73350000D01*
X213900000Y-69100000D02*
X212300000Y-69100000D01*
X155300000Y-74200000D02*
X156150000Y-73350000D01*
X196550000Y-72550000D02*
X208850000Y-72550000D01*
X116450000Y-81350000D02*
X123600000Y-74200000D01*
X114850000Y-82365000D02*
X115865000Y-81350000D01*
X195600000Y-73350000D02*
X196350000Y-72600000D01*
%TO.N,/ESP_32_C3_02/GPIO19*%
X214000000Y-70500000D02*
X211150000Y-73350000D01*
X124650000Y-74950000D02*
X114850000Y-84750000D01*
X183050000Y-74150000D02*
X182250000Y-74950000D01*
X211150000Y-73350000D02*
X197200000Y-73350000D01*
X114850000Y-84750000D02*
X114850000Y-84905000D01*
X197200000Y-73350000D02*
X196400000Y-74150000D01*
X196400000Y-74150000D02*
X183050000Y-74150000D01*
X182250000Y-74950000D02*
X124650000Y-74950000D01*
%TO.N,/VBUS*%
X177921288Y-94321288D02*
X177771288Y-94171288D01*
X156700000Y-93450000D02*
X155600000Y-93450000D01*
X176479644Y-94650000D02*
X176479644Y-94646932D01*
X155600000Y-93450000D02*
X154036241Y-95013759D01*
X162550000Y-95800000D02*
X163700000Y-94650000D01*
X176479644Y-94646932D02*
X176846932Y-94279644D01*
X154036241Y-95013759D02*
X154036241Y-95631360D01*
X163700000Y-94650000D02*
X176479644Y-94650000D01*
X177366356Y-94279644D02*
X177672330Y-94585618D01*
X176846932Y-94279644D02*
X177366356Y-94279644D01*
X177921288Y-94336660D02*
X177921288Y-94321288D01*
X177672330Y-94585618D02*
X177921288Y-94336660D01*
%TO.N,Net-(J1-CC1)*%
X153050000Y-94650000D02*
X153400000Y-94300000D01*
X150300000Y-102350000D02*
X150300000Y-98600000D01*
X150300000Y-98600000D02*
X153050000Y-95850000D01*
X153050000Y-95850000D02*
X153050000Y-94650000D01*
%TO.N,/USB_DP*%
X155900000Y-95959772D02*
X155900000Y-95199476D01*
X155900000Y-95199476D02*
X155949738Y-95149738D01*
X156278250Y-98307500D02*
X156278250Y-96338022D01*
X156278250Y-96338022D02*
X155900000Y-95959772D01*
%TO.N,/USB_DN*%
X154917654Y-95934849D02*
X154917654Y-95032346D01*
X156750000Y-94992577D02*
X157142577Y-94992577D01*
X155527000Y-94423000D02*
X156180423Y-94423000D01*
X155478250Y-98307500D02*
X155478250Y-96495445D01*
X157142577Y-94992577D02*
X157600000Y-95450000D01*
X155478250Y-96495445D02*
X154917654Y-95934849D01*
X154917654Y-95032346D02*
X155527000Y-94423000D01*
X156180423Y-94423000D02*
X156750000Y-94992577D01*
%TO.N,/ESP_32_C3_02/BOOT*%
X198650000Y-73977000D02*
X196427000Y-76200000D01*
X196427000Y-76200000D02*
X175050000Y-76200000D01*
X161750000Y-82950000D02*
X161600000Y-82950000D01*
X168300000Y-82950000D02*
X161750000Y-82950000D01*
X175050000Y-76200000D02*
X168300000Y-82950000D01*
X155350000Y-71450000D02*
X156850000Y-71450000D01*
X154050000Y-72750000D02*
X155350000Y-71450000D01*
%TD*%
M02*
