%TF.GenerationSoftware,KiCad,Pcbnew,10.0.1*%
%TF.CreationDate,2026-06-02T10:42:24+02:00*%
%TF.ProjectId,ESP32-sensor-board,45535033-322d-4736-956e-736f722d626f,rev?*%
%TF.SameCoordinates,Original*%
%TF.FileFunction,Legend,Bot*%
%TF.FilePolarity,Positive*%
%FSLAX46Y46*%
G04 Gerber Fmt 4.6, Leading zero omitted, Abs format (unit mm)*
G04 Created by KiCad (PCBNEW 10.0.1) date 2026-06-02 10:42:24*
%MOMM*%
%LPD*%
G01*
G04 APERTURE LIST*
%ADD10C,0.010000*%
G04 APERTURE END LIST*
D10*
%TO.C,REF\u002A\u002A*%
X132468785Y-85178933D02*
X132520458Y-85210469D01*
X132573998Y-85253823D01*
X132573998Y-86554516D01*
X132520458Y-86597870D01*
X132457457Y-86632975D01*
X132385537Y-86634654D01*
X132322379Y-86593485D01*
X132314592Y-86584113D01*
X132303611Y-86565093D01*
X132295159Y-86537608D01*
X132288908Y-86496386D01*
X132284529Y-86436159D01*
X132281695Y-86351655D01*
X132280077Y-86237604D01*
X132279347Y-86088738D01*
X132279176Y-85899785D01*
X132279176Y-85253823D01*
X132332715Y-85210469D01*
X132380353Y-85180797D01*
X132426587Y-85167116D01*
X132468785Y-85178933D01*
G36*
X132468785Y-85178933D02*
G01*
X132520458Y-85210469D01*
X132573998Y-85253823D01*
X132573998Y-86554516D01*
X132520458Y-86597870D01*
X132457457Y-86632975D01*
X132385537Y-86634654D01*
X132322379Y-86593485D01*
X132314592Y-86584113D01*
X132303611Y-86565093D01*
X132295159Y-86537608D01*
X132288908Y-86496386D01*
X132284529Y-86436159D01*
X132281695Y-86351655D01*
X132280077Y-86237604D01*
X132279347Y-86088738D01*
X132279176Y-85899785D01*
X132279176Y-85253823D01*
X132332715Y-85210469D01*
X132380353Y-85180797D01*
X132426587Y-85167116D01*
X132468785Y-85178933D01*
G37*
X146793914Y-85175948D02*
X146862528Y-85222781D01*
X146918194Y-85278447D01*
X146918194Y-85907346D01*
X146918112Y-86076157D01*
X146917592Y-86225263D01*
X146916245Y-86339274D01*
X146913678Y-86423591D01*
X146909502Y-86483612D01*
X146903325Y-86524738D01*
X146894757Y-86552367D01*
X146883407Y-86571900D01*
X146868884Y-86588734D01*
X146805676Y-86631854D01*
X146735031Y-86635403D01*
X146668730Y-86595866D01*
X146658069Y-86584076D01*
X146647121Y-86565827D01*
X146638752Y-86539025D01*
X146632616Y-86498413D01*
X146628369Y-86438732D01*
X146625666Y-86354724D01*
X146624162Y-86241133D01*
X146623513Y-86092701D01*
X146623373Y-85904169D01*
X146623452Y-85752171D01*
X146623964Y-85595657D01*
X146625258Y-85475101D01*
X146627677Y-85385247D01*
X146631567Y-85320836D01*
X146637273Y-85276611D01*
X146645139Y-85247314D01*
X146655509Y-85227687D01*
X146668730Y-85212473D01*
X146727357Y-85174261D01*
X146793914Y-85175948D01*
G36*
X146793914Y-85175948D02*
G01*
X146862528Y-85222781D01*
X146918194Y-85278447D01*
X146918194Y-85907346D01*
X146918112Y-86076157D01*
X146917592Y-86225263D01*
X146916245Y-86339274D01*
X146913678Y-86423591D01*
X146909502Y-86483612D01*
X146903325Y-86524738D01*
X146894757Y-86552367D01*
X146883407Y-86571900D01*
X146868884Y-86588734D01*
X146805676Y-86631854D01*
X146735031Y-86635403D01*
X146668730Y-86595866D01*
X146658069Y-86584076D01*
X146647121Y-86565827D01*
X146638752Y-86539025D01*
X146632616Y-86498413D01*
X146628369Y-86438732D01*
X146625666Y-86354724D01*
X146624162Y-86241133D01*
X146623513Y-86092701D01*
X146623373Y-85904169D01*
X146623452Y-85752171D01*
X146623964Y-85595657D01*
X146625258Y-85475101D01*
X146627677Y-85385247D01*
X146631567Y-85320836D01*
X146637273Y-85276611D01*
X146645139Y-85247314D01*
X146655509Y-85227687D01*
X146668730Y-85212473D01*
X146727357Y-85174261D01*
X146793914Y-85175948D01*
G37*
X146850400Y-72335134D02*
X147060313Y-72386566D01*
X147259287Y-72478876D01*
X147441052Y-72612080D01*
X147599338Y-72786190D01*
X147727873Y-73001223D01*
X147762333Y-73076974D01*
X147790250Y-73153753D01*
X147805914Y-73230509D01*
X147812780Y-73325448D01*
X147814302Y-73456774D01*
X147813382Y-73566080D01*
X147807839Y-73666535D01*
X147794249Y-73744910D01*
X147769217Y-73819205D01*
X147729352Y-73907419D01*
X147717820Y-73930927D01*
X147581515Y-74146183D01*
X147410081Y-74323290D01*
X147208385Y-74458091D01*
X146981291Y-74546430D01*
X146864767Y-74571082D01*
X146628375Y-74582617D01*
X146399414Y-74545292D01*
X146184598Y-74462933D01*
X145990642Y-74339367D01*
X145824258Y-74178422D01*
X145692162Y-73983924D01*
X145601067Y-73759699D01*
X145567738Y-73576205D01*
X145564735Y-73373711D01*
X145591842Y-73176743D01*
X145647768Y-73006129D01*
X145712387Y-72884151D01*
X145856243Y-72690625D01*
X146026785Y-72537889D01*
X146217742Y-72425957D01*
X146422844Y-72354844D01*
X146635821Y-72324565D01*
X146850400Y-72335134D01*
G36*
X146850400Y-72335134D02*
G01*
X147060313Y-72386566D01*
X147259287Y-72478876D01*
X147441052Y-72612080D01*
X147599338Y-72786190D01*
X147727873Y-73001223D01*
X147762333Y-73076974D01*
X147790250Y-73153753D01*
X147805914Y-73230509D01*
X147812780Y-73325448D01*
X147814302Y-73456774D01*
X147813382Y-73566080D01*
X147807839Y-73666535D01*
X147794249Y-73744910D01*
X147769217Y-73819205D01*
X147729352Y-73907419D01*
X147717820Y-73930927D01*
X147581515Y-74146183D01*
X147410081Y-74323290D01*
X147208385Y-74458091D01*
X146981291Y-74546430D01*
X146864767Y-74571082D01*
X146628375Y-74582617D01*
X146399414Y-74545292D01*
X146184598Y-74462933D01*
X145990642Y-74339367D01*
X145824258Y-74178422D01*
X145692162Y-73983924D01*
X145601067Y-73759699D01*
X145567738Y-73576205D01*
X145564735Y-73373711D01*
X145591842Y-73176743D01*
X145647768Y-73006129D01*
X145712387Y-72884151D01*
X145856243Y-72690625D01*
X146026785Y-72537889D01*
X146217742Y-72425957D01*
X146422844Y-72354844D01*
X146635821Y-72324565D01*
X146850400Y-72335134D01*
G37*
X131063262Y-85167119D02*
X131252348Y-85167299D01*
X131402042Y-85167982D01*
X131517368Y-85169472D01*
X131603350Y-85172074D01*
X131665010Y-85176095D01*
X131707372Y-85181840D01*
X131735460Y-85189615D01*
X131754298Y-85199724D01*
X131768908Y-85212473D01*
X131806688Y-85278200D01*
X131809594Y-85353690D01*
X131776733Y-85420464D01*
X131774000Y-85423384D01*
X131751494Y-85440179D01*
X131717137Y-85451339D01*
X131662555Y-85457956D01*
X131579378Y-85461124D01*
X131459233Y-85461937D01*
X131179265Y-85461937D01*
X131179265Y-85991825D01*
X131179114Y-86144158D01*
X131178294Y-86278086D01*
X131176321Y-86378098D01*
X131172713Y-86450253D01*
X131166986Y-86500609D01*
X131158657Y-86535225D01*
X131147243Y-86560158D01*
X131132262Y-86581468D01*
X131127660Y-86587105D01*
X131065026Y-86632592D01*
X130995961Y-86635734D01*
X130929801Y-86595866D01*
X130915782Y-86579642D01*
X130904789Y-86558351D01*
X130896713Y-86526523D01*
X130891106Y-86478356D01*
X130887522Y-86408045D01*
X130885514Y-86309789D01*
X130884637Y-86177782D01*
X130884444Y-86006223D01*
X130884444Y-85461937D01*
X130591269Y-85461937D01*
X130568970Y-85461935D01*
X130455430Y-85461483D01*
X130377394Y-85459195D01*
X130326383Y-85453570D01*
X130293915Y-85443110D01*
X130271512Y-85426312D01*
X130250693Y-85401677D01*
X130218857Y-85340028D01*
X130225089Y-85272165D01*
X130276606Y-85206803D01*
X130286532Y-85199335D01*
X130307043Y-85189620D01*
X130338032Y-85182060D01*
X130384481Y-85176390D01*
X130451374Y-85172345D01*
X130543692Y-85169660D01*
X130666419Y-85168070D01*
X130824537Y-85167310D01*
X131023028Y-85167116D01*
X131063262Y-85167119D01*
G36*
X131063262Y-85167119D02*
G01*
X131252348Y-85167299D01*
X131402042Y-85167982D01*
X131517368Y-85169472D01*
X131603350Y-85172074D01*
X131665010Y-85176095D01*
X131707372Y-85181840D01*
X131735460Y-85189615D01*
X131754298Y-85199724D01*
X131768908Y-85212473D01*
X131806688Y-85278200D01*
X131809594Y-85353690D01*
X131776733Y-85420464D01*
X131774000Y-85423384D01*
X131751494Y-85440179D01*
X131717137Y-85451339D01*
X131662555Y-85457956D01*
X131579378Y-85461124D01*
X131459233Y-85461937D01*
X131179265Y-85461937D01*
X131179265Y-85991825D01*
X131179114Y-86144158D01*
X131178294Y-86278086D01*
X131176321Y-86378098D01*
X131172713Y-86450253D01*
X131166986Y-86500609D01*
X131158657Y-86535225D01*
X131147243Y-86560158D01*
X131132262Y-86581468D01*
X131127660Y-86587105D01*
X131065026Y-86632592D01*
X130995961Y-86635734D01*
X130929801Y-86595866D01*
X130915782Y-86579642D01*
X130904789Y-86558351D01*
X130896713Y-86526523D01*
X130891106Y-86478356D01*
X130887522Y-86408045D01*
X130885514Y-86309789D01*
X130884637Y-86177782D01*
X130884444Y-86006223D01*
X130884444Y-85461937D01*
X130591269Y-85461937D01*
X130568970Y-85461935D01*
X130455430Y-85461483D01*
X130377394Y-85459195D01*
X130326383Y-85453570D01*
X130293915Y-85443110D01*
X130271512Y-85426312D01*
X130250693Y-85401677D01*
X130218857Y-85340028D01*
X130225089Y-85272165D01*
X130276606Y-85206803D01*
X130286532Y-85199335D01*
X130307043Y-85189620D01*
X130338032Y-85182060D01*
X130384481Y-85176390D01*
X130451374Y-85172345D01*
X130543692Y-85169660D01*
X130666419Y-85168070D01*
X130824537Y-85167310D01*
X131023028Y-85167116D01*
X131063262Y-85167119D01*
G37*
X129705158Y-85212473D02*
X129716473Y-85224909D01*
X129726700Y-85241393D01*
X129734909Y-85265052D01*
X129741293Y-85300126D01*
X129746047Y-85350859D01*
X129749363Y-85421493D01*
X129751435Y-85516271D01*
X129752456Y-85639435D01*
X129752619Y-85795228D01*
X129752118Y-85987892D01*
X129751146Y-86221669D01*
X129751009Y-86250146D01*
X129749831Y-86374222D01*
X129747175Y-86461978D01*
X129742061Y-86521001D01*
X129733512Y-86558877D01*
X129720552Y-86583193D01*
X129702201Y-86601535D01*
X129634988Y-86636525D01*
X129564779Y-86630696D01*
X129502697Y-86581468D01*
X129484598Y-86554944D01*
X129469629Y-86517708D01*
X129460854Y-86465418D01*
X129456726Y-86387982D01*
X129455694Y-86275307D01*
X129455694Y-86028902D01*
X128457837Y-86028902D01*
X128457837Y-86299758D01*
X128457690Y-86371660D01*
X128456158Y-86464733D01*
X128451786Y-86526075D01*
X128443154Y-86564305D01*
X128428843Y-86588046D01*
X128407434Y-86605919D01*
X128342643Y-86636193D01*
X128271755Y-86630835D01*
X128210019Y-86581468D01*
X128200666Y-86568903D01*
X128188742Y-86547760D01*
X128179639Y-86519777D01*
X128172978Y-86479449D01*
X128168380Y-86421276D01*
X128165463Y-86339755D01*
X128163850Y-86229383D01*
X128163161Y-86084659D01*
X128163015Y-85900080D01*
X128163015Y-85278447D01*
X128218681Y-85222781D01*
X128281718Y-85178097D01*
X128348473Y-85172694D01*
X128412480Y-85212473D01*
X128429125Y-85232101D01*
X128444015Y-85264027D01*
X128452729Y-85312176D01*
X128456819Y-85386251D01*
X128457837Y-85495955D01*
X128457837Y-85734080D01*
X129455694Y-85734080D01*
X129455694Y-85506264D01*
X129455695Y-85502022D01*
X129456574Y-85398166D01*
X129460519Y-85328808D01*
X129469591Y-85283455D01*
X129485851Y-85251610D01*
X129511360Y-85222781D01*
X129574397Y-85178097D01*
X129641151Y-85172694D01*
X129705158Y-85212473D01*
G36*
X129705158Y-85212473D02*
G01*
X129716473Y-85224909D01*
X129726700Y-85241393D01*
X129734909Y-85265052D01*
X129741293Y-85300126D01*
X129746047Y-85350859D01*
X129749363Y-85421493D01*
X129751435Y-85516271D01*
X129752456Y-85639435D01*
X129752619Y-85795228D01*
X129752118Y-85987892D01*
X129751146Y-86221669D01*
X129751009Y-86250146D01*
X129749831Y-86374222D01*
X129747175Y-86461978D01*
X129742061Y-86521001D01*
X129733512Y-86558877D01*
X129720552Y-86583193D01*
X129702201Y-86601535D01*
X129634988Y-86636525D01*
X129564779Y-86630696D01*
X129502697Y-86581468D01*
X129484598Y-86554944D01*
X129469629Y-86517708D01*
X129460854Y-86465418D01*
X129456726Y-86387982D01*
X129455694Y-86275307D01*
X129455694Y-86028902D01*
X128457837Y-86028902D01*
X128457837Y-86299758D01*
X128457690Y-86371660D01*
X128456158Y-86464733D01*
X128451786Y-86526075D01*
X128443154Y-86564305D01*
X128428843Y-86588046D01*
X128407434Y-86605919D01*
X128342643Y-86636193D01*
X128271755Y-86630835D01*
X128210019Y-86581468D01*
X128200666Y-86568903D01*
X128188742Y-86547760D01*
X128179639Y-86519777D01*
X128172978Y-86479449D01*
X128168380Y-86421276D01*
X128165463Y-86339755D01*
X128163850Y-86229383D01*
X128163161Y-86084659D01*
X128163015Y-85900080D01*
X128163015Y-85278447D01*
X128218681Y-85222781D01*
X128281718Y-85178097D01*
X128348473Y-85172694D01*
X128412480Y-85212473D01*
X128429125Y-85232101D01*
X128444015Y-85264027D01*
X128452729Y-85312176D01*
X128456819Y-85386251D01*
X128457837Y-85495955D01*
X128457837Y-85734080D01*
X129455694Y-85734080D01*
X129455694Y-85506264D01*
X129455695Y-85502022D01*
X129456574Y-85398166D01*
X129460519Y-85328808D01*
X129469591Y-85283455D01*
X129485851Y-85251610D01*
X129511360Y-85222781D01*
X129574397Y-85178097D01*
X129641151Y-85172694D01*
X129705158Y-85212473D01*
G37*
X139157969Y-86395233D02*
X139154013Y-86461082D01*
X139148129Y-86507129D01*
X139139939Y-86538873D01*
X139129062Y-86561819D01*
X139115119Y-86581468D01*
X139068116Y-86641223D01*
X138735253Y-86640030D01*
X138665351Y-86639431D01*
X138467505Y-86632539D01*
X138304859Y-86617106D01*
X138170071Y-86591879D01*
X138055796Y-86555608D01*
X137954693Y-86507042D01*
X137947946Y-86503191D01*
X137831806Y-86429427D01*
X137746720Y-86355165D01*
X137680794Y-86267806D01*
X137622134Y-86154749D01*
X137613532Y-86135433D01*
X137568175Y-86008497D01*
X137556655Y-85916980D01*
X137856478Y-85916980D01*
X137867753Y-85966658D01*
X137879257Y-85998555D01*
X137945410Y-86118907D01*
X138040510Y-86210822D01*
X138168610Y-86277388D01*
X138333762Y-86321694D01*
X138339375Y-86322703D01*
X138432359Y-86334681D01*
X138545655Y-86343174D01*
X138656020Y-86346402D01*
X138844623Y-86346402D01*
X138844623Y-85461937D01*
X138668864Y-85462837D01*
X138534427Y-85467812D01*
X138348806Y-85490415D01*
X138189468Y-85529668D01*
X138064965Y-85583857D01*
X138002809Y-85625499D01*
X137946318Y-85685297D01*
X137899431Y-85770532D01*
X137885113Y-85802607D01*
X137861360Y-85867900D01*
X137856478Y-85916980D01*
X137556655Y-85916980D01*
X137554171Y-85897246D01*
X137571451Y-85786702D01*
X137619950Y-85661883D01*
X137621549Y-85658482D01*
X137702813Y-85519019D01*
X137804634Y-85405316D01*
X137930645Y-85315783D01*
X138084481Y-85248828D01*
X138269774Y-85202863D01*
X138490159Y-85176295D01*
X138749270Y-85167534D01*
X138756445Y-85167524D01*
X138877022Y-85167805D01*
X138961257Y-85169887D01*
X139017736Y-85175098D01*
X139055039Y-85184766D01*
X139081752Y-85200218D01*
X139106457Y-85222781D01*
X139162123Y-85278447D01*
X139162123Y-85900080D01*
X139162072Y-86023841D01*
X139161619Y-86182115D01*
X139160378Y-86304078D01*
X139159259Y-86346402D01*
X139157969Y-86395233D01*
G36*
X139157969Y-86395233D02*
G01*
X139154013Y-86461082D01*
X139148129Y-86507129D01*
X139139939Y-86538873D01*
X139129062Y-86561819D01*
X139115119Y-86581468D01*
X139068116Y-86641223D01*
X138735253Y-86640030D01*
X138665351Y-86639431D01*
X138467505Y-86632539D01*
X138304859Y-86617106D01*
X138170071Y-86591879D01*
X138055796Y-86555608D01*
X137954693Y-86507042D01*
X137947946Y-86503191D01*
X137831806Y-86429427D01*
X137746720Y-86355165D01*
X137680794Y-86267806D01*
X137622134Y-86154749D01*
X137613532Y-86135433D01*
X137568175Y-86008497D01*
X137556655Y-85916980D01*
X137856478Y-85916980D01*
X137867753Y-85966658D01*
X137879257Y-85998555D01*
X137945410Y-86118907D01*
X138040510Y-86210822D01*
X138168610Y-86277388D01*
X138333762Y-86321694D01*
X138339375Y-86322703D01*
X138432359Y-86334681D01*
X138545655Y-86343174D01*
X138656020Y-86346402D01*
X138844623Y-86346402D01*
X138844623Y-85461937D01*
X138668864Y-85462837D01*
X138534427Y-85467812D01*
X138348806Y-85490415D01*
X138189468Y-85529668D01*
X138064965Y-85583857D01*
X138002809Y-85625499D01*
X137946318Y-85685297D01*
X137899431Y-85770532D01*
X137885113Y-85802607D01*
X137861360Y-85867900D01*
X137856478Y-85916980D01*
X137556655Y-85916980D01*
X137554171Y-85897246D01*
X137571451Y-85786702D01*
X137619950Y-85661883D01*
X137621549Y-85658482D01*
X137702813Y-85519019D01*
X137804634Y-85405316D01*
X137930645Y-85315783D01*
X138084481Y-85248828D01*
X138269774Y-85202863D01*
X138490159Y-85176295D01*
X138749270Y-85167534D01*
X138756445Y-85167524D01*
X138877022Y-85167805D01*
X138961257Y-85169887D01*
X139017736Y-85175098D01*
X139055039Y-85184766D01*
X139081752Y-85200218D01*
X139106457Y-85222781D01*
X139162123Y-85278447D01*
X139162123Y-85900080D01*
X139162072Y-86023841D01*
X139161619Y-86182115D01*
X139160378Y-86304078D01*
X139159259Y-86346402D01*
X139157969Y-86395233D01*
G37*
X153404657Y-85539491D02*
X153404765Y-85701440D01*
X153404265Y-85904169D01*
X153404186Y-86056167D01*
X153403674Y-86212682D01*
X153402380Y-86333237D01*
X153399961Y-86423092D01*
X153396071Y-86487503D01*
X153390365Y-86531728D01*
X153382500Y-86561025D01*
X153372129Y-86580652D01*
X153358908Y-86595866D01*
X153344912Y-86608389D01*
X153318800Y-86623055D01*
X153280333Y-86632604D01*
X153221262Y-86638104D01*
X153133340Y-86640621D01*
X153008317Y-86641223D01*
X152909987Y-86640469D01*
X152695314Y-86631572D01*
X152516062Y-86611307D01*
X152365798Y-86577983D01*
X152238088Y-86529909D01*
X152126499Y-86465394D01*
X152024597Y-86382750D01*
X152012567Y-86370992D01*
X151938504Y-86273542D01*
X151876027Y-86151382D01*
X151832870Y-86022322D01*
X151822261Y-85944489D01*
X152118010Y-85944489D01*
X152154737Y-86046814D01*
X152214343Y-86139058D01*
X152308154Y-86224256D01*
X152431480Y-86284127D01*
X152590480Y-86322569D01*
X152593473Y-86323048D01*
X152691852Y-86334683D01*
X152809764Y-86343001D01*
X152922346Y-86346230D01*
X153109444Y-86346402D01*
X153109444Y-85461937D01*
X152956364Y-85461908D01*
X152950281Y-85461927D01*
X152847585Y-85465873D01*
X152726843Y-85475366D01*
X152612919Y-85488481D01*
X152512557Y-85507156D01*
X152362386Y-85559927D01*
X152246854Y-85638876D01*
X152163482Y-85745419D01*
X152120858Y-85848409D01*
X152118010Y-85944489D01*
X151822261Y-85944489D01*
X151816765Y-85904169D01*
X151819335Y-85861547D01*
X151844069Y-85746203D01*
X151889328Y-85625846D01*
X151948049Y-85517265D01*
X152013171Y-85437248D01*
X152052429Y-85403050D01*
X152162341Y-85324325D01*
X152283486Y-85263797D01*
X152422496Y-85219680D01*
X152586006Y-85190185D01*
X152780649Y-85173528D01*
X153013060Y-85167920D01*
X153092377Y-85167114D01*
X153184207Y-85166284D01*
X153256128Y-85169909D01*
X153310551Y-85182529D01*
X153349890Y-85208686D01*
X153376558Y-85252920D01*
X153392966Y-85319771D01*
X153401529Y-85413782D01*
X153402728Y-85461937D01*
X153404657Y-85539491D01*
G36*
X153404657Y-85539491D02*
G01*
X153404765Y-85701440D01*
X153404265Y-85904169D01*
X153404186Y-86056167D01*
X153403674Y-86212682D01*
X153402380Y-86333237D01*
X153399961Y-86423092D01*
X153396071Y-86487503D01*
X153390365Y-86531728D01*
X153382500Y-86561025D01*
X153372129Y-86580652D01*
X153358908Y-86595866D01*
X153344912Y-86608389D01*
X153318800Y-86623055D01*
X153280333Y-86632604D01*
X153221262Y-86638104D01*
X153133340Y-86640621D01*
X153008317Y-86641223D01*
X152909987Y-86640469D01*
X152695314Y-86631572D01*
X152516062Y-86611307D01*
X152365798Y-86577983D01*
X152238088Y-86529909D01*
X152126499Y-86465394D01*
X152024597Y-86382750D01*
X152012567Y-86370992D01*
X151938504Y-86273542D01*
X151876027Y-86151382D01*
X151832870Y-86022322D01*
X151822261Y-85944489D01*
X152118010Y-85944489D01*
X152154737Y-86046814D01*
X152214343Y-86139058D01*
X152308154Y-86224256D01*
X152431480Y-86284127D01*
X152590480Y-86322569D01*
X152593473Y-86323048D01*
X152691852Y-86334683D01*
X152809764Y-86343001D01*
X152922346Y-86346230D01*
X153109444Y-86346402D01*
X153109444Y-85461937D01*
X152956364Y-85461908D01*
X152950281Y-85461927D01*
X152847585Y-85465873D01*
X152726843Y-85475366D01*
X152612919Y-85488481D01*
X152512557Y-85507156D01*
X152362386Y-85559927D01*
X152246854Y-85638876D01*
X152163482Y-85745419D01*
X152120858Y-85848409D01*
X152118010Y-85944489D01*
X151822261Y-85944489D01*
X151816765Y-85904169D01*
X151819335Y-85861547D01*
X151844069Y-85746203D01*
X151889328Y-85625846D01*
X151948049Y-85517265D01*
X152013171Y-85437248D01*
X152052429Y-85403050D01*
X152162341Y-85324325D01*
X152283486Y-85263797D01*
X152422496Y-85219680D01*
X152586006Y-85190185D01*
X152780649Y-85173528D01*
X153013060Y-85167920D01*
X153092377Y-85167114D01*
X153184207Y-85166284D01*
X153256128Y-85169909D01*
X153310551Y-85182529D01*
X153349890Y-85208686D01*
X153376558Y-85252920D01*
X153392966Y-85319771D01*
X153401529Y-85413782D01*
X153402728Y-85461937D01*
X153404657Y-85539491D01*
G37*
X143470658Y-85164755D02*
X143493575Y-85177085D01*
X143514766Y-85198503D01*
X143537441Y-85226871D01*
X143546386Y-85238846D01*
X143558437Y-85259930D01*
X143567637Y-85287704D01*
X143574369Y-85327691D01*
X143579019Y-85385416D01*
X143581967Y-85466403D01*
X143583599Y-85576175D01*
X143584297Y-85720256D01*
X143584444Y-85904169D01*
X143584398Y-86021752D01*
X143583959Y-86180634D01*
X143582736Y-86303062D01*
X143580344Y-86394563D01*
X143576400Y-86460658D01*
X143570521Y-86506872D01*
X143562324Y-86538729D01*
X143551425Y-86561753D01*
X143537441Y-86581468D01*
X143476312Y-86630472D01*
X143406114Y-86636257D01*
X143331823Y-86597906D01*
X143323417Y-86590924D01*
X143306992Y-86573793D01*
X143294817Y-86550588D01*
X143286013Y-86514764D01*
X143279701Y-86459775D01*
X143275005Y-86379077D01*
X143271045Y-86266124D01*
X143266944Y-86114370D01*
X143255605Y-85674152D01*
X142722658Y-86157582D01*
X142574331Y-86291731D01*
X142443390Y-86408482D01*
X142338535Y-86498799D01*
X142256020Y-86564937D01*
X142192098Y-86609149D01*
X142143023Y-86633688D01*
X142105050Y-86640811D01*
X142074433Y-86632769D01*
X142047424Y-86611818D01*
X142020280Y-86580211D01*
X142007733Y-86563168D01*
X141996420Y-86541919D01*
X141987960Y-86513476D01*
X141982030Y-86472389D01*
X141978303Y-86413205D01*
X141976457Y-86330474D01*
X141976165Y-86218744D01*
X141977103Y-86072564D01*
X141978946Y-85886482D01*
X141985605Y-85253765D01*
X142039144Y-85210440D01*
X142091507Y-85177913D01*
X142157517Y-85172346D01*
X142226887Y-85210421D01*
X142235549Y-85217622D01*
X142251886Y-85234758D01*
X142263998Y-85258045D01*
X142272759Y-85294016D01*
X142279042Y-85349203D01*
X142283722Y-85430140D01*
X142287671Y-85543357D01*
X142291765Y-85695388D01*
X142303105Y-86137050D01*
X142665962Y-85807999D01*
X142840212Y-85650030D01*
X142992432Y-85512633D01*
X143117260Y-85401440D01*
X143217903Y-85314312D01*
X143297572Y-85249108D01*
X143359473Y-85203690D01*
X143406815Y-85175918D01*
X143442808Y-85163653D01*
X143470658Y-85164755D01*
G36*
X143470658Y-85164755D02*
G01*
X143493575Y-85177085D01*
X143514766Y-85198503D01*
X143537441Y-85226871D01*
X143546386Y-85238846D01*
X143558437Y-85259930D01*
X143567637Y-85287704D01*
X143574369Y-85327691D01*
X143579019Y-85385416D01*
X143581967Y-85466403D01*
X143583599Y-85576175D01*
X143584297Y-85720256D01*
X143584444Y-85904169D01*
X143584398Y-86021752D01*
X143583959Y-86180634D01*
X143582736Y-86303062D01*
X143580344Y-86394563D01*
X143576400Y-86460658D01*
X143570521Y-86506872D01*
X143562324Y-86538729D01*
X143551425Y-86561753D01*
X143537441Y-86581468D01*
X143476312Y-86630472D01*
X143406114Y-86636257D01*
X143331823Y-86597906D01*
X143323417Y-86590924D01*
X143306992Y-86573793D01*
X143294817Y-86550588D01*
X143286013Y-86514764D01*
X143279701Y-86459775D01*
X143275005Y-86379077D01*
X143271045Y-86266124D01*
X143266944Y-86114370D01*
X143255605Y-85674152D01*
X142722658Y-86157582D01*
X142574331Y-86291731D01*
X142443390Y-86408482D01*
X142338535Y-86498799D01*
X142256020Y-86564937D01*
X142192098Y-86609149D01*
X142143023Y-86633688D01*
X142105050Y-86640811D01*
X142074433Y-86632769D01*
X142047424Y-86611818D01*
X142020280Y-86580211D01*
X142007733Y-86563168D01*
X141996420Y-86541919D01*
X141987960Y-86513476D01*
X141982030Y-86472389D01*
X141978303Y-86413205D01*
X141976457Y-86330474D01*
X141976165Y-86218744D01*
X141977103Y-86072564D01*
X141978946Y-85886482D01*
X141985605Y-85253765D01*
X142039144Y-85210440D01*
X142091507Y-85177913D01*
X142157517Y-85172346D01*
X142226887Y-85210421D01*
X142235549Y-85217622D01*
X142251886Y-85234758D01*
X142263998Y-85258045D01*
X142272759Y-85294016D01*
X142279042Y-85349203D01*
X142283722Y-85430140D01*
X142287671Y-85543357D01*
X142291765Y-85695388D01*
X142303105Y-86137050D01*
X142665962Y-85807999D01*
X142840212Y-85650030D01*
X142992432Y-85512633D01*
X143117260Y-85401440D01*
X143217903Y-85314312D01*
X143297572Y-85249108D01*
X143359473Y-85203690D01*
X143406815Y-85175918D01*
X143442808Y-85163653D01*
X143470658Y-85164755D01*
G37*
X145072290Y-85177386D02*
X145285249Y-85210162D01*
X145473712Y-85266515D01*
X145632006Y-85344675D01*
X145754459Y-85442875D01*
X145806832Y-85508892D01*
X145866111Y-85607729D01*
X145916880Y-85715926D01*
X145952336Y-85818717D01*
X145965676Y-85901334D01*
X145962543Y-85940940D01*
X145936544Y-86044063D01*
X145890011Y-86157621D01*
X145829961Y-86265936D01*
X145763408Y-86353332D01*
X145742924Y-86374121D01*
X145608154Y-86478133D01*
X145447188Y-86558274D01*
X145273998Y-86607295D01*
X145163578Y-86623592D01*
X144975838Y-86636860D01*
X144795476Y-86632667D01*
X144629760Y-86612085D01*
X144485955Y-86576185D01*
X144371330Y-86526039D01*
X144293149Y-86462716D01*
X144290386Y-86458747D01*
X144276147Y-86408070D01*
X144267632Y-86313146D01*
X144264801Y-86173598D01*
X144266529Y-86048577D01*
X144276010Y-85953389D01*
X144299494Y-85888896D01*
X144343227Y-85849616D01*
X144413457Y-85830069D01*
X144516431Y-85824771D01*
X144658395Y-85828243D01*
X144756070Y-85834294D01*
X144856910Y-85850752D01*
X144922188Y-85878984D01*
X144957261Y-85921645D01*
X144967490Y-85981390D01*
X144967276Y-85990513D01*
X144949794Y-86060412D01*
X144901561Y-86107455D01*
X144818662Y-86133973D01*
X144697185Y-86142294D01*
X144559623Y-86142294D01*
X144559623Y-86219341D01*
X144559724Y-86237693D01*
X144564185Y-86272349D01*
X144582802Y-86293029D01*
X144625754Y-86306966D01*
X144703221Y-86321395D01*
X144714218Y-86323271D01*
X144908985Y-86343166D01*
X145089771Y-86337302D01*
X145252309Y-86307710D01*
X145392329Y-86256421D01*
X145505562Y-86185465D01*
X145587739Y-86096873D01*
X145634591Y-85992676D01*
X145641848Y-85874905D01*
X145630761Y-85816857D01*
X145577156Y-85704579D01*
X145484366Y-85612852D01*
X145353823Y-85542869D01*
X145186958Y-85495823D01*
X145137389Y-85486886D01*
X144957934Y-85465793D01*
X144797606Y-85468263D01*
X144640724Y-85494249D01*
X144570123Y-85507888D01*
X144478842Y-85509933D01*
X144415933Y-85484758D01*
X144375446Y-85430945D01*
X144362621Y-85374198D01*
X144381679Y-85311471D01*
X144400420Y-85284501D01*
X144469194Y-85237228D01*
X144574908Y-85201325D01*
X144712553Y-85178229D01*
X144877123Y-85169377D01*
X145072290Y-85177386D01*
G36*
X145072290Y-85177386D02*
G01*
X145285249Y-85210162D01*
X145473712Y-85266515D01*
X145632006Y-85344675D01*
X145754459Y-85442875D01*
X145806832Y-85508892D01*
X145866111Y-85607729D01*
X145916880Y-85715926D01*
X145952336Y-85818717D01*
X145965676Y-85901334D01*
X145962543Y-85940940D01*
X145936544Y-86044063D01*
X145890011Y-86157621D01*
X145829961Y-86265936D01*
X145763408Y-86353332D01*
X145742924Y-86374121D01*
X145608154Y-86478133D01*
X145447188Y-86558274D01*
X145273998Y-86607295D01*
X145163578Y-86623592D01*
X144975838Y-86636860D01*
X144795476Y-86632667D01*
X144629760Y-86612085D01*
X144485955Y-86576185D01*
X144371330Y-86526039D01*
X144293149Y-86462716D01*
X144290386Y-86458747D01*
X144276147Y-86408070D01*
X144267632Y-86313146D01*
X144264801Y-86173598D01*
X144266529Y-86048577D01*
X144276010Y-85953389D01*
X144299494Y-85888896D01*
X144343227Y-85849616D01*
X144413457Y-85830069D01*
X144516431Y-85824771D01*
X144658395Y-85828243D01*
X144756070Y-85834294D01*
X144856910Y-85850752D01*
X144922188Y-85878984D01*
X144957261Y-85921645D01*
X144967490Y-85981390D01*
X144967276Y-85990513D01*
X144949794Y-86060412D01*
X144901561Y-86107455D01*
X144818662Y-86133973D01*
X144697185Y-86142294D01*
X144559623Y-86142294D01*
X144559623Y-86219341D01*
X144559724Y-86237693D01*
X144564185Y-86272349D01*
X144582802Y-86293029D01*
X144625754Y-86306966D01*
X144703221Y-86321395D01*
X144714218Y-86323271D01*
X144908985Y-86343166D01*
X145089771Y-86337302D01*
X145252309Y-86307710D01*
X145392329Y-86256421D01*
X145505562Y-86185465D01*
X145587739Y-86096873D01*
X145634591Y-85992676D01*
X145641848Y-85874905D01*
X145630761Y-85816857D01*
X145577156Y-85704579D01*
X145484366Y-85612852D01*
X145353823Y-85542869D01*
X145186958Y-85495823D01*
X145137389Y-85486886D01*
X144957934Y-85465793D01*
X144797606Y-85468263D01*
X144640724Y-85494249D01*
X144570123Y-85507888D01*
X144478842Y-85509933D01*
X144415933Y-85484758D01*
X144375446Y-85430945D01*
X144362621Y-85374198D01*
X144381679Y-85311471D01*
X144400420Y-85284501D01*
X144469194Y-85237228D01*
X144574908Y-85201325D01*
X144712553Y-85178229D01*
X144877123Y-85169377D01*
X145072290Y-85177386D01*
G37*
X141156191Y-85226871D02*
X141166133Y-85240298D01*
X141177874Y-85261535D01*
X141186836Y-85289834D01*
X141193393Y-85330666D01*
X141197919Y-85389501D01*
X141200788Y-85471811D01*
X141202374Y-85583065D01*
X141203051Y-85728735D01*
X141203194Y-85914291D01*
X141203136Y-86046713D01*
X141202670Y-86204047D01*
X141201423Y-86325120D01*
X141199027Y-86415317D01*
X141195116Y-86480021D01*
X141189320Y-86524616D01*
X141181272Y-86554487D01*
X141170606Y-86575017D01*
X141156953Y-86591589D01*
X141147883Y-86600946D01*
X141131350Y-86613977D01*
X141108529Y-86623844D01*
X141073839Y-86630986D01*
X141021697Y-86635844D01*
X140946524Y-86638857D01*
X140842738Y-86640465D01*
X140704756Y-86641107D01*
X140527000Y-86641223D01*
X140487475Y-86641210D01*
X140312647Y-86640675D01*
X140176739Y-86639136D01*
X140074375Y-86636295D01*
X140000182Y-86631852D01*
X139948785Y-86625508D01*
X139914810Y-86616963D01*
X139892883Y-86605919D01*
X139871805Y-86585858D01*
X139845164Y-86523347D01*
X139847540Y-86451249D01*
X139880013Y-86387875D01*
X139884411Y-86383302D01*
X139901864Y-86370710D01*
X139928667Y-86361337D01*
X139970820Y-86354715D01*
X140034325Y-86350377D01*
X140125183Y-86347857D01*
X140249394Y-86346688D01*
X140412959Y-86346402D01*
X140908373Y-86346402D01*
X140908373Y-86028902D01*
X140582046Y-86028902D01*
X140510390Y-86028740D01*
X140398352Y-86027138D01*
X140319727Y-86023111D01*
X140266583Y-86015796D01*
X140230990Y-86004328D01*
X140205015Y-85987844D01*
X140197696Y-85981448D01*
X140160717Y-85919221D01*
X140159443Y-85846224D01*
X140194678Y-85778686D01*
X140194802Y-85778548D01*
X140214230Y-85761218D01*
X140240936Y-85749053D01*
X140282535Y-85741155D01*
X140346643Y-85736626D01*
X140440873Y-85734567D01*
X140572841Y-85734080D01*
X140910636Y-85734080D01*
X140903835Y-85603678D01*
X140897033Y-85473277D01*
X140410717Y-85467143D01*
X140360461Y-85466484D01*
X140196493Y-85463512D01*
X140071298Y-85458722D01*
X139979664Y-85450696D01*
X139916378Y-85438012D01*
X139876229Y-85419251D01*
X139854005Y-85392992D01*
X139844492Y-85357814D01*
X139842480Y-85312298D01*
X139842492Y-85307546D01*
X139844810Y-85267305D01*
X139854448Y-85235579D01*
X139876160Y-85211358D01*
X139914700Y-85193633D01*
X139974824Y-85181395D01*
X140061285Y-85173634D01*
X140178838Y-85169340D01*
X140332237Y-85167503D01*
X140526237Y-85167116D01*
X141109188Y-85167116D01*
X141156191Y-85226871D01*
G36*
X141156191Y-85226871D02*
G01*
X141166133Y-85240298D01*
X141177874Y-85261535D01*
X141186836Y-85289834D01*
X141193393Y-85330666D01*
X141197919Y-85389501D01*
X141200788Y-85471811D01*
X141202374Y-85583065D01*
X141203051Y-85728735D01*
X141203194Y-85914291D01*
X141203136Y-86046713D01*
X141202670Y-86204047D01*
X141201423Y-86325120D01*
X141199027Y-86415317D01*
X141195116Y-86480021D01*
X141189320Y-86524616D01*
X141181272Y-86554487D01*
X141170606Y-86575017D01*
X141156953Y-86591589D01*
X141147883Y-86600946D01*
X141131350Y-86613977D01*
X141108529Y-86623844D01*
X141073839Y-86630986D01*
X141021697Y-86635844D01*
X140946524Y-86638857D01*
X140842738Y-86640465D01*
X140704756Y-86641107D01*
X140527000Y-86641223D01*
X140487475Y-86641210D01*
X140312647Y-86640675D01*
X140176739Y-86639136D01*
X140074375Y-86636295D01*
X140000182Y-86631852D01*
X139948785Y-86625508D01*
X139914810Y-86616963D01*
X139892883Y-86605919D01*
X139871805Y-86585858D01*
X139845164Y-86523347D01*
X139847540Y-86451249D01*
X139880013Y-86387875D01*
X139884411Y-86383302D01*
X139901864Y-86370710D01*
X139928667Y-86361337D01*
X139970820Y-86354715D01*
X140034325Y-86350377D01*
X140125183Y-86347857D01*
X140249394Y-86346688D01*
X140412959Y-86346402D01*
X140908373Y-86346402D01*
X140908373Y-86028902D01*
X140582046Y-86028902D01*
X140510390Y-86028740D01*
X140398352Y-86027138D01*
X140319727Y-86023111D01*
X140266583Y-86015796D01*
X140230990Y-86004328D01*
X140205015Y-85987844D01*
X140197696Y-85981448D01*
X140160717Y-85919221D01*
X140159443Y-85846224D01*
X140194678Y-85778686D01*
X140194802Y-85778548D01*
X140214230Y-85761218D01*
X140240936Y-85749053D01*
X140282535Y-85741155D01*
X140346643Y-85736626D01*
X140440873Y-85734567D01*
X140572841Y-85734080D01*
X140910636Y-85734080D01*
X140903835Y-85603678D01*
X140897033Y-85473277D01*
X140410717Y-85467143D01*
X140360461Y-85466484D01*
X140196493Y-85463512D01*
X140071298Y-85458722D01*
X139979664Y-85450696D01*
X139916378Y-85438012D01*
X139876229Y-85419251D01*
X139854005Y-85392992D01*
X139844492Y-85357814D01*
X139842480Y-85312298D01*
X139842492Y-85307546D01*
X139844810Y-85267305D01*
X139854448Y-85235579D01*
X139876160Y-85211358D01*
X139914700Y-85193633D01*
X139974824Y-85181395D01*
X140061285Y-85173634D01*
X140178838Y-85169340D01*
X140332237Y-85167503D01*
X140526237Y-85167116D01*
X141109188Y-85167116D01*
X141156191Y-85226871D01*
G37*
X150551811Y-85167148D02*
X150706693Y-85167534D01*
X150825112Y-85168709D01*
X150912675Y-85171102D01*
X150974989Y-85175145D01*
X151017664Y-85181268D01*
X151046305Y-85189903D01*
X151066521Y-85201478D01*
X151083920Y-85216426D01*
X151087505Y-85219803D01*
X151102058Y-85234948D01*
X151113392Y-85253064D01*
X151121911Y-85279450D01*
X151128016Y-85319403D01*
X151132109Y-85378222D01*
X151134593Y-85461205D01*
X151135870Y-85573651D01*
X151136341Y-85720857D01*
X151136408Y-85908123D01*
X151136335Y-86054351D01*
X151135836Y-86211401D01*
X151134557Y-86332367D01*
X151132152Y-86422526D01*
X151128273Y-86487153D01*
X151122571Y-86531524D01*
X151114699Y-86560916D01*
X151104308Y-86580605D01*
X151091051Y-86595866D01*
X151084353Y-86602248D01*
X151067233Y-86614524D01*
X151043122Y-86623915D01*
X151006539Y-86630806D01*
X150952002Y-86635582D01*
X150874032Y-86638627D01*
X150767148Y-86640325D01*
X150625868Y-86641063D01*
X150444712Y-86641223D01*
X150360118Y-86641199D01*
X150197100Y-86640834D01*
X150071558Y-86639723D01*
X149978010Y-86637482D01*
X149910977Y-86633726D01*
X149864978Y-86628071D01*
X149834531Y-86620133D01*
X149814156Y-86609526D01*
X149798373Y-86595866D01*
X149768789Y-86552474D01*
X149753015Y-86493812D01*
X149764062Y-86445786D01*
X149798373Y-86391759D01*
X149808375Y-86382502D01*
X149828013Y-86369871D01*
X149856370Y-86360580D01*
X149899552Y-86354118D01*
X149963666Y-86349979D01*
X150054817Y-86347652D01*
X150179113Y-86346629D01*
X150342658Y-86346402D01*
X150841587Y-86346402D01*
X150841587Y-86028902D01*
X150517794Y-86028902D01*
X150445838Y-86028610D01*
X150314004Y-86025149D01*
X150219100Y-86016239D01*
X150155347Y-85999958D01*
X150116964Y-85974383D01*
X150098173Y-85937591D01*
X150093194Y-85887660D01*
X150094796Y-85846967D01*
X150105347Y-85803121D01*
X150131049Y-85772281D01*
X150177937Y-85752201D01*
X150252044Y-85740637D01*
X150359406Y-85735345D01*
X150506055Y-85734080D01*
X150843850Y-85734080D01*
X150837049Y-85603678D01*
X150830248Y-85473277D01*
X150332603Y-85467152D01*
X150206862Y-85465387D01*
X150069329Y-85462485D01*
X149967066Y-85458606D01*
X149894236Y-85453282D01*
X149845003Y-85446043D01*
X149813532Y-85436421D01*
X149793987Y-85423950D01*
X149781903Y-85411087D01*
X149755769Y-85347441D01*
X149762922Y-85275750D01*
X149802649Y-85213356D01*
X149809181Y-85207484D01*
X149827221Y-85194724D01*
X149851537Y-85184976D01*
X149887710Y-85177836D01*
X149941324Y-85172900D01*
X150017963Y-85169763D01*
X150123210Y-85168023D01*
X150262646Y-85167275D01*
X150441857Y-85167116D01*
X150551811Y-85167148D01*
G36*
X150551811Y-85167148D02*
G01*
X150706693Y-85167534D01*
X150825112Y-85168709D01*
X150912675Y-85171102D01*
X150974989Y-85175145D01*
X151017664Y-85181268D01*
X151046305Y-85189903D01*
X151066521Y-85201478D01*
X151083920Y-85216426D01*
X151087505Y-85219803D01*
X151102058Y-85234948D01*
X151113392Y-85253064D01*
X151121911Y-85279450D01*
X151128016Y-85319403D01*
X151132109Y-85378222D01*
X151134593Y-85461205D01*
X151135870Y-85573651D01*
X151136341Y-85720857D01*
X151136408Y-85908123D01*
X151136335Y-86054351D01*
X151135836Y-86211401D01*
X151134557Y-86332367D01*
X151132152Y-86422526D01*
X151128273Y-86487153D01*
X151122571Y-86531524D01*
X151114699Y-86560916D01*
X151104308Y-86580605D01*
X151091051Y-86595866D01*
X151084353Y-86602248D01*
X151067233Y-86614524D01*
X151043122Y-86623915D01*
X151006539Y-86630806D01*
X150952002Y-86635582D01*
X150874032Y-86638627D01*
X150767148Y-86640325D01*
X150625868Y-86641063D01*
X150444712Y-86641223D01*
X150360118Y-86641199D01*
X150197100Y-86640834D01*
X150071558Y-86639723D01*
X149978010Y-86637482D01*
X149910977Y-86633726D01*
X149864978Y-86628071D01*
X149834531Y-86620133D01*
X149814156Y-86609526D01*
X149798373Y-86595866D01*
X149768789Y-86552474D01*
X149753015Y-86493812D01*
X149764062Y-86445786D01*
X149798373Y-86391759D01*
X149808375Y-86382502D01*
X149828013Y-86369871D01*
X149856370Y-86360580D01*
X149899552Y-86354118D01*
X149963666Y-86349979D01*
X150054817Y-86347652D01*
X150179113Y-86346629D01*
X150342658Y-86346402D01*
X150841587Y-86346402D01*
X150841587Y-86028902D01*
X150517794Y-86028902D01*
X150445838Y-86028610D01*
X150314004Y-86025149D01*
X150219100Y-86016239D01*
X150155347Y-85999958D01*
X150116964Y-85974383D01*
X150098173Y-85937591D01*
X150093194Y-85887660D01*
X150094796Y-85846967D01*
X150105347Y-85803121D01*
X150131049Y-85772281D01*
X150177937Y-85752201D01*
X150252044Y-85740637D01*
X150359406Y-85735345D01*
X150506055Y-85734080D01*
X150843850Y-85734080D01*
X150837049Y-85603678D01*
X150830248Y-85473277D01*
X150332603Y-85467152D01*
X150206862Y-85465387D01*
X150069329Y-85462485D01*
X149967066Y-85458606D01*
X149894236Y-85453282D01*
X149845003Y-85446043D01*
X149813532Y-85436421D01*
X149793987Y-85423950D01*
X149781903Y-85411087D01*
X149755769Y-85347441D01*
X149762922Y-85275750D01*
X149802649Y-85213356D01*
X149809181Y-85207484D01*
X149827221Y-85194724D01*
X149851537Y-85184976D01*
X149887710Y-85177836D01*
X149941324Y-85172900D01*
X150017963Y-85169763D01*
X150123210Y-85168023D01*
X150262646Y-85167275D01*
X150441857Y-85167116D01*
X150551811Y-85167148D01*
G37*
X133341256Y-85186023D02*
X133377337Y-85223210D01*
X133418722Y-85285651D01*
X133468608Y-85377429D01*
X133530192Y-85502630D01*
X133606671Y-85665339D01*
X133636069Y-85728386D01*
X133695832Y-85855316D01*
X133748255Y-85965016D01*
X133790431Y-86051493D01*
X133819454Y-86108754D01*
X133832417Y-86130806D01*
X133835147Y-86129639D01*
X133855220Y-86101620D01*
X133889956Y-86042280D01*
X133935352Y-85958675D01*
X133987400Y-85857858D01*
X134019488Y-85794600D01*
X134077646Y-85683398D01*
X134122824Y-85605016D01*
X134159418Y-85553834D01*
X134191824Y-85524232D01*
X134224438Y-85510592D01*
X134261656Y-85507294D01*
X134282755Y-85508249D01*
X134315131Y-85516701D01*
X134345896Y-85538525D01*
X134379240Y-85579252D01*
X134419356Y-85644411D01*
X134470435Y-85739535D01*
X134536669Y-85870152D01*
X134556221Y-85908834D01*
X134605355Y-86002588D01*
X134646007Y-86075236D01*
X134674398Y-86120213D01*
X134686751Y-86130955D01*
X134689498Y-86124384D01*
X134708330Y-86082378D01*
X134742203Y-86008171D01*
X134788240Y-85908023D01*
X134843568Y-85788195D01*
X134905313Y-85654946D01*
X134958981Y-85539994D01*
X135018492Y-85415463D01*
X135064840Y-85323575D01*
X135100958Y-85259207D01*
X135129780Y-85217234D01*
X135154241Y-85192530D01*
X135177276Y-85179972D01*
X135196179Y-85174161D01*
X135246614Y-85173863D01*
X135301141Y-85204685D01*
X135303754Y-85206663D01*
X135348119Y-85252137D01*
X135370315Y-85296785D01*
X135370408Y-85298070D01*
X135361285Y-85333552D01*
X135335442Y-85402992D01*
X135295748Y-85500114D01*
X135245074Y-85618640D01*
X135186290Y-85752293D01*
X135122266Y-85894797D01*
X135055873Y-86039875D01*
X134989981Y-86181249D01*
X134927460Y-86312643D01*
X134871181Y-86427779D01*
X134824014Y-86520381D01*
X134788829Y-86584172D01*
X134768496Y-86612875D01*
X134699374Y-86639732D01*
X134615607Y-86626952D01*
X134604830Y-86617516D01*
X134573031Y-86573016D01*
X134528429Y-86499167D01*
X134475359Y-86403306D01*
X134418157Y-86292772D01*
X134257898Y-85972863D01*
X134110870Y-86267356D01*
X134091392Y-86306109D01*
X134037194Y-86411272D01*
X133988922Y-86501251D01*
X133951226Y-86567515D01*
X133928754Y-86601535D01*
X133926452Y-86604033D01*
X133869960Y-86634743D01*
X133799522Y-86638125D01*
X133737163Y-86612875D01*
X133732289Y-86607151D01*
X133707659Y-86565716D01*
X133668009Y-86490279D01*
X133615968Y-86386160D01*
X133554169Y-86258680D01*
X133485241Y-86113158D01*
X133411816Y-85954916D01*
X133371154Y-85866275D01*
X133297280Y-85704099D01*
X133240113Y-85576174D01*
X133197876Y-85477868D01*
X133168792Y-85404551D01*
X133151085Y-85351591D01*
X133142978Y-85314360D01*
X133142693Y-85288224D01*
X133148455Y-85268555D01*
X133177900Y-85226604D01*
X133231342Y-85185820D01*
X133232861Y-85185132D01*
X133272215Y-85171068D01*
X133307281Y-85170004D01*
X133341256Y-85186023D01*
G36*
X133341256Y-85186023D02*
G01*
X133377337Y-85223210D01*
X133418722Y-85285651D01*
X133468608Y-85377429D01*
X133530192Y-85502630D01*
X133606671Y-85665339D01*
X133636069Y-85728386D01*
X133695832Y-85855316D01*
X133748255Y-85965016D01*
X133790431Y-86051493D01*
X133819454Y-86108754D01*
X133832417Y-86130806D01*
X133835147Y-86129639D01*
X133855220Y-86101620D01*
X133889956Y-86042280D01*
X133935352Y-85958675D01*
X133987400Y-85857858D01*
X134019488Y-85794600D01*
X134077646Y-85683398D01*
X134122824Y-85605016D01*
X134159418Y-85553834D01*
X134191824Y-85524232D01*
X134224438Y-85510592D01*
X134261656Y-85507294D01*
X134282755Y-85508249D01*
X134315131Y-85516701D01*
X134345896Y-85538525D01*
X134379240Y-85579252D01*
X134419356Y-85644411D01*
X134470435Y-85739535D01*
X134536669Y-85870152D01*
X134556221Y-85908834D01*
X134605355Y-86002588D01*
X134646007Y-86075236D01*
X134674398Y-86120213D01*
X134686751Y-86130955D01*
X134689498Y-86124384D01*
X134708330Y-86082378D01*
X134742203Y-86008171D01*
X134788240Y-85908023D01*
X134843568Y-85788195D01*
X134905313Y-85654946D01*
X134958981Y-85539994D01*
X135018492Y-85415463D01*
X135064840Y-85323575D01*
X135100958Y-85259207D01*
X135129780Y-85217234D01*
X135154241Y-85192530D01*
X135177276Y-85179972D01*
X135196179Y-85174161D01*
X135246614Y-85173863D01*
X135301141Y-85204685D01*
X135303754Y-85206663D01*
X135348119Y-85252137D01*
X135370315Y-85296785D01*
X135370408Y-85298070D01*
X135361285Y-85333552D01*
X135335442Y-85402992D01*
X135295748Y-85500114D01*
X135245074Y-85618640D01*
X135186290Y-85752293D01*
X135122266Y-85894797D01*
X135055873Y-86039875D01*
X134989981Y-86181249D01*
X134927460Y-86312643D01*
X134871181Y-86427779D01*
X134824014Y-86520381D01*
X134788829Y-86584172D01*
X134768496Y-86612875D01*
X134699374Y-86639732D01*
X134615607Y-86626952D01*
X134604830Y-86617516D01*
X134573031Y-86573016D01*
X134528429Y-86499167D01*
X134475359Y-86403306D01*
X134418157Y-86292772D01*
X134257898Y-85972863D01*
X134110870Y-86267356D01*
X134091392Y-86306109D01*
X134037194Y-86411272D01*
X133988922Y-86501251D01*
X133951226Y-86567515D01*
X133928754Y-86601535D01*
X133926452Y-86604033D01*
X133869960Y-86634743D01*
X133799522Y-86638125D01*
X133737163Y-86612875D01*
X133732289Y-86607151D01*
X133707659Y-86565716D01*
X133668009Y-86490279D01*
X133615968Y-86386160D01*
X133554169Y-86258680D01*
X133485241Y-86113158D01*
X133411816Y-85954916D01*
X133371154Y-85866275D01*
X133297280Y-85704099D01*
X133240113Y-85576174D01*
X133197876Y-85477868D01*
X133168792Y-85404551D01*
X133151085Y-85351591D01*
X133142978Y-85314360D01*
X133142693Y-85288224D01*
X133148455Y-85268555D01*
X133177900Y-85226604D01*
X133231342Y-85185820D01*
X133232861Y-85185132D01*
X133272215Y-85171068D01*
X133307281Y-85170004D01*
X133341256Y-85186023D01*
G37*
X148510979Y-85168862D02*
X148644063Y-85179770D01*
X148755158Y-85199052D01*
X148857378Y-85228907D01*
X149000639Y-85295468D01*
X149103409Y-85381214D01*
X149165331Y-85485808D01*
X149186051Y-85608912D01*
X149184169Y-85671688D01*
X149172532Y-85721504D01*
X149142786Y-85765037D01*
X149086591Y-85819982D01*
X149070563Y-85834705D01*
X149022933Y-85876698D01*
X148977945Y-85910791D01*
X148929663Y-85938822D01*
X148872151Y-85962630D01*
X148799475Y-85984053D01*
X148705697Y-86004929D01*
X148584884Y-86027096D01*
X148431098Y-86052393D01*
X148238404Y-86082659D01*
X148201512Y-86088754D01*
X148076296Y-86116117D01*
X147985457Y-86147724D01*
X147932655Y-86182019D01*
X147921548Y-86217445D01*
X147926813Y-86226024D01*
X147962837Y-86256288D01*
X148019340Y-86289705D01*
X148045053Y-86301740D01*
X148087840Y-86316189D01*
X148140848Y-86325786D01*
X148212856Y-86331449D01*
X148312646Y-86334096D01*
X148448998Y-86334646D01*
X148484726Y-86334499D01*
X148620572Y-86332267D01*
X148751029Y-86327797D01*
X148862777Y-86321637D01*
X148942492Y-86314336D01*
X149013832Y-86306163D01*
X149072598Y-86304590D01*
X149110568Y-86313830D01*
X149140930Y-86335276D01*
X149148275Y-86342494D01*
X149181105Y-86406325D01*
X149178454Y-86477952D01*
X149140370Y-86539462D01*
X149099447Y-86562778D01*
X149027159Y-86588281D01*
X148941933Y-86608470D01*
X148935000Y-86609673D01*
X148849281Y-86620153D01*
X148733995Y-86628939D01*
X148603381Y-86635142D01*
X148471676Y-86637872D01*
X148439066Y-86637956D01*
X148241564Y-86632979D01*
X148080745Y-86616895D01*
X147949804Y-86587702D01*
X147841932Y-86543397D01*
X147750324Y-86481977D01*
X147668173Y-86401439D01*
X147627751Y-86348753D01*
X147604395Y-86289394D01*
X147598551Y-86209606D01*
X147598834Y-86185562D01*
X147606615Y-86119907D01*
X147631494Y-86066618D01*
X147682049Y-86004646D01*
X147724662Y-85960168D01*
X147777690Y-85914875D01*
X147837390Y-85877976D01*
X147910171Y-85847328D01*
X148002446Y-85820786D01*
X148120625Y-85796207D01*
X148271118Y-85771446D01*
X148460337Y-85744359D01*
X148551365Y-85730277D01*
X148687881Y-85701029D01*
X148786591Y-85667883D01*
X148845990Y-85631927D01*
X148864573Y-85594250D01*
X148840835Y-85555940D01*
X148773271Y-85518085D01*
X148767152Y-85515646D01*
X148674020Y-85491382D01*
X148548160Y-85474908D01*
X148400636Y-85466550D01*
X148242514Y-85466636D01*
X148084857Y-85475492D01*
X147938730Y-85493444D01*
X147930841Y-85494747D01*
X147832772Y-85510230D01*
X147767981Y-85517486D01*
X147725799Y-85516285D01*
X147695557Y-85506399D01*
X147666587Y-85487598D01*
X147664237Y-85485850D01*
X147614984Y-85424831D01*
X147605355Y-85353511D01*
X147637109Y-85284040D01*
X147646241Y-85275087D01*
X147705734Y-85244673D01*
X147800117Y-85218310D01*
X147921263Y-85196614D01*
X148061048Y-85180203D01*
X148211346Y-85169696D01*
X148364032Y-85165710D01*
X148510979Y-85168862D01*
G36*
X148510979Y-85168862D02*
G01*
X148644063Y-85179770D01*
X148755158Y-85199052D01*
X148857378Y-85228907D01*
X149000639Y-85295468D01*
X149103409Y-85381214D01*
X149165331Y-85485808D01*
X149186051Y-85608912D01*
X149184169Y-85671688D01*
X149172532Y-85721504D01*
X149142786Y-85765037D01*
X149086591Y-85819982D01*
X149070563Y-85834705D01*
X149022933Y-85876698D01*
X148977945Y-85910791D01*
X148929663Y-85938822D01*
X148872151Y-85962630D01*
X148799475Y-85984053D01*
X148705697Y-86004929D01*
X148584884Y-86027096D01*
X148431098Y-86052393D01*
X148238404Y-86082659D01*
X148201512Y-86088754D01*
X148076296Y-86116117D01*
X147985457Y-86147724D01*
X147932655Y-86182019D01*
X147921548Y-86217445D01*
X147926813Y-86226024D01*
X147962837Y-86256288D01*
X148019340Y-86289705D01*
X148045053Y-86301740D01*
X148087840Y-86316189D01*
X148140848Y-86325786D01*
X148212856Y-86331449D01*
X148312646Y-86334096D01*
X148448998Y-86334646D01*
X148484726Y-86334499D01*
X148620572Y-86332267D01*
X148751029Y-86327797D01*
X148862777Y-86321637D01*
X148942492Y-86314336D01*
X149013832Y-86306163D01*
X149072598Y-86304590D01*
X149110568Y-86313830D01*
X149140930Y-86335276D01*
X149148275Y-86342494D01*
X149181105Y-86406325D01*
X149178454Y-86477952D01*
X149140370Y-86539462D01*
X149099447Y-86562778D01*
X149027159Y-86588281D01*
X148941933Y-86608470D01*
X148935000Y-86609673D01*
X148849281Y-86620153D01*
X148733995Y-86628939D01*
X148603381Y-86635142D01*
X148471676Y-86637872D01*
X148439066Y-86637956D01*
X148241564Y-86632979D01*
X148080745Y-86616895D01*
X147949804Y-86587702D01*
X147841932Y-86543397D01*
X147750324Y-86481977D01*
X147668173Y-86401439D01*
X147627751Y-86348753D01*
X147604395Y-86289394D01*
X147598551Y-86209606D01*
X147598834Y-86185562D01*
X147606615Y-86119907D01*
X147631494Y-86066618D01*
X147682049Y-86004646D01*
X147724662Y-85960168D01*
X147777690Y-85914875D01*
X147837390Y-85877976D01*
X147910171Y-85847328D01*
X148002446Y-85820786D01*
X148120625Y-85796207D01*
X148271118Y-85771446D01*
X148460337Y-85744359D01*
X148551365Y-85730277D01*
X148687881Y-85701029D01*
X148786591Y-85667883D01*
X148845990Y-85631927D01*
X148864573Y-85594250D01*
X148840835Y-85555940D01*
X148773271Y-85518085D01*
X148767152Y-85515646D01*
X148674020Y-85491382D01*
X148548160Y-85474908D01*
X148400636Y-85466550D01*
X148242514Y-85466636D01*
X148084857Y-85475492D01*
X147938730Y-85493444D01*
X147930841Y-85494747D01*
X147832772Y-85510230D01*
X147767981Y-85517486D01*
X147725799Y-85516285D01*
X147695557Y-85506399D01*
X147666587Y-85487598D01*
X147664237Y-85485850D01*
X147614984Y-85424831D01*
X147605355Y-85353511D01*
X147637109Y-85284040D01*
X147646241Y-85275087D01*
X147705734Y-85244673D01*
X147800117Y-85218310D01*
X147921263Y-85196614D01*
X148061048Y-85180203D01*
X148211346Y-85169696D01*
X148364032Y-85165710D01*
X148510979Y-85168862D01*
G37*
X140659535Y-74585960D02*
X141026552Y-74619653D01*
X141367511Y-74687603D01*
X141695096Y-74792670D01*
X142021987Y-74937714D01*
X142345574Y-75122904D01*
X142692846Y-75375366D01*
X143014885Y-75667260D01*
X143304598Y-75991360D01*
X143554894Y-76340440D01*
X143758683Y-76707275D01*
X143777181Y-76746518D01*
X143932097Y-77125304D01*
X144049811Y-77518905D01*
X144131844Y-77934842D01*
X144179717Y-78380634D01*
X144194951Y-78863799D01*
X144176428Y-79363267D01*
X144117636Y-79855146D01*
X144017662Y-80315600D01*
X143875611Y-80747895D01*
X143690589Y-81155298D01*
X143461701Y-81541075D01*
X143246700Y-81835805D01*
X142949828Y-82167424D01*
X142626252Y-82451466D01*
X142276112Y-82687839D01*
X141899551Y-82876449D01*
X141496709Y-83017205D01*
X141067730Y-83110012D01*
X141062834Y-83110735D01*
X140980223Y-83117984D01*
X140855557Y-83123360D01*
X140700367Y-83126614D01*
X140526177Y-83127494D01*
X140344517Y-83125749D01*
X140217199Y-83123192D01*
X140028297Y-83117270D01*
X139876927Y-83108791D01*
X139752168Y-83096851D01*
X139643105Y-83080546D01*
X139538818Y-83058969D01*
X139421487Y-83031086D01*
X139299074Y-82999333D01*
X139188364Y-82966023D01*
X139079309Y-82927253D01*
X138961861Y-82879122D01*
X138825973Y-82817729D01*
X138661596Y-82739172D01*
X138458683Y-82639549D01*
X137897474Y-82362201D01*
X138346967Y-81623896D01*
X138405814Y-81527265D01*
X138511538Y-81353800D01*
X138606167Y-81198721D01*
X138686243Y-81067685D01*
X138748308Y-80966348D01*
X138788903Y-80900367D01*
X138804570Y-80875398D01*
X138808928Y-80876144D01*
X138844030Y-80900579D01*
X138905699Y-80951291D01*
X138984191Y-81020412D01*
X139123980Y-81139837D01*
X139373534Y-81316436D01*
X139615660Y-81439547D01*
X139790627Y-81501026D01*
X140086571Y-81563857D01*
X140377344Y-81574994D01*
X140658730Y-81535195D01*
X140926512Y-81445220D01*
X141176475Y-81305828D01*
X141404400Y-81117775D01*
X141531226Y-80979268D01*
X141709897Y-80723078D01*
X141856505Y-80425783D01*
X141971749Y-80085860D01*
X142056333Y-79701786D01*
X142060170Y-79677943D01*
X142077899Y-79523402D01*
X142091097Y-79331389D01*
X142099657Y-79115022D01*
X142103473Y-78887422D01*
X142102437Y-78661709D01*
X142096444Y-78451004D01*
X142085386Y-78268426D01*
X142069155Y-78127097D01*
X142006946Y-77806955D01*
X141902271Y-77432987D01*
X141770625Y-77105584D01*
X141612184Y-76824999D01*
X141427124Y-76591485D01*
X141215622Y-76405296D01*
X140977853Y-76266685D01*
X140713993Y-76175905D01*
X140655452Y-76164638D01*
X140508744Y-76149926D01*
X140337293Y-76145124D01*
X140160307Y-76149967D01*
X139996993Y-76164193D01*
X139866560Y-76187537D01*
X139649274Y-76261868D01*
X139397118Y-76397568D01*
X139172594Y-76576147D01*
X139132966Y-76613765D01*
X139061161Y-76680320D01*
X139010412Y-76725117D01*
X138989795Y-76740018D01*
X138984719Y-76732891D01*
X138953475Y-76687890D01*
X138897031Y-76606178D01*
X138819117Y-76493168D01*
X138723461Y-76354270D01*
X138613794Y-76194895D01*
X138493845Y-76020453D01*
X138003226Y-75306714D01*
X138112827Y-75273876D01*
X138124264Y-75270155D01*
X138198713Y-75240599D01*
X138306049Y-75192939D01*
X138433676Y-75132910D01*
X138568999Y-75066243D01*
X138627966Y-75036767D01*
X138955404Y-74884593D01*
X139257200Y-74766917D01*
X139544961Y-74680729D01*
X139830294Y-74623019D01*
X140124807Y-74590777D01*
X140440108Y-74580992D01*
X140659535Y-74585960D01*
G36*
X140659535Y-74585960D02*
G01*
X141026552Y-74619653D01*
X141367511Y-74687603D01*
X141695096Y-74792670D01*
X142021987Y-74937714D01*
X142345574Y-75122904D01*
X142692846Y-75375366D01*
X143014885Y-75667260D01*
X143304598Y-75991360D01*
X143554894Y-76340440D01*
X143758683Y-76707275D01*
X143777181Y-76746518D01*
X143932097Y-77125304D01*
X144049811Y-77518905D01*
X144131844Y-77934842D01*
X144179717Y-78380634D01*
X144194951Y-78863799D01*
X144176428Y-79363267D01*
X144117636Y-79855146D01*
X144017662Y-80315600D01*
X143875611Y-80747895D01*
X143690589Y-81155298D01*
X143461701Y-81541075D01*
X143246700Y-81835805D01*
X142949828Y-82167424D01*
X142626252Y-82451466D01*
X142276112Y-82687839D01*
X141899551Y-82876449D01*
X141496709Y-83017205D01*
X141067730Y-83110012D01*
X141062834Y-83110735D01*
X140980223Y-83117984D01*
X140855557Y-83123360D01*
X140700367Y-83126614D01*
X140526177Y-83127494D01*
X140344517Y-83125749D01*
X140217199Y-83123192D01*
X140028297Y-83117270D01*
X139876927Y-83108791D01*
X139752168Y-83096851D01*
X139643105Y-83080546D01*
X139538818Y-83058969D01*
X139421487Y-83031086D01*
X139299074Y-82999333D01*
X139188364Y-82966023D01*
X139079309Y-82927253D01*
X138961861Y-82879122D01*
X138825973Y-82817729D01*
X138661596Y-82739172D01*
X138458683Y-82639549D01*
X137897474Y-82362201D01*
X138346967Y-81623896D01*
X138405814Y-81527265D01*
X138511538Y-81353800D01*
X138606167Y-81198721D01*
X138686243Y-81067685D01*
X138748308Y-80966348D01*
X138788903Y-80900367D01*
X138804570Y-80875398D01*
X138808928Y-80876144D01*
X138844030Y-80900579D01*
X138905699Y-80951291D01*
X138984191Y-81020412D01*
X139123980Y-81139837D01*
X139373534Y-81316436D01*
X139615660Y-81439547D01*
X139790627Y-81501026D01*
X140086571Y-81563857D01*
X140377344Y-81574994D01*
X140658730Y-81535195D01*
X140926512Y-81445220D01*
X141176475Y-81305828D01*
X141404400Y-81117775D01*
X141531226Y-80979268D01*
X141709897Y-80723078D01*
X141856505Y-80425783D01*
X141971749Y-80085860D01*
X142056333Y-79701786D01*
X142060170Y-79677943D01*
X142077899Y-79523402D01*
X142091097Y-79331389D01*
X142099657Y-79115022D01*
X142103473Y-78887422D01*
X142102437Y-78661709D01*
X142096444Y-78451004D01*
X142085386Y-78268426D01*
X142069155Y-78127097D01*
X142006946Y-77806955D01*
X141902271Y-77432987D01*
X141770625Y-77105584D01*
X141612184Y-76824999D01*
X141427124Y-76591485D01*
X141215622Y-76405296D01*
X140977853Y-76266685D01*
X140713993Y-76175905D01*
X140655452Y-76164638D01*
X140508744Y-76149926D01*
X140337293Y-76145124D01*
X140160307Y-76149967D01*
X139996993Y-76164193D01*
X139866560Y-76187537D01*
X139649274Y-76261868D01*
X139397118Y-76397568D01*
X139172594Y-76576147D01*
X139132966Y-76613765D01*
X139061161Y-76680320D01*
X139010412Y-76725117D01*
X138989795Y-76740018D01*
X138984719Y-76732891D01*
X138953475Y-76687890D01*
X138897031Y-76606178D01*
X138819117Y-76493168D01*
X138723461Y-76354270D01*
X138613794Y-76194895D01*
X138493845Y-76020453D01*
X138003226Y-75306714D01*
X138112827Y-75273876D01*
X138124264Y-75270155D01*
X138198713Y-75240599D01*
X138306049Y-75192939D01*
X138433676Y-75132910D01*
X138568999Y-75066243D01*
X138627966Y-75036767D01*
X138955404Y-74884593D01*
X139257200Y-74766917D01*
X139544961Y-74680729D01*
X139830294Y-74623019D01*
X140124807Y-74590777D01*
X140440108Y-74580992D01*
X140659535Y-74585960D01*
G37*
X131737577Y-80277045D02*
X131731782Y-80529791D01*
X131715211Y-80752690D01*
X131686582Y-80957867D01*
X131644611Y-81157445D01*
X131588016Y-81363548D01*
X131502194Y-81609904D01*
X131344570Y-81942472D01*
X131151222Y-82240351D01*
X130925108Y-82500726D01*
X130669186Y-82720780D01*
X130386413Y-82897700D01*
X130079747Y-83028669D01*
X129752147Y-83110873D01*
X129748205Y-83111532D01*
X129508789Y-83134569D01*
X129245734Y-83131494D01*
X128977793Y-83104204D01*
X128723726Y-83054595D01*
X128502287Y-82984561D01*
X128407769Y-82941943D01*
X128284669Y-82877167D01*
X128158175Y-82803080D01*
X128041487Y-82727837D01*
X127947803Y-82659591D01*
X127890323Y-82606498D01*
X127877128Y-82591922D01*
X127861397Y-82586827D01*
X127850883Y-82612122D01*
X127843135Y-82675873D01*
X127835699Y-82786142D01*
X127822044Y-83015914D01*
X126776024Y-83023068D01*
X125730004Y-83030221D01*
X125802381Y-82906720D01*
X125806695Y-82899418D01*
X125827742Y-82865141D01*
X125846835Y-82834604D01*
X125864077Y-82805156D01*
X125879572Y-82774143D01*
X125893421Y-82738912D01*
X125905728Y-82696811D01*
X125916595Y-82645187D01*
X125926125Y-82581386D01*
X125934420Y-82502756D01*
X125941584Y-82406644D01*
X125947720Y-82290398D01*
X125952929Y-82151363D01*
X125957315Y-81986887D01*
X125960980Y-81794318D01*
X125964028Y-81571002D01*
X125966560Y-81314286D01*
X125968680Y-81021519D01*
X125970491Y-80690045D01*
X125972094Y-80317214D01*
X125973594Y-79900371D01*
X125975092Y-79436864D01*
X125976692Y-78924041D01*
X125978101Y-78482706D01*
X127958603Y-78482706D01*
X127958603Y-81321805D01*
X128095162Y-81411376D01*
X128147677Y-81443643D01*
X128267925Y-81508102D01*
X128381936Y-81559433D01*
X128431866Y-81576813D01*
X128590739Y-81611510D01*
X128791613Y-81629228D01*
X128893758Y-81632915D01*
X128988573Y-81632077D01*
X129059153Y-81622607D01*
X129122460Y-81601909D01*
X129195454Y-81567385D01*
X129335734Y-81474906D01*
X129457262Y-81344086D01*
X129554542Y-81175502D01*
X129628497Y-80966510D01*
X129680054Y-80714467D01*
X129710138Y-80416732D01*
X129719675Y-80070662D01*
X129719211Y-79991984D01*
X129705500Y-79627441D01*
X129672207Y-79310239D01*
X129618523Y-79037031D01*
X129543636Y-78804471D01*
X129446738Y-78609211D01*
X129327019Y-78447906D01*
X129277351Y-78398676D01*
X129123423Y-78296113D01*
X128942727Y-78233701D01*
X128743091Y-78211796D01*
X128532342Y-78230751D01*
X128318308Y-78290923D01*
X128108818Y-78392665D01*
X127958603Y-78482706D01*
X125978101Y-78482706D01*
X125978495Y-78359247D01*
X125992151Y-74194193D01*
X127077796Y-74187052D01*
X127156746Y-74186571D01*
X127389033Y-74185618D01*
X127601494Y-74185424D01*
X127788331Y-74185951D01*
X127943743Y-74187158D01*
X128061931Y-74189006D01*
X128137097Y-74191455D01*
X128163441Y-74194466D01*
X128160071Y-74204008D01*
X128134929Y-74249245D01*
X128093287Y-74315031D01*
X128089133Y-74321321D01*
X128056846Y-74372115D01*
X128029775Y-74421536D01*
X128007461Y-74474674D01*
X127989445Y-74536620D01*
X127975267Y-74612465D01*
X127964469Y-74707299D01*
X127956591Y-74826212D01*
X127951175Y-74974296D01*
X127947762Y-75156641D01*
X127945892Y-75378337D01*
X127945106Y-75644476D01*
X127944947Y-75960147D01*
X127945233Y-76206607D01*
X127946109Y-76448574D01*
X127947512Y-76667973D01*
X127949379Y-76859462D01*
X127951645Y-77017698D01*
X127954247Y-77137339D01*
X127957121Y-77213041D01*
X127960204Y-77239462D01*
X127970147Y-77235361D01*
X128013856Y-77206484D01*
X128076279Y-77159058D01*
X128166776Y-77095280D01*
X128336805Y-77001307D01*
X128531143Y-76917482D01*
X128731648Y-76852295D01*
X128900108Y-76819055D01*
X129109916Y-76797866D01*
X129336986Y-76790525D01*
X129563795Y-76797041D01*
X129772822Y-76817422D01*
X129946541Y-76851678D01*
X130123426Y-76909382D01*
X130418513Y-77049268D01*
X130691741Y-77235237D01*
X130938070Y-77463007D01*
X131152460Y-77728296D01*
X131329869Y-78026822D01*
X131373913Y-78118363D01*
X131497339Y-78427137D01*
X131593836Y-78762257D01*
X131664622Y-79129628D01*
X131710918Y-79535158D01*
X131733942Y-79984756D01*
X131735011Y-80070662D01*
X131737577Y-80277045D01*
G36*
X131737577Y-80277045D02*
G01*
X131731782Y-80529791D01*
X131715211Y-80752690D01*
X131686582Y-80957867D01*
X131644611Y-81157445D01*
X131588016Y-81363548D01*
X131502194Y-81609904D01*
X131344570Y-81942472D01*
X131151222Y-82240351D01*
X130925108Y-82500726D01*
X130669186Y-82720780D01*
X130386413Y-82897700D01*
X130079747Y-83028669D01*
X129752147Y-83110873D01*
X129748205Y-83111532D01*
X129508789Y-83134569D01*
X129245734Y-83131494D01*
X128977793Y-83104204D01*
X128723726Y-83054595D01*
X128502287Y-82984561D01*
X128407769Y-82941943D01*
X128284669Y-82877167D01*
X128158175Y-82803080D01*
X128041487Y-82727837D01*
X127947803Y-82659591D01*
X127890323Y-82606498D01*
X127877128Y-82591922D01*
X127861397Y-82586827D01*
X127850883Y-82612122D01*
X127843135Y-82675873D01*
X127835699Y-82786142D01*
X127822044Y-83015914D01*
X126776024Y-83023068D01*
X125730004Y-83030221D01*
X125802381Y-82906720D01*
X125806695Y-82899418D01*
X125827742Y-82865141D01*
X125846835Y-82834604D01*
X125864077Y-82805156D01*
X125879572Y-82774143D01*
X125893421Y-82738912D01*
X125905728Y-82696811D01*
X125916595Y-82645187D01*
X125926125Y-82581386D01*
X125934420Y-82502756D01*
X125941584Y-82406644D01*
X125947720Y-82290398D01*
X125952929Y-82151363D01*
X125957315Y-81986887D01*
X125960980Y-81794318D01*
X125964028Y-81571002D01*
X125966560Y-81314286D01*
X125968680Y-81021519D01*
X125970491Y-80690045D01*
X125972094Y-80317214D01*
X125973594Y-79900371D01*
X125975092Y-79436864D01*
X125976692Y-78924041D01*
X125978101Y-78482706D01*
X127958603Y-78482706D01*
X127958603Y-81321805D01*
X128095162Y-81411376D01*
X128147677Y-81443643D01*
X128267925Y-81508102D01*
X128381936Y-81559433D01*
X128431866Y-81576813D01*
X128590739Y-81611510D01*
X128791613Y-81629228D01*
X128893758Y-81632915D01*
X128988573Y-81632077D01*
X129059153Y-81622607D01*
X129122460Y-81601909D01*
X129195454Y-81567385D01*
X129335734Y-81474906D01*
X129457262Y-81344086D01*
X129554542Y-81175502D01*
X129628497Y-80966510D01*
X129680054Y-80714467D01*
X129710138Y-80416732D01*
X129719675Y-80070662D01*
X129719211Y-79991984D01*
X129705500Y-79627441D01*
X129672207Y-79310239D01*
X129618523Y-79037031D01*
X129543636Y-78804471D01*
X129446738Y-78609211D01*
X129327019Y-78447906D01*
X129277351Y-78398676D01*
X129123423Y-78296113D01*
X128942727Y-78233701D01*
X128743091Y-78211796D01*
X128532342Y-78230751D01*
X128318308Y-78290923D01*
X128108818Y-78392665D01*
X127958603Y-78482706D01*
X125978101Y-78482706D01*
X125978495Y-78359247D01*
X125992151Y-74194193D01*
X127077796Y-74187052D01*
X127156746Y-74186571D01*
X127389033Y-74185618D01*
X127601494Y-74185424D01*
X127788331Y-74185951D01*
X127943743Y-74187158D01*
X128061931Y-74189006D01*
X128137097Y-74191455D01*
X128163441Y-74194466D01*
X128160071Y-74204008D01*
X128134929Y-74249245D01*
X128093287Y-74315031D01*
X128089133Y-74321321D01*
X128056846Y-74372115D01*
X128029775Y-74421536D01*
X128007461Y-74474674D01*
X127989445Y-74536620D01*
X127975267Y-74612465D01*
X127964469Y-74707299D01*
X127956591Y-74826212D01*
X127951175Y-74974296D01*
X127947762Y-75156641D01*
X127945892Y-75378337D01*
X127945106Y-75644476D01*
X127944947Y-75960147D01*
X127945233Y-76206607D01*
X127946109Y-76448574D01*
X127947512Y-76667973D01*
X127949379Y-76859462D01*
X127951645Y-77017698D01*
X127954247Y-77137339D01*
X127957121Y-77213041D01*
X127960204Y-77239462D01*
X127970147Y-77235361D01*
X128013856Y-77206484D01*
X128076279Y-77159058D01*
X128166776Y-77095280D01*
X128336805Y-77001307D01*
X128531143Y-76917482D01*
X128731648Y-76852295D01*
X128900108Y-76819055D01*
X129109916Y-76797866D01*
X129336986Y-76790525D01*
X129563795Y-76797041D01*
X129772822Y-76817422D01*
X129946541Y-76851678D01*
X130123426Y-76909382D01*
X130418513Y-77049268D01*
X130691741Y-77235237D01*
X130938070Y-77463007D01*
X131152460Y-77728296D01*
X131329869Y-78026822D01*
X131373913Y-78118363D01*
X131497339Y-78427137D01*
X131593836Y-78762257D01*
X131664622Y-79129628D01*
X131710918Y-79535158D01*
X131733942Y-79984756D01*
X131735011Y-80070662D01*
X131737577Y-80277045D01*
G37*
X137910953Y-81136464D02*
X137898687Y-81356678D01*
X137872177Y-81561576D01*
X137832175Y-81732258D01*
X137768347Y-81907864D01*
X137620394Y-82197261D01*
X137431279Y-82451876D01*
X137202961Y-82669974D01*
X136937397Y-82849819D01*
X136636546Y-82989676D01*
X136302366Y-83087811D01*
X136166096Y-83109945D01*
X135971368Y-83125327D01*
X135759296Y-83128787D01*
X135547603Y-83120602D01*
X135354009Y-83101051D01*
X135196237Y-83070414D01*
X135116957Y-83046293D01*
X134936900Y-82975706D01*
X134753867Y-82886089D01*
X134586743Y-82787160D01*
X134454411Y-82688638D01*
X134452785Y-82687216D01*
X134380269Y-82625731D01*
X134324477Y-82581950D01*
X134297368Y-82565269D01*
X134294404Y-82569251D01*
X134287698Y-82612271D01*
X134283037Y-82692507D01*
X134281291Y-82797419D01*
X134281291Y-83029570D01*
X133257097Y-83029570D01*
X133229833Y-83029565D01*
X133001168Y-83029165D01*
X132791300Y-83028170D01*
X132606200Y-83026653D01*
X132451839Y-83024689D01*
X132334189Y-83022351D01*
X132259220Y-83019715D01*
X132232904Y-83016854D01*
X132233517Y-83014354D01*
X132250734Y-82977448D01*
X132286825Y-82908111D01*
X132335323Y-82818843D01*
X132437742Y-82633548D01*
X132452760Y-80804155D01*
X134390538Y-80804155D01*
X134391300Y-80948692D01*
X134394991Y-81100560D01*
X134402222Y-81210333D01*
X134413519Y-81285157D01*
X134429409Y-81332181D01*
X134449849Y-81365760D01*
X134526825Y-81457295D01*
X134629963Y-81552589D01*
X134743005Y-81637496D01*
X134849694Y-81697869D01*
X134908888Y-81720021D01*
X135045186Y-81749514D01*
X135223202Y-81764593D01*
X135410887Y-81762309D01*
X135589115Y-81731294D01*
X135737880Y-81667221D01*
X135866589Y-81567203D01*
X135902796Y-81530208D01*
X135997065Y-81404042D01*
X136048070Y-81268053D01*
X136063388Y-81104420D01*
X136059238Y-81017972D01*
X136018199Y-80840010D01*
X135931986Y-80687262D01*
X135799027Y-80558010D01*
X135617754Y-80450535D01*
X135386598Y-80363118D01*
X135293409Y-80340177D01*
X135180593Y-80324469D01*
X135038614Y-80315746D01*
X134854839Y-80312813D01*
X134824986Y-80312815D01*
X134687500Y-80314493D01*
X134569400Y-80318550D01*
X134482430Y-80324453D01*
X134438334Y-80331670D01*
X134433260Y-80334013D01*
X134416854Y-80348726D01*
X134405235Y-80378292D01*
X134397598Y-80430666D01*
X134393140Y-80513799D01*
X134391054Y-80635644D01*
X134390538Y-80804155D01*
X132452760Y-80804155D01*
X132453549Y-80708064D01*
X132455898Y-80427618D01*
X132459185Y-80069947D01*
X132462635Y-79759437D01*
X132466527Y-79491698D01*
X132471139Y-79262336D01*
X132476752Y-79066962D01*
X132483642Y-78901183D01*
X132492089Y-78760609D01*
X132502373Y-78640847D01*
X132514770Y-78537508D01*
X132529561Y-78446199D01*
X132547023Y-78362529D01*
X132567436Y-78282107D01*
X132591079Y-78200541D01*
X132618229Y-78113441D01*
X132725189Y-77840384D01*
X132871666Y-77588022D01*
X133054084Y-77371962D01*
X133274112Y-77191072D01*
X133533420Y-77044222D01*
X133833679Y-76930283D01*
X134176558Y-76848122D01*
X134563728Y-76796611D01*
X134699049Y-76786368D01*
X134926951Y-76778878D01*
X135152838Y-76785623D01*
X135387285Y-76807738D01*
X135640868Y-76846362D01*
X135924162Y-76902631D01*
X136247742Y-76977683D01*
X136322537Y-76995842D01*
X136510367Y-77040528D01*
X136688392Y-77081673D01*
X136845817Y-77116847D01*
X136971846Y-77143619D01*
X137055681Y-77159559D01*
X137249103Y-77191328D01*
X136977176Y-77850395D01*
X136909158Y-78014949D01*
X136842243Y-78176190D01*
X136784830Y-78313855D01*
X136739738Y-78421210D01*
X136709785Y-78491518D01*
X136697789Y-78518043D01*
X136695903Y-78518423D01*
X136661142Y-78506580D01*
X136592789Y-78476231D01*
X136503176Y-78432778D01*
X136316918Y-78348155D01*
X136060615Y-78255629D01*
X135798290Y-78184772D01*
X135540200Y-78137363D01*
X135296606Y-78115183D01*
X135077765Y-78120010D01*
X134893936Y-78153624D01*
X134765636Y-78206960D01*
X134619927Y-78316262D01*
X134507759Y-78464543D01*
X134432343Y-78647243D01*
X134396891Y-78859798D01*
X134384406Y-79055699D01*
X135036128Y-79057483D01*
X135255913Y-79059326D01*
X135499011Y-79065871D01*
X135706683Y-79078224D01*
X135889671Y-79097585D01*
X136058718Y-79125155D01*
X136224566Y-79162136D01*
X136397957Y-79209727D01*
X136657393Y-79300314D01*
X136962543Y-79449492D01*
X137230352Y-79632221D01*
X137458177Y-79845932D01*
X137643377Y-80088054D01*
X137783310Y-80356017D01*
X137875336Y-80647252D01*
X137889748Y-80725689D01*
X137908224Y-80919834D01*
X137910550Y-81104420D01*
X137910953Y-81136464D01*
G36*
X137910953Y-81136464D02*
G01*
X137898687Y-81356678D01*
X137872177Y-81561576D01*
X137832175Y-81732258D01*
X137768347Y-81907864D01*
X137620394Y-82197261D01*
X137431279Y-82451876D01*
X137202961Y-82669974D01*
X136937397Y-82849819D01*
X136636546Y-82989676D01*
X136302366Y-83087811D01*
X136166096Y-83109945D01*
X135971368Y-83125327D01*
X135759296Y-83128787D01*
X135547603Y-83120602D01*
X135354009Y-83101051D01*
X135196237Y-83070414D01*
X135116957Y-83046293D01*
X134936900Y-82975706D01*
X134753867Y-82886089D01*
X134586743Y-82787160D01*
X134454411Y-82688638D01*
X134452785Y-82687216D01*
X134380269Y-82625731D01*
X134324477Y-82581950D01*
X134297368Y-82565269D01*
X134294404Y-82569251D01*
X134287698Y-82612271D01*
X134283037Y-82692507D01*
X134281291Y-82797419D01*
X134281291Y-83029570D01*
X133257097Y-83029570D01*
X133229833Y-83029565D01*
X133001168Y-83029165D01*
X132791300Y-83028170D01*
X132606200Y-83026653D01*
X132451839Y-83024689D01*
X132334189Y-83022351D01*
X132259220Y-83019715D01*
X132232904Y-83016854D01*
X132233517Y-83014354D01*
X132250734Y-82977448D01*
X132286825Y-82908111D01*
X132335323Y-82818843D01*
X132437742Y-82633548D01*
X132452760Y-80804155D01*
X134390538Y-80804155D01*
X134391300Y-80948692D01*
X134394991Y-81100560D01*
X134402222Y-81210333D01*
X134413519Y-81285157D01*
X134429409Y-81332181D01*
X134449849Y-81365760D01*
X134526825Y-81457295D01*
X134629963Y-81552589D01*
X134743005Y-81637496D01*
X134849694Y-81697869D01*
X134908888Y-81720021D01*
X135045186Y-81749514D01*
X135223202Y-81764593D01*
X135410887Y-81762309D01*
X135589115Y-81731294D01*
X135737880Y-81667221D01*
X135866589Y-81567203D01*
X135902796Y-81530208D01*
X135997065Y-81404042D01*
X136048070Y-81268053D01*
X136063388Y-81104420D01*
X136059238Y-81017972D01*
X136018199Y-80840010D01*
X135931986Y-80687262D01*
X135799027Y-80558010D01*
X135617754Y-80450535D01*
X135386598Y-80363118D01*
X135293409Y-80340177D01*
X135180593Y-80324469D01*
X135038614Y-80315746D01*
X134854839Y-80312813D01*
X134824986Y-80312815D01*
X134687500Y-80314493D01*
X134569400Y-80318550D01*
X134482430Y-80324453D01*
X134438334Y-80331670D01*
X134433260Y-80334013D01*
X134416854Y-80348726D01*
X134405235Y-80378292D01*
X134397598Y-80430666D01*
X134393140Y-80513799D01*
X134391054Y-80635644D01*
X134390538Y-80804155D01*
X132452760Y-80804155D01*
X132453549Y-80708064D01*
X132455898Y-80427618D01*
X132459185Y-80069947D01*
X132462635Y-79759437D01*
X132466527Y-79491698D01*
X132471139Y-79262336D01*
X132476752Y-79066962D01*
X132483642Y-78901183D01*
X132492089Y-78760609D01*
X132502373Y-78640847D01*
X132514770Y-78537508D01*
X132529561Y-78446199D01*
X132547023Y-78362529D01*
X132567436Y-78282107D01*
X132591079Y-78200541D01*
X132618229Y-78113441D01*
X132725189Y-77840384D01*
X132871666Y-77588022D01*
X133054084Y-77371962D01*
X133274112Y-77191072D01*
X133533420Y-77044222D01*
X133833679Y-76930283D01*
X134176558Y-76848122D01*
X134563728Y-76796611D01*
X134699049Y-76786368D01*
X134926951Y-76778878D01*
X135152838Y-76785623D01*
X135387285Y-76807738D01*
X135640868Y-76846362D01*
X135924162Y-76902631D01*
X136247742Y-76977683D01*
X136322537Y-76995842D01*
X136510367Y-77040528D01*
X136688392Y-77081673D01*
X136845817Y-77116847D01*
X136971846Y-77143619D01*
X137055681Y-77159559D01*
X137249103Y-77191328D01*
X136977176Y-77850395D01*
X136909158Y-78014949D01*
X136842243Y-78176190D01*
X136784830Y-78313855D01*
X136739738Y-78421210D01*
X136709785Y-78491518D01*
X136697789Y-78518043D01*
X136695903Y-78518423D01*
X136661142Y-78506580D01*
X136592789Y-78476231D01*
X136503176Y-78432778D01*
X136316918Y-78348155D01*
X136060615Y-78255629D01*
X135798290Y-78184772D01*
X135540200Y-78137363D01*
X135296606Y-78115183D01*
X135077765Y-78120010D01*
X134893936Y-78153624D01*
X134765636Y-78206960D01*
X134619927Y-78316262D01*
X134507759Y-78464543D01*
X134432343Y-78647243D01*
X134396891Y-78859798D01*
X134384406Y-79055699D01*
X135036128Y-79057483D01*
X135255913Y-79059326D01*
X135499011Y-79065871D01*
X135706683Y-79078224D01*
X135889671Y-79097585D01*
X136058718Y-79125155D01*
X136224566Y-79162136D01*
X136397957Y-79209727D01*
X136657393Y-79300314D01*
X136962543Y-79449492D01*
X137230352Y-79632221D01*
X137458177Y-79845932D01*
X137643377Y-80088054D01*
X137783310Y-80356017D01*
X137875336Y-80647252D01*
X137889748Y-80725689D01*
X137908224Y-80919834D01*
X137910550Y-81104420D01*
X137910953Y-81136464D01*
G37*
X156233547Y-83083553D02*
X156230735Y-83295348D01*
X156227245Y-83477789D01*
X156223005Y-83633135D01*
X156217945Y-83763644D01*
X156211994Y-83871574D01*
X156205080Y-83959185D01*
X156197133Y-84028733D01*
X156188080Y-84082479D01*
X156177852Y-84122679D01*
X156166377Y-84151594D01*
X156153584Y-84171480D01*
X156139402Y-84184597D01*
X156123760Y-84193203D01*
X156106587Y-84199557D01*
X156087812Y-84205916D01*
X156067363Y-84214540D01*
X156055857Y-84218862D01*
X156034752Y-84223581D01*
X156003391Y-84227905D01*
X155959558Y-84231851D01*
X155901034Y-84235436D01*
X155825600Y-84238678D01*
X155731037Y-84241594D01*
X155615127Y-84244201D01*
X155475652Y-84246516D01*
X155310394Y-84248557D01*
X155117133Y-84250341D01*
X154893652Y-84251886D01*
X154637732Y-84253209D01*
X154347154Y-84254327D01*
X154019700Y-84255258D01*
X153653151Y-84256018D01*
X153245290Y-84256626D01*
X152793897Y-84257098D01*
X152296755Y-84257453D01*
X151751644Y-84257706D01*
X151156347Y-84257876D01*
X150508644Y-84257980D01*
X150303389Y-84258000D01*
X149669743Y-84258013D01*
X149087856Y-84257934D01*
X148555535Y-84257745D01*
X148070588Y-84257432D01*
X147630822Y-84256979D01*
X147234047Y-84256369D01*
X146878068Y-84255587D01*
X146560694Y-84254617D01*
X146279734Y-84253443D01*
X146032993Y-84252049D01*
X145818281Y-84250419D01*
X145633406Y-84248537D01*
X145476174Y-84246387D01*
X145344394Y-84243954D01*
X145235873Y-84241221D01*
X145148420Y-84238173D01*
X145079842Y-84234793D01*
X145027946Y-84231066D01*
X144990541Y-84226976D01*
X144965434Y-84222506D01*
X144950434Y-84217642D01*
X144945661Y-84215477D01*
X144926123Y-84208366D01*
X144908206Y-84203173D01*
X144891837Y-84197636D01*
X144876943Y-84189493D01*
X144863453Y-84176484D01*
X144851293Y-84156346D01*
X144840390Y-84126818D01*
X144830673Y-84085638D01*
X144822068Y-84030544D01*
X144814502Y-83959275D01*
X144807904Y-83869569D01*
X144802200Y-83759164D01*
X144797318Y-83625800D01*
X144793185Y-83467213D01*
X144789729Y-83281143D01*
X144786876Y-83065328D01*
X144785940Y-82965391D01*
X145506153Y-82965391D01*
X145506943Y-82974961D01*
X145521430Y-82982717D01*
X145554162Y-82988849D01*
X145609685Y-82993546D01*
X145692548Y-82997000D01*
X145807298Y-82999400D01*
X145958482Y-83000935D01*
X146150647Y-83001797D01*
X146388341Y-83002174D01*
X146676111Y-83002258D01*
X147881548Y-83002258D01*
X147677742Y-82633548D01*
X147677742Y-77280430D01*
X147881548Y-76911720D01*
X145726871Y-76911720D01*
X145719081Y-79745322D01*
X145711291Y-82578925D01*
X145634908Y-82742055D01*
X145594637Y-82822910D01*
X145549036Y-82903907D01*
X145514599Y-82953721D01*
X145514513Y-82953817D01*
X145506153Y-82965391D01*
X144785940Y-82965391D01*
X144784555Y-82817506D01*
X144782693Y-82535415D01*
X144781216Y-82216795D01*
X144780053Y-81859382D01*
X144779131Y-81460917D01*
X144778376Y-81019136D01*
X144777717Y-80531778D01*
X144777081Y-79996582D01*
X144776395Y-79411287D01*
X144775587Y-78773629D01*
X144775482Y-78696433D01*
X144774581Y-78062817D01*
X144773719Y-77481298D01*
X144772960Y-76949614D01*
X144772368Y-76465502D01*
X144772007Y-76026700D01*
X144771940Y-75630946D01*
X144772232Y-75275975D01*
X144772947Y-74959527D01*
X144774147Y-74679337D01*
X144775897Y-74433144D01*
X144778260Y-74218684D01*
X144781302Y-74033696D01*
X144785084Y-73875916D01*
X144789671Y-73743082D01*
X144795127Y-73632930D01*
X144801516Y-73543199D01*
X144808901Y-73471626D01*
X144817346Y-73415947D01*
X144826915Y-73373901D01*
X144837672Y-73343225D01*
X144849681Y-73321655D01*
X144863005Y-73306930D01*
X144877708Y-73296787D01*
X144893855Y-73288962D01*
X144911508Y-73281194D01*
X144930731Y-73271219D01*
X144936356Y-73268040D01*
X145021470Y-73237273D01*
X145114645Y-73224628D01*
X145219678Y-73224632D01*
X145221428Y-73463606D01*
X145221872Y-73491106D01*
X145255256Y-73770643D01*
X145340284Y-74033661D01*
X145475773Y-74277376D01*
X145660543Y-74499001D01*
X145759696Y-74589393D01*
X145980469Y-74739217D01*
X146221353Y-74843697D01*
X146475333Y-74902776D01*
X146735393Y-74916399D01*
X146994517Y-74884510D01*
X147245690Y-74807052D01*
X147452166Y-74699462D01*
X148365998Y-74699462D01*
X148486171Y-74785921D01*
X148587805Y-74867180D01*
X148731016Y-74999720D01*
X148893452Y-75165830D01*
X149068963Y-75359180D01*
X149251398Y-75573441D01*
X149298379Y-75630738D01*
X149378366Y-75729010D01*
X149482921Y-75857939D01*
X149608579Y-76013221D01*
X149751877Y-76190554D01*
X149909350Y-76385633D01*
X150077536Y-76594157D01*
X150252969Y-76811821D01*
X150333435Y-76911720D01*
X150432187Y-77034323D01*
X150611726Y-77257359D01*
X150788121Y-77476627D01*
X150957909Y-77687822D01*
X151117626Y-77886643D01*
X151263808Y-78068784D01*
X151392992Y-78229945D01*
X151501713Y-78365820D01*
X151586508Y-78472108D01*
X151643913Y-78544504D01*
X151670464Y-78578706D01*
X151672655Y-78591559D01*
X151665366Y-78616004D01*
X151646477Y-78654463D01*
X151614103Y-78709662D01*
X151566357Y-78784331D01*
X151501355Y-78881196D01*
X151417212Y-79002986D01*
X151312041Y-79152430D01*
X151183957Y-79332254D01*
X151031075Y-79545187D01*
X150851508Y-79793957D01*
X150643372Y-80081292D01*
X150404782Y-80409920D01*
X150214675Y-80671504D01*
X149982740Y-80990397D01*
X149778722Y-81270446D01*
X149600251Y-81514760D01*
X149444952Y-81726446D01*
X149310454Y-81908614D01*
X149194383Y-82064370D01*
X149094367Y-82196823D01*
X149008034Y-82309081D01*
X148933011Y-82404251D01*
X148866925Y-82485443D01*
X148807404Y-82555764D01*
X148752076Y-82618322D01*
X148698566Y-82676225D01*
X148644504Y-82732582D01*
X148587516Y-82790500D01*
X148377505Y-83002258D01*
X149789236Y-83002315D01*
X151200968Y-83002372D01*
X151192097Y-82831274D01*
X151191667Y-82822677D01*
X151189983Y-82754277D01*
X151193175Y-82688742D01*
X151203378Y-82622480D01*
X151222728Y-82551903D01*
X151253359Y-82473420D01*
X151297407Y-82383441D01*
X151357007Y-82278378D01*
X151434295Y-82154640D01*
X151531405Y-82008637D01*
X151650473Y-81836780D01*
X151793635Y-81635478D01*
X151963025Y-81401143D01*
X152160779Y-81130183D01*
X152389033Y-80819010D01*
X153194732Y-79722123D01*
X153201830Y-80993932D01*
X153202459Y-81112566D01*
X153203569Y-81432112D01*
X153203064Y-81703907D01*
X153200352Y-81933095D01*
X153194837Y-82124820D01*
X153185926Y-82284225D01*
X153173025Y-82416453D01*
X153155540Y-82526648D01*
X153132877Y-82619953D01*
X153104441Y-82701512D01*
X153069640Y-82776469D01*
X153027878Y-82849968D01*
X152978561Y-82927150D01*
X152928987Y-83002258D01*
X155505361Y-83002258D01*
X155438811Y-82913494D01*
X155428389Y-82899452D01*
X155345064Y-82770750D01*
X155287624Y-82640647D01*
X155249905Y-82491568D01*
X155225745Y-82305941D01*
X155225082Y-82297849D01*
X155221576Y-82221283D01*
X155218410Y-82093535D01*
X155215599Y-81917527D01*
X155213156Y-81696177D01*
X155211094Y-81432404D01*
X155209429Y-81129127D01*
X155208172Y-80789265D01*
X155207338Y-80415738D01*
X155206941Y-80011464D01*
X155206994Y-79579362D01*
X155207512Y-79122353D01*
X155208508Y-78643354D01*
X155209562Y-78213691D01*
X155210690Y-77745994D01*
X155211801Y-77327543D01*
X155213033Y-76955409D01*
X155214527Y-76626658D01*
X155216422Y-76338359D01*
X155218857Y-76087581D01*
X155221971Y-75871393D01*
X155225904Y-75686861D01*
X155230796Y-75531055D01*
X155236786Y-75401043D01*
X155244013Y-75293894D01*
X155252616Y-75206675D01*
X155262736Y-75136455D01*
X155274511Y-75080303D01*
X155288081Y-75035286D01*
X155303586Y-74998474D01*
X155321164Y-74966933D01*
X155340955Y-74937734D01*
X155363099Y-74907944D01*
X155387735Y-74874631D01*
X155411564Y-74841248D01*
X155457620Y-74775243D01*
X155485208Y-74733602D01*
X155485874Y-74731858D01*
X155476241Y-74723983D01*
X155442248Y-74717413D01*
X155380111Y-74712045D01*
X155286048Y-74707780D01*
X155156276Y-74704517D01*
X154987014Y-74702154D01*
X154774477Y-74700591D01*
X154514885Y-74699728D01*
X154204453Y-74699462D01*
X152903102Y-74699462D01*
X152971687Y-74780972D01*
X153011437Y-74836954D01*
X153077602Y-74968950D01*
X153135584Y-75133117D01*
X153179838Y-75315220D01*
X153182659Y-75332508D01*
X153191051Y-75423644D01*
X153197407Y-75564493D01*
X153201742Y-75756030D01*
X153204074Y-75999230D01*
X153204420Y-76295069D01*
X153202796Y-76644522D01*
X153194732Y-77811195D01*
X152361721Y-76757783D01*
X152337862Y-76727609D01*
X152126618Y-76460185D01*
X151946273Y-76231160D01*
X151793955Y-76036642D01*
X151666796Y-75872735D01*
X151561923Y-75735547D01*
X151476469Y-75621181D01*
X151407561Y-75525746D01*
X151352331Y-75445345D01*
X151307909Y-75376086D01*
X151271423Y-75314074D01*
X151240004Y-75255416D01*
X151210782Y-75196216D01*
X151165828Y-75091426D01*
X151136788Y-74980883D01*
X151129064Y-74861646D01*
X151129840Y-74699462D01*
X148365998Y-74699462D01*
X147452166Y-74699462D01*
X147481895Y-74683971D01*
X147696118Y-74515210D01*
X147755670Y-74455714D01*
X147931686Y-74235424D01*
X148056584Y-73996359D01*
X148131032Y-73736976D01*
X148155699Y-73455734D01*
X148155699Y-73224623D01*
X152076303Y-73224623D01*
X152321244Y-73224613D01*
X152847446Y-73224541D01*
X153322794Y-73224490D01*
X153749918Y-73224561D01*
X154131445Y-73224860D01*
X154470004Y-73225491D01*
X154768224Y-73226556D01*
X155028733Y-73228161D01*
X155254161Y-73230409D01*
X155447135Y-73233404D01*
X155610284Y-73237250D01*
X155746238Y-73242050D01*
X155857624Y-73247910D01*
X155947071Y-73254932D01*
X156017208Y-73263221D01*
X156070663Y-73272880D01*
X156110065Y-73284014D01*
X156138043Y-73296726D01*
X156157226Y-73311121D01*
X156170241Y-73327301D01*
X156179718Y-73345372D01*
X156188285Y-73365437D01*
X156198570Y-73387600D01*
X156198755Y-73387962D01*
X156203749Y-73402470D01*
X156208330Y-73426764D01*
X156212515Y-73463084D01*
X156216321Y-73513674D01*
X156219767Y-73580775D01*
X156222869Y-73666629D01*
X156225645Y-73773478D01*
X156228113Y-73903564D01*
X156230288Y-74059128D01*
X156232190Y-74242413D01*
X156233836Y-74455661D01*
X156235242Y-74701113D01*
X156236426Y-74981012D01*
X156237406Y-75297599D01*
X156238198Y-75653116D01*
X156238822Y-76049805D01*
X156239292Y-76489909D01*
X156239628Y-76975668D01*
X156239847Y-77509325D01*
X156239965Y-78093122D01*
X156240000Y-78729301D01*
X156240002Y-78854279D01*
X156240062Y-79483828D01*
X156240156Y-80061438D01*
X156240211Y-80589368D01*
X156240156Y-81069877D01*
X156239922Y-81505223D01*
X156239435Y-81897664D01*
X156238625Y-82249459D01*
X156237421Y-82562867D01*
X156235752Y-82840145D01*
X156234283Y-83002258D01*
X156233547Y-83083553D01*
G36*
X156233547Y-83083553D02*
G01*
X156230735Y-83295348D01*
X156227245Y-83477789D01*
X156223005Y-83633135D01*
X156217945Y-83763644D01*
X156211994Y-83871574D01*
X156205080Y-83959185D01*
X156197133Y-84028733D01*
X156188080Y-84082479D01*
X156177852Y-84122679D01*
X156166377Y-84151594D01*
X156153584Y-84171480D01*
X156139402Y-84184597D01*
X156123760Y-84193203D01*
X156106587Y-84199557D01*
X156087812Y-84205916D01*
X156067363Y-84214540D01*
X156055857Y-84218862D01*
X156034752Y-84223581D01*
X156003391Y-84227905D01*
X155959558Y-84231851D01*
X155901034Y-84235436D01*
X155825600Y-84238678D01*
X155731037Y-84241594D01*
X155615127Y-84244201D01*
X155475652Y-84246516D01*
X155310394Y-84248557D01*
X155117133Y-84250341D01*
X154893652Y-84251886D01*
X154637732Y-84253209D01*
X154347154Y-84254327D01*
X154019700Y-84255258D01*
X153653151Y-84256018D01*
X153245290Y-84256626D01*
X152793897Y-84257098D01*
X152296755Y-84257453D01*
X151751644Y-84257706D01*
X151156347Y-84257876D01*
X150508644Y-84257980D01*
X150303389Y-84258000D01*
X149669743Y-84258013D01*
X149087856Y-84257934D01*
X148555535Y-84257745D01*
X148070588Y-84257432D01*
X147630822Y-84256979D01*
X147234047Y-84256369D01*
X146878068Y-84255587D01*
X146560694Y-84254617D01*
X146279734Y-84253443D01*
X146032993Y-84252049D01*
X145818281Y-84250419D01*
X145633406Y-84248537D01*
X145476174Y-84246387D01*
X145344394Y-84243954D01*
X145235873Y-84241221D01*
X145148420Y-84238173D01*
X145079842Y-84234793D01*
X145027946Y-84231066D01*
X144990541Y-84226976D01*
X144965434Y-84222506D01*
X144950434Y-84217642D01*
X144945661Y-84215477D01*
X144926123Y-84208366D01*
X144908206Y-84203173D01*
X144891837Y-84197636D01*
X144876943Y-84189493D01*
X144863453Y-84176484D01*
X144851293Y-84156346D01*
X144840390Y-84126818D01*
X144830673Y-84085638D01*
X144822068Y-84030544D01*
X144814502Y-83959275D01*
X144807904Y-83869569D01*
X144802200Y-83759164D01*
X144797318Y-83625800D01*
X144793185Y-83467213D01*
X144789729Y-83281143D01*
X144786876Y-83065328D01*
X144785940Y-82965391D01*
X145506153Y-82965391D01*
X145506943Y-82974961D01*
X145521430Y-82982717D01*
X145554162Y-82988849D01*
X145609685Y-82993546D01*
X145692548Y-82997000D01*
X145807298Y-82999400D01*
X145958482Y-83000935D01*
X146150647Y-83001797D01*
X146388341Y-83002174D01*
X146676111Y-83002258D01*
X147881548Y-83002258D01*
X147677742Y-82633548D01*
X147677742Y-77280430D01*
X147881548Y-76911720D01*
X145726871Y-76911720D01*
X145719081Y-79745322D01*
X145711291Y-82578925D01*
X145634908Y-82742055D01*
X145594637Y-82822910D01*
X145549036Y-82903907D01*
X145514599Y-82953721D01*
X145514513Y-82953817D01*
X145506153Y-82965391D01*
X144785940Y-82965391D01*
X144784555Y-82817506D01*
X144782693Y-82535415D01*
X144781216Y-82216795D01*
X144780053Y-81859382D01*
X144779131Y-81460917D01*
X144778376Y-81019136D01*
X144777717Y-80531778D01*
X144777081Y-79996582D01*
X144776395Y-79411287D01*
X144775587Y-78773629D01*
X144775482Y-78696433D01*
X144774581Y-78062817D01*
X144773719Y-77481298D01*
X144772960Y-76949614D01*
X144772368Y-76465502D01*
X144772007Y-76026700D01*
X144771940Y-75630946D01*
X144772232Y-75275975D01*
X144772947Y-74959527D01*
X144774147Y-74679337D01*
X144775897Y-74433144D01*
X144778260Y-74218684D01*
X144781302Y-74033696D01*
X144785084Y-73875916D01*
X144789671Y-73743082D01*
X144795127Y-73632930D01*
X144801516Y-73543199D01*
X144808901Y-73471626D01*
X144817346Y-73415947D01*
X144826915Y-73373901D01*
X144837672Y-73343225D01*
X144849681Y-73321655D01*
X144863005Y-73306930D01*
X144877708Y-73296787D01*
X144893855Y-73288962D01*
X144911508Y-73281194D01*
X144930731Y-73271219D01*
X144936356Y-73268040D01*
X145021470Y-73237273D01*
X145114645Y-73224628D01*
X145219678Y-73224632D01*
X145221428Y-73463606D01*
X145221872Y-73491106D01*
X145255256Y-73770643D01*
X145340284Y-74033661D01*
X145475773Y-74277376D01*
X145660543Y-74499001D01*
X145759696Y-74589393D01*
X145980469Y-74739217D01*
X146221353Y-74843697D01*
X146475333Y-74902776D01*
X146735393Y-74916399D01*
X146994517Y-74884510D01*
X147245690Y-74807052D01*
X147452166Y-74699462D01*
X148365998Y-74699462D01*
X148486171Y-74785921D01*
X148587805Y-74867180D01*
X148731016Y-74999720D01*
X148893452Y-75165830D01*
X149068963Y-75359180D01*
X149251398Y-75573441D01*
X149298379Y-75630738D01*
X149378366Y-75729010D01*
X149482921Y-75857939D01*
X149608579Y-76013221D01*
X149751877Y-76190554D01*
X149909350Y-76385633D01*
X150077536Y-76594157D01*
X150252969Y-76811821D01*
X150333435Y-76911720D01*
X150432187Y-77034323D01*
X150611726Y-77257359D01*
X150788121Y-77476627D01*
X150957909Y-77687822D01*
X151117626Y-77886643D01*
X151263808Y-78068784D01*
X151392992Y-78229945D01*
X151501713Y-78365820D01*
X151586508Y-78472108D01*
X151643913Y-78544504D01*
X151670464Y-78578706D01*
X151672655Y-78591559D01*
X151665366Y-78616004D01*
X151646477Y-78654463D01*
X151614103Y-78709662D01*
X151566357Y-78784331D01*
X151501355Y-78881196D01*
X151417212Y-79002986D01*
X151312041Y-79152430D01*
X151183957Y-79332254D01*
X151031075Y-79545187D01*
X150851508Y-79793957D01*
X150643372Y-80081292D01*
X150404782Y-80409920D01*
X150214675Y-80671504D01*
X149982740Y-80990397D01*
X149778722Y-81270446D01*
X149600251Y-81514760D01*
X149444952Y-81726446D01*
X149310454Y-81908614D01*
X149194383Y-82064370D01*
X149094367Y-82196823D01*
X149008034Y-82309081D01*
X148933011Y-82404251D01*
X148866925Y-82485443D01*
X148807404Y-82555764D01*
X148752076Y-82618322D01*
X148698566Y-82676225D01*
X148644504Y-82732582D01*
X148587516Y-82790500D01*
X148377505Y-83002258D01*
X149789236Y-83002315D01*
X151200968Y-83002372D01*
X151192097Y-82831274D01*
X151191667Y-82822677D01*
X151189983Y-82754277D01*
X151193175Y-82688742D01*
X151203378Y-82622480D01*
X151222728Y-82551903D01*
X151253359Y-82473420D01*
X151297407Y-82383441D01*
X151357007Y-82278378D01*
X151434295Y-82154640D01*
X151531405Y-82008637D01*
X151650473Y-81836780D01*
X151793635Y-81635478D01*
X151963025Y-81401143D01*
X152160779Y-81130183D01*
X152389033Y-80819010D01*
X153194732Y-79722123D01*
X153201830Y-80993932D01*
X153202459Y-81112566D01*
X153203569Y-81432112D01*
X153203064Y-81703907D01*
X153200352Y-81933095D01*
X153194837Y-82124820D01*
X153185926Y-82284225D01*
X153173025Y-82416453D01*
X153155540Y-82526648D01*
X153132877Y-82619953D01*
X153104441Y-82701512D01*
X153069640Y-82776469D01*
X153027878Y-82849968D01*
X152978561Y-82927150D01*
X152928987Y-83002258D01*
X155505361Y-83002258D01*
X155438811Y-82913494D01*
X155428389Y-82899452D01*
X155345064Y-82770750D01*
X155287624Y-82640647D01*
X155249905Y-82491568D01*
X155225745Y-82305941D01*
X155225082Y-82297849D01*
X155221576Y-82221283D01*
X155218410Y-82093535D01*
X155215599Y-81917527D01*
X155213156Y-81696177D01*
X155211094Y-81432404D01*
X155209429Y-81129127D01*
X155208172Y-80789265D01*
X155207338Y-80415738D01*
X155206941Y-80011464D01*
X155206994Y-79579362D01*
X155207512Y-79122353D01*
X155208508Y-78643354D01*
X155209562Y-78213691D01*
X155210690Y-77745994D01*
X155211801Y-77327543D01*
X155213033Y-76955409D01*
X155214527Y-76626658D01*
X155216422Y-76338359D01*
X155218857Y-76087581D01*
X155221971Y-75871393D01*
X155225904Y-75686861D01*
X155230796Y-75531055D01*
X155236786Y-75401043D01*
X155244013Y-75293894D01*
X155252616Y-75206675D01*
X155262736Y-75136455D01*
X155274511Y-75080303D01*
X155288081Y-75035286D01*
X155303586Y-74998474D01*
X155321164Y-74966933D01*
X155340955Y-74937734D01*
X155363099Y-74907944D01*
X155387735Y-74874631D01*
X155411564Y-74841248D01*
X155457620Y-74775243D01*
X155485208Y-74733602D01*
X155485874Y-74731858D01*
X155476241Y-74723983D01*
X155442248Y-74717413D01*
X155380111Y-74712045D01*
X155286048Y-74707780D01*
X155156276Y-74704517D01*
X154987014Y-74702154D01*
X154774477Y-74700591D01*
X154514885Y-74699728D01*
X154204453Y-74699462D01*
X152903102Y-74699462D01*
X152971687Y-74780972D01*
X153011437Y-74836954D01*
X153077602Y-74968950D01*
X153135584Y-75133117D01*
X153179838Y-75315220D01*
X153182659Y-75332508D01*
X153191051Y-75423644D01*
X153197407Y-75564493D01*
X153201742Y-75756030D01*
X153204074Y-75999230D01*
X153204420Y-76295069D01*
X153202796Y-76644522D01*
X153194732Y-77811195D01*
X152361721Y-76757783D01*
X152337862Y-76727609D01*
X152126618Y-76460185D01*
X151946273Y-76231160D01*
X151793955Y-76036642D01*
X151666796Y-75872735D01*
X151561923Y-75735547D01*
X151476469Y-75621181D01*
X151407561Y-75525746D01*
X151352331Y-75445345D01*
X151307909Y-75376086D01*
X151271423Y-75314074D01*
X151240004Y-75255416D01*
X151210782Y-75196216D01*
X151165828Y-75091426D01*
X151136788Y-74980883D01*
X151129064Y-74861646D01*
X151129840Y-74699462D01*
X148365998Y-74699462D01*
X147452166Y-74699462D01*
X147481895Y-74683971D01*
X147696118Y-74515210D01*
X147755670Y-74455714D01*
X147931686Y-74235424D01*
X148056584Y-73996359D01*
X148131032Y-73736976D01*
X148155699Y-73455734D01*
X148155699Y-73224623D01*
X152076303Y-73224623D01*
X152321244Y-73224613D01*
X152847446Y-73224541D01*
X153322794Y-73224490D01*
X153749918Y-73224561D01*
X154131445Y-73224860D01*
X154470004Y-73225491D01*
X154768224Y-73226556D01*
X155028733Y-73228161D01*
X155254161Y-73230409D01*
X155447135Y-73233404D01*
X155610284Y-73237250D01*
X155746238Y-73242050D01*
X155857624Y-73247910D01*
X155947071Y-73254932D01*
X156017208Y-73263221D01*
X156070663Y-73272880D01*
X156110065Y-73284014D01*
X156138043Y-73296726D01*
X156157226Y-73311121D01*
X156170241Y-73327301D01*
X156179718Y-73345372D01*
X156188285Y-73365437D01*
X156198570Y-73387600D01*
X156198755Y-73387962D01*
X156203749Y-73402470D01*
X156208330Y-73426764D01*
X156212515Y-73463084D01*
X156216321Y-73513674D01*
X156219767Y-73580775D01*
X156222869Y-73666629D01*
X156225645Y-73773478D01*
X156228113Y-73903564D01*
X156230288Y-74059128D01*
X156232190Y-74242413D01*
X156233836Y-74455661D01*
X156235242Y-74701113D01*
X156236426Y-74981012D01*
X156237406Y-75297599D01*
X156238198Y-75653116D01*
X156238822Y-76049805D01*
X156239292Y-76489909D01*
X156239628Y-76975668D01*
X156239847Y-77509325D01*
X156239965Y-78093122D01*
X156240000Y-78729301D01*
X156240002Y-78854279D01*
X156240062Y-79483828D01*
X156240156Y-80061438D01*
X156240211Y-80589368D01*
X156240156Y-81069877D01*
X156239922Y-81505223D01*
X156239435Y-81897664D01*
X156238625Y-82249459D01*
X156237421Y-82562867D01*
X156235752Y-82840145D01*
X156234283Y-83002258D01*
X156233547Y-83083553D01*
G37*
%TD*%
M02*
