%TF.GenerationSoftware,KiCad,Pcbnew,10.0.1*%
%TF.CreationDate,2026-06-02T10:42:24+02:00*%
%TF.ProjectId,ESP32-sensor-board,45535033-322d-4736-956e-736f722d626f,rev?*%
%TF.SameCoordinates,Original*%
%TF.FileFunction,Legend,Top*%
%TF.FilePolarity,Positive*%
%FSLAX46Y46*%
G04 Gerber Fmt 4.6, Leading zero omitted, Abs format (unit mm)*
G04 Created by KiCad (PCBNEW 10.0.1) date 2026-06-02 10:42:24*
%MOMM*%
%LPD*%
G01*
G04 APERTURE LIST*
%ADD10C,0.120000*%
%ADD11C,0.200000*%
%ADD12C,0.127000*%
%ADD13C,0.152400*%
G04 APERTURE END LIST*
D10*
X160833333Y-95863855D02*
X160833333Y-96435283D01*
X160833333Y-96435283D02*
X160795238Y-96549569D01*
X160795238Y-96549569D02*
X160719047Y-96625760D01*
X160719047Y-96625760D02*
X160604762Y-96663855D01*
X160604762Y-96663855D02*
X160528571Y-96663855D01*
X161633333Y-96663855D02*
X161176190Y-96663855D01*
X161404762Y-96663855D02*
X161404762Y-95863855D01*
X161404762Y-95863855D02*
X161328571Y-95978140D01*
X161328571Y-95978140D02*
X161252381Y-96054331D01*
X161252381Y-96054331D02*
X161176190Y-96092426D01*
X117766667Y-105487664D02*
X117728571Y-105525760D01*
X117728571Y-105525760D02*
X117614286Y-105563855D01*
X117614286Y-105563855D02*
X117538095Y-105563855D01*
X117538095Y-105563855D02*
X117423809Y-105525760D01*
X117423809Y-105525760D02*
X117347619Y-105449569D01*
X117347619Y-105449569D02*
X117309524Y-105373379D01*
X117309524Y-105373379D02*
X117271428Y-105220998D01*
X117271428Y-105220998D02*
X117271428Y-105106712D01*
X117271428Y-105106712D02*
X117309524Y-104954331D01*
X117309524Y-104954331D02*
X117347619Y-104878140D01*
X117347619Y-104878140D02*
X117423809Y-104801950D01*
X117423809Y-104801950D02*
X117538095Y-104763855D01*
X117538095Y-104763855D02*
X117614286Y-104763855D01*
X117614286Y-104763855D02*
X117728571Y-104801950D01*
X117728571Y-104801950D02*
X117766667Y-104840045D01*
X118071428Y-104840045D02*
X118109524Y-104801950D01*
X118109524Y-104801950D02*
X118185714Y-104763855D01*
X118185714Y-104763855D02*
X118376190Y-104763855D01*
X118376190Y-104763855D02*
X118452381Y-104801950D01*
X118452381Y-104801950D02*
X118490476Y-104840045D01*
X118490476Y-104840045D02*
X118528571Y-104916236D01*
X118528571Y-104916236D02*
X118528571Y-104992426D01*
X118528571Y-104992426D02*
X118490476Y-105106712D01*
X118490476Y-105106712D02*
X118033333Y-105563855D01*
X118033333Y-105563855D02*
X118528571Y-105563855D01*
X213365476Y-76940855D02*
X213822619Y-76940855D01*
X213594047Y-77740855D02*
X213594047Y-76940855D01*
X214089286Y-77740855D02*
X214089286Y-76940855D01*
X214089286Y-76940855D02*
X214394048Y-76940855D01*
X214394048Y-76940855D02*
X214470238Y-76978950D01*
X214470238Y-76978950D02*
X214508333Y-77017045D01*
X214508333Y-77017045D02*
X214546429Y-77093236D01*
X214546429Y-77093236D02*
X214546429Y-77207521D01*
X214546429Y-77207521D02*
X214508333Y-77283712D01*
X214508333Y-77283712D02*
X214470238Y-77321807D01*
X214470238Y-77321807D02*
X214394048Y-77359902D01*
X214394048Y-77359902D02*
X214089286Y-77359902D01*
X215232143Y-77207521D02*
X215232143Y-77740855D01*
X215041667Y-76902760D02*
X214851190Y-77474188D01*
X214851190Y-77474188D02*
X215346429Y-77474188D01*
X171563855Y-95839285D02*
X171182902Y-96105952D01*
X171563855Y-96296428D02*
X170763855Y-96296428D01*
X170763855Y-96296428D02*
X170763855Y-95991666D01*
X170763855Y-95991666D02*
X170801950Y-95915476D01*
X170801950Y-95915476D02*
X170840045Y-95877381D01*
X170840045Y-95877381D02*
X170916236Y-95839285D01*
X170916236Y-95839285D02*
X171030521Y-95839285D01*
X171030521Y-95839285D02*
X171106712Y-95877381D01*
X171106712Y-95877381D02*
X171144807Y-95915476D01*
X171144807Y-95915476D02*
X171182902Y-95991666D01*
X171182902Y-95991666D02*
X171182902Y-96296428D01*
X171563855Y-95077381D02*
X171563855Y-95534524D01*
X171563855Y-95305952D02*
X170763855Y-95305952D01*
X170763855Y-95305952D02*
X170878140Y-95382143D01*
X170878140Y-95382143D02*
X170954331Y-95458333D01*
X170954331Y-95458333D02*
X170992426Y-95534524D01*
X171030521Y-94391666D02*
X171563855Y-94391666D01*
X170725760Y-94582142D02*
X171297188Y-94772619D01*
X171297188Y-94772619D02*
X171297188Y-94277380D01*
X131363855Y-92995238D02*
X131363855Y-93376190D01*
X131363855Y-93376190D02*
X130563855Y-93376190D01*
X130944807Y-92728571D02*
X130944807Y-92461905D01*
X131363855Y-92347619D02*
X131363855Y-92728571D01*
X131363855Y-92728571D02*
X130563855Y-92728571D01*
X130563855Y-92728571D02*
X130563855Y-92347619D01*
X131363855Y-92004761D02*
X130563855Y-92004761D01*
X130563855Y-92004761D02*
X130563855Y-91814285D01*
X130563855Y-91814285D02*
X130601950Y-91699999D01*
X130601950Y-91699999D02*
X130678140Y-91623809D01*
X130678140Y-91623809D02*
X130754331Y-91585714D01*
X130754331Y-91585714D02*
X130906712Y-91547618D01*
X130906712Y-91547618D02*
X131020998Y-91547618D01*
X131020998Y-91547618D02*
X131173379Y-91585714D01*
X131173379Y-91585714D02*
X131249569Y-91623809D01*
X131249569Y-91623809D02*
X131325760Y-91699999D01*
X131325760Y-91699999D02*
X131363855Y-91814285D01*
X131363855Y-91814285D02*
X131363855Y-92004761D01*
X130640045Y-91242857D02*
X130601950Y-91204761D01*
X130601950Y-91204761D02*
X130563855Y-91128571D01*
X130563855Y-91128571D02*
X130563855Y-90938095D01*
X130563855Y-90938095D02*
X130601950Y-90861904D01*
X130601950Y-90861904D02*
X130640045Y-90823809D01*
X130640045Y-90823809D02*
X130716236Y-90785714D01*
X130716236Y-90785714D02*
X130792426Y-90785714D01*
X130792426Y-90785714D02*
X130906712Y-90823809D01*
X130906712Y-90823809D02*
X131363855Y-91280952D01*
X131363855Y-91280952D02*
X131363855Y-90785714D01*
X137147476Y-65468655D02*
X137147476Y-66116274D01*
X137147476Y-66116274D02*
X137185571Y-66192464D01*
X137185571Y-66192464D02*
X137223666Y-66230560D01*
X137223666Y-66230560D02*
X137299857Y-66268655D01*
X137299857Y-66268655D02*
X137452238Y-66268655D01*
X137452238Y-66268655D02*
X137528428Y-66230560D01*
X137528428Y-66230560D02*
X137566523Y-66192464D01*
X137566523Y-66192464D02*
X137604619Y-66116274D01*
X137604619Y-66116274D02*
X137604619Y-65468655D01*
X138099856Y-65811512D02*
X138023666Y-65773417D01*
X138023666Y-65773417D02*
X137985571Y-65735321D01*
X137985571Y-65735321D02*
X137947475Y-65659131D01*
X137947475Y-65659131D02*
X137947475Y-65621036D01*
X137947475Y-65621036D02*
X137985571Y-65544845D01*
X137985571Y-65544845D02*
X138023666Y-65506750D01*
X138023666Y-65506750D02*
X138099856Y-65468655D01*
X138099856Y-65468655D02*
X138252237Y-65468655D01*
X138252237Y-65468655D02*
X138328428Y-65506750D01*
X138328428Y-65506750D02*
X138366523Y-65544845D01*
X138366523Y-65544845D02*
X138404618Y-65621036D01*
X138404618Y-65621036D02*
X138404618Y-65659131D01*
X138404618Y-65659131D02*
X138366523Y-65735321D01*
X138366523Y-65735321D02*
X138328428Y-65773417D01*
X138328428Y-65773417D02*
X138252237Y-65811512D01*
X138252237Y-65811512D02*
X138099856Y-65811512D01*
X138099856Y-65811512D02*
X138023666Y-65849607D01*
X138023666Y-65849607D02*
X137985571Y-65887702D01*
X137985571Y-65887702D02*
X137947475Y-65963893D01*
X137947475Y-65963893D02*
X137947475Y-66116274D01*
X137947475Y-66116274D02*
X137985571Y-66192464D01*
X137985571Y-66192464D02*
X138023666Y-66230560D01*
X138023666Y-66230560D02*
X138099856Y-66268655D01*
X138099856Y-66268655D02*
X138252237Y-66268655D01*
X138252237Y-66268655D02*
X138328428Y-66230560D01*
X138328428Y-66230560D02*
X138366523Y-66192464D01*
X138366523Y-66192464D02*
X138404618Y-66116274D01*
X138404618Y-66116274D02*
X138404618Y-65963893D01*
X138404618Y-65963893D02*
X138366523Y-65887702D01*
X138366523Y-65887702D02*
X138328428Y-65849607D01*
X138328428Y-65849607D02*
X138252237Y-65811512D01*
X159752025Y-61766900D02*
X159866311Y-61804995D01*
X159866311Y-61804995D02*
X160056787Y-61804995D01*
X160056787Y-61804995D02*
X160132978Y-61766900D01*
X160132978Y-61766900D02*
X160171073Y-61728804D01*
X160171073Y-61728804D02*
X160209168Y-61652614D01*
X160209168Y-61652614D02*
X160209168Y-61576423D01*
X160209168Y-61576423D02*
X160171073Y-61500233D01*
X160171073Y-61500233D02*
X160132978Y-61462138D01*
X160132978Y-61462138D02*
X160056787Y-61424042D01*
X160056787Y-61424042D02*
X159904406Y-61385947D01*
X159904406Y-61385947D02*
X159828216Y-61347852D01*
X159828216Y-61347852D02*
X159790121Y-61309757D01*
X159790121Y-61309757D02*
X159752025Y-61233566D01*
X159752025Y-61233566D02*
X159752025Y-61157376D01*
X159752025Y-61157376D02*
X159790121Y-61081185D01*
X159790121Y-61081185D02*
X159828216Y-61043090D01*
X159828216Y-61043090D02*
X159904406Y-61004995D01*
X159904406Y-61004995D02*
X160094883Y-61004995D01*
X160094883Y-61004995D02*
X160209168Y-61043090D01*
X160513930Y-61081185D02*
X160552026Y-61043090D01*
X160552026Y-61043090D02*
X160628216Y-61004995D01*
X160628216Y-61004995D02*
X160818692Y-61004995D01*
X160818692Y-61004995D02*
X160894883Y-61043090D01*
X160894883Y-61043090D02*
X160932978Y-61081185D01*
X160932978Y-61081185D02*
X160971073Y-61157376D01*
X160971073Y-61157376D02*
X160971073Y-61233566D01*
X160971073Y-61233566D02*
X160932978Y-61347852D01*
X160932978Y-61347852D02*
X160475835Y-61804995D01*
X160475835Y-61804995D02*
X160971073Y-61804995D01*
X170840476Y-99413855D02*
X170840476Y-100061474D01*
X170840476Y-100061474D02*
X170878571Y-100137664D01*
X170878571Y-100137664D02*
X170916666Y-100175760D01*
X170916666Y-100175760D02*
X170992857Y-100213855D01*
X170992857Y-100213855D02*
X171145238Y-100213855D01*
X171145238Y-100213855D02*
X171221428Y-100175760D01*
X171221428Y-100175760D02*
X171259523Y-100137664D01*
X171259523Y-100137664D02*
X171297619Y-100061474D01*
X171297619Y-100061474D02*
X171297619Y-99413855D01*
X172021428Y-99680521D02*
X172021428Y-100213855D01*
X171830952Y-99375760D02*
X171640475Y-99947188D01*
X171640475Y-99947188D02*
X172135714Y-99947188D01*
X180688855Y-63564285D02*
X180307902Y-63830952D01*
X180688855Y-64021428D02*
X179888855Y-64021428D01*
X179888855Y-64021428D02*
X179888855Y-63716666D01*
X179888855Y-63716666D02*
X179926950Y-63640476D01*
X179926950Y-63640476D02*
X179965045Y-63602381D01*
X179965045Y-63602381D02*
X180041236Y-63564285D01*
X180041236Y-63564285D02*
X180155521Y-63564285D01*
X180155521Y-63564285D02*
X180231712Y-63602381D01*
X180231712Y-63602381D02*
X180269807Y-63640476D01*
X180269807Y-63640476D02*
X180307902Y-63716666D01*
X180307902Y-63716666D02*
X180307902Y-64021428D01*
X179965045Y-63259524D02*
X179926950Y-63221428D01*
X179926950Y-63221428D02*
X179888855Y-63145238D01*
X179888855Y-63145238D02*
X179888855Y-62954762D01*
X179888855Y-62954762D02*
X179926950Y-62878571D01*
X179926950Y-62878571D02*
X179965045Y-62840476D01*
X179965045Y-62840476D02*
X180041236Y-62802381D01*
X180041236Y-62802381D02*
X180117426Y-62802381D01*
X180117426Y-62802381D02*
X180231712Y-62840476D01*
X180231712Y-62840476D02*
X180688855Y-63297619D01*
X180688855Y-63297619D02*
X180688855Y-62802381D01*
X180155521Y-62116666D02*
X180688855Y-62116666D01*
X179850760Y-62307142D02*
X180422188Y-62497619D01*
X180422188Y-62497619D02*
X180422188Y-62002380D01*
X196085714Y-74963855D02*
X195819047Y-74582902D01*
X195628571Y-74963855D02*
X195628571Y-74163855D01*
X195628571Y-74163855D02*
X195933333Y-74163855D01*
X195933333Y-74163855D02*
X196009523Y-74201950D01*
X196009523Y-74201950D02*
X196047618Y-74240045D01*
X196047618Y-74240045D02*
X196085714Y-74316236D01*
X196085714Y-74316236D02*
X196085714Y-74430521D01*
X196085714Y-74430521D02*
X196047618Y-74506712D01*
X196047618Y-74506712D02*
X196009523Y-74544807D01*
X196009523Y-74544807D02*
X195933333Y-74582902D01*
X195933333Y-74582902D02*
X195628571Y-74582902D01*
X196847618Y-74963855D02*
X196390475Y-74963855D01*
X196619047Y-74963855D02*
X196619047Y-74163855D01*
X196619047Y-74163855D02*
X196542856Y-74278140D01*
X196542856Y-74278140D02*
X196466666Y-74354331D01*
X196466666Y-74354331D02*
X196390475Y-74392426D01*
X197571428Y-74163855D02*
X197190476Y-74163855D01*
X197190476Y-74163855D02*
X197152380Y-74544807D01*
X197152380Y-74544807D02*
X197190476Y-74506712D01*
X197190476Y-74506712D02*
X197266666Y-74468617D01*
X197266666Y-74468617D02*
X197457142Y-74468617D01*
X197457142Y-74468617D02*
X197533333Y-74506712D01*
X197533333Y-74506712D02*
X197571428Y-74544807D01*
X197571428Y-74544807D02*
X197609523Y-74620998D01*
X197609523Y-74620998D02*
X197609523Y-74811474D01*
X197609523Y-74811474D02*
X197571428Y-74887664D01*
X197571428Y-74887664D02*
X197533333Y-74925760D01*
X197533333Y-74925760D02*
X197457142Y-74963855D01*
X197457142Y-74963855D02*
X197266666Y-74963855D01*
X197266666Y-74963855D02*
X197190476Y-74925760D01*
X197190476Y-74925760D02*
X197152380Y-74887664D01*
X182615476Y-66915855D02*
X183072619Y-66915855D01*
X182844047Y-67715855D02*
X182844047Y-66915855D01*
X183339286Y-67715855D02*
X183339286Y-66915855D01*
X183339286Y-66915855D02*
X183644048Y-66915855D01*
X183644048Y-66915855D02*
X183720238Y-66953950D01*
X183720238Y-66953950D02*
X183758333Y-66992045D01*
X183758333Y-66992045D02*
X183796429Y-67068236D01*
X183796429Y-67068236D02*
X183796429Y-67182521D01*
X183796429Y-67182521D02*
X183758333Y-67258712D01*
X183758333Y-67258712D02*
X183720238Y-67296807D01*
X183720238Y-67296807D02*
X183644048Y-67334902D01*
X183644048Y-67334902D02*
X183339286Y-67334902D01*
X184520238Y-66915855D02*
X184139286Y-66915855D01*
X184139286Y-66915855D02*
X184101190Y-67296807D01*
X184101190Y-67296807D02*
X184139286Y-67258712D01*
X184139286Y-67258712D02*
X184215476Y-67220617D01*
X184215476Y-67220617D02*
X184405952Y-67220617D01*
X184405952Y-67220617D02*
X184482143Y-67258712D01*
X184482143Y-67258712D02*
X184520238Y-67296807D01*
X184520238Y-67296807D02*
X184558333Y-67372998D01*
X184558333Y-67372998D02*
X184558333Y-67563474D01*
X184558333Y-67563474D02*
X184520238Y-67639664D01*
X184520238Y-67639664D02*
X184482143Y-67677760D01*
X184482143Y-67677760D02*
X184405952Y-67715855D01*
X184405952Y-67715855D02*
X184215476Y-67715855D01*
X184215476Y-67715855D02*
X184139286Y-67677760D01*
X184139286Y-67677760D02*
X184101190Y-67639664D01*
X185915476Y-82740855D02*
X186372619Y-82740855D01*
X186144047Y-83540855D02*
X186144047Y-82740855D01*
X186639286Y-83540855D02*
X186639286Y-82740855D01*
X186639286Y-82740855D02*
X186944048Y-82740855D01*
X186944048Y-82740855D02*
X187020238Y-82778950D01*
X187020238Y-82778950D02*
X187058333Y-82817045D01*
X187058333Y-82817045D02*
X187096429Y-82893236D01*
X187096429Y-82893236D02*
X187096429Y-83007521D01*
X187096429Y-83007521D02*
X187058333Y-83083712D01*
X187058333Y-83083712D02*
X187020238Y-83121807D01*
X187020238Y-83121807D02*
X186944048Y-83159902D01*
X186944048Y-83159902D02*
X186639286Y-83159902D01*
X187401190Y-82817045D02*
X187439286Y-82778950D01*
X187439286Y-82778950D02*
X187515476Y-82740855D01*
X187515476Y-82740855D02*
X187705952Y-82740855D01*
X187705952Y-82740855D02*
X187782143Y-82778950D01*
X187782143Y-82778950D02*
X187820238Y-82817045D01*
X187820238Y-82817045D02*
X187858333Y-82893236D01*
X187858333Y-82893236D02*
X187858333Y-82969426D01*
X187858333Y-82969426D02*
X187820238Y-83083712D01*
X187820238Y-83083712D02*
X187363095Y-83540855D01*
X187363095Y-83540855D02*
X187858333Y-83540855D01*
X114583333Y-59698855D02*
X114583333Y-60270283D01*
X114583333Y-60270283D02*
X114545238Y-60384569D01*
X114545238Y-60384569D02*
X114469047Y-60460760D01*
X114469047Y-60460760D02*
X114354762Y-60498855D01*
X114354762Y-60498855D02*
X114278571Y-60498855D01*
X115307143Y-59965521D02*
X115307143Y-60498855D01*
X115116667Y-59660760D02*
X114926190Y-60232188D01*
X114926190Y-60232188D02*
X115421429Y-60232188D01*
X147466667Y-81463855D02*
X147200000Y-81082902D01*
X147009524Y-81463855D02*
X147009524Y-80663855D01*
X147009524Y-80663855D02*
X147314286Y-80663855D01*
X147314286Y-80663855D02*
X147390476Y-80701950D01*
X147390476Y-80701950D02*
X147428571Y-80740045D01*
X147428571Y-80740045D02*
X147466667Y-80816236D01*
X147466667Y-80816236D02*
X147466667Y-80930521D01*
X147466667Y-80930521D02*
X147428571Y-81006712D01*
X147428571Y-81006712D02*
X147390476Y-81044807D01*
X147390476Y-81044807D02*
X147314286Y-81082902D01*
X147314286Y-81082902D02*
X147009524Y-81082902D01*
X148152381Y-80663855D02*
X148000000Y-80663855D01*
X148000000Y-80663855D02*
X147923809Y-80701950D01*
X147923809Y-80701950D02*
X147885714Y-80740045D01*
X147885714Y-80740045D02*
X147809524Y-80854331D01*
X147809524Y-80854331D02*
X147771428Y-81006712D01*
X147771428Y-81006712D02*
X147771428Y-81311474D01*
X147771428Y-81311474D02*
X147809524Y-81387664D01*
X147809524Y-81387664D02*
X147847619Y-81425760D01*
X147847619Y-81425760D02*
X147923809Y-81463855D01*
X147923809Y-81463855D02*
X148076190Y-81463855D01*
X148076190Y-81463855D02*
X148152381Y-81425760D01*
X148152381Y-81425760D02*
X148190476Y-81387664D01*
X148190476Y-81387664D02*
X148228571Y-81311474D01*
X148228571Y-81311474D02*
X148228571Y-81120998D01*
X148228571Y-81120998D02*
X148190476Y-81044807D01*
X148190476Y-81044807D02*
X148152381Y-81006712D01*
X148152381Y-81006712D02*
X148076190Y-80968617D01*
X148076190Y-80968617D02*
X147923809Y-80968617D01*
X147923809Y-80968617D02*
X147847619Y-81006712D01*
X147847619Y-81006712D02*
X147809524Y-81044807D01*
X147809524Y-81044807D02*
X147771428Y-81120998D01*
X119908333Y-68113855D02*
X119641666Y-67732902D01*
X119451190Y-68113855D02*
X119451190Y-67313855D01*
X119451190Y-67313855D02*
X119755952Y-67313855D01*
X119755952Y-67313855D02*
X119832142Y-67351950D01*
X119832142Y-67351950D02*
X119870237Y-67390045D01*
X119870237Y-67390045D02*
X119908333Y-67466236D01*
X119908333Y-67466236D02*
X119908333Y-67580521D01*
X119908333Y-67580521D02*
X119870237Y-67656712D01*
X119870237Y-67656712D02*
X119832142Y-67694807D01*
X119832142Y-67694807D02*
X119755952Y-67732902D01*
X119755952Y-67732902D02*
X119451190Y-67732902D01*
X120251190Y-67694807D02*
X120517856Y-67694807D01*
X120632142Y-68113855D02*
X120251190Y-68113855D01*
X120251190Y-68113855D02*
X120251190Y-67313855D01*
X120251190Y-67313855D02*
X120632142Y-67313855D01*
X121241666Y-67694807D02*
X120975000Y-67694807D01*
X120975000Y-68113855D02*
X120975000Y-67313855D01*
X120975000Y-67313855D02*
X121355952Y-67313855D01*
X121774999Y-67313855D02*
X121774999Y-67504331D01*
X121584523Y-67428140D02*
X121774999Y-67504331D01*
X121774999Y-67504331D02*
X121965476Y-67428140D01*
X121660714Y-67656712D02*
X121774999Y-67504331D01*
X121774999Y-67504331D02*
X121889285Y-67656712D01*
X122384523Y-67313855D02*
X122384523Y-67504331D01*
X122194047Y-67428140D02*
X122384523Y-67504331D01*
X122384523Y-67504331D02*
X122575000Y-67428140D01*
X122270238Y-67656712D02*
X122384523Y-67504331D01*
X122384523Y-67504331D02*
X122498809Y-67656712D01*
X131163855Y-88895238D02*
X131163855Y-89276190D01*
X131163855Y-89276190D02*
X130363855Y-89276190D01*
X130744807Y-88628571D02*
X130744807Y-88361905D01*
X131163855Y-88247619D02*
X131163855Y-88628571D01*
X131163855Y-88628571D02*
X130363855Y-88628571D01*
X130363855Y-88628571D02*
X130363855Y-88247619D01*
X131163855Y-87904761D02*
X130363855Y-87904761D01*
X130363855Y-87904761D02*
X130363855Y-87714285D01*
X130363855Y-87714285D02*
X130401950Y-87599999D01*
X130401950Y-87599999D02*
X130478140Y-87523809D01*
X130478140Y-87523809D02*
X130554331Y-87485714D01*
X130554331Y-87485714D02*
X130706712Y-87447618D01*
X130706712Y-87447618D02*
X130820998Y-87447618D01*
X130820998Y-87447618D02*
X130973379Y-87485714D01*
X130973379Y-87485714D02*
X131049569Y-87523809D01*
X131049569Y-87523809D02*
X131125760Y-87599999D01*
X131125760Y-87599999D02*
X131163855Y-87714285D01*
X131163855Y-87714285D02*
X131163855Y-87904761D01*
X131163855Y-86685714D02*
X131163855Y-87142857D01*
X131163855Y-86914285D02*
X130363855Y-86914285D01*
X130363855Y-86914285D02*
X130478140Y-86990476D01*
X130478140Y-86990476D02*
X130554331Y-87066666D01*
X130554331Y-87066666D02*
X130592426Y-87142857D01*
X137566667Y-90638855D02*
X137300000Y-90257902D01*
X137109524Y-90638855D02*
X137109524Y-89838855D01*
X137109524Y-89838855D02*
X137414286Y-89838855D01*
X137414286Y-89838855D02*
X137490476Y-89876950D01*
X137490476Y-89876950D02*
X137528571Y-89915045D01*
X137528571Y-89915045D02*
X137566667Y-89991236D01*
X137566667Y-89991236D02*
X137566667Y-90105521D01*
X137566667Y-90105521D02*
X137528571Y-90181712D01*
X137528571Y-90181712D02*
X137490476Y-90219807D01*
X137490476Y-90219807D02*
X137414286Y-90257902D01*
X137414286Y-90257902D02*
X137109524Y-90257902D01*
X138023809Y-90181712D02*
X137947619Y-90143617D01*
X137947619Y-90143617D02*
X137909524Y-90105521D01*
X137909524Y-90105521D02*
X137871428Y-90029331D01*
X137871428Y-90029331D02*
X137871428Y-89991236D01*
X137871428Y-89991236D02*
X137909524Y-89915045D01*
X137909524Y-89915045D02*
X137947619Y-89876950D01*
X137947619Y-89876950D02*
X138023809Y-89838855D01*
X138023809Y-89838855D02*
X138176190Y-89838855D01*
X138176190Y-89838855D02*
X138252381Y-89876950D01*
X138252381Y-89876950D02*
X138290476Y-89915045D01*
X138290476Y-89915045D02*
X138328571Y-89991236D01*
X138328571Y-89991236D02*
X138328571Y-90029331D01*
X138328571Y-90029331D02*
X138290476Y-90105521D01*
X138290476Y-90105521D02*
X138252381Y-90143617D01*
X138252381Y-90143617D02*
X138176190Y-90181712D01*
X138176190Y-90181712D02*
X138023809Y-90181712D01*
X138023809Y-90181712D02*
X137947619Y-90219807D01*
X137947619Y-90219807D02*
X137909524Y-90257902D01*
X137909524Y-90257902D02*
X137871428Y-90334093D01*
X137871428Y-90334093D02*
X137871428Y-90486474D01*
X137871428Y-90486474D02*
X137909524Y-90562664D01*
X137909524Y-90562664D02*
X137947619Y-90600760D01*
X137947619Y-90600760D02*
X138023809Y-90638855D01*
X138023809Y-90638855D02*
X138176190Y-90638855D01*
X138176190Y-90638855D02*
X138252381Y-90600760D01*
X138252381Y-90600760D02*
X138290476Y-90562664D01*
X138290476Y-90562664D02*
X138328571Y-90486474D01*
X138328571Y-90486474D02*
X138328571Y-90334093D01*
X138328571Y-90334093D02*
X138290476Y-90257902D01*
X138290476Y-90257902D02*
X138252381Y-90219807D01*
X138252381Y-90219807D02*
X138176190Y-90181712D01*
X120641667Y-108612664D02*
X120603571Y-108650760D01*
X120603571Y-108650760D02*
X120489286Y-108688855D01*
X120489286Y-108688855D02*
X120413095Y-108688855D01*
X120413095Y-108688855D02*
X120298809Y-108650760D01*
X120298809Y-108650760D02*
X120222619Y-108574569D01*
X120222619Y-108574569D02*
X120184524Y-108498379D01*
X120184524Y-108498379D02*
X120146428Y-108345998D01*
X120146428Y-108345998D02*
X120146428Y-108231712D01*
X120146428Y-108231712D02*
X120184524Y-108079331D01*
X120184524Y-108079331D02*
X120222619Y-108003140D01*
X120222619Y-108003140D02*
X120298809Y-107926950D01*
X120298809Y-107926950D02*
X120413095Y-107888855D01*
X120413095Y-107888855D02*
X120489286Y-107888855D01*
X120489286Y-107888855D02*
X120603571Y-107926950D01*
X120603571Y-107926950D02*
X120641667Y-107965045D01*
X121365476Y-107888855D02*
X120984524Y-107888855D01*
X120984524Y-107888855D02*
X120946428Y-108269807D01*
X120946428Y-108269807D02*
X120984524Y-108231712D01*
X120984524Y-108231712D02*
X121060714Y-108193617D01*
X121060714Y-108193617D02*
X121251190Y-108193617D01*
X121251190Y-108193617D02*
X121327381Y-108231712D01*
X121327381Y-108231712D02*
X121365476Y-108269807D01*
X121365476Y-108269807D02*
X121403571Y-108345998D01*
X121403571Y-108345998D02*
X121403571Y-108536474D01*
X121403571Y-108536474D02*
X121365476Y-108612664D01*
X121365476Y-108612664D02*
X121327381Y-108650760D01*
X121327381Y-108650760D02*
X121251190Y-108688855D01*
X121251190Y-108688855D02*
X121060714Y-108688855D01*
X121060714Y-108688855D02*
X120984524Y-108650760D01*
X120984524Y-108650760D02*
X120946428Y-108612664D01*
X165485714Y-107263855D02*
X165219047Y-106882902D01*
X165028571Y-107263855D02*
X165028571Y-106463855D01*
X165028571Y-106463855D02*
X165333333Y-106463855D01*
X165333333Y-106463855D02*
X165409523Y-106501950D01*
X165409523Y-106501950D02*
X165447618Y-106540045D01*
X165447618Y-106540045D02*
X165485714Y-106616236D01*
X165485714Y-106616236D02*
X165485714Y-106730521D01*
X165485714Y-106730521D02*
X165447618Y-106806712D01*
X165447618Y-106806712D02*
X165409523Y-106844807D01*
X165409523Y-106844807D02*
X165333333Y-106882902D01*
X165333333Y-106882902D02*
X165028571Y-106882902D01*
X166247618Y-107263855D02*
X165790475Y-107263855D01*
X166019047Y-107263855D02*
X166019047Y-106463855D01*
X166019047Y-106463855D02*
X165942856Y-106578140D01*
X165942856Y-106578140D02*
X165866666Y-106654331D01*
X165866666Y-106654331D02*
X165790475Y-106692426D01*
X167009523Y-107263855D02*
X166552380Y-107263855D01*
X166780952Y-107263855D02*
X166780952Y-106463855D01*
X166780952Y-106463855D02*
X166704761Y-106578140D01*
X166704761Y-106578140D02*
X166628571Y-106654331D01*
X166628571Y-106654331D02*
X166552380Y-106692426D01*
X137933333Y-80144807D02*
X137666667Y-80144807D01*
X137666667Y-80563855D02*
X137666667Y-79763855D01*
X137666667Y-79763855D02*
X138047619Y-79763855D01*
X138314285Y-79840045D02*
X138352381Y-79801950D01*
X138352381Y-79801950D02*
X138428571Y-79763855D01*
X138428571Y-79763855D02*
X138619047Y-79763855D01*
X138619047Y-79763855D02*
X138695238Y-79801950D01*
X138695238Y-79801950D02*
X138733333Y-79840045D01*
X138733333Y-79840045D02*
X138771428Y-79916236D01*
X138771428Y-79916236D02*
X138771428Y-79992426D01*
X138771428Y-79992426D02*
X138733333Y-80106712D01*
X138733333Y-80106712D02*
X138276190Y-80563855D01*
X138276190Y-80563855D02*
X138771428Y-80563855D01*
X137366667Y-87363855D02*
X137100000Y-86982902D01*
X136909524Y-87363855D02*
X136909524Y-86563855D01*
X136909524Y-86563855D02*
X137214286Y-86563855D01*
X137214286Y-86563855D02*
X137290476Y-86601950D01*
X137290476Y-86601950D02*
X137328571Y-86640045D01*
X137328571Y-86640045D02*
X137366667Y-86716236D01*
X137366667Y-86716236D02*
X137366667Y-86830521D01*
X137366667Y-86830521D02*
X137328571Y-86906712D01*
X137328571Y-86906712D02*
X137290476Y-86944807D01*
X137290476Y-86944807D02*
X137214286Y-86982902D01*
X137214286Y-86982902D02*
X136909524Y-86982902D01*
X137633333Y-86563855D02*
X138166667Y-86563855D01*
X138166667Y-86563855D02*
X137823809Y-87363855D01*
X207465476Y-76440855D02*
X207922619Y-76440855D01*
X207694047Y-77240855D02*
X207694047Y-76440855D01*
X208189286Y-77240855D02*
X208189286Y-76440855D01*
X208189286Y-76440855D02*
X208494048Y-76440855D01*
X208494048Y-76440855D02*
X208570238Y-76478950D01*
X208570238Y-76478950D02*
X208608333Y-76517045D01*
X208608333Y-76517045D02*
X208646429Y-76593236D01*
X208646429Y-76593236D02*
X208646429Y-76707521D01*
X208646429Y-76707521D02*
X208608333Y-76783712D01*
X208608333Y-76783712D02*
X208570238Y-76821807D01*
X208570238Y-76821807D02*
X208494048Y-76859902D01*
X208494048Y-76859902D02*
X208189286Y-76859902D01*
X209408333Y-77240855D02*
X208951190Y-77240855D01*
X209179762Y-77240855D02*
X209179762Y-76440855D01*
X209179762Y-76440855D02*
X209103571Y-76555140D01*
X209103571Y-76555140D02*
X209027381Y-76631331D01*
X209027381Y-76631331D02*
X208951190Y-76669426D01*
X161740045Y-78376190D02*
X161701950Y-78452380D01*
X161701950Y-78452380D02*
X161625760Y-78528571D01*
X161625760Y-78528571D02*
X161511474Y-78642857D01*
X161511474Y-78642857D02*
X161473379Y-78719047D01*
X161473379Y-78719047D02*
X161473379Y-78795238D01*
X161663855Y-78757142D02*
X161625760Y-78833333D01*
X161625760Y-78833333D02*
X161549569Y-78909523D01*
X161549569Y-78909523D02*
X161397188Y-78947619D01*
X161397188Y-78947619D02*
X161130521Y-78947619D01*
X161130521Y-78947619D02*
X160978140Y-78909523D01*
X160978140Y-78909523D02*
X160901950Y-78833333D01*
X160901950Y-78833333D02*
X160863855Y-78757142D01*
X160863855Y-78757142D02*
X160863855Y-78604761D01*
X160863855Y-78604761D02*
X160901950Y-78528571D01*
X160901950Y-78528571D02*
X160978140Y-78452380D01*
X160978140Y-78452380D02*
X161130521Y-78414285D01*
X161130521Y-78414285D02*
X161397188Y-78414285D01*
X161397188Y-78414285D02*
X161549569Y-78452380D01*
X161549569Y-78452380D02*
X161625760Y-78528571D01*
X161625760Y-78528571D02*
X161663855Y-78604761D01*
X161663855Y-78604761D02*
X161663855Y-78757142D01*
X161663855Y-77652381D02*
X161663855Y-78109524D01*
X161663855Y-77880952D02*
X160863855Y-77880952D01*
X160863855Y-77880952D02*
X160978140Y-77957143D01*
X160978140Y-77957143D02*
X161054331Y-78033333D01*
X161054331Y-78033333D02*
X161092426Y-78109524D01*
X167060714Y-74988855D02*
X166794047Y-74607902D01*
X166603571Y-74988855D02*
X166603571Y-74188855D01*
X166603571Y-74188855D02*
X166908333Y-74188855D01*
X166908333Y-74188855D02*
X166984523Y-74226950D01*
X166984523Y-74226950D02*
X167022618Y-74265045D01*
X167022618Y-74265045D02*
X167060714Y-74341236D01*
X167060714Y-74341236D02*
X167060714Y-74455521D01*
X167060714Y-74455521D02*
X167022618Y-74531712D01*
X167022618Y-74531712D02*
X166984523Y-74569807D01*
X166984523Y-74569807D02*
X166908333Y-74607902D01*
X166908333Y-74607902D02*
X166603571Y-74607902D01*
X167365475Y-74265045D02*
X167403571Y-74226950D01*
X167403571Y-74226950D02*
X167479761Y-74188855D01*
X167479761Y-74188855D02*
X167670237Y-74188855D01*
X167670237Y-74188855D02*
X167746428Y-74226950D01*
X167746428Y-74226950D02*
X167784523Y-74265045D01*
X167784523Y-74265045D02*
X167822618Y-74341236D01*
X167822618Y-74341236D02*
X167822618Y-74417426D01*
X167822618Y-74417426D02*
X167784523Y-74531712D01*
X167784523Y-74531712D02*
X167327380Y-74988855D01*
X167327380Y-74988855D02*
X167822618Y-74988855D01*
X168089285Y-74188855D02*
X168584523Y-74188855D01*
X168584523Y-74188855D02*
X168317857Y-74493617D01*
X168317857Y-74493617D02*
X168432142Y-74493617D01*
X168432142Y-74493617D02*
X168508333Y-74531712D01*
X168508333Y-74531712D02*
X168546428Y-74569807D01*
X168546428Y-74569807D02*
X168584523Y-74645998D01*
X168584523Y-74645998D02*
X168584523Y-74836474D01*
X168584523Y-74836474D02*
X168546428Y-74912664D01*
X168546428Y-74912664D02*
X168508333Y-74950760D01*
X168508333Y-74950760D02*
X168432142Y-74988855D01*
X168432142Y-74988855D02*
X168203571Y-74988855D01*
X168203571Y-74988855D02*
X168127380Y-74950760D01*
X168127380Y-74950760D02*
X168089285Y-74912664D01*
X132732664Y-68725485D02*
X132770760Y-68763581D01*
X132770760Y-68763581D02*
X132808855Y-68877866D01*
X132808855Y-68877866D02*
X132808855Y-68954057D01*
X132808855Y-68954057D02*
X132770760Y-69068343D01*
X132770760Y-69068343D02*
X132694569Y-69144533D01*
X132694569Y-69144533D02*
X132618379Y-69182628D01*
X132618379Y-69182628D02*
X132465998Y-69220724D01*
X132465998Y-69220724D02*
X132351712Y-69220724D01*
X132351712Y-69220724D02*
X132199331Y-69182628D01*
X132199331Y-69182628D02*
X132123140Y-69144533D01*
X132123140Y-69144533D02*
X132046950Y-69068343D01*
X132046950Y-69068343D02*
X132008855Y-68954057D01*
X132008855Y-68954057D02*
X132008855Y-68877866D01*
X132008855Y-68877866D02*
X132046950Y-68763581D01*
X132046950Y-68763581D02*
X132085045Y-68725485D01*
X132808855Y-67963581D02*
X132808855Y-68420724D01*
X132808855Y-68192152D02*
X132008855Y-68192152D01*
X132008855Y-68192152D02*
X132123140Y-68268343D01*
X132123140Y-68268343D02*
X132199331Y-68344533D01*
X132199331Y-68344533D02*
X132237426Y-68420724D01*
X132008855Y-67696914D02*
X132008855Y-67163580D01*
X132008855Y-67163580D02*
X132808855Y-67506438D01*
X114583333Y-74468855D02*
X114583333Y-75040283D01*
X114583333Y-75040283D02*
X114545238Y-75154569D01*
X114545238Y-75154569D02*
X114469047Y-75230760D01*
X114469047Y-75230760D02*
X114354762Y-75268855D01*
X114354762Y-75268855D02*
X114278571Y-75268855D01*
X115345238Y-74468855D02*
X114964286Y-74468855D01*
X114964286Y-74468855D02*
X114926190Y-74849807D01*
X114926190Y-74849807D02*
X114964286Y-74811712D01*
X114964286Y-74811712D02*
X115040476Y-74773617D01*
X115040476Y-74773617D02*
X115230952Y-74773617D01*
X115230952Y-74773617D02*
X115307143Y-74811712D01*
X115307143Y-74811712D02*
X115345238Y-74849807D01*
X115345238Y-74849807D02*
X115383333Y-74925998D01*
X115383333Y-74925998D02*
X115383333Y-75116474D01*
X115383333Y-75116474D02*
X115345238Y-75192664D01*
X115345238Y-75192664D02*
X115307143Y-75230760D01*
X115307143Y-75230760D02*
X115230952Y-75268855D01*
X115230952Y-75268855D02*
X115040476Y-75268855D01*
X115040476Y-75268855D02*
X114964286Y-75230760D01*
X114964286Y-75230760D02*
X114926190Y-75192664D01*
X171704761Y-88463855D02*
X171323809Y-88463855D01*
X171323809Y-88463855D02*
X171323809Y-87663855D01*
X171971428Y-88044807D02*
X172238094Y-88044807D01*
X172352380Y-88463855D02*
X171971428Y-88463855D01*
X171971428Y-88463855D02*
X171971428Y-87663855D01*
X171971428Y-87663855D02*
X172352380Y-87663855D01*
X172695238Y-88463855D02*
X172695238Y-87663855D01*
X172695238Y-87663855D02*
X172885714Y-87663855D01*
X172885714Y-87663855D02*
X173000000Y-87701950D01*
X173000000Y-87701950D02*
X173076190Y-87778140D01*
X173076190Y-87778140D02*
X173114285Y-87854331D01*
X173114285Y-87854331D02*
X173152381Y-88006712D01*
X173152381Y-88006712D02*
X173152381Y-88120998D01*
X173152381Y-88120998D02*
X173114285Y-88273379D01*
X173114285Y-88273379D02*
X173076190Y-88349569D01*
X173076190Y-88349569D02*
X173000000Y-88425760D01*
X173000000Y-88425760D02*
X172885714Y-88463855D01*
X172885714Y-88463855D02*
X172695238Y-88463855D01*
X173876190Y-87663855D02*
X173495238Y-87663855D01*
X173495238Y-87663855D02*
X173457142Y-88044807D01*
X173457142Y-88044807D02*
X173495238Y-88006712D01*
X173495238Y-88006712D02*
X173571428Y-87968617D01*
X173571428Y-87968617D02*
X173761904Y-87968617D01*
X173761904Y-87968617D02*
X173838095Y-88006712D01*
X173838095Y-88006712D02*
X173876190Y-88044807D01*
X173876190Y-88044807D02*
X173914285Y-88120998D01*
X173914285Y-88120998D02*
X173914285Y-88311474D01*
X173914285Y-88311474D02*
X173876190Y-88387664D01*
X173876190Y-88387664D02*
X173838095Y-88425760D01*
X173838095Y-88425760D02*
X173761904Y-88463855D01*
X173761904Y-88463855D02*
X173571428Y-88463855D01*
X173571428Y-88463855D02*
X173495238Y-88425760D01*
X173495238Y-88425760D02*
X173457142Y-88387664D01*
X165613855Y-85739285D02*
X165232902Y-86005952D01*
X165613855Y-86196428D02*
X164813855Y-86196428D01*
X164813855Y-86196428D02*
X164813855Y-85891666D01*
X164813855Y-85891666D02*
X164851950Y-85815476D01*
X164851950Y-85815476D02*
X164890045Y-85777381D01*
X164890045Y-85777381D02*
X164966236Y-85739285D01*
X164966236Y-85739285D02*
X165080521Y-85739285D01*
X165080521Y-85739285D02*
X165156712Y-85777381D01*
X165156712Y-85777381D02*
X165194807Y-85815476D01*
X165194807Y-85815476D02*
X165232902Y-85891666D01*
X165232902Y-85891666D02*
X165232902Y-86196428D01*
X164813855Y-85472619D02*
X164813855Y-84977381D01*
X164813855Y-84977381D02*
X165118617Y-85244047D01*
X165118617Y-85244047D02*
X165118617Y-85129762D01*
X165118617Y-85129762D02*
X165156712Y-85053571D01*
X165156712Y-85053571D02*
X165194807Y-85015476D01*
X165194807Y-85015476D02*
X165270998Y-84977381D01*
X165270998Y-84977381D02*
X165461474Y-84977381D01*
X165461474Y-84977381D02*
X165537664Y-85015476D01*
X165537664Y-85015476D02*
X165575760Y-85053571D01*
X165575760Y-85053571D02*
X165613855Y-85129762D01*
X165613855Y-85129762D02*
X165613855Y-85358333D01*
X165613855Y-85358333D02*
X165575760Y-85434524D01*
X165575760Y-85434524D02*
X165537664Y-85472619D01*
X165080521Y-84291666D02*
X165613855Y-84291666D01*
X164775760Y-84482142D02*
X165347188Y-84672619D01*
X165347188Y-84672619D02*
X165347188Y-84177380D01*
X186410714Y-81013855D02*
X186144047Y-80632902D01*
X185953571Y-81013855D02*
X185953571Y-80213855D01*
X185953571Y-80213855D02*
X186258333Y-80213855D01*
X186258333Y-80213855D02*
X186334523Y-80251950D01*
X186334523Y-80251950D02*
X186372618Y-80290045D01*
X186372618Y-80290045D02*
X186410714Y-80366236D01*
X186410714Y-80366236D02*
X186410714Y-80480521D01*
X186410714Y-80480521D02*
X186372618Y-80556712D01*
X186372618Y-80556712D02*
X186334523Y-80594807D01*
X186334523Y-80594807D02*
X186258333Y-80632902D01*
X186258333Y-80632902D02*
X185953571Y-80632902D01*
X186715475Y-80290045D02*
X186753571Y-80251950D01*
X186753571Y-80251950D02*
X186829761Y-80213855D01*
X186829761Y-80213855D02*
X187020237Y-80213855D01*
X187020237Y-80213855D02*
X187096428Y-80251950D01*
X187096428Y-80251950D02*
X187134523Y-80290045D01*
X187134523Y-80290045D02*
X187172618Y-80366236D01*
X187172618Y-80366236D02*
X187172618Y-80442426D01*
X187172618Y-80442426D02*
X187134523Y-80556712D01*
X187134523Y-80556712D02*
X186677380Y-81013855D01*
X186677380Y-81013855D02*
X187172618Y-81013855D01*
X187477380Y-80290045D02*
X187515476Y-80251950D01*
X187515476Y-80251950D02*
X187591666Y-80213855D01*
X187591666Y-80213855D02*
X187782142Y-80213855D01*
X187782142Y-80213855D02*
X187858333Y-80251950D01*
X187858333Y-80251950D02*
X187896428Y-80290045D01*
X187896428Y-80290045D02*
X187934523Y-80366236D01*
X187934523Y-80366236D02*
X187934523Y-80442426D01*
X187934523Y-80442426D02*
X187896428Y-80556712D01*
X187896428Y-80556712D02*
X187439285Y-81013855D01*
X187439285Y-81013855D02*
X187934523Y-81013855D01*
X149412664Y-102583332D02*
X149450760Y-102621428D01*
X149450760Y-102621428D02*
X149488855Y-102735713D01*
X149488855Y-102735713D02*
X149488855Y-102811904D01*
X149488855Y-102811904D02*
X149450760Y-102926190D01*
X149450760Y-102926190D02*
X149374569Y-103002380D01*
X149374569Y-103002380D02*
X149298379Y-103040475D01*
X149298379Y-103040475D02*
X149145998Y-103078571D01*
X149145998Y-103078571D02*
X149031712Y-103078571D01*
X149031712Y-103078571D02*
X148879331Y-103040475D01*
X148879331Y-103040475D02*
X148803140Y-103002380D01*
X148803140Y-103002380D02*
X148726950Y-102926190D01*
X148726950Y-102926190D02*
X148688855Y-102811904D01*
X148688855Y-102811904D02*
X148688855Y-102735713D01*
X148688855Y-102735713D02*
X148726950Y-102621428D01*
X148726950Y-102621428D02*
X148765045Y-102583332D01*
X149488855Y-101821428D02*
X149488855Y-102278571D01*
X149488855Y-102049999D02*
X148688855Y-102049999D01*
X148688855Y-102049999D02*
X148803140Y-102126190D01*
X148803140Y-102126190D02*
X148879331Y-102202380D01*
X148879331Y-102202380D02*
X148917426Y-102278571D01*
X215358333Y-79663855D02*
X215358333Y-80235283D01*
X215358333Y-80235283D02*
X215320238Y-80349569D01*
X215320238Y-80349569D02*
X215244047Y-80425760D01*
X215244047Y-80425760D02*
X215129762Y-80463855D01*
X215129762Y-80463855D02*
X215053571Y-80463855D01*
X215663095Y-79663855D02*
X216158333Y-79663855D01*
X216158333Y-79663855D02*
X215891667Y-79968617D01*
X215891667Y-79968617D02*
X216005952Y-79968617D01*
X216005952Y-79968617D02*
X216082143Y-80006712D01*
X216082143Y-80006712D02*
X216120238Y-80044807D01*
X216120238Y-80044807D02*
X216158333Y-80120998D01*
X216158333Y-80120998D02*
X216158333Y-80311474D01*
X216158333Y-80311474D02*
X216120238Y-80387664D01*
X216120238Y-80387664D02*
X216082143Y-80425760D01*
X216082143Y-80425760D02*
X216005952Y-80463855D01*
X216005952Y-80463855D02*
X215777381Y-80463855D01*
X215777381Y-80463855D02*
X215701190Y-80425760D01*
X215701190Y-80425760D02*
X215663095Y-80387664D01*
X133860714Y-62563855D02*
X133594047Y-62182902D01*
X133403571Y-62563855D02*
X133403571Y-61763855D01*
X133403571Y-61763855D02*
X133708333Y-61763855D01*
X133708333Y-61763855D02*
X133784523Y-61801950D01*
X133784523Y-61801950D02*
X133822618Y-61840045D01*
X133822618Y-61840045D02*
X133860714Y-61916236D01*
X133860714Y-61916236D02*
X133860714Y-62030521D01*
X133860714Y-62030521D02*
X133822618Y-62106712D01*
X133822618Y-62106712D02*
X133784523Y-62144807D01*
X133784523Y-62144807D02*
X133708333Y-62182902D01*
X133708333Y-62182902D02*
X133403571Y-62182902D01*
X134165475Y-61840045D02*
X134203571Y-61801950D01*
X134203571Y-61801950D02*
X134279761Y-61763855D01*
X134279761Y-61763855D02*
X134470237Y-61763855D01*
X134470237Y-61763855D02*
X134546428Y-61801950D01*
X134546428Y-61801950D02*
X134584523Y-61840045D01*
X134584523Y-61840045D02*
X134622618Y-61916236D01*
X134622618Y-61916236D02*
X134622618Y-61992426D01*
X134622618Y-61992426D02*
X134584523Y-62106712D01*
X134584523Y-62106712D02*
X134127380Y-62563855D01*
X134127380Y-62563855D02*
X134622618Y-62563855D01*
X135003571Y-62563855D02*
X135155952Y-62563855D01*
X135155952Y-62563855D02*
X135232142Y-62525760D01*
X135232142Y-62525760D02*
X135270238Y-62487664D01*
X135270238Y-62487664D02*
X135346428Y-62373379D01*
X135346428Y-62373379D02*
X135384523Y-62220998D01*
X135384523Y-62220998D02*
X135384523Y-61916236D01*
X135384523Y-61916236D02*
X135346428Y-61840045D01*
X135346428Y-61840045D02*
X135308333Y-61801950D01*
X135308333Y-61801950D02*
X135232142Y-61763855D01*
X135232142Y-61763855D02*
X135079761Y-61763855D01*
X135079761Y-61763855D02*
X135003571Y-61801950D01*
X135003571Y-61801950D02*
X134965476Y-61840045D01*
X134965476Y-61840045D02*
X134927380Y-61916236D01*
X134927380Y-61916236D02*
X134927380Y-62106712D01*
X134927380Y-62106712D02*
X134965476Y-62182902D01*
X134965476Y-62182902D02*
X135003571Y-62220998D01*
X135003571Y-62220998D02*
X135079761Y-62259093D01*
X135079761Y-62259093D02*
X135232142Y-62259093D01*
X135232142Y-62259093D02*
X135308333Y-62220998D01*
X135308333Y-62220998D02*
X135346428Y-62182902D01*
X135346428Y-62182902D02*
X135384523Y-62106712D01*
X196607664Y-64133332D02*
X196645760Y-64171428D01*
X196645760Y-64171428D02*
X196683855Y-64285713D01*
X196683855Y-64285713D02*
X196683855Y-64361904D01*
X196683855Y-64361904D02*
X196645760Y-64476190D01*
X196645760Y-64476190D02*
X196569569Y-64552380D01*
X196569569Y-64552380D02*
X196493379Y-64590475D01*
X196493379Y-64590475D02*
X196340998Y-64628571D01*
X196340998Y-64628571D02*
X196226712Y-64628571D01*
X196226712Y-64628571D02*
X196074331Y-64590475D01*
X196074331Y-64590475D02*
X195998140Y-64552380D01*
X195998140Y-64552380D02*
X195921950Y-64476190D01*
X195921950Y-64476190D02*
X195883855Y-64361904D01*
X195883855Y-64361904D02*
X195883855Y-64285713D01*
X195883855Y-64285713D02*
X195921950Y-64171428D01*
X195921950Y-64171428D02*
X195960045Y-64133332D01*
X196226712Y-63676190D02*
X196188617Y-63752380D01*
X196188617Y-63752380D02*
X196150521Y-63790475D01*
X196150521Y-63790475D02*
X196074331Y-63828571D01*
X196074331Y-63828571D02*
X196036236Y-63828571D01*
X196036236Y-63828571D02*
X195960045Y-63790475D01*
X195960045Y-63790475D02*
X195921950Y-63752380D01*
X195921950Y-63752380D02*
X195883855Y-63676190D01*
X195883855Y-63676190D02*
X195883855Y-63523809D01*
X195883855Y-63523809D02*
X195921950Y-63447618D01*
X195921950Y-63447618D02*
X195960045Y-63409523D01*
X195960045Y-63409523D02*
X196036236Y-63371428D01*
X196036236Y-63371428D02*
X196074331Y-63371428D01*
X196074331Y-63371428D02*
X196150521Y-63409523D01*
X196150521Y-63409523D02*
X196188617Y-63447618D01*
X196188617Y-63447618D02*
X196226712Y-63523809D01*
X196226712Y-63523809D02*
X196226712Y-63676190D01*
X196226712Y-63676190D02*
X196264807Y-63752380D01*
X196264807Y-63752380D02*
X196302902Y-63790475D01*
X196302902Y-63790475D02*
X196379093Y-63828571D01*
X196379093Y-63828571D02*
X196531474Y-63828571D01*
X196531474Y-63828571D02*
X196607664Y-63790475D01*
X196607664Y-63790475D02*
X196645760Y-63752380D01*
X196645760Y-63752380D02*
X196683855Y-63676190D01*
X196683855Y-63676190D02*
X196683855Y-63523809D01*
X196683855Y-63523809D02*
X196645760Y-63447618D01*
X196645760Y-63447618D02*
X196607664Y-63409523D01*
X196607664Y-63409523D02*
X196531474Y-63371428D01*
X196531474Y-63371428D02*
X196379093Y-63371428D01*
X196379093Y-63371428D02*
X196302902Y-63409523D01*
X196302902Y-63409523D02*
X196264807Y-63447618D01*
X196264807Y-63447618D02*
X196226712Y-63523809D01*
X123191951Y-57704585D02*
X123191951Y-56904585D01*
X123191951Y-56904585D02*
X123458617Y-57476013D01*
X123458617Y-57476013D02*
X123725284Y-56904585D01*
X123725284Y-56904585D02*
X123725284Y-57704585D01*
X124106237Y-57704585D02*
X124106237Y-56904585D01*
X124563380Y-57704585D02*
X124220522Y-57247442D01*
X124563380Y-56904585D02*
X124106237Y-57361728D01*
X125325284Y-57704585D02*
X124868141Y-57704585D01*
X125096713Y-57704585D02*
X125096713Y-56904585D01*
X125096713Y-56904585D02*
X125020522Y-57018870D01*
X125020522Y-57018870D02*
X124944332Y-57095061D01*
X124944332Y-57095061D02*
X124868141Y-57133156D01*
X136285714Y-70338855D02*
X136019047Y-69957902D01*
X135828571Y-70338855D02*
X135828571Y-69538855D01*
X135828571Y-69538855D02*
X136133333Y-69538855D01*
X136133333Y-69538855D02*
X136209523Y-69576950D01*
X136209523Y-69576950D02*
X136247618Y-69615045D01*
X136247618Y-69615045D02*
X136285714Y-69691236D01*
X136285714Y-69691236D02*
X136285714Y-69805521D01*
X136285714Y-69805521D02*
X136247618Y-69881712D01*
X136247618Y-69881712D02*
X136209523Y-69919807D01*
X136209523Y-69919807D02*
X136133333Y-69957902D01*
X136133333Y-69957902D02*
X135828571Y-69957902D01*
X136552380Y-69538855D02*
X137047618Y-69538855D01*
X137047618Y-69538855D02*
X136780952Y-69843617D01*
X136780952Y-69843617D02*
X136895237Y-69843617D01*
X136895237Y-69843617D02*
X136971428Y-69881712D01*
X136971428Y-69881712D02*
X137009523Y-69919807D01*
X137009523Y-69919807D02*
X137047618Y-69995998D01*
X137047618Y-69995998D02*
X137047618Y-70186474D01*
X137047618Y-70186474D02*
X137009523Y-70262664D01*
X137009523Y-70262664D02*
X136971428Y-70300760D01*
X136971428Y-70300760D02*
X136895237Y-70338855D01*
X136895237Y-70338855D02*
X136666666Y-70338855D01*
X136666666Y-70338855D02*
X136590475Y-70300760D01*
X136590475Y-70300760D02*
X136552380Y-70262664D01*
X137542857Y-69538855D02*
X137619047Y-69538855D01*
X137619047Y-69538855D02*
X137695238Y-69576950D01*
X137695238Y-69576950D02*
X137733333Y-69615045D01*
X137733333Y-69615045D02*
X137771428Y-69691236D01*
X137771428Y-69691236D02*
X137809523Y-69843617D01*
X137809523Y-69843617D02*
X137809523Y-70034093D01*
X137809523Y-70034093D02*
X137771428Y-70186474D01*
X137771428Y-70186474D02*
X137733333Y-70262664D01*
X137733333Y-70262664D02*
X137695238Y-70300760D01*
X137695238Y-70300760D02*
X137619047Y-70338855D01*
X137619047Y-70338855D02*
X137542857Y-70338855D01*
X137542857Y-70338855D02*
X137466666Y-70300760D01*
X137466666Y-70300760D02*
X137428571Y-70262664D01*
X137428571Y-70262664D02*
X137390476Y-70186474D01*
X137390476Y-70186474D02*
X137352380Y-70034093D01*
X137352380Y-70034093D02*
X137352380Y-69843617D01*
X137352380Y-69843617D02*
X137390476Y-69691236D01*
X137390476Y-69691236D02*
X137428571Y-69615045D01*
X137428571Y-69615045D02*
X137466666Y-69576950D01*
X137466666Y-69576950D02*
X137542857Y-69538855D01*
X137735714Y-57525055D02*
X137469047Y-57144102D01*
X137278571Y-57525055D02*
X137278571Y-56725055D01*
X137278571Y-56725055D02*
X137583333Y-56725055D01*
X137583333Y-56725055D02*
X137659523Y-56763150D01*
X137659523Y-56763150D02*
X137697618Y-56801245D01*
X137697618Y-56801245D02*
X137735714Y-56877436D01*
X137735714Y-56877436D02*
X137735714Y-56991721D01*
X137735714Y-56991721D02*
X137697618Y-57067912D01*
X137697618Y-57067912D02*
X137659523Y-57106007D01*
X137659523Y-57106007D02*
X137583333Y-57144102D01*
X137583333Y-57144102D02*
X137278571Y-57144102D01*
X138002380Y-56725055D02*
X138497618Y-56725055D01*
X138497618Y-56725055D02*
X138230952Y-57029817D01*
X138230952Y-57029817D02*
X138345237Y-57029817D01*
X138345237Y-57029817D02*
X138421428Y-57067912D01*
X138421428Y-57067912D02*
X138459523Y-57106007D01*
X138459523Y-57106007D02*
X138497618Y-57182198D01*
X138497618Y-57182198D02*
X138497618Y-57372674D01*
X138497618Y-57372674D02*
X138459523Y-57448864D01*
X138459523Y-57448864D02*
X138421428Y-57486960D01*
X138421428Y-57486960D02*
X138345237Y-57525055D01*
X138345237Y-57525055D02*
X138116666Y-57525055D01*
X138116666Y-57525055D02*
X138040475Y-57486960D01*
X138040475Y-57486960D02*
X138002380Y-57448864D01*
X139259523Y-57525055D02*
X138802380Y-57525055D01*
X139030952Y-57525055D02*
X139030952Y-56725055D01*
X139030952Y-56725055D02*
X138954761Y-56839340D01*
X138954761Y-56839340D02*
X138878571Y-56915531D01*
X138878571Y-56915531D02*
X138802380Y-56953626D01*
X149666667Y-107663855D02*
X149400000Y-107282902D01*
X149209524Y-107663855D02*
X149209524Y-106863855D01*
X149209524Y-106863855D02*
X149514286Y-106863855D01*
X149514286Y-106863855D02*
X149590476Y-106901950D01*
X149590476Y-106901950D02*
X149628571Y-106940045D01*
X149628571Y-106940045D02*
X149666667Y-107016236D01*
X149666667Y-107016236D02*
X149666667Y-107130521D01*
X149666667Y-107130521D02*
X149628571Y-107206712D01*
X149628571Y-107206712D02*
X149590476Y-107244807D01*
X149590476Y-107244807D02*
X149514286Y-107282902D01*
X149514286Y-107282902D02*
X149209524Y-107282902D01*
X150352381Y-107130521D02*
X150352381Y-107663855D01*
X150161905Y-106825760D02*
X149971428Y-107397188D01*
X149971428Y-107397188D02*
X150466667Y-107397188D01*
X204310714Y-78887664D02*
X204272618Y-78925760D01*
X204272618Y-78925760D02*
X204158333Y-78963855D01*
X204158333Y-78963855D02*
X204082142Y-78963855D01*
X204082142Y-78963855D02*
X203967856Y-78925760D01*
X203967856Y-78925760D02*
X203891666Y-78849569D01*
X203891666Y-78849569D02*
X203853571Y-78773379D01*
X203853571Y-78773379D02*
X203815475Y-78620998D01*
X203815475Y-78620998D02*
X203815475Y-78506712D01*
X203815475Y-78506712D02*
X203853571Y-78354331D01*
X203853571Y-78354331D02*
X203891666Y-78278140D01*
X203891666Y-78278140D02*
X203967856Y-78201950D01*
X203967856Y-78201950D02*
X204082142Y-78163855D01*
X204082142Y-78163855D02*
X204158333Y-78163855D01*
X204158333Y-78163855D02*
X204272618Y-78201950D01*
X204272618Y-78201950D02*
X204310714Y-78240045D01*
X205072618Y-78963855D02*
X204615475Y-78963855D01*
X204844047Y-78963855D02*
X204844047Y-78163855D01*
X204844047Y-78163855D02*
X204767856Y-78278140D01*
X204767856Y-78278140D02*
X204691666Y-78354331D01*
X204691666Y-78354331D02*
X204615475Y-78392426D01*
X205339285Y-78163855D02*
X205834523Y-78163855D01*
X205834523Y-78163855D02*
X205567857Y-78468617D01*
X205567857Y-78468617D02*
X205682142Y-78468617D01*
X205682142Y-78468617D02*
X205758333Y-78506712D01*
X205758333Y-78506712D02*
X205796428Y-78544807D01*
X205796428Y-78544807D02*
X205834523Y-78620998D01*
X205834523Y-78620998D02*
X205834523Y-78811474D01*
X205834523Y-78811474D02*
X205796428Y-78887664D01*
X205796428Y-78887664D02*
X205758333Y-78925760D01*
X205758333Y-78925760D02*
X205682142Y-78963855D01*
X205682142Y-78963855D02*
X205453571Y-78963855D01*
X205453571Y-78963855D02*
X205377380Y-78925760D01*
X205377380Y-78925760D02*
X205339285Y-78887664D01*
X132410714Y-73738855D02*
X132144047Y-73357902D01*
X131953571Y-73738855D02*
X131953571Y-72938855D01*
X131953571Y-72938855D02*
X132258333Y-72938855D01*
X132258333Y-72938855D02*
X132334523Y-72976950D01*
X132334523Y-72976950D02*
X132372618Y-73015045D01*
X132372618Y-73015045D02*
X132410714Y-73091236D01*
X132410714Y-73091236D02*
X132410714Y-73205521D01*
X132410714Y-73205521D02*
X132372618Y-73281712D01*
X132372618Y-73281712D02*
X132334523Y-73319807D01*
X132334523Y-73319807D02*
X132258333Y-73357902D01*
X132258333Y-73357902D02*
X131953571Y-73357902D01*
X132715475Y-73015045D02*
X132753571Y-72976950D01*
X132753571Y-72976950D02*
X132829761Y-72938855D01*
X132829761Y-72938855D02*
X133020237Y-72938855D01*
X133020237Y-72938855D02*
X133096428Y-72976950D01*
X133096428Y-72976950D02*
X133134523Y-73015045D01*
X133134523Y-73015045D02*
X133172618Y-73091236D01*
X133172618Y-73091236D02*
X133172618Y-73167426D01*
X133172618Y-73167426D02*
X133134523Y-73281712D01*
X133134523Y-73281712D02*
X132677380Y-73738855D01*
X132677380Y-73738855D02*
X133172618Y-73738855D01*
X133629761Y-73281712D02*
X133553571Y-73243617D01*
X133553571Y-73243617D02*
X133515476Y-73205521D01*
X133515476Y-73205521D02*
X133477380Y-73129331D01*
X133477380Y-73129331D02*
X133477380Y-73091236D01*
X133477380Y-73091236D02*
X133515476Y-73015045D01*
X133515476Y-73015045D02*
X133553571Y-72976950D01*
X133553571Y-72976950D02*
X133629761Y-72938855D01*
X133629761Y-72938855D02*
X133782142Y-72938855D01*
X133782142Y-72938855D02*
X133858333Y-72976950D01*
X133858333Y-72976950D02*
X133896428Y-73015045D01*
X133896428Y-73015045D02*
X133934523Y-73091236D01*
X133934523Y-73091236D02*
X133934523Y-73129331D01*
X133934523Y-73129331D02*
X133896428Y-73205521D01*
X133896428Y-73205521D02*
X133858333Y-73243617D01*
X133858333Y-73243617D02*
X133782142Y-73281712D01*
X133782142Y-73281712D02*
X133629761Y-73281712D01*
X133629761Y-73281712D02*
X133553571Y-73319807D01*
X133553571Y-73319807D02*
X133515476Y-73357902D01*
X133515476Y-73357902D02*
X133477380Y-73434093D01*
X133477380Y-73434093D02*
X133477380Y-73586474D01*
X133477380Y-73586474D02*
X133515476Y-73662664D01*
X133515476Y-73662664D02*
X133553571Y-73700760D01*
X133553571Y-73700760D02*
X133629761Y-73738855D01*
X133629761Y-73738855D02*
X133782142Y-73738855D01*
X133782142Y-73738855D02*
X133858333Y-73700760D01*
X133858333Y-73700760D02*
X133896428Y-73662664D01*
X133896428Y-73662664D02*
X133934523Y-73586474D01*
X133934523Y-73586474D02*
X133934523Y-73434093D01*
X133934523Y-73434093D02*
X133896428Y-73357902D01*
X133896428Y-73357902D02*
X133858333Y-73319807D01*
X133858333Y-73319807D02*
X133782142Y-73281712D01*
X137860714Y-61457664D02*
X137822618Y-61495760D01*
X137822618Y-61495760D02*
X137708333Y-61533855D01*
X137708333Y-61533855D02*
X137632142Y-61533855D01*
X137632142Y-61533855D02*
X137517856Y-61495760D01*
X137517856Y-61495760D02*
X137441666Y-61419569D01*
X137441666Y-61419569D02*
X137403571Y-61343379D01*
X137403571Y-61343379D02*
X137365475Y-61190998D01*
X137365475Y-61190998D02*
X137365475Y-61076712D01*
X137365475Y-61076712D02*
X137403571Y-60924331D01*
X137403571Y-60924331D02*
X137441666Y-60848140D01*
X137441666Y-60848140D02*
X137517856Y-60771950D01*
X137517856Y-60771950D02*
X137632142Y-60733855D01*
X137632142Y-60733855D02*
X137708333Y-60733855D01*
X137708333Y-60733855D02*
X137822618Y-60771950D01*
X137822618Y-60771950D02*
X137860714Y-60810045D01*
X138165475Y-60810045D02*
X138203571Y-60771950D01*
X138203571Y-60771950D02*
X138279761Y-60733855D01*
X138279761Y-60733855D02*
X138470237Y-60733855D01*
X138470237Y-60733855D02*
X138546428Y-60771950D01*
X138546428Y-60771950D02*
X138584523Y-60810045D01*
X138584523Y-60810045D02*
X138622618Y-60886236D01*
X138622618Y-60886236D02*
X138622618Y-60962426D01*
X138622618Y-60962426D02*
X138584523Y-61076712D01*
X138584523Y-61076712D02*
X138127380Y-61533855D01*
X138127380Y-61533855D02*
X138622618Y-61533855D01*
X139117857Y-60733855D02*
X139194047Y-60733855D01*
X139194047Y-60733855D02*
X139270238Y-60771950D01*
X139270238Y-60771950D02*
X139308333Y-60810045D01*
X139308333Y-60810045D02*
X139346428Y-60886236D01*
X139346428Y-60886236D02*
X139384523Y-61038617D01*
X139384523Y-61038617D02*
X139384523Y-61229093D01*
X139384523Y-61229093D02*
X139346428Y-61381474D01*
X139346428Y-61381474D02*
X139308333Y-61457664D01*
X139308333Y-61457664D02*
X139270238Y-61495760D01*
X139270238Y-61495760D02*
X139194047Y-61533855D01*
X139194047Y-61533855D02*
X139117857Y-61533855D01*
X139117857Y-61533855D02*
X139041666Y-61495760D01*
X139041666Y-61495760D02*
X139003571Y-61457664D01*
X139003571Y-61457664D02*
X138965476Y-61381474D01*
X138965476Y-61381474D02*
X138927380Y-61229093D01*
X138927380Y-61229093D02*
X138927380Y-61038617D01*
X138927380Y-61038617D02*
X138965476Y-60886236D01*
X138965476Y-60886236D02*
X139003571Y-60810045D01*
X139003571Y-60810045D02*
X139041666Y-60771950D01*
X139041666Y-60771950D02*
X139117857Y-60733855D01*
X191990476Y-75763855D02*
X192447619Y-75763855D01*
X192219047Y-76563855D02*
X192219047Y-75763855D01*
X192714286Y-76563855D02*
X192714286Y-75763855D01*
X192714286Y-75763855D02*
X193019048Y-75763855D01*
X193019048Y-75763855D02*
X193095238Y-75801950D01*
X193095238Y-75801950D02*
X193133333Y-75840045D01*
X193133333Y-75840045D02*
X193171429Y-75916236D01*
X193171429Y-75916236D02*
X193171429Y-76030521D01*
X193171429Y-76030521D02*
X193133333Y-76106712D01*
X193133333Y-76106712D02*
X193095238Y-76144807D01*
X193095238Y-76144807D02*
X193019048Y-76182902D01*
X193019048Y-76182902D02*
X192714286Y-76182902D01*
X193438095Y-75763855D02*
X193933333Y-75763855D01*
X193933333Y-75763855D02*
X193666667Y-76068617D01*
X193666667Y-76068617D02*
X193780952Y-76068617D01*
X193780952Y-76068617D02*
X193857143Y-76106712D01*
X193857143Y-76106712D02*
X193895238Y-76144807D01*
X193895238Y-76144807D02*
X193933333Y-76220998D01*
X193933333Y-76220998D02*
X193933333Y-76411474D01*
X193933333Y-76411474D02*
X193895238Y-76487664D01*
X193895238Y-76487664D02*
X193857143Y-76525760D01*
X193857143Y-76525760D02*
X193780952Y-76563855D01*
X193780952Y-76563855D02*
X193552381Y-76563855D01*
X193552381Y-76563855D02*
X193476190Y-76525760D01*
X193476190Y-76525760D02*
X193438095Y-76487664D01*
X128873214Y-67338855D02*
X128606547Y-66957902D01*
X128416071Y-67338855D02*
X128416071Y-66538855D01*
X128416071Y-66538855D02*
X128720833Y-66538855D01*
X128720833Y-66538855D02*
X128797023Y-66576950D01*
X128797023Y-66576950D02*
X128835118Y-66615045D01*
X128835118Y-66615045D02*
X128873214Y-66691236D01*
X128873214Y-66691236D02*
X128873214Y-66805521D01*
X128873214Y-66805521D02*
X128835118Y-66881712D01*
X128835118Y-66881712D02*
X128797023Y-66919807D01*
X128797023Y-66919807D02*
X128720833Y-66957902D01*
X128720833Y-66957902D02*
X128416071Y-66957902D01*
X129177975Y-66615045D02*
X129216071Y-66576950D01*
X129216071Y-66576950D02*
X129292261Y-66538855D01*
X129292261Y-66538855D02*
X129482737Y-66538855D01*
X129482737Y-66538855D02*
X129558928Y-66576950D01*
X129558928Y-66576950D02*
X129597023Y-66615045D01*
X129597023Y-66615045D02*
X129635118Y-66691236D01*
X129635118Y-66691236D02*
X129635118Y-66767426D01*
X129635118Y-66767426D02*
X129597023Y-66881712D01*
X129597023Y-66881712D02*
X129139880Y-67338855D01*
X129139880Y-67338855D02*
X129635118Y-67338855D01*
X130320833Y-66538855D02*
X130168452Y-66538855D01*
X130168452Y-66538855D02*
X130092261Y-66576950D01*
X130092261Y-66576950D02*
X130054166Y-66615045D01*
X130054166Y-66615045D02*
X129977976Y-66729331D01*
X129977976Y-66729331D02*
X129939880Y-66881712D01*
X129939880Y-66881712D02*
X129939880Y-67186474D01*
X129939880Y-67186474D02*
X129977976Y-67262664D01*
X129977976Y-67262664D02*
X130016071Y-67300760D01*
X130016071Y-67300760D02*
X130092261Y-67338855D01*
X130092261Y-67338855D02*
X130244642Y-67338855D01*
X130244642Y-67338855D02*
X130320833Y-67300760D01*
X130320833Y-67300760D02*
X130358928Y-67262664D01*
X130358928Y-67262664D02*
X130397023Y-67186474D01*
X130397023Y-67186474D02*
X130397023Y-66995998D01*
X130397023Y-66995998D02*
X130358928Y-66919807D01*
X130358928Y-66919807D02*
X130320833Y-66881712D01*
X130320833Y-66881712D02*
X130244642Y-66843617D01*
X130244642Y-66843617D02*
X130092261Y-66843617D01*
X130092261Y-66843617D02*
X130016071Y-66881712D01*
X130016071Y-66881712D02*
X129977976Y-66919807D01*
X129977976Y-66919807D02*
X129939880Y-66995998D01*
X180733333Y-88963855D02*
X180466666Y-88582902D01*
X180276190Y-88963855D02*
X180276190Y-88163855D01*
X180276190Y-88163855D02*
X180580952Y-88163855D01*
X180580952Y-88163855D02*
X180657142Y-88201950D01*
X180657142Y-88201950D02*
X180695237Y-88240045D01*
X180695237Y-88240045D02*
X180733333Y-88316236D01*
X180733333Y-88316236D02*
X180733333Y-88430521D01*
X180733333Y-88430521D02*
X180695237Y-88506712D01*
X180695237Y-88506712D02*
X180657142Y-88544807D01*
X180657142Y-88544807D02*
X180580952Y-88582902D01*
X180580952Y-88582902D02*
X180276190Y-88582902D01*
X181076190Y-88544807D02*
X181342856Y-88544807D01*
X181457142Y-88963855D02*
X181076190Y-88963855D01*
X181076190Y-88963855D02*
X181076190Y-88163855D01*
X181076190Y-88163855D02*
X181457142Y-88163855D01*
X182066666Y-88544807D02*
X181800000Y-88544807D01*
X181800000Y-88963855D02*
X181800000Y-88163855D01*
X181800000Y-88163855D02*
X182180952Y-88163855D01*
X182599999Y-88163855D02*
X182599999Y-88354331D01*
X182409523Y-88278140D02*
X182599999Y-88354331D01*
X182599999Y-88354331D02*
X182790476Y-88278140D01*
X182485714Y-88506712D02*
X182599999Y-88354331D01*
X182599999Y-88354331D02*
X182714285Y-88506712D01*
X183209523Y-88163855D02*
X183209523Y-88354331D01*
X183019047Y-88278140D02*
X183209523Y-88354331D01*
X183209523Y-88354331D02*
X183400000Y-88278140D01*
X183095238Y-88506712D02*
X183209523Y-88354331D01*
X183209523Y-88354331D02*
X183323809Y-88506712D01*
X147260714Y-69532664D02*
X147222618Y-69570760D01*
X147222618Y-69570760D02*
X147108333Y-69608855D01*
X147108333Y-69608855D02*
X147032142Y-69608855D01*
X147032142Y-69608855D02*
X146917856Y-69570760D01*
X146917856Y-69570760D02*
X146841666Y-69494569D01*
X146841666Y-69494569D02*
X146803571Y-69418379D01*
X146803571Y-69418379D02*
X146765475Y-69265998D01*
X146765475Y-69265998D02*
X146765475Y-69151712D01*
X146765475Y-69151712D02*
X146803571Y-68999331D01*
X146803571Y-68999331D02*
X146841666Y-68923140D01*
X146841666Y-68923140D02*
X146917856Y-68846950D01*
X146917856Y-68846950D02*
X147032142Y-68808855D01*
X147032142Y-68808855D02*
X147108333Y-68808855D01*
X147108333Y-68808855D02*
X147222618Y-68846950D01*
X147222618Y-68846950D02*
X147260714Y-68885045D01*
X147565475Y-68885045D02*
X147603571Y-68846950D01*
X147603571Y-68846950D02*
X147679761Y-68808855D01*
X147679761Y-68808855D02*
X147870237Y-68808855D01*
X147870237Y-68808855D02*
X147946428Y-68846950D01*
X147946428Y-68846950D02*
X147984523Y-68885045D01*
X147984523Y-68885045D02*
X148022618Y-68961236D01*
X148022618Y-68961236D02*
X148022618Y-69037426D01*
X148022618Y-69037426D02*
X147984523Y-69151712D01*
X147984523Y-69151712D02*
X147527380Y-69608855D01*
X147527380Y-69608855D02*
X148022618Y-69608855D01*
X148327380Y-68885045D02*
X148365476Y-68846950D01*
X148365476Y-68846950D02*
X148441666Y-68808855D01*
X148441666Y-68808855D02*
X148632142Y-68808855D01*
X148632142Y-68808855D02*
X148708333Y-68846950D01*
X148708333Y-68846950D02*
X148746428Y-68885045D01*
X148746428Y-68885045D02*
X148784523Y-68961236D01*
X148784523Y-68961236D02*
X148784523Y-69037426D01*
X148784523Y-69037426D02*
X148746428Y-69151712D01*
X148746428Y-69151712D02*
X148289285Y-69608855D01*
X148289285Y-69608855D02*
X148784523Y-69608855D01*
X115652381Y-102963855D02*
X115919048Y-103763855D01*
X115919048Y-103763855D02*
X116185714Y-102963855D01*
X116909524Y-103763855D02*
X116642857Y-103382902D01*
X116452381Y-103763855D02*
X116452381Y-102963855D01*
X116452381Y-102963855D02*
X116757143Y-102963855D01*
X116757143Y-102963855D02*
X116833333Y-103001950D01*
X116833333Y-103001950D02*
X116871428Y-103040045D01*
X116871428Y-103040045D02*
X116909524Y-103116236D01*
X116909524Y-103116236D02*
X116909524Y-103230521D01*
X116909524Y-103230521D02*
X116871428Y-103306712D01*
X116871428Y-103306712D02*
X116833333Y-103344807D01*
X116833333Y-103344807D02*
X116757143Y-103382902D01*
X116757143Y-103382902D02*
X116452381Y-103382902D01*
X117671428Y-103763855D02*
X117214285Y-103763855D01*
X117442857Y-103763855D02*
X117442857Y-102963855D01*
X117442857Y-102963855D02*
X117366666Y-103078140D01*
X117366666Y-103078140D02*
X117290476Y-103154331D01*
X117290476Y-103154331D02*
X117214285Y-103192426D01*
X177213855Y-95864285D02*
X176832902Y-96130952D01*
X177213855Y-96321428D02*
X176413855Y-96321428D01*
X176413855Y-96321428D02*
X176413855Y-96016666D01*
X176413855Y-96016666D02*
X176451950Y-95940476D01*
X176451950Y-95940476D02*
X176490045Y-95902381D01*
X176490045Y-95902381D02*
X176566236Y-95864285D01*
X176566236Y-95864285D02*
X176680521Y-95864285D01*
X176680521Y-95864285D02*
X176756712Y-95902381D01*
X176756712Y-95902381D02*
X176794807Y-95940476D01*
X176794807Y-95940476D02*
X176832902Y-96016666D01*
X176832902Y-96016666D02*
X176832902Y-96321428D01*
X177213855Y-95102381D02*
X177213855Y-95559524D01*
X177213855Y-95330952D02*
X176413855Y-95330952D01*
X176413855Y-95330952D02*
X176528140Y-95407143D01*
X176528140Y-95407143D02*
X176604331Y-95483333D01*
X176604331Y-95483333D02*
X176642426Y-95559524D01*
X176756712Y-94645238D02*
X176718617Y-94721428D01*
X176718617Y-94721428D02*
X176680521Y-94759523D01*
X176680521Y-94759523D02*
X176604331Y-94797619D01*
X176604331Y-94797619D02*
X176566236Y-94797619D01*
X176566236Y-94797619D02*
X176490045Y-94759523D01*
X176490045Y-94759523D02*
X176451950Y-94721428D01*
X176451950Y-94721428D02*
X176413855Y-94645238D01*
X176413855Y-94645238D02*
X176413855Y-94492857D01*
X176413855Y-94492857D02*
X176451950Y-94416666D01*
X176451950Y-94416666D02*
X176490045Y-94378571D01*
X176490045Y-94378571D02*
X176566236Y-94340476D01*
X176566236Y-94340476D02*
X176604331Y-94340476D01*
X176604331Y-94340476D02*
X176680521Y-94378571D01*
X176680521Y-94378571D02*
X176718617Y-94416666D01*
X176718617Y-94416666D02*
X176756712Y-94492857D01*
X176756712Y-94492857D02*
X176756712Y-94645238D01*
X176756712Y-94645238D02*
X176794807Y-94721428D01*
X176794807Y-94721428D02*
X176832902Y-94759523D01*
X176832902Y-94759523D02*
X176909093Y-94797619D01*
X176909093Y-94797619D02*
X177061474Y-94797619D01*
X177061474Y-94797619D02*
X177137664Y-94759523D01*
X177137664Y-94759523D02*
X177175760Y-94721428D01*
X177175760Y-94721428D02*
X177213855Y-94645238D01*
X177213855Y-94645238D02*
X177213855Y-94492857D01*
X177213855Y-94492857D02*
X177175760Y-94416666D01*
X177175760Y-94416666D02*
X177137664Y-94378571D01*
X177137664Y-94378571D02*
X177061474Y-94340476D01*
X177061474Y-94340476D02*
X176909093Y-94340476D01*
X176909093Y-94340476D02*
X176832902Y-94378571D01*
X176832902Y-94378571D02*
X176794807Y-94416666D01*
X176794807Y-94416666D02*
X176756712Y-94492857D01*
X168585714Y-102787664D02*
X168547618Y-102825760D01*
X168547618Y-102825760D02*
X168433333Y-102863855D01*
X168433333Y-102863855D02*
X168357142Y-102863855D01*
X168357142Y-102863855D02*
X168242856Y-102825760D01*
X168242856Y-102825760D02*
X168166666Y-102749569D01*
X168166666Y-102749569D02*
X168128571Y-102673379D01*
X168128571Y-102673379D02*
X168090475Y-102520998D01*
X168090475Y-102520998D02*
X168090475Y-102406712D01*
X168090475Y-102406712D02*
X168128571Y-102254331D01*
X168128571Y-102254331D02*
X168166666Y-102178140D01*
X168166666Y-102178140D02*
X168242856Y-102101950D01*
X168242856Y-102101950D02*
X168357142Y-102063855D01*
X168357142Y-102063855D02*
X168433333Y-102063855D01*
X168433333Y-102063855D02*
X168547618Y-102101950D01*
X168547618Y-102101950D02*
X168585714Y-102140045D01*
X169347618Y-102863855D02*
X168890475Y-102863855D01*
X169119047Y-102863855D02*
X169119047Y-102063855D01*
X169119047Y-102063855D02*
X169042856Y-102178140D01*
X169042856Y-102178140D02*
X168966666Y-102254331D01*
X168966666Y-102254331D02*
X168890475Y-102292426D01*
X169842857Y-102063855D02*
X169919047Y-102063855D01*
X169919047Y-102063855D02*
X169995238Y-102101950D01*
X169995238Y-102101950D02*
X170033333Y-102140045D01*
X170033333Y-102140045D02*
X170071428Y-102216236D01*
X170071428Y-102216236D02*
X170109523Y-102368617D01*
X170109523Y-102368617D02*
X170109523Y-102559093D01*
X170109523Y-102559093D02*
X170071428Y-102711474D01*
X170071428Y-102711474D02*
X170033333Y-102787664D01*
X170033333Y-102787664D02*
X169995238Y-102825760D01*
X169995238Y-102825760D02*
X169919047Y-102863855D01*
X169919047Y-102863855D02*
X169842857Y-102863855D01*
X169842857Y-102863855D02*
X169766666Y-102825760D01*
X169766666Y-102825760D02*
X169728571Y-102787664D01*
X169728571Y-102787664D02*
X169690476Y-102711474D01*
X169690476Y-102711474D02*
X169652380Y-102559093D01*
X169652380Y-102559093D02*
X169652380Y-102368617D01*
X169652380Y-102368617D02*
X169690476Y-102216236D01*
X169690476Y-102216236D02*
X169728571Y-102140045D01*
X169728571Y-102140045D02*
X169766666Y-102101950D01*
X169766666Y-102101950D02*
X169842857Y-102063855D01*
X171060714Y-79882664D02*
X171022618Y-79920760D01*
X171022618Y-79920760D02*
X170908333Y-79958855D01*
X170908333Y-79958855D02*
X170832142Y-79958855D01*
X170832142Y-79958855D02*
X170717856Y-79920760D01*
X170717856Y-79920760D02*
X170641666Y-79844569D01*
X170641666Y-79844569D02*
X170603571Y-79768379D01*
X170603571Y-79768379D02*
X170565475Y-79615998D01*
X170565475Y-79615998D02*
X170565475Y-79501712D01*
X170565475Y-79501712D02*
X170603571Y-79349331D01*
X170603571Y-79349331D02*
X170641666Y-79273140D01*
X170641666Y-79273140D02*
X170717856Y-79196950D01*
X170717856Y-79196950D02*
X170832142Y-79158855D01*
X170832142Y-79158855D02*
X170908333Y-79158855D01*
X170908333Y-79158855D02*
X171022618Y-79196950D01*
X171022618Y-79196950D02*
X171060714Y-79235045D01*
X171365475Y-79235045D02*
X171403571Y-79196950D01*
X171403571Y-79196950D02*
X171479761Y-79158855D01*
X171479761Y-79158855D02*
X171670237Y-79158855D01*
X171670237Y-79158855D02*
X171746428Y-79196950D01*
X171746428Y-79196950D02*
X171784523Y-79235045D01*
X171784523Y-79235045D02*
X171822618Y-79311236D01*
X171822618Y-79311236D02*
X171822618Y-79387426D01*
X171822618Y-79387426D02*
X171784523Y-79501712D01*
X171784523Y-79501712D02*
X171327380Y-79958855D01*
X171327380Y-79958855D02*
X171822618Y-79958855D01*
X172546428Y-79158855D02*
X172165476Y-79158855D01*
X172165476Y-79158855D02*
X172127380Y-79539807D01*
X172127380Y-79539807D02*
X172165476Y-79501712D01*
X172165476Y-79501712D02*
X172241666Y-79463617D01*
X172241666Y-79463617D02*
X172432142Y-79463617D01*
X172432142Y-79463617D02*
X172508333Y-79501712D01*
X172508333Y-79501712D02*
X172546428Y-79539807D01*
X172546428Y-79539807D02*
X172584523Y-79615998D01*
X172584523Y-79615998D02*
X172584523Y-79806474D01*
X172584523Y-79806474D02*
X172546428Y-79882664D01*
X172546428Y-79882664D02*
X172508333Y-79920760D01*
X172508333Y-79920760D02*
X172432142Y-79958855D01*
X172432142Y-79958855D02*
X172241666Y-79958855D01*
X172241666Y-79958855D02*
X172165476Y-79920760D01*
X172165476Y-79920760D02*
X172127380Y-79882664D01*
X170962664Y-63614285D02*
X171000760Y-63652381D01*
X171000760Y-63652381D02*
X171038855Y-63766666D01*
X171038855Y-63766666D02*
X171038855Y-63842857D01*
X171038855Y-63842857D02*
X171000760Y-63957143D01*
X171000760Y-63957143D02*
X170924569Y-64033333D01*
X170924569Y-64033333D02*
X170848379Y-64071428D01*
X170848379Y-64071428D02*
X170695998Y-64109524D01*
X170695998Y-64109524D02*
X170581712Y-64109524D01*
X170581712Y-64109524D02*
X170429331Y-64071428D01*
X170429331Y-64071428D02*
X170353140Y-64033333D01*
X170353140Y-64033333D02*
X170276950Y-63957143D01*
X170276950Y-63957143D02*
X170238855Y-63842857D01*
X170238855Y-63842857D02*
X170238855Y-63766666D01*
X170238855Y-63766666D02*
X170276950Y-63652381D01*
X170276950Y-63652381D02*
X170315045Y-63614285D01*
X171038855Y-62852381D02*
X171038855Y-63309524D01*
X171038855Y-63080952D02*
X170238855Y-63080952D01*
X170238855Y-63080952D02*
X170353140Y-63157143D01*
X170353140Y-63157143D02*
X170429331Y-63233333D01*
X170429331Y-63233333D02*
X170467426Y-63309524D01*
X170238855Y-62128571D02*
X170238855Y-62509523D01*
X170238855Y-62509523D02*
X170619807Y-62547619D01*
X170619807Y-62547619D02*
X170581712Y-62509523D01*
X170581712Y-62509523D02*
X170543617Y-62433333D01*
X170543617Y-62433333D02*
X170543617Y-62242857D01*
X170543617Y-62242857D02*
X170581712Y-62166666D01*
X170581712Y-62166666D02*
X170619807Y-62128571D01*
X170619807Y-62128571D02*
X170695998Y-62090476D01*
X170695998Y-62090476D02*
X170886474Y-62090476D01*
X170886474Y-62090476D02*
X170962664Y-62128571D01*
X170962664Y-62128571D02*
X171000760Y-62166666D01*
X171000760Y-62166666D02*
X171038855Y-62242857D01*
X171038855Y-62242857D02*
X171038855Y-62433333D01*
X171038855Y-62433333D02*
X171000760Y-62509523D01*
X171000760Y-62509523D02*
X170962664Y-62547619D01*
X120108333Y-87713855D02*
X119841666Y-87332902D01*
X119651190Y-87713855D02*
X119651190Y-86913855D01*
X119651190Y-86913855D02*
X119955952Y-86913855D01*
X119955952Y-86913855D02*
X120032142Y-86951950D01*
X120032142Y-86951950D02*
X120070237Y-86990045D01*
X120070237Y-86990045D02*
X120108333Y-87066236D01*
X120108333Y-87066236D02*
X120108333Y-87180521D01*
X120108333Y-87180521D02*
X120070237Y-87256712D01*
X120070237Y-87256712D02*
X120032142Y-87294807D01*
X120032142Y-87294807D02*
X119955952Y-87332902D01*
X119955952Y-87332902D02*
X119651190Y-87332902D01*
X120451190Y-87294807D02*
X120717856Y-87294807D01*
X120832142Y-87713855D02*
X120451190Y-87713855D01*
X120451190Y-87713855D02*
X120451190Y-86913855D01*
X120451190Y-86913855D02*
X120832142Y-86913855D01*
X121441666Y-87294807D02*
X121175000Y-87294807D01*
X121175000Y-87713855D02*
X121175000Y-86913855D01*
X121175000Y-86913855D02*
X121555952Y-86913855D01*
X121974999Y-86913855D02*
X121974999Y-87104331D01*
X121784523Y-87028140D02*
X121974999Y-87104331D01*
X121974999Y-87104331D02*
X122165476Y-87028140D01*
X121860714Y-87256712D02*
X121974999Y-87104331D01*
X121974999Y-87104331D02*
X122089285Y-87256712D01*
X122584523Y-86913855D02*
X122584523Y-87104331D01*
X122394047Y-87028140D02*
X122584523Y-87104331D01*
X122584523Y-87104331D02*
X122775000Y-87028140D01*
X122470238Y-87256712D02*
X122584523Y-87104331D01*
X122584523Y-87104331D02*
X122698809Y-87256712D01*
X145763855Y-104208332D02*
X145382902Y-104474999D01*
X145763855Y-104665475D02*
X144963855Y-104665475D01*
X144963855Y-104665475D02*
X144963855Y-104360713D01*
X144963855Y-104360713D02*
X145001950Y-104284523D01*
X145001950Y-104284523D02*
X145040045Y-104246428D01*
X145040045Y-104246428D02*
X145116236Y-104208332D01*
X145116236Y-104208332D02*
X145230521Y-104208332D01*
X145230521Y-104208332D02*
X145306712Y-104246428D01*
X145306712Y-104246428D02*
X145344807Y-104284523D01*
X145344807Y-104284523D02*
X145382902Y-104360713D01*
X145382902Y-104360713D02*
X145382902Y-104665475D01*
X144963855Y-103941666D02*
X144963855Y-103446428D01*
X144963855Y-103446428D02*
X145268617Y-103713094D01*
X145268617Y-103713094D02*
X145268617Y-103598809D01*
X145268617Y-103598809D02*
X145306712Y-103522618D01*
X145306712Y-103522618D02*
X145344807Y-103484523D01*
X145344807Y-103484523D02*
X145420998Y-103446428D01*
X145420998Y-103446428D02*
X145611474Y-103446428D01*
X145611474Y-103446428D02*
X145687664Y-103484523D01*
X145687664Y-103484523D02*
X145725760Y-103522618D01*
X145725760Y-103522618D02*
X145763855Y-103598809D01*
X145763855Y-103598809D02*
X145763855Y-103827380D01*
X145763855Y-103827380D02*
X145725760Y-103903571D01*
X145725760Y-103903571D02*
X145687664Y-103941666D01*
X175163855Y-81995238D02*
X175163855Y-82376190D01*
X175163855Y-82376190D02*
X174363855Y-82376190D01*
X174744807Y-81728571D02*
X174744807Y-81461905D01*
X175163855Y-81347619D02*
X175163855Y-81728571D01*
X175163855Y-81728571D02*
X174363855Y-81728571D01*
X174363855Y-81728571D02*
X174363855Y-81347619D01*
X175163855Y-81004761D02*
X174363855Y-81004761D01*
X174363855Y-81004761D02*
X174363855Y-80814285D01*
X174363855Y-80814285D02*
X174401950Y-80699999D01*
X174401950Y-80699999D02*
X174478140Y-80623809D01*
X174478140Y-80623809D02*
X174554331Y-80585714D01*
X174554331Y-80585714D02*
X174706712Y-80547618D01*
X174706712Y-80547618D02*
X174820998Y-80547618D01*
X174820998Y-80547618D02*
X174973379Y-80585714D01*
X174973379Y-80585714D02*
X175049569Y-80623809D01*
X175049569Y-80623809D02*
X175125760Y-80699999D01*
X175125760Y-80699999D02*
X175163855Y-80814285D01*
X175163855Y-80814285D02*
X175163855Y-81004761D01*
X174630521Y-79861904D02*
X175163855Y-79861904D01*
X174325760Y-80052380D02*
X174897188Y-80242857D01*
X174897188Y-80242857D02*
X174897188Y-79747618D01*
X140763855Y-93333332D02*
X140382902Y-93599999D01*
X140763855Y-93790475D02*
X139963855Y-93790475D01*
X139963855Y-93790475D02*
X139963855Y-93485713D01*
X139963855Y-93485713D02*
X140001950Y-93409523D01*
X140001950Y-93409523D02*
X140040045Y-93371428D01*
X140040045Y-93371428D02*
X140116236Y-93333332D01*
X140116236Y-93333332D02*
X140230521Y-93333332D01*
X140230521Y-93333332D02*
X140306712Y-93371428D01*
X140306712Y-93371428D02*
X140344807Y-93409523D01*
X140344807Y-93409523D02*
X140382902Y-93485713D01*
X140382902Y-93485713D02*
X140382902Y-93790475D01*
X140763855Y-92571428D02*
X140763855Y-93028571D01*
X140763855Y-92799999D02*
X139963855Y-92799999D01*
X139963855Y-92799999D02*
X140078140Y-92876190D01*
X140078140Y-92876190D02*
X140154331Y-92952380D01*
X140154331Y-92952380D02*
X140192426Y-93028571D01*
X144417664Y-83733332D02*
X144455760Y-83771428D01*
X144455760Y-83771428D02*
X144493855Y-83885713D01*
X144493855Y-83885713D02*
X144493855Y-83961904D01*
X144493855Y-83961904D02*
X144455760Y-84076190D01*
X144455760Y-84076190D02*
X144379569Y-84152380D01*
X144379569Y-84152380D02*
X144303379Y-84190475D01*
X144303379Y-84190475D02*
X144150998Y-84228571D01*
X144150998Y-84228571D02*
X144036712Y-84228571D01*
X144036712Y-84228571D02*
X143884331Y-84190475D01*
X143884331Y-84190475D02*
X143808140Y-84152380D01*
X143808140Y-84152380D02*
X143731950Y-84076190D01*
X143731950Y-84076190D02*
X143693855Y-83961904D01*
X143693855Y-83961904D02*
X143693855Y-83885713D01*
X143693855Y-83885713D02*
X143731950Y-83771428D01*
X143731950Y-83771428D02*
X143770045Y-83733332D01*
X143693855Y-83047618D02*
X143693855Y-83199999D01*
X143693855Y-83199999D02*
X143731950Y-83276190D01*
X143731950Y-83276190D02*
X143770045Y-83314285D01*
X143770045Y-83314285D02*
X143884331Y-83390475D01*
X143884331Y-83390475D02*
X144036712Y-83428571D01*
X144036712Y-83428571D02*
X144341474Y-83428571D01*
X144341474Y-83428571D02*
X144417664Y-83390475D01*
X144417664Y-83390475D02*
X144455760Y-83352380D01*
X144455760Y-83352380D02*
X144493855Y-83276190D01*
X144493855Y-83276190D02*
X144493855Y-83123809D01*
X144493855Y-83123809D02*
X144455760Y-83047618D01*
X144455760Y-83047618D02*
X144417664Y-83009523D01*
X144417664Y-83009523D02*
X144341474Y-82971428D01*
X144341474Y-82971428D02*
X144150998Y-82971428D01*
X144150998Y-82971428D02*
X144074807Y-83009523D01*
X144074807Y-83009523D02*
X144036712Y-83047618D01*
X144036712Y-83047618D02*
X143998617Y-83123809D01*
X143998617Y-83123809D02*
X143998617Y-83276190D01*
X143998617Y-83276190D02*
X144036712Y-83352380D01*
X144036712Y-83352380D02*
X144074807Y-83390475D01*
X144074807Y-83390475D02*
X144150998Y-83428571D01*
X212311144Y-79335714D02*
X212692097Y-79069047D01*
X212311144Y-78878571D02*
X213111144Y-78878571D01*
X213111144Y-78878571D02*
X213111144Y-79183333D01*
X213111144Y-79183333D02*
X213073049Y-79259523D01*
X213073049Y-79259523D02*
X213034954Y-79297618D01*
X213034954Y-79297618D02*
X212958763Y-79335714D01*
X212958763Y-79335714D02*
X212844478Y-79335714D01*
X212844478Y-79335714D02*
X212768287Y-79297618D01*
X212768287Y-79297618D02*
X212730192Y-79259523D01*
X212730192Y-79259523D02*
X212692097Y-79183333D01*
X212692097Y-79183333D02*
X212692097Y-78878571D01*
X212311144Y-80097618D02*
X212311144Y-79640475D01*
X212311144Y-79869047D02*
X213111144Y-79869047D01*
X213111144Y-79869047D02*
X212996859Y-79792856D01*
X212996859Y-79792856D02*
X212920668Y-79716666D01*
X212920668Y-79716666D02*
X212882573Y-79640475D01*
X212311144Y-80478571D02*
X212311144Y-80630952D01*
X212311144Y-80630952D02*
X212349240Y-80707142D01*
X212349240Y-80707142D02*
X212387335Y-80745238D01*
X212387335Y-80745238D02*
X212501620Y-80821428D01*
X212501620Y-80821428D02*
X212654001Y-80859523D01*
X212654001Y-80859523D02*
X212958763Y-80859523D01*
X212958763Y-80859523D02*
X213034954Y-80821428D01*
X213034954Y-80821428D02*
X213073049Y-80783333D01*
X213073049Y-80783333D02*
X213111144Y-80707142D01*
X213111144Y-80707142D02*
X213111144Y-80554761D01*
X213111144Y-80554761D02*
X213073049Y-80478571D01*
X213073049Y-80478571D02*
X213034954Y-80440476D01*
X213034954Y-80440476D02*
X212958763Y-80402380D01*
X212958763Y-80402380D02*
X212768287Y-80402380D01*
X212768287Y-80402380D02*
X212692097Y-80440476D01*
X212692097Y-80440476D02*
X212654001Y-80478571D01*
X212654001Y-80478571D02*
X212615906Y-80554761D01*
X212615906Y-80554761D02*
X212615906Y-80707142D01*
X212615906Y-80707142D02*
X212654001Y-80783333D01*
X212654001Y-80783333D02*
X212692097Y-80821428D01*
X212692097Y-80821428D02*
X212768287Y-80859523D01*
X147260714Y-64532664D02*
X147222618Y-64570760D01*
X147222618Y-64570760D02*
X147108333Y-64608855D01*
X147108333Y-64608855D02*
X147032142Y-64608855D01*
X147032142Y-64608855D02*
X146917856Y-64570760D01*
X146917856Y-64570760D02*
X146841666Y-64494569D01*
X146841666Y-64494569D02*
X146803571Y-64418379D01*
X146803571Y-64418379D02*
X146765475Y-64265998D01*
X146765475Y-64265998D02*
X146765475Y-64151712D01*
X146765475Y-64151712D02*
X146803571Y-63999331D01*
X146803571Y-63999331D02*
X146841666Y-63923140D01*
X146841666Y-63923140D02*
X146917856Y-63846950D01*
X146917856Y-63846950D02*
X147032142Y-63808855D01*
X147032142Y-63808855D02*
X147108333Y-63808855D01*
X147108333Y-63808855D02*
X147222618Y-63846950D01*
X147222618Y-63846950D02*
X147260714Y-63885045D01*
X147565475Y-63885045D02*
X147603571Y-63846950D01*
X147603571Y-63846950D02*
X147679761Y-63808855D01*
X147679761Y-63808855D02*
X147870237Y-63808855D01*
X147870237Y-63808855D02*
X147946428Y-63846950D01*
X147946428Y-63846950D02*
X147984523Y-63885045D01*
X147984523Y-63885045D02*
X148022618Y-63961236D01*
X148022618Y-63961236D02*
X148022618Y-64037426D01*
X148022618Y-64037426D02*
X147984523Y-64151712D01*
X147984523Y-64151712D02*
X147527380Y-64608855D01*
X147527380Y-64608855D02*
X148022618Y-64608855D01*
X148784523Y-64608855D02*
X148327380Y-64608855D01*
X148555952Y-64608855D02*
X148555952Y-63808855D01*
X148555952Y-63808855D02*
X148479761Y-63923140D01*
X148479761Y-63923140D02*
X148403571Y-63999331D01*
X148403571Y-63999331D02*
X148327380Y-64037426D01*
X194087664Y-68533332D02*
X194125760Y-68571428D01*
X194125760Y-68571428D02*
X194163855Y-68685713D01*
X194163855Y-68685713D02*
X194163855Y-68761904D01*
X194163855Y-68761904D02*
X194125760Y-68876190D01*
X194125760Y-68876190D02*
X194049569Y-68952380D01*
X194049569Y-68952380D02*
X193973379Y-68990475D01*
X193973379Y-68990475D02*
X193820998Y-69028571D01*
X193820998Y-69028571D02*
X193706712Y-69028571D01*
X193706712Y-69028571D02*
X193554331Y-68990475D01*
X193554331Y-68990475D02*
X193478140Y-68952380D01*
X193478140Y-68952380D02*
X193401950Y-68876190D01*
X193401950Y-68876190D02*
X193363855Y-68761904D01*
X193363855Y-68761904D02*
X193363855Y-68685713D01*
X193363855Y-68685713D02*
X193401950Y-68571428D01*
X193401950Y-68571428D02*
X193440045Y-68533332D01*
X193363855Y-68266666D02*
X193363855Y-67733332D01*
X193363855Y-67733332D02*
X194163855Y-68076190D01*
X184542664Y-98939285D02*
X184580760Y-98977381D01*
X184580760Y-98977381D02*
X184618855Y-99091666D01*
X184618855Y-99091666D02*
X184618855Y-99167857D01*
X184618855Y-99167857D02*
X184580760Y-99282143D01*
X184580760Y-99282143D02*
X184504569Y-99358333D01*
X184504569Y-99358333D02*
X184428379Y-99396428D01*
X184428379Y-99396428D02*
X184275998Y-99434524D01*
X184275998Y-99434524D02*
X184161712Y-99434524D01*
X184161712Y-99434524D02*
X184009331Y-99396428D01*
X184009331Y-99396428D02*
X183933140Y-99358333D01*
X183933140Y-99358333D02*
X183856950Y-99282143D01*
X183856950Y-99282143D02*
X183818855Y-99167857D01*
X183818855Y-99167857D02*
X183818855Y-99091666D01*
X183818855Y-99091666D02*
X183856950Y-98977381D01*
X183856950Y-98977381D02*
X183895045Y-98939285D01*
X184618855Y-98177381D02*
X184618855Y-98634524D01*
X184618855Y-98405952D02*
X183818855Y-98405952D01*
X183818855Y-98405952D02*
X183933140Y-98482143D01*
X183933140Y-98482143D02*
X184009331Y-98558333D01*
X184009331Y-98558333D02*
X184047426Y-98634524D01*
X184618855Y-97415476D02*
X184618855Y-97872619D01*
X184618855Y-97644047D02*
X183818855Y-97644047D01*
X183818855Y-97644047D02*
X183933140Y-97720238D01*
X183933140Y-97720238D02*
X184009331Y-97796428D01*
X184009331Y-97796428D02*
X184047426Y-97872619D01*
X154990476Y-90963855D02*
X154990476Y-91611474D01*
X154990476Y-91611474D02*
X155028571Y-91687664D01*
X155028571Y-91687664D02*
X155066666Y-91725760D01*
X155066666Y-91725760D02*
X155142857Y-91763855D01*
X155142857Y-91763855D02*
X155295238Y-91763855D01*
X155295238Y-91763855D02*
X155371428Y-91725760D01*
X155371428Y-91725760D02*
X155409523Y-91687664D01*
X155409523Y-91687664D02*
X155447619Y-91611474D01*
X155447619Y-91611474D02*
X155447619Y-90963855D01*
X156209523Y-90963855D02*
X155828571Y-90963855D01*
X155828571Y-90963855D02*
X155790475Y-91344807D01*
X155790475Y-91344807D02*
X155828571Y-91306712D01*
X155828571Y-91306712D02*
X155904761Y-91268617D01*
X155904761Y-91268617D02*
X156095237Y-91268617D01*
X156095237Y-91268617D02*
X156171428Y-91306712D01*
X156171428Y-91306712D02*
X156209523Y-91344807D01*
X156209523Y-91344807D02*
X156247618Y-91420998D01*
X156247618Y-91420998D02*
X156247618Y-91611474D01*
X156247618Y-91611474D02*
X156209523Y-91687664D01*
X156209523Y-91687664D02*
X156171428Y-91725760D01*
X156171428Y-91725760D02*
X156095237Y-91763855D01*
X156095237Y-91763855D02*
X155904761Y-91763855D01*
X155904761Y-91763855D02*
X155828571Y-91725760D01*
X155828571Y-91725760D02*
X155790475Y-91687664D01*
X125766667Y-109287664D02*
X125728571Y-109325760D01*
X125728571Y-109325760D02*
X125614286Y-109363855D01*
X125614286Y-109363855D02*
X125538095Y-109363855D01*
X125538095Y-109363855D02*
X125423809Y-109325760D01*
X125423809Y-109325760D02*
X125347619Y-109249569D01*
X125347619Y-109249569D02*
X125309524Y-109173379D01*
X125309524Y-109173379D02*
X125271428Y-109020998D01*
X125271428Y-109020998D02*
X125271428Y-108906712D01*
X125271428Y-108906712D02*
X125309524Y-108754331D01*
X125309524Y-108754331D02*
X125347619Y-108678140D01*
X125347619Y-108678140D02*
X125423809Y-108601950D01*
X125423809Y-108601950D02*
X125538095Y-108563855D01*
X125538095Y-108563855D02*
X125614286Y-108563855D01*
X125614286Y-108563855D02*
X125728571Y-108601950D01*
X125728571Y-108601950D02*
X125766667Y-108640045D01*
X126452381Y-108830521D02*
X126452381Y-109363855D01*
X126261905Y-108525760D02*
X126071428Y-109097188D01*
X126071428Y-109097188D02*
X126566667Y-109097188D01*
X136458333Y-97886355D02*
X136458333Y-98457783D01*
X136458333Y-98457783D02*
X136420238Y-98572069D01*
X136420238Y-98572069D02*
X136344047Y-98648260D01*
X136344047Y-98648260D02*
X136229762Y-98686355D01*
X136229762Y-98686355D02*
X136153571Y-98686355D01*
X136801190Y-97962545D02*
X136839286Y-97924450D01*
X136839286Y-97924450D02*
X136915476Y-97886355D01*
X136915476Y-97886355D02*
X137105952Y-97886355D01*
X137105952Y-97886355D02*
X137182143Y-97924450D01*
X137182143Y-97924450D02*
X137220238Y-97962545D01*
X137220238Y-97962545D02*
X137258333Y-98038736D01*
X137258333Y-98038736D02*
X137258333Y-98114926D01*
X137258333Y-98114926D02*
X137220238Y-98229212D01*
X137220238Y-98229212D02*
X136763095Y-98686355D01*
X136763095Y-98686355D02*
X137258333Y-98686355D01*
X140916667Y-97413855D02*
X140650000Y-97032902D01*
X140459524Y-97413855D02*
X140459524Y-96613855D01*
X140459524Y-96613855D02*
X140764286Y-96613855D01*
X140764286Y-96613855D02*
X140840476Y-96651950D01*
X140840476Y-96651950D02*
X140878571Y-96690045D01*
X140878571Y-96690045D02*
X140916667Y-96766236D01*
X140916667Y-96766236D02*
X140916667Y-96880521D01*
X140916667Y-96880521D02*
X140878571Y-96956712D01*
X140878571Y-96956712D02*
X140840476Y-96994807D01*
X140840476Y-96994807D02*
X140764286Y-97032902D01*
X140764286Y-97032902D02*
X140459524Y-97032902D01*
X141221428Y-96690045D02*
X141259524Y-96651950D01*
X141259524Y-96651950D02*
X141335714Y-96613855D01*
X141335714Y-96613855D02*
X141526190Y-96613855D01*
X141526190Y-96613855D02*
X141602381Y-96651950D01*
X141602381Y-96651950D02*
X141640476Y-96690045D01*
X141640476Y-96690045D02*
X141678571Y-96766236D01*
X141678571Y-96766236D02*
X141678571Y-96842426D01*
X141678571Y-96842426D02*
X141640476Y-96956712D01*
X141640476Y-96956712D02*
X141183333Y-97413855D01*
X141183333Y-97413855D02*
X141678571Y-97413855D01*
X174680231Y-60697092D02*
X174680231Y-61344711D01*
X174680231Y-61344711D02*
X174718326Y-61420901D01*
X174718326Y-61420901D02*
X174756421Y-61458997D01*
X174756421Y-61458997D02*
X174832612Y-61497092D01*
X174832612Y-61497092D02*
X174984993Y-61497092D01*
X174984993Y-61497092D02*
X175061183Y-61458997D01*
X175061183Y-61458997D02*
X175099278Y-61420901D01*
X175099278Y-61420901D02*
X175137374Y-61344711D01*
X175137374Y-61344711D02*
X175137374Y-60697092D01*
X175480230Y-60773282D02*
X175518326Y-60735187D01*
X175518326Y-60735187D02*
X175594516Y-60697092D01*
X175594516Y-60697092D02*
X175784992Y-60697092D01*
X175784992Y-60697092D02*
X175861183Y-60735187D01*
X175861183Y-60735187D02*
X175899278Y-60773282D01*
X175899278Y-60773282D02*
X175937373Y-60849473D01*
X175937373Y-60849473D02*
X175937373Y-60925663D01*
X175937373Y-60925663D02*
X175899278Y-61039949D01*
X175899278Y-61039949D02*
X175442135Y-61497092D01*
X175442135Y-61497092D02*
X175937373Y-61497092D01*
X167060714Y-79882664D02*
X167022618Y-79920760D01*
X167022618Y-79920760D02*
X166908333Y-79958855D01*
X166908333Y-79958855D02*
X166832142Y-79958855D01*
X166832142Y-79958855D02*
X166717856Y-79920760D01*
X166717856Y-79920760D02*
X166641666Y-79844569D01*
X166641666Y-79844569D02*
X166603571Y-79768379D01*
X166603571Y-79768379D02*
X166565475Y-79615998D01*
X166565475Y-79615998D02*
X166565475Y-79501712D01*
X166565475Y-79501712D02*
X166603571Y-79349331D01*
X166603571Y-79349331D02*
X166641666Y-79273140D01*
X166641666Y-79273140D02*
X166717856Y-79196950D01*
X166717856Y-79196950D02*
X166832142Y-79158855D01*
X166832142Y-79158855D02*
X166908333Y-79158855D01*
X166908333Y-79158855D02*
X167022618Y-79196950D01*
X167022618Y-79196950D02*
X167060714Y-79235045D01*
X167365475Y-79235045D02*
X167403571Y-79196950D01*
X167403571Y-79196950D02*
X167479761Y-79158855D01*
X167479761Y-79158855D02*
X167670237Y-79158855D01*
X167670237Y-79158855D02*
X167746428Y-79196950D01*
X167746428Y-79196950D02*
X167784523Y-79235045D01*
X167784523Y-79235045D02*
X167822618Y-79311236D01*
X167822618Y-79311236D02*
X167822618Y-79387426D01*
X167822618Y-79387426D02*
X167784523Y-79501712D01*
X167784523Y-79501712D02*
X167327380Y-79958855D01*
X167327380Y-79958855D02*
X167822618Y-79958855D01*
X168089285Y-79158855D02*
X168584523Y-79158855D01*
X168584523Y-79158855D02*
X168317857Y-79463617D01*
X168317857Y-79463617D02*
X168432142Y-79463617D01*
X168432142Y-79463617D02*
X168508333Y-79501712D01*
X168508333Y-79501712D02*
X168546428Y-79539807D01*
X168546428Y-79539807D02*
X168584523Y-79615998D01*
X168584523Y-79615998D02*
X168584523Y-79806474D01*
X168584523Y-79806474D02*
X168546428Y-79882664D01*
X168546428Y-79882664D02*
X168508333Y-79920760D01*
X168508333Y-79920760D02*
X168432142Y-79958855D01*
X168432142Y-79958855D02*
X168203571Y-79958855D01*
X168203571Y-79958855D02*
X168127380Y-79920760D01*
X168127380Y-79920760D02*
X168089285Y-79882664D01*
X171235714Y-74857664D02*
X171197618Y-74895760D01*
X171197618Y-74895760D02*
X171083333Y-74933855D01*
X171083333Y-74933855D02*
X171007142Y-74933855D01*
X171007142Y-74933855D02*
X170892856Y-74895760D01*
X170892856Y-74895760D02*
X170816666Y-74819569D01*
X170816666Y-74819569D02*
X170778571Y-74743379D01*
X170778571Y-74743379D02*
X170740475Y-74590998D01*
X170740475Y-74590998D02*
X170740475Y-74476712D01*
X170740475Y-74476712D02*
X170778571Y-74324331D01*
X170778571Y-74324331D02*
X170816666Y-74248140D01*
X170816666Y-74248140D02*
X170892856Y-74171950D01*
X170892856Y-74171950D02*
X171007142Y-74133855D01*
X171007142Y-74133855D02*
X171083333Y-74133855D01*
X171083333Y-74133855D02*
X171197618Y-74171950D01*
X171197618Y-74171950D02*
X171235714Y-74210045D01*
X171540475Y-74210045D02*
X171578571Y-74171950D01*
X171578571Y-74171950D02*
X171654761Y-74133855D01*
X171654761Y-74133855D02*
X171845237Y-74133855D01*
X171845237Y-74133855D02*
X171921428Y-74171950D01*
X171921428Y-74171950D02*
X171959523Y-74210045D01*
X171959523Y-74210045D02*
X171997618Y-74286236D01*
X171997618Y-74286236D02*
X171997618Y-74362426D01*
X171997618Y-74362426D02*
X171959523Y-74476712D01*
X171959523Y-74476712D02*
X171502380Y-74933855D01*
X171502380Y-74933855D02*
X171997618Y-74933855D01*
X172683333Y-74400521D02*
X172683333Y-74933855D01*
X172492857Y-74095760D02*
X172302380Y-74667188D01*
X172302380Y-74667188D02*
X172797619Y-74667188D01*
X179062664Y-77514285D02*
X179100760Y-77552381D01*
X179100760Y-77552381D02*
X179138855Y-77666666D01*
X179138855Y-77666666D02*
X179138855Y-77742857D01*
X179138855Y-77742857D02*
X179100760Y-77857143D01*
X179100760Y-77857143D02*
X179024569Y-77933333D01*
X179024569Y-77933333D02*
X178948379Y-77971428D01*
X178948379Y-77971428D02*
X178795998Y-78009524D01*
X178795998Y-78009524D02*
X178681712Y-78009524D01*
X178681712Y-78009524D02*
X178529331Y-77971428D01*
X178529331Y-77971428D02*
X178453140Y-77933333D01*
X178453140Y-77933333D02*
X178376950Y-77857143D01*
X178376950Y-77857143D02*
X178338855Y-77742857D01*
X178338855Y-77742857D02*
X178338855Y-77666666D01*
X178338855Y-77666666D02*
X178376950Y-77552381D01*
X178376950Y-77552381D02*
X178415045Y-77514285D01*
X179138855Y-76752381D02*
X179138855Y-77209524D01*
X179138855Y-76980952D02*
X178338855Y-76980952D01*
X178338855Y-76980952D02*
X178453140Y-77057143D01*
X178453140Y-77057143D02*
X178529331Y-77133333D01*
X178529331Y-77133333D02*
X178567426Y-77209524D01*
X178605521Y-76066666D02*
X179138855Y-76066666D01*
X178300760Y-76257142D02*
X178872188Y-76447619D01*
X178872188Y-76447619D02*
X178872188Y-75952380D01*
X152313855Y-85739285D02*
X151932902Y-86005952D01*
X152313855Y-86196428D02*
X151513855Y-86196428D01*
X151513855Y-86196428D02*
X151513855Y-85891666D01*
X151513855Y-85891666D02*
X151551950Y-85815476D01*
X151551950Y-85815476D02*
X151590045Y-85777381D01*
X151590045Y-85777381D02*
X151666236Y-85739285D01*
X151666236Y-85739285D02*
X151780521Y-85739285D01*
X151780521Y-85739285D02*
X151856712Y-85777381D01*
X151856712Y-85777381D02*
X151894807Y-85815476D01*
X151894807Y-85815476D02*
X151932902Y-85891666D01*
X151932902Y-85891666D02*
X151932902Y-86196428D01*
X151513855Y-85472619D02*
X151513855Y-84977381D01*
X151513855Y-84977381D02*
X151818617Y-85244047D01*
X151818617Y-85244047D02*
X151818617Y-85129762D01*
X151818617Y-85129762D02*
X151856712Y-85053571D01*
X151856712Y-85053571D02*
X151894807Y-85015476D01*
X151894807Y-85015476D02*
X151970998Y-84977381D01*
X151970998Y-84977381D02*
X152161474Y-84977381D01*
X152161474Y-84977381D02*
X152237664Y-85015476D01*
X152237664Y-85015476D02*
X152275760Y-85053571D01*
X152275760Y-85053571D02*
X152313855Y-85129762D01*
X152313855Y-85129762D02*
X152313855Y-85358333D01*
X152313855Y-85358333D02*
X152275760Y-85434524D01*
X152275760Y-85434524D02*
X152237664Y-85472619D01*
X151513855Y-84710714D02*
X151513855Y-84215476D01*
X151513855Y-84215476D02*
X151818617Y-84482142D01*
X151818617Y-84482142D02*
X151818617Y-84367857D01*
X151818617Y-84367857D02*
X151856712Y-84291666D01*
X151856712Y-84291666D02*
X151894807Y-84253571D01*
X151894807Y-84253571D02*
X151970998Y-84215476D01*
X151970998Y-84215476D02*
X152161474Y-84215476D01*
X152161474Y-84215476D02*
X152237664Y-84253571D01*
X152237664Y-84253571D02*
X152275760Y-84291666D01*
X152275760Y-84291666D02*
X152313855Y-84367857D01*
X152313855Y-84367857D02*
X152313855Y-84596428D01*
X152313855Y-84596428D02*
X152275760Y-84672619D01*
X152275760Y-84672619D02*
X152237664Y-84710714D01*
X167788855Y-68614285D02*
X167407902Y-68880952D01*
X167788855Y-69071428D02*
X166988855Y-69071428D01*
X166988855Y-69071428D02*
X166988855Y-68766666D01*
X166988855Y-68766666D02*
X167026950Y-68690476D01*
X167026950Y-68690476D02*
X167065045Y-68652381D01*
X167065045Y-68652381D02*
X167141236Y-68614285D01*
X167141236Y-68614285D02*
X167255521Y-68614285D01*
X167255521Y-68614285D02*
X167331712Y-68652381D01*
X167331712Y-68652381D02*
X167369807Y-68690476D01*
X167369807Y-68690476D02*
X167407902Y-68766666D01*
X167407902Y-68766666D02*
X167407902Y-69071428D01*
X166988855Y-68347619D02*
X166988855Y-67852381D01*
X166988855Y-67852381D02*
X167293617Y-68119047D01*
X167293617Y-68119047D02*
X167293617Y-68004762D01*
X167293617Y-68004762D02*
X167331712Y-67928571D01*
X167331712Y-67928571D02*
X167369807Y-67890476D01*
X167369807Y-67890476D02*
X167445998Y-67852381D01*
X167445998Y-67852381D02*
X167636474Y-67852381D01*
X167636474Y-67852381D02*
X167712664Y-67890476D01*
X167712664Y-67890476D02*
X167750760Y-67928571D01*
X167750760Y-67928571D02*
X167788855Y-68004762D01*
X167788855Y-68004762D02*
X167788855Y-68233333D01*
X167788855Y-68233333D02*
X167750760Y-68309524D01*
X167750760Y-68309524D02*
X167712664Y-68347619D01*
X167065045Y-67547619D02*
X167026950Y-67509523D01*
X167026950Y-67509523D02*
X166988855Y-67433333D01*
X166988855Y-67433333D02*
X166988855Y-67242857D01*
X166988855Y-67242857D02*
X167026950Y-67166666D01*
X167026950Y-67166666D02*
X167065045Y-67128571D01*
X167065045Y-67128571D02*
X167141236Y-67090476D01*
X167141236Y-67090476D02*
X167217426Y-67090476D01*
X167217426Y-67090476D02*
X167331712Y-67128571D01*
X167331712Y-67128571D02*
X167788855Y-67585714D01*
X167788855Y-67585714D02*
X167788855Y-67090476D01*
X193588855Y-72114285D02*
X193207902Y-72380952D01*
X193588855Y-72571428D02*
X192788855Y-72571428D01*
X192788855Y-72571428D02*
X192788855Y-72266666D01*
X192788855Y-72266666D02*
X192826950Y-72190476D01*
X192826950Y-72190476D02*
X192865045Y-72152381D01*
X192865045Y-72152381D02*
X192941236Y-72114285D01*
X192941236Y-72114285D02*
X193055521Y-72114285D01*
X193055521Y-72114285D02*
X193131712Y-72152381D01*
X193131712Y-72152381D02*
X193169807Y-72190476D01*
X193169807Y-72190476D02*
X193207902Y-72266666D01*
X193207902Y-72266666D02*
X193207902Y-72571428D01*
X192865045Y-71809524D02*
X192826950Y-71771428D01*
X192826950Y-71771428D02*
X192788855Y-71695238D01*
X192788855Y-71695238D02*
X192788855Y-71504762D01*
X192788855Y-71504762D02*
X192826950Y-71428571D01*
X192826950Y-71428571D02*
X192865045Y-71390476D01*
X192865045Y-71390476D02*
X192941236Y-71352381D01*
X192941236Y-71352381D02*
X193017426Y-71352381D01*
X193017426Y-71352381D02*
X193131712Y-71390476D01*
X193131712Y-71390476D02*
X193588855Y-71847619D01*
X193588855Y-71847619D02*
X193588855Y-71352381D01*
X192788855Y-70857142D02*
X192788855Y-70780952D01*
X192788855Y-70780952D02*
X192826950Y-70704761D01*
X192826950Y-70704761D02*
X192865045Y-70666666D01*
X192865045Y-70666666D02*
X192941236Y-70628571D01*
X192941236Y-70628571D02*
X193093617Y-70590476D01*
X193093617Y-70590476D02*
X193284093Y-70590476D01*
X193284093Y-70590476D02*
X193436474Y-70628571D01*
X193436474Y-70628571D02*
X193512664Y-70666666D01*
X193512664Y-70666666D02*
X193550760Y-70704761D01*
X193550760Y-70704761D02*
X193588855Y-70780952D01*
X193588855Y-70780952D02*
X193588855Y-70857142D01*
X193588855Y-70857142D02*
X193550760Y-70933333D01*
X193550760Y-70933333D02*
X193512664Y-70971428D01*
X193512664Y-70971428D02*
X193436474Y-71009523D01*
X193436474Y-71009523D02*
X193284093Y-71047619D01*
X193284093Y-71047619D02*
X193093617Y-71047619D01*
X193093617Y-71047619D02*
X192941236Y-71009523D01*
X192941236Y-71009523D02*
X192865045Y-70971428D01*
X192865045Y-70971428D02*
X192826950Y-70933333D01*
X192826950Y-70933333D02*
X192788855Y-70857142D01*
X129087335Y-101916667D02*
X129049240Y-101878571D01*
X129049240Y-101878571D02*
X129011144Y-101764286D01*
X129011144Y-101764286D02*
X129011144Y-101688095D01*
X129011144Y-101688095D02*
X129049240Y-101573809D01*
X129049240Y-101573809D02*
X129125430Y-101497619D01*
X129125430Y-101497619D02*
X129201620Y-101459524D01*
X129201620Y-101459524D02*
X129354001Y-101421428D01*
X129354001Y-101421428D02*
X129468287Y-101421428D01*
X129468287Y-101421428D02*
X129620668Y-101459524D01*
X129620668Y-101459524D02*
X129696859Y-101497619D01*
X129696859Y-101497619D02*
X129773049Y-101573809D01*
X129773049Y-101573809D02*
X129811144Y-101688095D01*
X129811144Y-101688095D02*
X129811144Y-101764286D01*
X129811144Y-101764286D02*
X129773049Y-101878571D01*
X129773049Y-101878571D02*
X129734954Y-101916667D01*
X129811144Y-102183333D02*
X129811144Y-102678571D01*
X129811144Y-102678571D02*
X129506382Y-102411905D01*
X129506382Y-102411905D02*
X129506382Y-102526190D01*
X129506382Y-102526190D02*
X129468287Y-102602381D01*
X129468287Y-102602381D02*
X129430192Y-102640476D01*
X129430192Y-102640476D02*
X129354001Y-102678571D01*
X129354001Y-102678571D02*
X129163525Y-102678571D01*
X129163525Y-102678571D02*
X129087335Y-102640476D01*
X129087335Y-102640476D02*
X129049240Y-102602381D01*
X129049240Y-102602381D02*
X129011144Y-102526190D01*
X129011144Y-102526190D02*
X129011144Y-102297619D01*
X129011144Y-102297619D02*
X129049240Y-102221428D01*
X129049240Y-102221428D02*
X129087335Y-102183333D01*
X137266667Y-94063855D02*
X137000000Y-93682902D01*
X136809524Y-94063855D02*
X136809524Y-93263855D01*
X136809524Y-93263855D02*
X137114286Y-93263855D01*
X137114286Y-93263855D02*
X137190476Y-93301950D01*
X137190476Y-93301950D02*
X137228571Y-93340045D01*
X137228571Y-93340045D02*
X137266667Y-93416236D01*
X137266667Y-93416236D02*
X137266667Y-93530521D01*
X137266667Y-93530521D02*
X137228571Y-93606712D01*
X137228571Y-93606712D02*
X137190476Y-93644807D01*
X137190476Y-93644807D02*
X137114286Y-93682902D01*
X137114286Y-93682902D02*
X136809524Y-93682902D01*
X137647619Y-94063855D02*
X137800000Y-94063855D01*
X137800000Y-94063855D02*
X137876190Y-94025760D01*
X137876190Y-94025760D02*
X137914286Y-93987664D01*
X137914286Y-93987664D02*
X137990476Y-93873379D01*
X137990476Y-93873379D02*
X138028571Y-93720998D01*
X138028571Y-93720998D02*
X138028571Y-93416236D01*
X138028571Y-93416236D02*
X137990476Y-93340045D01*
X137990476Y-93340045D02*
X137952381Y-93301950D01*
X137952381Y-93301950D02*
X137876190Y-93263855D01*
X137876190Y-93263855D02*
X137723809Y-93263855D01*
X137723809Y-93263855D02*
X137647619Y-93301950D01*
X137647619Y-93301950D02*
X137609524Y-93340045D01*
X137609524Y-93340045D02*
X137571428Y-93416236D01*
X137571428Y-93416236D02*
X137571428Y-93606712D01*
X137571428Y-93606712D02*
X137609524Y-93682902D01*
X137609524Y-93682902D02*
X137647619Y-93720998D01*
X137647619Y-93720998D02*
X137723809Y-93759093D01*
X137723809Y-93759093D02*
X137876190Y-93759093D01*
X137876190Y-93759093D02*
X137952381Y-93720998D01*
X137952381Y-93720998D02*
X137990476Y-93682902D01*
X137990476Y-93682902D02*
X138028571Y-93606712D01*
X199210714Y-77587664D02*
X199172618Y-77625760D01*
X199172618Y-77625760D02*
X199058333Y-77663855D01*
X199058333Y-77663855D02*
X198982142Y-77663855D01*
X198982142Y-77663855D02*
X198867856Y-77625760D01*
X198867856Y-77625760D02*
X198791666Y-77549569D01*
X198791666Y-77549569D02*
X198753571Y-77473379D01*
X198753571Y-77473379D02*
X198715475Y-77320998D01*
X198715475Y-77320998D02*
X198715475Y-77206712D01*
X198715475Y-77206712D02*
X198753571Y-77054331D01*
X198753571Y-77054331D02*
X198791666Y-76978140D01*
X198791666Y-76978140D02*
X198867856Y-76901950D01*
X198867856Y-76901950D02*
X198982142Y-76863855D01*
X198982142Y-76863855D02*
X199058333Y-76863855D01*
X199058333Y-76863855D02*
X199172618Y-76901950D01*
X199172618Y-76901950D02*
X199210714Y-76940045D01*
X199972618Y-77663855D02*
X199515475Y-77663855D01*
X199744047Y-77663855D02*
X199744047Y-76863855D01*
X199744047Y-76863855D02*
X199667856Y-76978140D01*
X199667856Y-76978140D02*
X199591666Y-77054331D01*
X199591666Y-77054331D02*
X199515475Y-77092426D01*
X200277380Y-76940045D02*
X200315476Y-76901950D01*
X200315476Y-76901950D02*
X200391666Y-76863855D01*
X200391666Y-76863855D02*
X200582142Y-76863855D01*
X200582142Y-76863855D02*
X200658333Y-76901950D01*
X200658333Y-76901950D02*
X200696428Y-76940045D01*
X200696428Y-76940045D02*
X200734523Y-77016236D01*
X200734523Y-77016236D02*
X200734523Y-77092426D01*
X200734523Y-77092426D02*
X200696428Y-77206712D01*
X200696428Y-77206712D02*
X200239285Y-77663855D01*
X200239285Y-77663855D02*
X200734523Y-77663855D01*
X153277025Y-61566900D02*
X153391311Y-61604995D01*
X153391311Y-61604995D02*
X153581787Y-61604995D01*
X153581787Y-61604995D02*
X153657978Y-61566900D01*
X153657978Y-61566900D02*
X153696073Y-61528804D01*
X153696073Y-61528804D02*
X153734168Y-61452614D01*
X153734168Y-61452614D02*
X153734168Y-61376423D01*
X153734168Y-61376423D02*
X153696073Y-61300233D01*
X153696073Y-61300233D02*
X153657978Y-61262138D01*
X153657978Y-61262138D02*
X153581787Y-61224042D01*
X153581787Y-61224042D02*
X153429406Y-61185947D01*
X153429406Y-61185947D02*
X153353216Y-61147852D01*
X153353216Y-61147852D02*
X153315121Y-61109757D01*
X153315121Y-61109757D02*
X153277025Y-61033566D01*
X153277025Y-61033566D02*
X153277025Y-60957376D01*
X153277025Y-60957376D02*
X153315121Y-60881185D01*
X153315121Y-60881185D02*
X153353216Y-60843090D01*
X153353216Y-60843090D02*
X153429406Y-60804995D01*
X153429406Y-60804995D02*
X153619883Y-60804995D01*
X153619883Y-60804995D02*
X153734168Y-60843090D01*
X154496073Y-61604995D02*
X154038930Y-61604995D01*
X154267502Y-61604995D02*
X154267502Y-60804995D01*
X154267502Y-60804995D02*
X154191311Y-60919280D01*
X154191311Y-60919280D02*
X154115121Y-60995471D01*
X154115121Y-60995471D02*
X154038930Y-61033566D01*
X129860714Y-62563855D02*
X129594047Y-62182902D01*
X129403571Y-62563855D02*
X129403571Y-61763855D01*
X129403571Y-61763855D02*
X129708333Y-61763855D01*
X129708333Y-61763855D02*
X129784523Y-61801950D01*
X129784523Y-61801950D02*
X129822618Y-61840045D01*
X129822618Y-61840045D02*
X129860714Y-61916236D01*
X129860714Y-61916236D02*
X129860714Y-62030521D01*
X129860714Y-62030521D02*
X129822618Y-62106712D01*
X129822618Y-62106712D02*
X129784523Y-62144807D01*
X129784523Y-62144807D02*
X129708333Y-62182902D01*
X129708333Y-62182902D02*
X129403571Y-62182902D01*
X130165475Y-61840045D02*
X130203571Y-61801950D01*
X130203571Y-61801950D02*
X130279761Y-61763855D01*
X130279761Y-61763855D02*
X130470237Y-61763855D01*
X130470237Y-61763855D02*
X130546428Y-61801950D01*
X130546428Y-61801950D02*
X130584523Y-61840045D01*
X130584523Y-61840045D02*
X130622618Y-61916236D01*
X130622618Y-61916236D02*
X130622618Y-61992426D01*
X130622618Y-61992426D02*
X130584523Y-62106712D01*
X130584523Y-62106712D02*
X130127380Y-62563855D01*
X130127380Y-62563855D02*
X130622618Y-62563855D01*
X130889285Y-61763855D02*
X131422619Y-61763855D01*
X131422619Y-61763855D02*
X131079761Y-62563855D01*
X149336144Y-85566667D02*
X149717097Y-85300000D01*
X149336144Y-85109524D02*
X150136144Y-85109524D01*
X150136144Y-85109524D02*
X150136144Y-85414286D01*
X150136144Y-85414286D02*
X150098049Y-85490476D01*
X150098049Y-85490476D02*
X150059954Y-85528571D01*
X150059954Y-85528571D02*
X149983763Y-85566667D01*
X149983763Y-85566667D02*
X149869478Y-85566667D01*
X149869478Y-85566667D02*
X149793287Y-85528571D01*
X149793287Y-85528571D02*
X149755192Y-85490476D01*
X149755192Y-85490476D02*
X149717097Y-85414286D01*
X149717097Y-85414286D02*
X149717097Y-85109524D01*
X150136144Y-86290476D02*
X150136144Y-85909524D01*
X150136144Y-85909524D02*
X149755192Y-85871428D01*
X149755192Y-85871428D02*
X149793287Y-85909524D01*
X149793287Y-85909524D02*
X149831382Y-85985714D01*
X149831382Y-85985714D02*
X149831382Y-86176190D01*
X149831382Y-86176190D02*
X149793287Y-86252381D01*
X149793287Y-86252381D02*
X149755192Y-86290476D01*
X149755192Y-86290476D02*
X149679001Y-86328571D01*
X149679001Y-86328571D02*
X149488525Y-86328571D01*
X149488525Y-86328571D02*
X149412335Y-86290476D01*
X149412335Y-86290476D02*
X149374240Y-86252381D01*
X149374240Y-86252381D02*
X149336144Y-86176190D01*
X149336144Y-86176190D02*
X149336144Y-85985714D01*
X149336144Y-85985714D02*
X149374240Y-85909524D01*
X149374240Y-85909524D02*
X149412335Y-85871428D01*
X140460714Y-74037664D02*
X140422618Y-74075760D01*
X140422618Y-74075760D02*
X140308333Y-74113855D01*
X140308333Y-74113855D02*
X140232142Y-74113855D01*
X140232142Y-74113855D02*
X140117856Y-74075760D01*
X140117856Y-74075760D02*
X140041666Y-73999569D01*
X140041666Y-73999569D02*
X140003571Y-73923379D01*
X140003571Y-73923379D02*
X139965475Y-73770998D01*
X139965475Y-73770998D02*
X139965475Y-73656712D01*
X139965475Y-73656712D02*
X140003571Y-73504331D01*
X140003571Y-73504331D02*
X140041666Y-73428140D01*
X140041666Y-73428140D02*
X140117856Y-73351950D01*
X140117856Y-73351950D02*
X140232142Y-73313855D01*
X140232142Y-73313855D02*
X140308333Y-73313855D01*
X140308333Y-73313855D02*
X140422618Y-73351950D01*
X140422618Y-73351950D02*
X140460714Y-73390045D01*
X141222618Y-74113855D02*
X140765475Y-74113855D01*
X140994047Y-74113855D02*
X140994047Y-73313855D01*
X140994047Y-73313855D02*
X140917856Y-73428140D01*
X140917856Y-73428140D02*
X140841666Y-73504331D01*
X140841666Y-73504331D02*
X140765475Y-73542426D01*
X141603571Y-74113855D02*
X141755952Y-74113855D01*
X141755952Y-74113855D02*
X141832142Y-74075760D01*
X141832142Y-74075760D02*
X141870238Y-74037664D01*
X141870238Y-74037664D02*
X141946428Y-73923379D01*
X141946428Y-73923379D02*
X141984523Y-73770998D01*
X141984523Y-73770998D02*
X141984523Y-73466236D01*
X141984523Y-73466236D02*
X141946428Y-73390045D01*
X141946428Y-73390045D02*
X141908333Y-73351950D01*
X141908333Y-73351950D02*
X141832142Y-73313855D01*
X141832142Y-73313855D02*
X141679761Y-73313855D01*
X141679761Y-73313855D02*
X141603571Y-73351950D01*
X141603571Y-73351950D02*
X141565476Y-73390045D01*
X141565476Y-73390045D02*
X141527380Y-73466236D01*
X141527380Y-73466236D02*
X141527380Y-73656712D01*
X141527380Y-73656712D02*
X141565476Y-73732902D01*
X141565476Y-73732902D02*
X141603571Y-73770998D01*
X141603571Y-73770998D02*
X141679761Y-73809093D01*
X141679761Y-73809093D02*
X141832142Y-73809093D01*
X141832142Y-73809093D02*
X141908333Y-73770998D01*
X141908333Y-73770998D02*
X141946428Y-73732902D01*
X141946428Y-73732902D02*
X141984523Y-73656712D01*
X145090476Y-91963855D02*
X145090476Y-92611474D01*
X145090476Y-92611474D02*
X145128571Y-92687664D01*
X145128571Y-92687664D02*
X145166666Y-92725760D01*
X145166666Y-92725760D02*
X145242857Y-92763855D01*
X145242857Y-92763855D02*
X145395238Y-92763855D01*
X145395238Y-92763855D02*
X145471428Y-92725760D01*
X145471428Y-92725760D02*
X145509523Y-92687664D01*
X145509523Y-92687664D02*
X145547619Y-92611474D01*
X145547619Y-92611474D02*
X145547619Y-91963855D01*
X146347618Y-92763855D02*
X145890475Y-92763855D01*
X146119047Y-92763855D02*
X146119047Y-91963855D01*
X146119047Y-91963855D02*
X146042856Y-92078140D01*
X146042856Y-92078140D02*
X145966666Y-92154331D01*
X145966666Y-92154331D02*
X145890475Y-92192426D01*
X186665786Y-70324685D02*
X186665786Y-70972304D01*
X186665786Y-70972304D02*
X186703881Y-71048494D01*
X186703881Y-71048494D02*
X186741976Y-71086590D01*
X186741976Y-71086590D02*
X186818167Y-71124685D01*
X186818167Y-71124685D02*
X186970548Y-71124685D01*
X186970548Y-71124685D02*
X187046738Y-71086590D01*
X187046738Y-71086590D02*
X187084833Y-71048494D01*
X187084833Y-71048494D02*
X187122929Y-70972304D01*
X187122929Y-70972304D02*
X187122929Y-70324685D01*
X187846738Y-70324685D02*
X187694357Y-70324685D01*
X187694357Y-70324685D02*
X187618166Y-70362780D01*
X187618166Y-70362780D02*
X187580071Y-70400875D01*
X187580071Y-70400875D02*
X187503881Y-70515161D01*
X187503881Y-70515161D02*
X187465785Y-70667542D01*
X187465785Y-70667542D02*
X187465785Y-70972304D01*
X187465785Y-70972304D02*
X187503881Y-71048494D01*
X187503881Y-71048494D02*
X187541976Y-71086590D01*
X187541976Y-71086590D02*
X187618166Y-71124685D01*
X187618166Y-71124685D02*
X187770547Y-71124685D01*
X187770547Y-71124685D02*
X187846738Y-71086590D01*
X187846738Y-71086590D02*
X187884833Y-71048494D01*
X187884833Y-71048494D02*
X187922928Y-70972304D01*
X187922928Y-70972304D02*
X187922928Y-70781828D01*
X187922928Y-70781828D02*
X187884833Y-70705637D01*
X187884833Y-70705637D02*
X187846738Y-70667542D01*
X187846738Y-70667542D02*
X187770547Y-70629447D01*
X187770547Y-70629447D02*
X187618166Y-70629447D01*
X187618166Y-70629447D02*
X187541976Y-70667542D01*
X187541976Y-70667542D02*
X187503881Y-70705637D01*
X187503881Y-70705637D02*
X187465785Y-70781828D01*
X156240045Y-82976190D02*
X156201950Y-83052380D01*
X156201950Y-83052380D02*
X156125760Y-83128571D01*
X156125760Y-83128571D02*
X156011474Y-83242857D01*
X156011474Y-83242857D02*
X155973379Y-83319047D01*
X155973379Y-83319047D02*
X155973379Y-83395238D01*
X156163855Y-83357142D02*
X156125760Y-83433333D01*
X156125760Y-83433333D02*
X156049569Y-83509523D01*
X156049569Y-83509523D02*
X155897188Y-83547619D01*
X155897188Y-83547619D02*
X155630521Y-83547619D01*
X155630521Y-83547619D02*
X155478140Y-83509523D01*
X155478140Y-83509523D02*
X155401950Y-83433333D01*
X155401950Y-83433333D02*
X155363855Y-83357142D01*
X155363855Y-83357142D02*
X155363855Y-83204761D01*
X155363855Y-83204761D02*
X155401950Y-83128571D01*
X155401950Y-83128571D02*
X155478140Y-83052380D01*
X155478140Y-83052380D02*
X155630521Y-83014285D01*
X155630521Y-83014285D02*
X155897188Y-83014285D01*
X155897188Y-83014285D02*
X156049569Y-83052380D01*
X156049569Y-83052380D02*
X156125760Y-83128571D01*
X156125760Y-83128571D02*
X156163855Y-83204761D01*
X156163855Y-83204761D02*
X156163855Y-83357142D01*
X155440045Y-82709524D02*
X155401950Y-82671428D01*
X155401950Y-82671428D02*
X155363855Y-82595238D01*
X155363855Y-82595238D02*
X155363855Y-82404762D01*
X155363855Y-82404762D02*
X155401950Y-82328571D01*
X155401950Y-82328571D02*
X155440045Y-82290476D01*
X155440045Y-82290476D02*
X155516236Y-82252381D01*
X155516236Y-82252381D02*
X155592426Y-82252381D01*
X155592426Y-82252381D02*
X155706712Y-82290476D01*
X155706712Y-82290476D02*
X156163855Y-82747619D01*
X156163855Y-82747619D02*
X156163855Y-82252381D01*
X179010714Y-95038855D02*
X178744047Y-94657902D01*
X178553571Y-95038855D02*
X178553571Y-94238855D01*
X178553571Y-94238855D02*
X178858333Y-94238855D01*
X178858333Y-94238855D02*
X178934523Y-94276950D01*
X178934523Y-94276950D02*
X178972618Y-94315045D01*
X178972618Y-94315045D02*
X179010714Y-94391236D01*
X179010714Y-94391236D02*
X179010714Y-94505521D01*
X179010714Y-94505521D02*
X178972618Y-94581712D01*
X178972618Y-94581712D02*
X178934523Y-94619807D01*
X178934523Y-94619807D02*
X178858333Y-94657902D01*
X178858333Y-94657902D02*
X178553571Y-94657902D01*
X179772618Y-95038855D02*
X179315475Y-95038855D01*
X179544047Y-95038855D02*
X179544047Y-94238855D01*
X179544047Y-94238855D02*
X179467856Y-94353140D01*
X179467856Y-94353140D02*
X179391666Y-94429331D01*
X179391666Y-94429331D02*
X179315475Y-94467426D01*
X180077380Y-94315045D02*
X180115476Y-94276950D01*
X180115476Y-94276950D02*
X180191666Y-94238855D01*
X180191666Y-94238855D02*
X180382142Y-94238855D01*
X180382142Y-94238855D02*
X180458333Y-94276950D01*
X180458333Y-94276950D02*
X180496428Y-94315045D01*
X180496428Y-94315045D02*
X180534523Y-94391236D01*
X180534523Y-94391236D02*
X180534523Y-94467426D01*
X180534523Y-94467426D02*
X180496428Y-94581712D01*
X180496428Y-94581712D02*
X180039285Y-95038855D01*
X180039285Y-95038855D02*
X180534523Y-95038855D01*
X131363855Y-97595238D02*
X131363855Y-97976190D01*
X131363855Y-97976190D02*
X130563855Y-97976190D01*
X130944807Y-97328571D02*
X130944807Y-97061905D01*
X131363855Y-96947619D02*
X131363855Y-97328571D01*
X131363855Y-97328571D02*
X130563855Y-97328571D01*
X130563855Y-97328571D02*
X130563855Y-96947619D01*
X131363855Y-96604761D02*
X130563855Y-96604761D01*
X130563855Y-96604761D02*
X130563855Y-96414285D01*
X130563855Y-96414285D02*
X130601950Y-96299999D01*
X130601950Y-96299999D02*
X130678140Y-96223809D01*
X130678140Y-96223809D02*
X130754331Y-96185714D01*
X130754331Y-96185714D02*
X130906712Y-96147618D01*
X130906712Y-96147618D02*
X131020998Y-96147618D01*
X131020998Y-96147618D02*
X131173379Y-96185714D01*
X131173379Y-96185714D02*
X131249569Y-96223809D01*
X131249569Y-96223809D02*
X131325760Y-96299999D01*
X131325760Y-96299999D02*
X131363855Y-96414285D01*
X131363855Y-96414285D02*
X131363855Y-96604761D01*
X130563855Y-95880952D02*
X130563855Y-95385714D01*
X130563855Y-95385714D02*
X130868617Y-95652380D01*
X130868617Y-95652380D02*
X130868617Y-95538095D01*
X130868617Y-95538095D02*
X130906712Y-95461904D01*
X130906712Y-95461904D02*
X130944807Y-95423809D01*
X130944807Y-95423809D02*
X131020998Y-95385714D01*
X131020998Y-95385714D02*
X131211474Y-95385714D01*
X131211474Y-95385714D02*
X131287664Y-95423809D01*
X131287664Y-95423809D02*
X131325760Y-95461904D01*
X131325760Y-95461904D02*
X131363855Y-95538095D01*
X131363855Y-95538095D02*
X131363855Y-95766666D01*
X131363855Y-95766666D02*
X131325760Y-95842857D01*
X131325760Y-95842857D02*
X131287664Y-95880952D01*
X191310714Y-77988855D02*
X191044047Y-77607902D01*
X190853571Y-77988855D02*
X190853571Y-77188855D01*
X190853571Y-77188855D02*
X191158333Y-77188855D01*
X191158333Y-77188855D02*
X191234523Y-77226950D01*
X191234523Y-77226950D02*
X191272618Y-77265045D01*
X191272618Y-77265045D02*
X191310714Y-77341236D01*
X191310714Y-77341236D02*
X191310714Y-77455521D01*
X191310714Y-77455521D02*
X191272618Y-77531712D01*
X191272618Y-77531712D02*
X191234523Y-77569807D01*
X191234523Y-77569807D02*
X191158333Y-77607902D01*
X191158333Y-77607902D02*
X190853571Y-77607902D01*
X192072618Y-77988855D02*
X191615475Y-77988855D01*
X191844047Y-77988855D02*
X191844047Y-77188855D01*
X191844047Y-77188855D02*
X191767856Y-77303140D01*
X191767856Y-77303140D02*
X191691666Y-77379331D01*
X191691666Y-77379331D02*
X191615475Y-77417426D01*
X192758333Y-77188855D02*
X192605952Y-77188855D01*
X192605952Y-77188855D02*
X192529761Y-77226950D01*
X192529761Y-77226950D02*
X192491666Y-77265045D01*
X192491666Y-77265045D02*
X192415476Y-77379331D01*
X192415476Y-77379331D02*
X192377380Y-77531712D01*
X192377380Y-77531712D02*
X192377380Y-77836474D01*
X192377380Y-77836474D02*
X192415476Y-77912664D01*
X192415476Y-77912664D02*
X192453571Y-77950760D01*
X192453571Y-77950760D02*
X192529761Y-77988855D01*
X192529761Y-77988855D02*
X192682142Y-77988855D01*
X192682142Y-77988855D02*
X192758333Y-77950760D01*
X192758333Y-77950760D02*
X192796428Y-77912664D01*
X192796428Y-77912664D02*
X192834523Y-77836474D01*
X192834523Y-77836474D02*
X192834523Y-77645998D01*
X192834523Y-77645998D02*
X192796428Y-77569807D01*
X192796428Y-77569807D02*
X192758333Y-77531712D01*
X192758333Y-77531712D02*
X192682142Y-77493617D01*
X192682142Y-77493617D02*
X192529761Y-77493617D01*
X192529761Y-77493617D02*
X192453571Y-77531712D01*
X192453571Y-77531712D02*
X192415476Y-77569807D01*
X192415476Y-77569807D02*
X192377380Y-77645998D01*
X165666667Y-97287664D02*
X165628571Y-97325760D01*
X165628571Y-97325760D02*
X165514286Y-97363855D01*
X165514286Y-97363855D02*
X165438095Y-97363855D01*
X165438095Y-97363855D02*
X165323809Y-97325760D01*
X165323809Y-97325760D02*
X165247619Y-97249569D01*
X165247619Y-97249569D02*
X165209524Y-97173379D01*
X165209524Y-97173379D02*
X165171428Y-97020998D01*
X165171428Y-97020998D02*
X165171428Y-96906712D01*
X165171428Y-96906712D02*
X165209524Y-96754331D01*
X165209524Y-96754331D02*
X165247619Y-96678140D01*
X165247619Y-96678140D02*
X165323809Y-96601950D01*
X165323809Y-96601950D02*
X165438095Y-96563855D01*
X165438095Y-96563855D02*
X165514286Y-96563855D01*
X165514286Y-96563855D02*
X165628571Y-96601950D01*
X165628571Y-96601950D02*
X165666667Y-96640045D01*
X166047619Y-97363855D02*
X166200000Y-97363855D01*
X166200000Y-97363855D02*
X166276190Y-97325760D01*
X166276190Y-97325760D02*
X166314286Y-97287664D01*
X166314286Y-97287664D02*
X166390476Y-97173379D01*
X166390476Y-97173379D02*
X166428571Y-97020998D01*
X166428571Y-97020998D02*
X166428571Y-96716236D01*
X166428571Y-96716236D02*
X166390476Y-96640045D01*
X166390476Y-96640045D02*
X166352381Y-96601950D01*
X166352381Y-96601950D02*
X166276190Y-96563855D01*
X166276190Y-96563855D02*
X166123809Y-96563855D01*
X166123809Y-96563855D02*
X166047619Y-96601950D01*
X166047619Y-96601950D02*
X166009524Y-96640045D01*
X166009524Y-96640045D02*
X165971428Y-96716236D01*
X165971428Y-96716236D02*
X165971428Y-96906712D01*
X165971428Y-96906712D02*
X166009524Y-96982902D01*
X166009524Y-96982902D02*
X166047619Y-97020998D01*
X166047619Y-97020998D02*
X166123809Y-97059093D01*
X166123809Y-97059093D02*
X166276190Y-97059093D01*
X166276190Y-97059093D02*
X166352381Y-97020998D01*
X166352381Y-97020998D02*
X166390476Y-96982902D01*
X166390476Y-96982902D02*
X166428571Y-96906712D01*
X178960714Y-98763855D02*
X178694047Y-98382902D01*
X178503571Y-98763855D02*
X178503571Y-97963855D01*
X178503571Y-97963855D02*
X178808333Y-97963855D01*
X178808333Y-97963855D02*
X178884523Y-98001950D01*
X178884523Y-98001950D02*
X178922618Y-98040045D01*
X178922618Y-98040045D02*
X178960714Y-98116236D01*
X178960714Y-98116236D02*
X178960714Y-98230521D01*
X178960714Y-98230521D02*
X178922618Y-98306712D01*
X178922618Y-98306712D02*
X178884523Y-98344807D01*
X178884523Y-98344807D02*
X178808333Y-98382902D01*
X178808333Y-98382902D02*
X178503571Y-98382902D01*
X179722618Y-98763855D02*
X179265475Y-98763855D01*
X179494047Y-98763855D02*
X179494047Y-97963855D01*
X179494047Y-97963855D02*
X179417856Y-98078140D01*
X179417856Y-98078140D02*
X179341666Y-98154331D01*
X179341666Y-98154331D02*
X179265475Y-98192426D01*
X179989285Y-97963855D02*
X180484523Y-97963855D01*
X180484523Y-97963855D02*
X180217857Y-98268617D01*
X180217857Y-98268617D02*
X180332142Y-98268617D01*
X180332142Y-98268617D02*
X180408333Y-98306712D01*
X180408333Y-98306712D02*
X180446428Y-98344807D01*
X180446428Y-98344807D02*
X180484523Y-98420998D01*
X180484523Y-98420998D02*
X180484523Y-98611474D01*
X180484523Y-98611474D02*
X180446428Y-98687664D01*
X180446428Y-98687664D02*
X180408333Y-98725760D01*
X180408333Y-98725760D02*
X180332142Y-98763855D01*
X180332142Y-98763855D02*
X180103571Y-98763855D01*
X180103571Y-98763855D02*
X180027380Y-98725760D01*
X180027380Y-98725760D02*
X179989285Y-98687664D01*
X174785714Y-68263855D02*
X174519047Y-67882902D01*
X174328571Y-68263855D02*
X174328571Y-67463855D01*
X174328571Y-67463855D02*
X174633333Y-67463855D01*
X174633333Y-67463855D02*
X174709523Y-67501950D01*
X174709523Y-67501950D02*
X174747618Y-67540045D01*
X174747618Y-67540045D02*
X174785714Y-67616236D01*
X174785714Y-67616236D02*
X174785714Y-67730521D01*
X174785714Y-67730521D02*
X174747618Y-67806712D01*
X174747618Y-67806712D02*
X174709523Y-67844807D01*
X174709523Y-67844807D02*
X174633333Y-67882902D01*
X174633333Y-67882902D02*
X174328571Y-67882902D01*
X175090475Y-67540045D02*
X175128571Y-67501950D01*
X175128571Y-67501950D02*
X175204761Y-67463855D01*
X175204761Y-67463855D02*
X175395237Y-67463855D01*
X175395237Y-67463855D02*
X175471428Y-67501950D01*
X175471428Y-67501950D02*
X175509523Y-67540045D01*
X175509523Y-67540045D02*
X175547618Y-67616236D01*
X175547618Y-67616236D02*
X175547618Y-67692426D01*
X175547618Y-67692426D02*
X175509523Y-67806712D01*
X175509523Y-67806712D02*
X175052380Y-68263855D01*
X175052380Y-68263855D02*
X175547618Y-68263855D01*
X176271428Y-67463855D02*
X175890476Y-67463855D01*
X175890476Y-67463855D02*
X175852380Y-67844807D01*
X175852380Y-67844807D02*
X175890476Y-67806712D01*
X175890476Y-67806712D02*
X175966666Y-67768617D01*
X175966666Y-67768617D02*
X176157142Y-67768617D01*
X176157142Y-67768617D02*
X176233333Y-67806712D01*
X176233333Y-67806712D02*
X176271428Y-67844807D01*
X176271428Y-67844807D02*
X176309523Y-67920998D01*
X176309523Y-67920998D02*
X176309523Y-68111474D01*
X176309523Y-68111474D02*
X176271428Y-68187664D01*
X176271428Y-68187664D02*
X176233333Y-68225760D01*
X176233333Y-68225760D02*
X176157142Y-68263855D01*
X176157142Y-68263855D02*
X175966666Y-68263855D01*
X175966666Y-68263855D02*
X175890476Y-68225760D01*
X175890476Y-68225760D02*
X175852380Y-68187664D01*
X143417664Y-68950485D02*
X143455760Y-68988581D01*
X143455760Y-68988581D02*
X143493855Y-69102866D01*
X143493855Y-69102866D02*
X143493855Y-69179057D01*
X143493855Y-69179057D02*
X143455760Y-69293343D01*
X143455760Y-69293343D02*
X143379569Y-69369533D01*
X143379569Y-69369533D02*
X143303379Y-69407628D01*
X143303379Y-69407628D02*
X143150998Y-69445724D01*
X143150998Y-69445724D02*
X143036712Y-69445724D01*
X143036712Y-69445724D02*
X142884331Y-69407628D01*
X142884331Y-69407628D02*
X142808140Y-69369533D01*
X142808140Y-69369533D02*
X142731950Y-69293343D01*
X142731950Y-69293343D02*
X142693855Y-69179057D01*
X142693855Y-69179057D02*
X142693855Y-69102866D01*
X142693855Y-69102866D02*
X142731950Y-68988581D01*
X142731950Y-68988581D02*
X142770045Y-68950485D01*
X143493855Y-68188581D02*
X143493855Y-68645724D01*
X143493855Y-68417152D02*
X142693855Y-68417152D01*
X142693855Y-68417152D02*
X142808140Y-68493343D01*
X142808140Y-68493343D02*
X142884331Y-68569533D01*
X142884331Y-68569533D02*
X142922426Y-68645724D01*
X143036712Y-67731438D02*
X142998617Y-67807628D01*
X142998617Y-67807628D02*
X142960521Y-67845723D01*
X142960521Y-67845723D02*
X142884331Y-67883819D01*
X142884331Y-67883819D02*
X142846236Y-67883819D01*
X142846236Y-67883819D02*
X142770045Y-67845723D01*
X142770045Y-67845723D02*
X142731950Y-67807628D01*
X142731950Y-67807628D02*
X142693855Y-67731438D01*
X142693855Y-67731438D02*
X142693855Y-67579057D01*
X142693855Y-67579057D02*
X142731950Y-67502866D01*
X142731950Y-67502866D02*
X142770045Y-67464771D01*
X142770045Y-67464771D02*
X142846236Y-67426676D01*
X142846236Y-67426676D02*
X142884331Y-67426676D01*
X142884331Y-67426676D02*
X142960521Y-67464771D01*
X142960521Y-67464771D02*
X142998617Y-67502866D01*
X142998617Y-67502866D02*
X143036712Y-67579057D01*
X143036712Y-67579057D02*
X143036712Y-67731438D01*
X143036712Y-67731438D02*
X143074807Y-67807628D01*
X143074807Y-67807628D02*
X143112902Y-67845723D01*
X143112902Y-67845723D02*
X143189093Y-67883819D01*
X143189093Y-67883819D02*
X143341474Y-67883819D01*
X143341474Y-67883819D02*
X143417664Y-67845723D01*
X143417664Y-67845723D02*
X143455760Y-67807628D01*
X143455760Y-67807628D02*
X143493855Y-67731438D01*
X143493855Y-67731438D02*
X143493855Y-67579057D01*
X143493855Y-67579057D02*
X143455760Y-67502866D01*
X143455760Y-67502866D02*
X143417664Y-67464771D01*
X143417664Y-67464771D02*
X143341474Y-67426676D01*
X143341474Y-67426676D02*
X143189093Y-67426676D01*
X143189093Y-67426676D02*
X143112902Y-67464771D01*
X143112902Y-67464771D02*
X143074807Y-67502866D01*
X143074807Y-67502866D02*
X143036712Y-67579057D01*
X197390476Y-68563855D02*
X197390476Y-69211474D01*
X197390476Y-69211474D02*
X197428571Y-69287664D01*
X197428571Y-69287664D02*
X197466666Y-69325760D01*
X197466666Y-69325760D02*
X197542857Y-69363855D01*
X197542857Y-69363855D02*
X197695238Y-69363855D01*
X197695238Y-69363855D02*
X197771428Y-69325760D01*
X197771428Y-69325760D02*
X197809523Y-69287664D01*
X197809523Y-69287664D02*
X197847619Y-69211474D01*
X197847619Y-69211474D02*
X197847619Y-68563855D01*
X198152380Y-68563855D02*
X198647618Y-68563855D01*
X198647618Y-68563855D02*
X198380952Y-68868617D01*
X198380952Y-68868617D02*
X198495237Y-68868617D01*
X198495237Y-68868617D02*
X198571428Y-68906712D01*
X198571428Y-68906712D02*
X198609523Y-68944807D01*
X198609523Y-68944807D02*
X198647618Y-69020998D01*
X198647618Y-69020998D02*
X198647618Y-69211474D01*
X198647618Y-69211474D02*
X198609523Y-69287664D01*
X198609523Y-69287664D02*
X198571428Y-69325760D01*
X198571428Y-69325760D02*
X198495237Y-69363855D01*
X198495237Y-69363855D02*
X198266666Y-69363855D01*
X198266666Y-69363855D02*
X198190475Y-69325760D01*
X198190475Y-69325760D02*
X198152380Y-69287664D01*
X149233333Y-91944807D02*
X148966667Y-91944807D01*
X148966667Y-92363855D02*
X148966667Y-91563855D01*
X148966667Y-91563855D02*
X149347619Y-91563855D01*
X150071428Y-92363855D02*
X149614285Y-92363855D01*
X149842857Y-92363855D02*
X149842857Y-91563855D01*
X149842857Y-91563855D02*
X149766666Y-91678140D01*
X149766666Y-91678140D02*
X149690476Y-91754331D01*
X149690476Y-91754331D02*
X149614285Y-91792426D01*
X161640045Y-88301190D02*
X161601950Y-88377380D01*
X161601950Y-88377380D02*
X161525760Y-88453571D01*
X161525760Y-88453571D02*
X161411474Y-88567857D01*
X161411474Y-88567857D02*
X161373379Y-88644047D01*
X161373379Y-88644047D02*
X161373379Y-88720238D01*
X161563855Y-88682142D02*
X161525760Y-88758333D01*
X161525760Y-88758333D02*
X161449569Y-88834523D01*
X161449569Y-88834523D02*
X161297188Y-88872619D01*
X161297188Y-88872619D02*
X161030521Y-88872619D01*
X161030521Y-88872619D02*
X160878140Y-88834523D01*
X160878140Y-88834523D02*
X160801950Y-88758333D01*
X160801950Y-88758333D02*
X160763855Y-88682142D01*
X160763855Y-88682142D02*
X160763855Y-88529761D01*
X160763855Y-88529761D02*
X160801950Y-88453571D01*
X160801950Y-88453571D02*
X160878140Y-88377380D01*
X160878140Y-88377380D02*
X161030521Y-88339285D01*
X161030521Y-88339285D02*
X161297188Y-88339285D01*
X161297188Y-88339285D02*
X161449569Y-88377380D01*
X161449569Y-88377380D02*
X161525760Y-88453571D01*
X161525760Y-88453571D02*
X161563855Y-88529761D01*
X161563855Y-88529761D02*
X161563855Y-88682142D01*
X160763855Y-88072619D02*
X160763855Y-87577381D01*
X160763855Y-87577381D02*
X161068617Y-87844047D01*
X161068617Y-87844047D02*
X161068617Y-87729762D01*
X161068617Y-87729762D02*
X161106712Y-87653571D01*
X161106712Y-87653571D02*
X161144807Y-87615476D01*
X161144807Y-87615476D02*
X161220998Y-87577381D01*
X161220998Y-87577381D02*
X161411474Y-87577381D01*
X161411474Y-87577381D02*
X161487664Y-87615476D01*
X161487664Y-87615476D02*
X161525760Y-87653571D01*
X161525760Y-87653571D02*
X161563855Y-87729762D01*
X161563855Y-87729762D02*
X161563855Y-87958333D01*
X161563855Y-87958333D02*
X161525760Y-88034524D01*
X161525760Y-88034524D02*
X161487664Y-88072619D01*
X175604761Y-88463855D02*
X175223809Y-88463855D01*
X175223809Y-88463855D02*
X175223809Y-87663855D01*
X175871428Y-88044807D02*
X176138094Y-88044807D01*
X176252380Y-88463855D02*
X175871428Y-88463855D01*
X175871428Y-88463855D02*
X175871428Y-87663855D01*
X175871428Y-87663855D02*
X176252380Y-87663855D01*
X176595238Y-88463855D02*
X176595238Y-87663855D01*
X176595238Y-87663855D02*
X176785714Y-87663855D01*
X176785714Y-87663855D02*
X176900000Y-87701950D01*
X176900000Y-87701950D02*
X176976190Y-87778140D01*
X176976190Y-87778140D02*
X177014285Y-87854331D01*
X177014285Y-87854331D02*
X177052381Y-88006712D01*
X177052381Y-88006712D02*
X177052381Y-88120998D01*
X177052381Y-88120998D02*
X177014285Y-88273379D01*
X177014285Y-88273379D02*
X176976190Y-88349569D01*
X176976190Y-88349569D02*
X176900000Y-88425760D01*
X176900000Y-88425760D02*
X176785714Y-88463855D01*
X176785714Y-88463855D02*
X176595238Y-88463855D01*
X177738095Y-87663855D02*
X177585714Y-87663855D01*
X177585714Y-87663855D02*
X177509523Y-87701950D01*
X177509523Y-87701950D02*
X177471428Y-87740045D01*
X177471428Y-87740045D02*
X177395238Y-87854331D01*
X177395238Y-87854331D02*
X177357142Y-88006712D01*
X177357142Y-88006712D02*
X177357142Y-88311474D01*
X177357142Y-88311474D02*
X177395238Y-88387664D01*
X177395238Y-88387664D02*
X177433333Y-88425760D01*
X177433333Y-88425760D02*
X177509523Y-88463855D01*
X177509523Y-88463855D02*
X177661904Y-88463855D01*
X177661904Y-88463855D02*
X177738095Y-88425760D01*
X177738095Y-88425760D02*
X177776190Y-88387664D01*
X177776190Y-88387664D02*
X177814285Y-88311474D01*
X177814285Y-88311474D02*
X177814285Y-88120998D01*
X177814285Y-88120998D02*
X177776190Y-88044807D01*
X177776190Y-88044807D02*
X177738095Y-88006712D01*
X177738095Y-88006712D02*
X177661904Y-87968617D01*
X177661904Y-87968617D02*
X177509523Y-87968617D01*
X177509523Y-87968617D02*
X177433333Y-88006712D01*
X177433333Y-88006712D02*
X177395238Y-88044807D01*
X177395238Y-88044807D02*
X177357142Y-88120998D01*
X177035714Y-86088855D02*
X176769047Y-85707902D01*
X176578571Y-86088855D02*
X176578571Y-85288855D01*
X176578571Y-85288855D02*
X176883333Y-85288855D01*
X176883333Y-85288855D02*
X176959523Y-85326950D01*
X176959523Y-85326950D02*
X176997618Y-85365045D01*
X176997618Y-85365045D02*
X177035714Y-85441236D01*
X177035714Y-85441236D02*
X177035714Y-85555521D01*
X177035714Y-85555521D02*
X176997618Y-85631712D01*
X176997618Y-85631712D02*
X176959523Y-85669807D01*
X176959523Y-85669807D02*
X176883333Y-85707902D01*
X176883333Y-85707902D02*
X176578571Y-85707902D01*
X177797618Y-86088855D02*
X177340475Y-86088855D01*
X177569047Y-86088855D02*
X177569047Y-85288855D01*
X177569047Y-85288855D02*
X177492856Y-85403140D01*
X177492856Y-85403140D02*
X177416666Y-85479331D01*
X177416666Y-85479331D02*
X177340475Y-85517426D01*
X178292857Y-85288855D02*
X178369047Y-85288855D01*
X178369047Y-85288855D02*
X178445238Y-85326950D01*
X178445238Y-85326950D02*
X178483333Y-85365045D01*
X178483333Y-85365045D02*
X178521428Y-85441236D01*
X178521428Y-85441236D02*
X178559523Y-85593617D01*
X178559523Y-85593617D02*
X178559523Y-85784093D01*
X178559523Y-85784093D02*
X178521428Y-85936474D01*
X178521428Y-85936474D02*
X178483333Y-86012664D01*
X178483333Y-86012664D02*
X178445238Y-86050760D01*
X178445238Y-86050760D02*
X178369047Y-86088855D01*
X178369047Y-86088855D02*
X178292857Y-86088855D01*
X178292857Y-86088855D02*
X178216666Y-86050760D01*
X178216666Y-86050760D02*
X178178571Y-86012664D01*
X178178571Y-86012664D02*
X178140476Y-85936474D01*
X178140476Y-85936474D02*
X178102380Y-85784093D01*
X178102380Y-85784093D02*
X178102380Y-85593617D01*
X178102380Y-85593617D02*
X178140476Y-85441236D01*
X178140476Y-85441236D02*
X178178571Y-85365045D01*
X178178571Y-85365045D02*
X178216666Y-85326950D01*
X178216666Y-85326950D02*
X178292857Y-85288855D01*
X142889285Y-64022344D02*
X143155952Y-64403297D01*
X143346428Y-64022344D02*
X143346428Y-64822344D01*
X143346428Y-64822344D02*
X143041666Y-64822344D01*
X143041666Y-64822344D02*
X142965476Y-64784249D01*
X142965476Y-64784249D02*
X142927381Y-64746154D01*
X142927381Y-64746154D02*
X142889285Y-64669963D01*
X142889285Y-64669963D02*
X142889285Y-64555678D01*
X142889285Y-64555678D02*
X142927381Y-64479487D01*
X142927381Y-64479487D02*
X142965476Y-64441392D01*
X142965476Y-64441392D02*
X143041666Y-64403297D01*
X143041666Y-64403297D02*
X143346428Y-64403297D01*
X142127381Y-64022344D02*
X142584524Y-64022344D01*
X142355952Y-64022344D02*
X142355952Y-64822344D01*
X142355952Y-64822344D02*
X142432143Y-64708059D01*
X142432143Y-64708059D02*
X142508333Y-64631868D01*
X142508333Y-64631868D02*
X142584524Y-64593773D01*
X141860714Y-64822344D02*
X141327380Y-64822344D01*
X141327380Y-64822344D02*
X141670238Y-64022344D01*
X128635714Y-74012664D02*
X128597618Y-74050760D01*
X128597618Y-74050760D02*
X128483333Y-74088855D01*
X128483333Y-74088855D02*
X128407142Y-74088855D01*
X128407142Y-74088855D02*
X128292856Y-74050760D01*
X128292856Y-74050760D02*
X128216666Y-73974569D01*
X128216666Y-73974569D02*
X128178571Y-73898379D01*
X128178571Y-73898379D02*
X128140475Y-73745998D01*
X128140475Y-73745998D02*
X128140475Y-73631712D01*
X128140475Y-73631712D02*
X128178571Y-73479331D01*
X128178571Y-73479331D02*
X128216666Y-73403140D01*
X128216666Y-73403140D02*
X128292856Y-73326950D01*
X128292856Y-73326950D02*
X128407142Y-73288855D01*
X128407142Y-73288855D02*
X128483333Y-73288855D01*
X128483333Y-73288855D02*
X128597618Y-73326950D01*
X128597618Y-73326950D02*
X128635714Y-73365045D01*
X129397618Y-74088855D02*
X128940475Y-74088855D01*
X129169047Y-74088855D02*
X129169047Y-73288855D01*
X129169047Y-73288855D02*
X129092856Y-73403140D01*
X129092856Y-73403140D02*
X129016666Y-73479331D01*
X129016666Y-73479331D02*
X128940475Y-73517426D01*
X130083333Y-73288855D02*
X129930952Y-73288855D01*
X129930952Y-73288855D02*
X129854761Y-73326950D01*
X129854761Y-73326950D02*
X129816666Y-73365045D01*
X129816666Y-73365045D02*
X129740476Y-73479331D01*
X129740476Y-73479331D02*
X129702380Y-73631712D01*
X129702380Y-73631712D02*
X129702380Y-73936474D01*
X129702380Y-73936474D02*
X129740476Y-74012664D01*
X129740476Y-74012664D02*
X129778571Y-74050760D01*
X129778571Y-74050760D02*
X129854761Y-74088855D01*
X129854761Y-74088855D02*
X130007142Y-74088855D01*
X130007142Y-74088855D02*
X130083333Y-74050760D01*
X130083333Y-74050760D02*
X130121428Y-74012664D01*
X130121428Y-74012664D02*
X130159523Y-73936474D01*
X130159523Y-73936474D02*
X130159523Y-73745998D01*
X130159523Y-73745998D02*
X130121428Y-73669807D01*
X130121428Y-73669807D02*
X130083333Y-73631712D01*
X130083333Y-73631712D02*
X130007142Y-73593617D01*
X130007142Y-73593617D02*
X129854761Y-73593617D01*
X129854761Y-73593617D02*
X129778571Y-73631712D01*
X129778571Y-73631712D02*
X129740476Y-73669807D01*
X129740476Y-73669807D02*
X129702380Y-73745998D01*
%TO.C,J1*%
D11*
X153178250Y-95787500D02*
G75*
G02*
X152978250Y-95787500I-100000J0D01*
G01*
X152978250Y-95787500D02*
G75*
G02*
X153178250Y-95787500I100000J0D01*
G01*
D12*
X160248250Y-107637500D02*
X160248250Y-105557500D01*
X160248250Y-97387500D02*
X160248250Y-98087500D01*
X159098250Y-97387500D02*
X160248250Y-97387500D01*
X152658250Y-97387500D02*
X151508250Y-97387500D01*
X151508250Y-107637500D02*
X160248250Y-107637500D01*
X151508250Y-105557500D02*
X151508250Y-107637500D01*
X151508250Y-97387500D02*
X151508250Y-98087500D01*
%TO.C,C2*%
D10*
X120438748Y-103065000D02*
X120961252Y-103065000D01*
X120438748Y-104535000D02*
X120961252Y-104535000D01*
%TO.C,TP4*%
X215075000Y-78825000D02*
G75*
G02*
X213675000Y-78825000I-700000J0D01*
G01*
X213675000Y-78825000D02*
G75*
G02*
X215075000Y-78825000I700000J0D01*
G01*
%TO.C,R14*%
X172115000Y-95552064D02*
X172115000Y-95097936D01*
X173585000Y-95552064D02*
X173585000Y-95097936D01*
%TO.C,LED2*%
D11*
X131950000Y-91025000D02*
X131950000Y-93125000D01*
X131950000Y-93125000D02*
X134600000Y-93125000D01*
X134600000Y-91025000D02*
X131950000Y-91025000D01*
%TO.C,U8*%
D13*
X137045000Y-69180400D02*
X138405000Y-69180400D01*
X138405000Y-66742000D02*
X137045000Y-66742000D01*
X135681200Y-66722000D02*
G75*
G02*
X135681200Y-66976000I0J-127000D01*
G01*
X135681200Y-66976000D02*
G75*
G02*
X135681200Y-66722000I0J127000D01*
G01*
%TO.C,S2*%
D12*
X157950000Y-64675000D02*
X157950000Y-69175000D01*
X157950000Y-64675000D02*
X162450000Y-64675000D01*
X162450000Y-69175000D02*
X157950000Y-69175000D01*
X162450000Y-69175000D02*
X162450000Y-64675000D01*
D11*
X157600000Y-63325000D02*
G75*
G02*
X157400000Y-63325000I-100000J0D01*
G01*
X157400000Y-63325000D02*
G75*
G02*
X157600000Y-63325000I100000J0D01*
G01*
%TO.C,U4*%
D10*
X173115000Y-98765000D02*
X173115000Y-98515000D01*
X173115000Y-101585000D02*
X173115000Y-101085000D01*
X173615000Y-98265000D02*
X173415000Y-98265000D01*
X173615000Y-101585000D02*
X173115000Y-101585000D01*
X175935000Y-98265000D02*
X176435000Y-98265000D01*
X175935000Y-101585000D02*
X176435000Y-101585000D01*
X176435000Y-98265000D02*
X176435000Y-98765000D01*
X176435000Y-101585000D02*
X176435000Y-101085000D01*
X173115000Y-98265000D02*
X172875000Y-97935000D01*
X173355000Y-97935000D01*
X173115000Y-98265000D01*
G36*
X173115000Y-98265000D02*
G01*
X172875000Y-97935000D01*
X173355000Y-97935000D01*
X173115000Y-98265000D01*
G37*
%TO.C,R24*%
X177790000Y-62872936D02*
X177790000Y-63327064D01*
X179260000Y-62872936D02*
X179260000Y-63327064D01*
%TO.C,R15*%
X196690000Y-71772936D02*
X196690000Y-72227064D01*
X198160000Y-71772936D02*
X198160000Y-72227064D01*
%TO.C,TP5*%
X184325000Y-68800000D02*
G75*
G02*
X182925000Y-68800000I-700000J0D01*
G01*
X182925000Y-68800000D02*
G75*
G02*
X184325000Y-68800000I700000J0D01*
G01*
%TO.C,TP2*%
X187625000Y-84625000D02*
G75*
G02*
X186225000Y-84625000I-700000J0D01*
G01*
X186225000Y-84625000D02*
G75*
G02*
X187625000Y-84625000I700000J0D01*
G01*
%TO.C,J4*%
X113470000Y-61135000D02*
X114850000Y-61135000D01*
X113470000Y-62515000D02*
X113470000Y-61135000D01*
X113470000Y-63785000D02*
X113470000Y-71515000D01*
X113470000Y-63785000D02*
X116230000Y-63785000D01*
X113470000Y-71515000D02*
X116230000Y-71515000D01*
X116230000Y-63785000D02*
X116230000Y-71515000D01*
%TO.C,R6*%
X146947936Y-82390000D02*
X147402064Y-82390000D01*
X146947936Y-83860000D02*
X147402064Y-83860000D01*
%TO.C,LED1*%
D11*
X131850000Y-87775000D02*
X131850000Y-89875000D01*
X131850000Y-89875000D02*
X134500000Y-89875000D01*
X134500000Y-87775000D02*
X131850000Y-87775000D01*
%TO.C,R8*%
D10*
X137472936Y-91190000D02*
X137927064Y-91190000D01*
X137472936Y-92660000D02*
X137927064Y-92660000D01*
%TO.C,C5*%
X120538748Y-105665000D02*
X121061252Y-105665000D01*
X120538748Y-107135000D02*
X121061252Y-107135000D01*
%TO.C,R11*%
X165622936Y-104340000D02*
X166077064Y-104340000D01*
X165622936Y-105810000D02*
X166077064Y-105810000D01*
%TO.C,F2*%
D11*
X139263000Y-83275000D02*
X136887000Y-83275000D01*
%TO.C,R7*%
D10*
X137689564Y-88015000D02*
X137235436Y-88015000D01*
X137689564Y-89485000D02*
X137235436Y-89485000D01*
%TO.C,TP1*%
X209175000Y-78325000D02*
G75*
G02*
X207775000Y-78325000I-700000J0D01*
G01*
X207775000Y-78325000D02*
G75*
G02*
X209175000Y-78325000I700000J0D01*
G01*
%TO.C,Q1*%
D12*
X162450000Y-80425000D02*
X162450000Y-77520000D01*
X162645000Y-80425000D02*
X162450000Y-80425000D01*
X164600000Y-77530000D02*
X164600000Y-80425000D01*
X164600000Y-80425000D02*
X164395000Y-80425000D01*
D11*
X164325000Y-75350000D02*
G75*
G02*
X164125000Y-75350000I-100000J0D01*
G01*
X164125000Y-75350000D02*
G75*
G02*
X164325000Y-75350000I100000J0D01*
G01*
%TO.C,R23*%
D10*
X167347936Y-75540000D02*
X167802064Y-75540000D01*
X167347936Y-77010000D02*
X167802064Y-77010000D01*
%TO.C,C17*%
X133390000Y-68472452D02*
X133390000Y-67949948D01*
X134860000Y-68472452D02*
X134860000Y-67949948D01*
%TO.C,J5*%
X113470000Y-75905000D02*
X114850000Y-75905000D01*
X113470000Y-77285000D02*
X113470000Y-75905000D01*
X113470000Y-78555000D02*
X113470000Y-88825000D01*
X113470000Y-78555000D02*
X116230000Y-78555000D01*
X113470000Y-88825000D02*
X116230000Y-88825000D01*
X116230000Y-78555000D02*
X116230000Y-88825000D01*
%TO.C,LED5*%
D11*
X171925000Y-89800000D02*
X171925000Y-92450000D01*
X171925000Y-92450000D02*
X174025000Y-92450000D01*
X174025000Y-92450000D02*
X174025000Y-89800000D01*
%TO.C,R34*%
D10*
X162865000Y-84997936D02*
X162865000Y-85452064D01*
X164335000Y-84997936D02*
X164335000Y-85452064D01*
%TO.C,R22*%
X187302064Y-78040000D02*
X186847936Y-78040000D01*
X187302064Y-79510000D02*
X186847936Y-79510000D01*
%TO.C,C1*%
X148640000Y-99638748D02*
X148640000Y-100161252D01*
X150110000Y-99638748D02*
X150110000Y-100161252D01*
%TO.C,J3*%
D12*
X190800000Y-86620000D02*
X190800000Y-104680000D01*
X190800000Y-108900000D02*
X190800000Y-108120000D01*
X196870000Y-83900000D02*
X197655000Y-83900000D01*
X199295000Y-83900000D02*
X200155000Y-83900000D01*
X201795000Y-83900000D02*
X202655000Y-83900000D01*
X204295000Y-83900000D02*
X205155000Y-83900000D01*
X206795000Y-83900000D02*
X207655000Y-83900000D01*
X209295000Y-83900000D02*
X210155000Y-83900000D01*
X211795000Y-83900000D02*
X212655000Y-83900000D01*
X216620000Y-83900000D02*
X217400000Y-83900000D01*
X217400000Y-83900000D02*
X217400000Y-104680000D01*
X217400000Y-108900000D02*
X190800000Y-108900000D01*
X217400000Y-108900000D02*
X217400000Y-108120000D01*
D11*
X211075000Y-81650000D02*
G75*
G02*
X210875000Y-81650000I-100000J0D01*
G01*
X210875000Y-81650000D02*
G75*
G02*
X211075000Y-81650000I100000J0D01*
G01*
%TO.C,R29*%
D10*
X134147936Y-63115000D02*
X134602064Y-63115000D01*
X134147936Y-64585000D02*
X134602064Y-64585000D01*
%TO.C,C8*%
X197265000Y-64261252D02*
X197265000Y-63738748D01*
X198735000Y-64261252D02*
X198735000Y-63738748D01*
%TO.C,MK1*%
D12*
X126650000Y-61125000D02*
G75*
G02*
X120650000Y-61125000I-3000000J0D01*
G01*
X120650000Y-61125000D02*
G75*
G02*
X126650000Y-61125000I3000000J0D01*
G01*
%TO.C,R30*%
D10*
X136572936Y-70890000D02*
X137027064Y-70890000D01*
X136572936Y-72360000D02*
X137027064Y-72360000D01*
%TO.C,R31*%
X137997936Y-58301200D02*
X138452064Y-58301200D01*
X137997936Y-59771200D02*
X138452064Y-59771200D01*
%TO.C,R4*%
X148965000Y-104547936D02*
X148965000Y-105002064D01*
X150435000Y-104547936D02*
X150435000Y-105002064D01*
%TO.C,C13*%
X205186252Y-79565000D02*
X204663748Y-79565000D01*
X205186252Y-81035000D02*
X204663748Y-81035000D01*
%TO.C,R28*%
X133152064Y-70990000D02*
X132697936Y-70990000D01*
X133152064Y-72460000D02*
X132697936Y-72460000D01*
%TO.C,C20*%
X138113748Y-62115000D02*
X138636252Y-62115000D01*
X138113748Y-63585000D02*
X138636252Y-63585000D01*
%TO.C,TP3*%
X193750000Y-74525000D02*
G75*
G02*
X192350000Y-74525000I-700000J0D01*
G01*
X192350000Y-74525000D02*
G75*
G02*
X193750000Y-74525000I700000J0D01*
G01*
%TO.C,R26*%
X129160436Y-67890000D02*
X129614564Y-67890000D01*
X129160436Y-69360000D02*
X129614564Y-69360000D01*
%TO.C,C22*%
X147513748Y-70190000D02*
X148036252Y-70190000D01*
X147513748Y-71660000D02*
X148036252Y-71660000D01*
%TO.C,VR1*%
D12*
X116475000Y-95675000D02*
X116475000Y-96915000D01*
X116475000Y-102175000D02*
X116475000Y-100935000D01*
X119975000Y-95675000D02*
X116475000Y-95675000D01*
X119975000Y-102175000D02*
X116475000Y-102175000D01*
D11*
X122925000Y-101225000D02*
G75*
G02*
X122725000Y-101225000I-100000J0D01*
G01*
X122725000Y-101225000D02*
G75*
G02*
X122925000Y-101225000I100000J0D01*
G01*
%TO.C,R18*%
D10*
X174515000Y-95502064D02*
X174515000Y-95047936D01*
X175985000Y-95502064D02*
X175985000Y-95047936D01*
%TO.C,C10*%
X166061252Y-101740000D02*
X165538748Y-101740000D01*
X166061252Y-103210000D02*
X165538748Y-103210000D01*
%TO.C,C25*%
X171313748Y-80540000D02*
X171836252Y-80540000D01*
X171313748Y-82010000D02*
X171836252Y-82010000D01*
%TO.C,C15*%
X171790000Y-63436252D02*
X171790000Y-62913748D01*
X173260000Y-63436252D02*
X173260000Y-62913748D01*
%TO.C,R3*%
X146465000Y-103647936D02*
X146465000Y-104102064D01*
X147935000Y-103647936D02*
X147935000Y-104102064D01*
%TO.C,LED4*%
D11*
X175800000Y-80100000D02*
X175800000Y-82200000D01*
X175800000Y-82200000D02*
X178450000Y-82200000D01*
X178450000Y-80100000D02*
X175800000Y-80100000D01*
%TO.C,R1*%
D10*
X142772936Y-92540000D02*
X143227064Y-92540000D01*
X142772936Y-94010000D02*
X143227064Y-94010000D01*
%TO.C,C6*%
X141715000Y-83338748D02*
X141715000Y-83861252D01*
X143185000Y-83338748D02*
X143185000Y-83861252D01*
%TO.C,R19*%
X210215000Y-80302064D02*
X210215000Y-79847936D01*
X211685000Y-80302064D02*
X211685000Y-79847936D01*
%TO.C,C21*%
X147513748Y-65190000D02*
X148036252Y-65190000D01*
X147513748Y-66660000D02*
X148036252Y-66660000D01*
%TO.C,C7*%
D11*
X195050000Y-68660000D02*
G75*
G02*
X194950000Y-68660000I-50000J0D01*
G01*
X194950000Y-68660000D02*
G75*
G02*
X195050000Y-68660000I50000J0D01*
G01*
%TO.C,C11*%
D10*
X181840000Y-98163748D02*
X181840000Y-98686252D01*
X183310000Y-98163748D02*
X183310000Y-98686252D01*
%TO.C,U5*%
X158227500Y-91590000D02*
X160047500Y-91590000D01*
X158227500Y-91640000D02*
X158227500Y-91590000D01*
X158227500Y-94710000D02*
X158227500Y-94660000D01*
X160047500Y-91590000D02*
X160047500Y-91640000D01*
X160047500Y-94660000D02*
X160047500Y-94710000D01*
X160047500Y-94710000D02*
X158227500Y-94710000D01*
X160827500Y-94990000D02*
X160347500Y-94990000D01*
X160587500Y-94660000D01*
X160827500Y-94990000D01*
G36*
X160827500Y-94990000D02*
G01*
X160347500Y-94990000D01*
X160587500Y-94660000D01*
X160827500Y-94990000D01*
G37*
%TO.C,C4*%
D11*
X128610000Y-106425000D02*
G75*
G02*
X128510000Y-106425000I-50000J0D01*
G01*
X128510000Y-106425000D02*
G75*
G02*
X128610000Y-106425000I50000J0D01*
G01*
%TO.C,J2*%
D12*
X134025000Y-100207500D02*
X141975000Y-100207500D01*
X134025000Y-100887500D02*
X134025000Y-100207500D01*
X134025000Y-105207500D02*
X134025000Y-104527500D01*
X136180000Y-105207500D02*
X134025000Y-105207500D01*
X141975000Y-100207500D02*
X141975000Y-100887500D01*
X141975000Y-105207500D02*
X139820000Y-105207500D01*
X141975000Y-105207500D02*
X141975000Y-104527500D01*
D11*
X137100000Y-108367500D02*
G75*
G02*
X136900000Y-108367500I-100000J0D01*
G01*
X136900000Y-108367500D02*
G75*
G02*
X137100000Y-108367500I100000J0D01*
G01*
%TO.C,R2*%
D10*
X141277064Y-94665000D02*
X140822936Y-94665000D01*
X141277064Y-96135000D02*
X140822936Y-96135000D01*
%TO.C,U2*%
D12*
X174225000Y-61615000D02*
X176825000Y-61615000D01*
X174225000Y-64385000D02*
X176825000Y-64385000D01*
D11*
X177175000Y-62000000D02*
G75*
G02*
X177075000Y-62000000I-50000J0D01*
G01*
X177075000Y-62000000D02*
G75*
G02*
X177175000Y-62000000I50000J0D01*
G01*
%TO.C,C23*%
D10*
X167313748Y-80540000D02*
X167836252Y-80540000D01*
X167313748Y-82010000D02*
X167836252Y-82010000D01*
%TO.C,C24*%
X171488748Y-75515000D02*
X172011252Y-75515000D01*
X171488748Y-76985000D02*
X172011252Y-76985000D01*
%TO.C,C14*%
X179865000Y-76738748D02*
X179865000Y-77261252D01*
X181335000Y-76738748D02*
X181335000Y-77261252D01*
%TO.C,R33*%
X152865000Y-85452064D02*
X152865000Y-84997936D01*
X154335000Y-85452064D02*
X154335000Y-84997936D01*
%TO.C,R32*%
X165040000Y-67872936D02*
X165040000Y-68327064D01*
X166510000Y-67872936D02*
X166510000Y-68327064D01*
%TO.C,R20*%
X194140000Y-71827064D02*
X194140000Y-71372936D01*
X195610000Y-71827064D02*
X195610000Y-71372936D01*
%TO.C,C3*%
D11*
X128485000Y-102350000D02*
G75*
G02*
X128385000Y-102350000I-50000J0D01*
G01*
X128385000Y-102350000D02*
G75*
G02*
X128485000Y-102350000I50000J0D01*
G01*
%TO.C,R9*%
D10*
X137172936Y-94615000D02*
X137627064Y-94615000D01*
X137172936Y-96085000D02*
X137627064Y-96085000D01*
%TO.C,C12*%
D11*
X197090000Y-80025000D02*
G75*
G02*
X196990000Y-80025000I-50000J0D01*
G01*
X196990000Y-80025000D02*
G75*
G02*
X197090000Y-80025000I50000J0D01*
G01*
%TO.C,S1*%
D12*
X151475000Y-64475000D02*
X151475000Y-68975000D01*
X151475000Y-64475000D02*
X155975000Y-64475000D01*
X155975000Y-68975000D02*
X151475000Y-68975000D01*
X155975000Y-68975000D02*
X155975000Y-64475000D01*
D11*
X151125000Y-63125000D02*
G75*
G02*
X150925000Y-63125000I-100000J0D01*
G01*
X150925000Y-63125000D02*
G75*
G02*
X151125000Y-63125000I100000J0D01*
G01*
%TO.C,R27*%
D10*
X130147936Y-63115000D02*
X130602064Y-63115000D01*
X130147936Y-64585000D02*
X130602064Y-64585000D01*
%TO.C,R5*%
X147022936Y-85765000D02*
X147477064Y-85765000D01*
X147022936Y-87235000D02*
X147477064Y-87235000D01*
%TO.C,C19*%
X140463748Y-70890000D02*
X140986252Y-70890000D01*
X140463748Y-72360000D02*
X140986252Y-72360000D01*
%TO.C,U1*%
D12*
X140500000Y-86750000D02*
X140500000Y-87300000D01*
X140500000Y-86750000D02*
X141050000Y-86750000D01*
X140500000Y-90750000D02*
X140500000Y-90200000D01*
X140500000Y-90750000D02*
X141050000Y-90750000D01*
X143950000Y-86750000D02*
X144500000Y-86750000D01*
X144500000Y-86750000D02*
X144500000Y-87300000D01*
X144500000Y-90200000D02*
X144500000Y-90750000D01*
X144500000Y-90750000D02*
X143950000Y-90750000D01*
D11*
X139700000Y-87650000D02*
G75*
G02*
X139500000Y-87650000I-100000J0D01*
G01*
X139500000Y-87650000D02*
G75*
G02*
X139700000Y-87650000I100000J0D01*
G01*
%TO.C,U6*%
X184525000Y-71850000D02*
X189475000Y-71850000D01*
X184525000Y-77150000D02*
X184525000Y-71850000D01*
X189475000Y-71850000D02*
X189475000Y-77150000D01*
X189475000Y-77150000D02*
X184525000Y-77150000D01*
D12*
X183500000Y-71900000D02*
G75*
G02*
X183300000Y-71900000I-100000J0D01*
G01*
X183300000Y-71900000D02*
G75*
G02*
X183500000Y-71900000I100000J0D01*
G01*
X183623606Y-71900000D02*
G75*
G02*
X183176394Y-71900000I-223606J0D01*
G01*
X183176394Y-71900000D02*
G75*
G02*
X183623606Y-71900000I223606J0D01*
G01*
X183600000Y-71900000D02*
G75*
G02*
X183400000Y-71900000I-100000J0D01*
G01*
X183400000Y-71900000D02*
G75*
G02*
X183600000Y-71900000I100000J0D01*
G01*
X185300000Y-72600000D02*
G75*
G02*
X185100000Y-72600000I-100000J0D01*
G01*
X185100000Y-72600000D02*
G75*
G02*
X185300000Y-72600000I100000J0D01*
G01*
X185341419Y-72600000D02*
G75*
G02*
X185058581Y-72600000I-141419J0D01*
G01*
X185058581Y-72600000D02*
G75*
G02*
X185341419Y-72600000I141419J0D01*
G01*
X185423606Y-72600000D02*
G75*
G02*
X184976394Y-72600000I-223606J0D01*
G01*
X184976394Y-72600000D02*
G75*
G02*
X185423606Y-72600000I223606J0D01*
G01*
X185516225Y-72600000D02*
G75*
G02*
X184883775Y-72600000I-316225J0D01*
G01*
X184883775Y-72600000D02*
G75*
G02*
X185516225Y-72600000I316225J0D01*
G01*
X185300000Y-72700000D02*
G75*
G02*
X185100000Y-72700000I-100000J0D01*
G01*
X185100000Y-72700000D02*
G75*
G02*
X185300000Y-72700000I100000J0D01*
G01*
%TO.C,Q2*%
D10*
X156800000Y-81425000D02*
X156800000Y-85025000D01*
X156800000Y-85025000D02*
X160400000Y-85025000D01*
X160400000Y-81425000D02*
X156800000Y-81425000D01*
X160400000Y-85025000D02*
X160400000Y-81425000D01*
%TO.C,R12*%
X179297936Y-95590000D02*
X179752064Y-95590000D01*
X179297936Y-97060000D02*
X179752064Y-97060000D01*
%TO.C,LED3*%
D11*
X131925000Y-94175000D02*
X131925000Y-96275000D01*
X131925000Y-96275000D02*
X134575000Y-96275000D01*
X134575000Y-94175000D02*
X131925000Y-94175000D01*
%TO.C,R16*%
D10*
X191597936Y-78540000D02*
X192052064Y-78540000D01*
X191597936Y-80010000D02*
X192052064Y-80010000D01*
%TO.C,C9*%
D11*
X168510000Y-99375000D02*
G75*
G02*
X168410000Y-99375000I-50000J0D01*
G01*
X168410000Y-99375000D02*
G75*
G02*
X168510000Y-99375000I50000J0D01*
G01*
%TO.C,R13*%
D10*
X179247936Y-99315000D02*
X179702064Y-99315000D01*
X179247936Y-100785000D02*
X179702064Y-100785000D01*
%TO.C,R25*%
X174947936Y-65515000D02*
X175402064Y-65515000D01*
X174947936Y-66985000D02*
X175402064Y-66985000D01*
%TO.C,C18*%
X140715000Y-68174948D02*
X140715000Y-68697452D01*
X142185000Y-68174948D02*
X142185000Y-68697452D01*
%TO.C,U3*%
D12*
X200000000Y-55882017D02*
X200000000Y-62212017D01*
X200000000Y-75882017D02*
X200000000Y-75752017D01*
X200000000Y-75882017D02*
X218000000Y-75882017D01*
X218000000Y-55882017D02*
X200000000Y-55882017D01*
X218000000Y-62212017D02*
X218000000Y-55882017D01*
X218000000Y-75882017D02*
X218000000Y-75752017D01*
D11*
X198600000Y-61882017D02*
G75*
G02*
X198400000Y-61882017I-100000J0D01*
G01*
X198400000Y-61882017D02*
G75*
G02*
X198600000Y-61882017I100000J0D01*
G01*
%TO.C,F1*%
X149250000Y-95688000D02*
X149250000Y-93312000D01*
%TO.C,Q3*%
D10*
X156800000Y-86425000D02*
X156800000Y-90025000D01*
X156800000Y-90025000D02*
X160400000Y-90025000D01*
X160400000Y-86425000D02*
X156800000Y-86425000D01*
X160400000Y-90025000D02*
X160400000Y-86425000D01*
%TO.C,LED6*%
D11*
X174700000Y-89775000D02*
X174700000Y-92425000D01*
X174700000Y-92425000D02*
X176800000Y-92425000D01*
X176800000Y-92425000D02*
X176800000Y-89775000D01*
%TO.C,R10*%
D10*
X177777064Y-83340000D02*
X177322936Y-83340000D01*
X177777064Y-84810000D02*
X177322936Y-84810000D01*
%TO.C,R17*%
D12*
X141050000Y-60056200D02*
X141050000Y-61936200D01*
X141050000Y-61936200D02*
X141150000Y-62136200D01*
X141150000Y-62136200D02*
X141430000Y-62136200D01*
X143950000Y-62136200D02*
X143670000Y-62136200D01*
X144050000Y-60056200D02*
X144050000Y-61936200D01*
X144050000Y-61936200D02*
X143950000Y-62136200D01*
D11*
X143650000Y-57736200D02*
G75*
G02*
X143450000Y-57736200I-100000J0D01*
G01*
X143450000Y-57736200D02*
G75*
G02*
X143650000Y-57736200I100000J0D01*
G01*
%TO.C,C16*%
D10*
X128813748Y-71140000D02*
X129336252Y-71140000D01*
X128813748Y-72610000D02*
X129336252Y-72610000D01*
%TD*%
M02*
