M48
; DRILL file KiCad 10.0.1 date 2026-06-02T10:42:33
; FORMAT={-:-/ absolute / metric / decimal}
; #@! TF.CreationDate,2026-06-02T10:42:33+02:00
; #@! TF.GenerationSoftware,Kicad,Pcbnew,10.0.1
; #@! TF.FileFunction,Plated,1,4,PTH
FMAT,2
METRIC
; #@! TA.AperFunction,Plated,PTH,ViaDrill
T1C0.300
; #@! TA.AperFunction,Plated,PTH,ViaDrill
T2C0.400
; #@! TA.AperFunction,Plated,PTH,ComponentDrill
T3C0.450
; #@! TA.AperFunction,Plated,PTH,ComponentDrill
T4C0.650
; #@! TA.AperFunction,Plated,PTH,ComponentDrill
T5C0.700
; #@! TA.AperFunction,Plated,PTH,ComponentDrill
T6C1.000
%
G90
G05
T1
X115.325Y-101.875
X115.6Y-72.15
X116.25Y-60.4
X117.235Y-77.285
X117.35Y-88.0
X119.05Y-98.95
X122.0Y-102.4
X122.2Y-108.4
X126.6Y-71.8
X126.65Y-59.05
X127.0Y-108.3
X130.8Y-70.1
X131.25Y-62.45
X132.9Y-62.5
X133.6Y-93.6
X135.55Y-67.95
X137.425Y-64.475
X137.5Y-87.15
X137.629Y-93.072
X138.61Y-93.75
X139.35Y-69.8
X139.454Y-88.631
X139.5Y-87.623
X139.669Y-89.454
X140.85Y-90.95
X140.95Y-108.65
X142.363Y-91.768
X143.2Y-66.8
X143.4Y-71.75
X144.0Y-84.55
X145.75Y-93.5
X145.75Y-94.5
X145.75Y-95.75
X146.214Y-89.045
X146.35Y-106.15
X147.073Y-85.404
X147.191Y-88.958
X148.45Y-90.2
X148.483Y-86.485
X150.3Y-102.35
X150.5Y-96.95
X150.7Y-71.8
X152.05Y-61.35
X152.25Y-95.0
X153.4Y-94.3
X154.036Y-95.631
X154.05Y-72.75
X155.95Y-95.15
X156.7Y-93.45
X156.85Y-71.45
X157.6Y-95.45
X160.05Y-96.2
X161.75Y-82.95
X161.8Y-105.6
X162.15Y-93.1
X162.55Y-95.8
X162.95Y-81.55
X163.4Y-104.55
X165.1Y-65.35
X167.5Y-77.45
X168.1Y-102.0
X169.6Y-96.1
X170.5Y-65.0
X171.35Y-59.95
X172.1Y-98.6
X172.55Y-101.8
X172.8Y-66.6
X173.25Y-60.45
X174.25Y-102.8
X174.8Y-64.8
X175.45Y-59.6
X175.65Y-77.9
X176.15Y-97.15
X176.15Y-102.85
X176.45Y-97.95
X177.107Y-94.907
X177.3Y-100.454
X177.35Y-60.75
X177.771Y-94.171
X178.55Y-59.35
X178.95Y-90.5
X180.0Y-84.15
X180.15Y-62.85
X180.834Y-74.267
X183.25Y-100.5
X188.65Y-107.4
X191.3Y-63.9
X191.35Y-69.95
X191.65Y-71.75
X192.15Y-65.8
X192.8Y-67.2
X195.9Y-71.9
X198.35Y-66.55
X198.5Y-78.677
X198.65Y-73.977
X202.1Y-75.2
X203.95Y-78.65
X206.95Y-79.85
X208.35Y-71.35
X209.8Y-76.473
X212.15Y-64.15
X212.2Y-68.45
X213.75Y-74.0
X213.9Y-69.1
X214.0Y-70.5
X214.45Y-81.3
X215.6Y-72.4
X216.05Y-65.25
X216.075Y-63.325
X218.025Y-103.775
T2
X118.1Y-107.05
X143.2Y-95.6
X193.65Y-64.6
T3
X153.078Y-98.307
X153.478Y-99.017
X153.878Y-98.307
X154.278Y-99.017
X154.678Y-98.307
X155.078Y-99.017
X155.478Y-98.307
X156.278Y-98.307
X156.678Y-99.017
X157.078Y-98.307
X157.478Y-99.017
X157.878Y-98.307
X158.278Y-99.017
X158.678Y-98.307
T5
X124.65Y-60.175
X124.65Y-62.075
T6
X114.85Y-62.515
X114.85Y-65.055
X114.85Y-67.595
X114.85Y-70.135
X114.85Y-77.285
X114.85Y-79.825
X114.85Y-82.365
X114.85Y-84.905
X114.85Y-87.445
T4
G00X151.608Y-99.157
M15
G01X151.608Y-99.757
M16
G05
G00X151.608Y-103.887
M15
G01X151.608Y-104.487
M16
G05
G00X160.148Y-99.157
M15
G01X160.148Y-99.757
M16
G05
G00X160.148Y-103.887
M15
G01X160.148Y-104.487
M16
G05
M30
